<?xml version="1.0" encoding="UTF-8" standalone="no"?>
<svg
   width="897.83124"
   height="1379.6622"
   version="1.1"
   id="svg1"
   sodipodi:docname="walking2.svg"
   inkscape:version="1.3.1 (91b66b0783, 2023-11-16)"
   xmlns:inkscape="http://www.inkscape.org/namespaces/inkscape"
   xmlns:sodipodi="http://sodipodi.sourceforge.net/DTD/sodipodi-0.dtd"
   xmlns:xlink="http://www.w3.org/1999/xlink"
   xmlns="http://www.w3.org/2000/svg"
   xmlns:svg="http://www.w3.org/2000/svg">
  <sodipodi:namedview
     id="namedview1"
     pagecolor="#ffffff"
     bordercolor="#666666"
     borderopacity="1.0"
     inkscape:showpageshadow="2"
     inkscape:pageopacity="0.0"
     inkscape:pagecheckerboard="0"
     inkscape:deskcolor="#d1d1d1"
     inkscape:zoom="0.30566802"
     inkscape:cx="428.56954"
     inkscape:cy="443.29139"
     inkscape:window-width="1280"
     inkscape:window-height="649"
     inkscape:window-x="1912"
     inkscape:window-y="255"
     inkscape:window-maximized="1"
     inkscape:current-layer="svg1" />
  <defs
     id="defs1">
    <linearGradient
       id="imagebot_897">
      <stop
         stop-color="#000000"
         id="imagebot_898"
         offset="0" />
    </linearGradient>
    <linearGradient
       y2="175.03691"
       x2="122.51525"
       y1="153.93178"
       x1="174.56786"
       id="imagebot_7"
       xlink:href="#imagebot_897"
       gradientTransform="scale(1.3507245,0.7403434)"
       gradientUnits="userSpaceOnUse" />
    <linearGradient
       y2="175.0369"
       x2="231.29597"
       y1="153.93178"
       x1="179.24338"
       id="imagebot_5"
       xlink:href="#imagebot_897"
       gradientTransform="scale(1.3507245,0.74034344)"
       gradientUnits="userSpaceOnUse" />
  </defs>
  <metadata
     id="imagebot_896">image/svg+xml</metadata>
  <g
     id="imagebot_31"
     transform="matrix(2.0851,0.115688,0,1.85855,950.06606,-831.45552)">
    <g
       display="inline"
       stroke-width="0.83232"
       stroke-miterlimit="4"
       transform="matrix(3.0748284,-2.2975953,2.0144886,2.7198176,-1604.1601,1030.8093)"
       id="imagebot_107">
      <path
         fill="#e6e6e6"
         fill-rule="nonzero"
         stroke="#000000"
         stroke-width="0.83232"
         stroke-linecap="round"
         stroke-linejoin="round"
         stroke-miterlimit="4"
         stroke-dashoffset="0"
         d="m 292.05742,269.71344 c 0.71197,6.28884 -1.47653,6.25813 1.25787,13.28432 3.77014,1.566 11.07665,0.32554 14.50349,-2.20293 -1.03987,-0.79166 -6.04925,-5.66411 -6.17176,-12.25767 -3.59926,-0.92857 -7.67502,0.0398 -9.5896,1.17628 z"
         id="imagebot_112" />
      <path
         fill="#5f8dd3"
         stroke="#000000"
         stroke-width="0.83232"
         stroke-linecap="round"
         stroke-linejoin="round"
         stroke-miterlimit="4"
         stroke-dashoffset="0"
         d="m 323.1013,289.49558 c 0.15529,-7.82055 -4.37085,-5.98143 -9.14383,-7.87275 -2.514,-0.99619 -6.75897,-2.15595 -7.83027,-5.93618 -5.3988,6.39117 -10.07183,2.73289 -11.66081,1.35054 0,0 -2.1651,-1.63722 -3.52818,-0.93373 -1.42852,2.87306 -2.69571,7.18768 -1.97412,11.18621 5.95924,0.81647 28.93801,2.90976 34.13721,2.20591 z"
         id="imagebot_111" />
      <path
         fill="#cccccc"
         stroke="#000000"
         stroke-width="0.83232"
         stroke-linecap="round"
         stroke-linejoin="round"
         stroke-miterlimit="4"
         stroke-dashoffset="0"
         id="imagebot_110"
         d="m 299.64914,287.04433 -10.99213,-0.3189 c -1.50744,1.58203 -1.67167,4.0773 0.58017,4.79666 l 8.71709,-0.20094 1.4969,-0.99776 c 3.06422,0.94853 22.8574,3.6218 24.06204,-1.19145 -0.52272,-1.42961 -4.45668,-0.0163 -9.58543,0.0112 -4.86177,0.026 -11.27205,-0.79423 -14.27864,-2.09879 z" />
      <path
         fill="#cccccc"
         stroke="#000000"
         stroke-width="0.83232"
         stroke-linecap="round"
         stroke-linejoin="round"
         stroke-miterlimit="4"
         stroke-dashoffset="0"
         id="imagebot_109"
         d="m 317.18384,282.50395 c -1.02527,-0.20439 -2.11918,-0.44238 -3.22637,-0.88112 -2.514,-0.99618 -6.75897,-2.15595 -7.83027,-5.93618 -1.0926,1.18695 -1.91021,2.80355 -3.86669,2.9655 7.80956,9.36972 11.77884,8.79208 14.92333,3.8518 z" />
      <path
         fill="none"
         fill-rule="nonzero"
         stroke="#000000"
         stroke-width="0.83232"
         stroke-linecap="round"
         stroke-linejoin="round"
         stroke-miterlimit="4"
         stroke-dashoffset="0"
         d="m 306.66909,279.83627 3.32661,-2.41936 2.01613,5.64517 2.72177,-3.32661"
         id="imagebot_108" />
    </g>
    <g
       display="inline"
       stroke-width="1.22405"
       stroke-miterlimit="4"
       transform="matrix(2.1874074,1.7259853,1.432487,-1.8749518,475.85963,1157.2133)"
       id="imagebot_101">
      <path
         fill="#deaa87"
         stroke="#000000"
         stroke-width="1.22405"
         stroke-linecap="round"
         stroke-linejoin="round"
         stroke-miterlimit="4"
         stroke-dashoffset="0"
         id="imagebot_106"
         d="m -297.33326,-114.31482 -0.8223,-4.97461 c 2.6925,-0.84754 5.0163,-2.81086 6.2188,-5.60742 2.1916,-5.09674 2.5903,-10.39756 -2.4102,-12.80078 -0.9507,-0.45691 -2.3409,-1.41725 -3.7715,0.94336 -0.2761,-0.91147 -1.471,-1.73453 -2.5644,-1.76563 -0.8504,-0.0242 -1.6382,0.43008 -1.8848,1.69727 -0.832,-2.25344 -3.8165,-1.11794 -4.1054,1.53906 -0.5332,-1.86289 -2.8237,0.28641 -3.7207,2.45117 -2.0139,4.85997 0,12.50557 4.5567,14.93457 l -0.1004,7.79074" />
      <path
         fill="#deaa87"
         fill-rule="nonzero"
         stroke="#000000"
         stroke-width="1.22405"
         stroke-linecap="round"
         stroke-linejoin="round"
         stroke-miterlimit="4"
         stroke-dashoffset="0"
         d="m -301.51302,-127.86767 c 2.4696,3.5064 6.76604,-1.335 3.58959,-8.93845"
         id="imagebot_105" />
      <path
         fill="#deaa87"
         stroke="#000000"
         stroke-width="1.22405"
         stroke-linecap="round"
         stroke-linejoin="round"
         stroke-miterlimit="4"
         stroke-dashoffset="0"
         d="m -293.59572,-126.88149 c -6.78416,3.88657 -9.91106,0.28536 -7.43569,-2.92269 2.08687,-2.70456 10.86302,-4.4069 12.53255,-2.27845 2.2932,2.92354 -2.03011,10.95561 -7.6159,10.82389"
         id="imagebot_104" />
      <path
         fill="#deaa87"
         fill-rule="nonzero"
         stroke="#000000"
         stroke-width="1.22405"
         stroke-linecap="round"
         stroke-linejoin="round"
         stroke-miterlimit="4"
         stroke-dashoffset="0"
         d="m -310.35855,-126.51312 c 2.4696,3.5064 6.76604,-1.335 3.5896,-8.93846"
         id="imagebot_103" />
      <path
         fill="#deaa87"
         fill-rule="nonzero"
         stroke="#000000"
         stroke-width="1.22405"
         stroke-linecap="round"
         stroke-linejoin="round"
         stroke-miterlimit="4"
         stroke-dashoffset="0"
         id="imagebot_102"
         d="m -306.20528,-127.04878 c 2.3062,3.61595 6.82015,-1.02333 3.99571,-8.76445" />
    </g>
    <g
       id="imagebot_94"
       transform="matrix(0.37601217,0.97579285,-0.99362832,0.3828849,-246.39858,-906.37209)">
      <path
         fill="#deaa87"
         stroke="#000000"
         stroke-width="3"
         stroke-linecap="round"
         stroke-linejoin="round"
         stroke-miterlimit="4"
         d="m 1460.3416,521.62823 c 11.0466,0.97592 26.0865,8.90586 24.4993,23.16431 l -5.4266,48.74828 4.8896,31.07608 c 1.1968,7.60661 -2.9291,18.22765 -9.2186,24.53535 -2.821,2.82917 -6.0773,4.79061 -9.4837,5.22312 -5.115,0.64944 -10.3454,-3.9523 -14.5948,-9.80242 -4.8902,-6.73211 -8.4814,-15.11743 -9.1033,-19.05593 -6.6105,-41.86404 5.0196,-42.35967 -2.6098,-75.10735 -2.5308,-10.86299 7.6601,-29.96419 21.0479,-28.78144 z"
         id="imagebot_100" />
      <g
         fill="#eefe64"
         id="imagebot_97"
         transform="matrix(0.68243002,-0.72937532,0.58695627,0.58605264,-306.67194,1511.3501)">
        <path
           fill="#deaa87"
           stroke="#000000"
           stroke-width="0"
           stroke-linecap="round"
           stroke-linejoin="round"
           stroke-miterlimit="4"
           id="imagebot_99"
           d="m 1887.517,944.99461 c -16.2521,-1.18524 -17.6338,-26.88259 -20.9039,-44.83241 -2.4866,-13.64944 -4.2837,-18.85616 -5.558,-28.48994 -2.2802,-17.23871 -4.2468,-34.19804 -1.0632,-43.13987 3.157,-8.86725 18.6285,-13.40924 28.9279,-6.49177 10.5843,7.10878 15.5901,34.93866 15.843,68.82078 0,46.55305 -5.0255,55.02441 -17.2458,54.13321 z" />
        <path
           fill="#deaa87"
           stroke="#000000"
           stroke-width="3"
           stroke-linecap="round"
           stroke-linejoin="round"
           stroke-miterlimit="4"
           id="imagebot_98"
           d="m 1879.7993,941.79012 c -9.0819,-7.55837 -10.4917,-27.18564 -13.141,-41.7278 -2.4867,-13.64943 -4.2837,-18.85616 -5.558,-28.48994 -2.2802,-17.23871 -4.2468,-34.19804 -1.0632,-43.13987 m 28.9279,-6.49177 c 10.5843,7.10878 15.5901,34.93866 15.843,68.82078 0,29.35805 -1.9987,43.57093 -6.54,49.84154" />
      </g>
      <g
         id="imagebot_95"
         transform="translate(42.793719,-72.887919)">
        <path
           fill="#7774b6"
           stroke="#000000"
           stroke-width="2.34175"
           stroke-miterlimit="4"
           id="imagebot_96"
           d="m 1429.599,578.78473 c -5.1283,-0.95573 -9.6009,-0.55462 -12.469,0.36795 -13.3745,4.31885 -17.0641,22.97844 -21.0644,34.32982 -4.2053,11.93621 -5.557,24.26733 -9.1574,36.31106 -0.9716,3.24355 -1.9143,6.51337 -2.4812,9.79526 -0.3672,2.10255 -5.5618,7.58535 -3.8637,8.67343 4.3524,2.78703 12.3614,1.77909 15.6217,2.25658 10.3609,1.50974 20.8336,2.46268 31.6964,1.4686 6.4991,-0.59338 15.5469,1.85209 18.9372,-0.29257 2.3741,-1.50462 0.8287,-5.39551 1.1732,-10.41634 0.5783,-8.4417 3.3927,-16.40452 3.7693,-24.65259 0.6395,-13.88992 1.5774,-31.99133 -2.6809,-44.63838" />
      </g>
    </g>
    <g
       display="inline"
       fill="#ffccaa"
       stroke-width="1.57374"
       stroke-miterlimit="4"
       transform="matrix(2.4601051,0,0,1.4771479,3215.2689,-2219.3049)"
       id="imagebot_90">
      <g
         transform="translate(69.005377,-53.631432)"
         id="imagebot_91">
        <path
           fill="#7774b6"
           fill-rule="nonzero"
           stroke="#000000"
           stroke-width="1.57374"
           stroke-linecap="round"
           stroke-linejoin="round"
           stroke-miterlimit="4"
           stroke-dashoffset="0"
           d="m -1455.6945,2173.6612 c -11.1331,13.7085 -37.2437,14.3863 -49.205,1.1785 -11.9613,-13.2078 -8.4704,-29.7211 -2.357,-45.3047 10.7665,-35.4557 -14.2379,-77.4758 2.9463,-94.145 13.1788,-11.8309 35.3313,-14.533 44.4909,2.357 8.5168,15.7047 20.6807,107.2599 4.1248,135.9142 z"
           id="imagebot_93" />
        <path
           fill="#deaa87"
           fill-rule="nonzero"
           stroke="#000000"
           stroke-width="1.57374"
           stroke-linecap="round"
           stroke-linejoin="round"
           stroke-miterlimit="4"
           stroke-dashoffset="0"
           id="imagebot_92"
           d="m -1489.6642,2033.2534 v -32.2087 c 0,-1.9274 3.9021,-3.479 8.7494,-3.479 4.8471,0 8.7493,1.5516 8.7493,3.479 v 32.2087 c -5.7304,5.8051 -11.5903,4.278 -17.4987,0 z" />
      </g>
    </g>
    <g
       transform="matrix(2.4561194,0,0,2.574953,-2573.5529,243.91304)"
       id="imagebot_53">
      <path
         fill="#deaa87"
         stroke="#000000"
         d="m 967.445,127.658 c -1.544,18.529 -1.184,42.704 -25.059,41.904 -15.985,-0.535 -22.902,-10.787 -25.456,-17.898 -6.739,-7.985 -8.941,-14.202 -9.488,-23.323 -1.404,-23.392 12.401,-33.006 29.495,-33.006 17.093,-10e-4 32.456,8.967 30.508,32.323 z"
         id="imagebot_89" />
      <g
         id="imagebot_87">
        <path
           d="m 915.293,131.003 c 0.055,0.687 0.305,1.534 0.646,2.562 0.273,0.822 0.418,1.762 0.719,2.639 0.313,0.909 -0.64,2.149 -0.449,2.959 0.271,1.145 0.579,1.57 0.239,2.126 -0.554,0.908 -0.864,1.03 -1.67,1.247 -0.796,0.215 -1.566,0.21 -2.506,0.285 -0.94,0.073 -1.803,1.048 -2.637,0.963 -0.845,-0.086 -0.969,-1.114 -1.66,-1.924 -0.412,-0.482 -2.176,-0.665 -2.449,-1.785 -0.2,-0.822 0.025,-1.886 -0.114,-2.832 -0.136,-0.923 -0.229,-1.882 -0.317,-2.749 -0.111,-1.074 -0.108,-2.054 -0.163,-2.747 -0.063,-0.802 -0.515,-1.547 -0.64,-2.348 -0.131,-0.84 -0.272,-1.746 -0.285,-2.51 -0.015,-0.876 0.996,-1.539 1.405,-2.208 0.557,-0.913 0.894,-2.088 1.714,-2.27 0.803,-0.178 1.853,0.61 2.786,0.536 0.936,-0.073 1.773,0.219 2.595,0.269 0.84,0.051 2.255,-0.78 2.95,0.034 0.526,0.618 0.563,2.098 0.385,3.046 -0.144,0.767 -1.796,1.35 -1.948,2.201 -0.149,0.84 1.165,1.701 1.399,2.506 z"
           id="imagebot_88" />
      </g>
      <g
         id="imagebot_77">
        <g
           id="imagebot_82">
          <path
             fill="#deaa87"
             d="m 914.158,128.206 c -2.65,-2.628 -7.688,-2.875 -8.131,0.247 -0.439,3.111 1.166,7.665 1.682,10.676 0.439,2.584 1.236,6.735 2.023,8.665 1.119,2.743 7.313,1.619 7.955,-1.7"
             id="imagebot_86" />
          <g
             id="imagebot_83">
            <path
               fill="none"
               d="m 914.158,128.206 c -2.65,-2.628 -7.688,-2.875 -8.131,0.247 -0.439,3.111 1.166,7.665 1.682,10.676 0.439,2.584 1.236,6.735 2.023,8.665 1.119,2.743 7.313,1.619 7.955,-1.7"
               id="imagebot_85" />
            <path
               fill="#000000"
               d="m 914.322,127.867 c -2.085,-1.837 -6.052,-3.511 -8.274,-0.979 -1.025,1.169 -0.541,3.479 -0.361,4.849 0.352,2.678 1.223,5.275 1.684,7.936 0.494,2.85 0.675,7.824 3.326,9.654 2.467,1.703 6.635,-0.146 7.436,-2.817 0.133,-0.444 -0.751,-1.296 -0.889,-0.836 -0.725,2.417 -3.342,3.338 -5.67,3.043 -2.644,-0.335 -3.046,-7.37 -3.397,-9.394 -0.473,-2.729 -1.315,-5.366 -1.677,-8.119 -0.677,-5.158 4.3,-5.478 7.495,-2.661 0.626,0.554 0.795,-0.263 0.327,-0.676 z"
               id="imagebot_84" />
          </g>
        </g>
        <g
           id="imagebot_78">
          <g
             id="imagebot_79">
            <path
               fill="none"
               d="m 908.711,130.012 c 2.693,-0.192 3.075,7.729 3.075,9.445"
               id="imagebot_81" />
            <path
               fill="#000000"
               d="m 908.914,130.587 c 2.442,0.039 2.436,6.882 2.446,8.597 0.003,0.438 0.858,1.269 0.854,0.546 -0.016,-2.43 -0.031,-10.234 -3.704,-10.293 -0.51,-0.008 -0.058,1.143 0.404,1.15 z"
               id="imagebot_80" />
          </g>
        </g>
      </g>
      <g
         id="imagebot_74">
        <g
           id="imagebot_75">
          <path
             d="m 967.368,144.937 c 0.044,-0.514 -0.475,-1.012 -0.471,-1.472 0.006,-0.532 1.284,-1.114 1.231,-1.554 -0.067,-0.562 -0.079,-1.369 -0.253,-1.739 -0.307,-0.647 -2.302,-1.054 -2.767,-0.655 -0.286,0.246 0.511,1.737 0.176,2.241 -0.248,0.374 -1.655,0.101 -1.927,0.566 -0.239,0.41 1.037,1.721 0.782,2.17 -0.239,0.424 -1.495,0.286 -1.747,0.721 -0.25,0.431 -0.473,0.872 -0.732,1.289 -0.268,0.433 -0.187,1.085 -0.462,1.476 -0.304,0.429 -0.342,1.095 -0.651,1.44 -0.366,0.408 -0.996,0.626 -1.367,0.864 -0.468,0.3 -1.058,-0.155 -1.524,-0.23 -0.419,-0.067 -1.304,0.396 -1.715,-0.058 -0.322,-0.357 -0.9,0.122 -1.354,-0.115 -0.416,-0.217 -0.517,-0.658 -1.016,-0.792 -0.459,-0.123 -0.722,-1.01 -1.229,-1.076 -0.478,-0.062 -0.94,-0.701 -1.441,-0.724 -0.49,-0.022 -1.008,0.587 -1.504,0.592 -0.496,0.005 -0.97,0.433 -1.456,0.456 -0.505,0.023 -0.99,0.059 -1.467,0.088 -0.519,0.032 -1.027,-0.13 -1.489,-0.104 -0.547,0.031 -1.064,-0.155 -1.495,-0.155 -0.506,0 -1.071,0.683 -1.618,0.658 -0.515,-0.024 -1.073,0.392 -1.611,0.364 -0.522,-0.028 -1.026,-0.003 -1.561,-0.019 -0.527,-0.016 -1.021,-1.452 -1.55,-1.44 -0.533,0.011 -1.189,-1.094 -1.712,-1.041 -0.532,0.055 -1.114,0.552 -1.624,0.667 -0.521,0.118 -1.244,0.119 -1.729,0.318 -0.461,0.189 -0.612,2.263 -1.116,2.226 -0.465,-0.034 -0.479,-2.177 -0.969,-2.367 -0.435,-0.17 -0.836,-0.105 -1.281,-0.374 -0.406,-0.246 -1.604,0.654 -2.01,0.345 -0.385,-0.292 -0.055,-1.484 -0.433,-1.816 -0.368,-0.322 -1.932,0.614 -2.287,0.269 -0.356,-0.346 0.271,-1.694 -0.067,-2.047 -0.35,-0.363 -1.047,-0.393 -1.371,-0.749 -0.346,-0.38 -0.699,-0.735 -1.01,-1.086 -0.352,-0.399 -1.22,-0.297 -1.517,-0.634 -0.39,-0.442 -0.296,-1.16 -0.568,-1.436 -0.622,-0.631 -1.821,-0.766 -1.613,0.042 0.137,0.531 1.089,0.812 1.201,1.293 0.125,0.538 2.032,0.671 2.128,1.15 0.11,0.549 -2.394,1.524 -2.319,2 0.087,0.562 0.696,0.943 0.738,1.41 0.053,0.587 0.378,1.03 0.367,1.482 -0.014,0.626 1.191,1.383 1.081,1.79 -0.182,0.657 -1.414,0.723 -1.761,0.954 -0.449,0.301 -0.95,0.59 -1.46,0.534 -0.639,-0.071 -1.195,-0.394 -1.497,-0.307 -0.294,0.084 -0.343,0.384 0.116,1.345 0.174,0.364 -0.212,1.18 0.111,1.738 0.246,0.426 1.146,0.492 1.385,0.955 0.228,0.439 1.097,0.58 1.325,1.045 0.22,0.448 -1.291,1.75 -1.064,2.217 0.218,0.45 1.854,0.218 2.083,0.68 0.224,0.451 -0.284,1.282 -0.046,1.737 0.235,0.447 -0.281,1.341 -0.027,1.787 0.248,0.44 2.147,-0.077 2.418,0.357 0.269,0.429 0.249,1.026 0.542,1.445 0.29,0.415 0.736,0.691 1.056,1.092 0.313,0.396 -0.079,1.405 0.267,1.783 0.342,0.372 1.514,-0.078 1.89,0.272 0.367,0.344 0.022,1.515 0.427,1.834 0.395,0.311 1.392,-0.204 1.823,0.081 0.418,0.275 0.99,0.189 1.447,0.436 0.438,0.237 0.732,0.649 1.21,0.857 0.456,0.199 0.396,1.784 0.889,1.954 0.471,0.162 1.043,0.237 1.549,0.37 0.481,0.126 1.14,-0.323 1.654,-0.226 0.487,0.093 0.934,0.707 1.452,0.772 0.492,0.063 1.039,0.137 1.561,0.173 0.494,0.034 1.063,-1.115 1.585,-1.105 0.497,0.01 0.98,-0.206 1.502,-0.219 0.518,-0.013 1.084,1.305 1.576,1.274 0.518,-0.033 1.002,-0.53 1.492,-0.582 0.513,-0.054 1.006,-0.226 1.492,-0.301 0.51,-0.079 0.756,-1.394 1.237,-1.495 0.505,-0.106 1.449,1.692 1.923,1.562 0.497,-0.136 0.383,-2.166 0.849,-2.327 0.485,-0.169 1.243,0.524 1.697,0.329 0.47,-0.202 1.202,0.148 1.643,-0.082 0.452,-0.236 0.401,-1.328 0.825,-1.593 0.43,-0.269 0.738,-0.629 1.142,-0.927 0.407,-0.299 0.785,-0.558 1.169,-0.884 0.382,-0.327 1.284,-0.063 1.647,-0.415 0.358,-0.35 1.118,-0.351 1.462,-0.726 0.336,-0.369 -0.126,-1.453 0.199,-1.845 0.318,-0.384 0.373,-0.959 0.683,-1.365 0.303,-0.396 1.424,-0.189 1.721,-0.604 0.289,-0.404 1.155,-0.438 1.441,-0.86 0.237,-0.349 -0.868,-1.606 -0.623,-2.097 0.202,-0.404 0.508,-0.771 0.71,-1.253 0.181,-0.43 0.74,-0.729 0.916,-1.208 0.164,-0.445 -0.82,-1.289 -0.662,-1.766 0.15,-0.457 2.178,-0.331 2.319,-0.809 0.139,-0.465 -0.353,-1.126 -0.226,-1.604 0.126,-0.472 -0.321,-1.087 -0.207,-1.563 0.113,-0.478 1.423,-0.693 1.522,-1.168 0.101,-0.485 -0.32,-1.082 -0.238,-1.555 0.087,-0.492 0.991,-0.873 1.056,-1.344 0.066,-0.494 -0.911,-1.121 -0.873,-1.587 z m -8.469,13.692 c 0,1.661 -0.795,2.22 -2.329,2.49 -1.028,0.18 -2.328,-0.084 -3.917,-0.127 -1.184,-0.032 -2.519,-0.002 -3.963,-0.002 -1.223,0 -2.457,0.291 -3.652,0.313 -1.281,0.023 -2.533,0.425 -3.665,0.373 -1.393,-0.066 -2.562,-0.696 -3.52,-1.058 -1.263,-0.476 -2.089,-1.167 -2.138,-2.554 -0.041,-1.164 -0.479,-2.39 -0.163,-3.375 0.285,-0.891 1.231,-1.582 2.567,-2.171 0.789,-0.348 1.793,-0.862 3.147,-1.064 0.933,-0.139 2.055,0.036 3.314,-0.022 0.988,-0.045 2.082,0.21 3.299,0.22 1.194,0.01 2.247,0.036 3.204,0.101 1.249,0.084 2.286,0.134 3.181,0.3 1.357,0.253 2.557,0.079 3.263,0.489 1.193,0.693 1.683,1.86 1.793,2.849 0.113,1 -0.421,2.131 -0.421,3.238 z"
             id="imagebot_76" />
        </g>
      </g>
      <g
         id="imagebot_72">
        <polygon
           points="952.86,87.953 956.417,88.023 959.219,90.256 962.627,91.214 964.702,94.026 966.716,96.745 968.129,99.886 968.318,103.121 968.835,106.28 969.663,109.41 970.46,112.567 970.427,115.811 969.902,119.047 970.613,122.29 969.182,125.912 969.339,129.795 966.546,132.027 966.208,128.532 966.982,125.268 966.868,122.047 966.002,118.898 966.597,115.585 965.807,112.392 963.969,109.605 961.005,108.431 958.065,109.248 954.52,110.739 952.545,113.939 949.487,114.997 945.984,114.704 942.657,113.513 939.594,111.796 936.74,109.612 933.115,109.72 930.052,110.941 927.129,112.478 923.86,113.171 920.886,114.712 918.337,116.989 916.912,120.114 916.386,123.452 917.808,126.487 918.018,129.852 919.756,132.686 920.144,136.012 922.267,138.711 922.695,142.011 923.164,145.225 921.81,146.542 919.192,144.95 917.887,142.059 917.04,139.024 915.534,136.166 915.722,132.891 914.673,129.886 913.918,126.96 912.324,124.144 909.215,125.347 907.168,125.474 905.839,122.201 905.178,118.718 904.676,115.162 906.18,111.752 905.694,108.072 907.504,104.938 908.401,103.031 909.396,100.232 912.056,97.884 913.475,94.543 916.715,92.987 919.033,90.257 922.422,89.251 925.522,87.688 929.059,87.658 932.36,86.708 935.76,85.666 939.23,85.954 942.685,86.24 946.155,86.185 949.485,87.406 "
           id="imagebot_73" />
      </g>
      <g
         id="imagebot_67">
        <path
           fill="#deaa87"
           d="m 944.178,144.417 c -1.046,-2.776 -5.034,-3.044 -5.554,0.23 -0.262,1.629 -0.279,3.333 1.484,3.595 1.244,0.185 3.152,-0.339 4.071,-1.063 0,0 1.882,2.742 4.006,2.686 2.122,-0.056 3.978,-2.686 3.978,-2.686 1.057,0.725 1.451,1.162 1.964,1.063 2.006,-0.383 2.007,-1.965 1.708,-3.595 -0.6,-3.274 -3.721,-3.267 -4.924,-0.492 -0.539,-7.09 -1.495,-8.096 -1.495,-12.451"
           id="imagebot_71" />
        <g
           id="imagebot_68">
          <path
             fill="none"
             d="m 944.178,144.417 c -1.046,-2.776 -5.034,-3.044 -5.554,0.23 -0.262,1.629 -0.279,3.333 1.484,3.595 1.244,0.185 3.152,-0.339 4.071,-1.063 0,0 1.882,2.742 4.006,2.686 2.122,-0.056 3.978,-2.686 3.978,-2.686 1.057,0.725 1.451,1.162 1.964,1.063 2.006,-0.383 2.007,-1.965 1.708,-3.595 -0.6,-3.274 -3.721,-3.267 -4.924,-0.492 -0.539,-7.09 -1.495,-8.096 -1.495,-12.451"
             id="imagebot_70" />
          <path
             fill="#000000"
             d="m 944.553,144.389 c -0.623,-1.276 -1.706,-2.671 -3.299,-2.677 -2.549,-0.01 -3.135,2.089 -3.19,4.279 -0.05,1.918 1.391,2.786 3.084,2.849 0.506,0.019 1.42,-0.193 1.878,-0.381 0.605,-0.249 0.993,-0.899 1.209,-0.62 0.709,0.922 1.598,1.642 2.601,2.216 2.069,1.185 4.167,-0.572 5.457,-2.071 0.322,-0.375 2.996,2.194 3.869,-0.429 1.289,-3.87 -3.031,-8.683 -5.636,-3.871 0.274,0.243 0.549,0.485 0.823,0.728 -0.345,-4.161 -1.443,-8.278 -1.495,-12.451 -0.006,-0.441 -0.884,-1.237 -0.875,-0.51 0.052,4.181 1.149,8.286 1.495,12.45 0.018,0.212 0.56,1.216 0.823,0.728 0.822,-1.519 3.177,-3.528 4.117,-0.099 0.772,2.815 -1.416,3.46 -3.262,2.143 -0.117,-0.083 -0.286,-0.087 -0.375,0.034 -2.102,2.851 -5.129,3.309 -7.392,0.158 -0.097,-0.135 -0.346,-0.334 -0.523,-0.224 -1.369,0.848 -5.337,2.517 -4.813,-1.617 0.326,-2.565 3.595,-2.951 4.753,-0.578 0.267,0.543 1.119,0.698 0.751,-0.057 z"
             id="imagebot_69" />
        </g>
      </g>
      <g
         id="imagebot_63">
        <ellipse
           fill="#814d18"
           stroke="#000000"
           cx="936.745"
           cy="131.291"
           rx="2.5150001"
           ry="2.5539999"
           id="imagebot_66" />
        <ellipse
           cx="936.745"
           cy="131.291"
           rx="1.0779999"
           ry="1.095"
           id="imagebot_65" />
        <ellipse
           fill="#ffffff"
           cx="937.10602"
           cy="131.534"
           rx="0.47400001"
           ry="0.48100001"
           id="imagebot_64" />
      </g>
      <g
         id="imagebot_59">
        <ellipse
           fill="#814d18"
           stroke="#000000"
           cx="958.19897"
           cy="131.286"
           rx="2.516"
           ry="2.5539999"
           id="imagebot_62" />
        <ellipse
           cx="958.198"
           cy="131.286"
           rx="1.0779999"
           ry="1.095"
           id="imagebot_61" />
        <ellipse
           fill="#ffffff"
           cx="958.56"
           cy="131.52901"
           rx="0.47400001"
           ry="0.48100001"
           id="imagebot_60" />
      </g>
      <g
         id="imagebot_54">
        <g
           id="imagebot_55">
          <g
             id="imagebot_56">
            <path
               fill="none"
               d="m 938.191,155.854 c 11.353,1.889 15.138,-0.905 18.408,-1.086"
               id="imagebot_58" />
            <path
               d="m 938.442,156.363 c 3.814,0.595 7.605,0.856 11.444,0.361 2.353,-0.303 4.604,-1.255 6.964,-1.447 0.622,-0.051 -0.065,-1.055 -0.502,-1.02 -1.853,0.151 -3.637,0.787 -5.447,1.175 -4.276,0.917 -8.678,0.58 -12.961,-0.089 -0.572,-0.088 0.078,0.954 0.502,1.02 z"
               id="imagebot_57" />
          </g>
        </g>
      </g>
    </g>
    <path
       fill="#003380"
       fill-rule="nonzero"
       stroke="#000000"
       stroke-width="3"
       stroke-linecap="round"
       stroke-linejoin="round"
       stroke-miterlimit="4"
       stroke-dashoffset="0"
       id="imagebot_52"
       d="m -216.42537,889.31698 c 55.4186,58.76544 72.27417,130.21892 87.98283,189.78912 -9.97705,13.81 -4.99752,16.2551 -40.07844,18.2411 -6.90067,-61.243 -43.93129,-116.41878 -92.51387,-172.72178" />
    <path
       clip-rule="nonzero"
       fill="#003380"
       fill-rule="nonzero"
       stroke="#000000"
       stroke-width="3"
       stroke-linecap="round"
       stroke-linejoin="round"
       stroke-miterlimit="4"
       stroke-dashoffset="0"
       id="imagebot_51"
       d="m -340.55484,867.07053 c -10.59799,19.5804 -5.00499,44.20435 10.59245,60.18779 23.14147,24.3565 62.06793,32.5514 95.59739,24.9582 26.16194,-5.7126 51.02173,-22.3945 59.29212,-46.57924 4.20378,-12.5634 3.87962,-26.86615 -3.08076,-38.56675 -54.13393,11.2884 -108.26757,14.3103 -162.4012,0 z" />
    <g
       display="inline"
       stroke-width="1.06642"
       stroke-miterlimit="4"
       transform="matrix(2.6715442,1.1167938,-1.2456926,2.4415181,3550.1805,-767.57081)"
       id="imagebot_45">
      <path
         fill="#e6e6e6"
         fill-rule="nonzero"
         stroke="#000000"
         stroke-width="1.06642"
         stroke-linecap="round"
         stroke-linejoin="round"
         stroke-miterlimit="4"
         stroke-dashoffset="0"
         d="m -921.21411,1178.8735 c -3.09216,7.7473 -5.61467,6.3478 -6.81751,16.2118 3.40261,4.1681 12.66117,7.2806 18.21664,6.4797 -0.71432,-1.5675 -3.49571,-10.3478 0.47093,-18.0817 -3.6014,-3.3214 -8.9383,-4.7366 -11.87006,-4.6098 z"
         id="imagebot_50" />
      <path
         fill="#5f8dd3"
         stroke="#000000"
         stroke-width="1.06642"
         stroke-linecap="round"
         stroke-linejoin="round"
         stroke-miterlimit="4"
         stroke-dashoffset="0"
         d="m -893.9131,1218.5846 c 3.84664,-12.914 -8.8565,-8.8739 -14.50265,-11.923 -3.13606,-1.6935 -0.40762,-7.8686 0.039,-13.0279 -9.64033,5.3528 -13.68923,-1.3396 -15.00128,-3.7858 0,0 -1.9029,-3.0296 -3.91151,-2.7997 -3.10324,2.8729 -6.68148,7.5977 -7.66111,12.8625 5.12981,6.8454 29.51271,25.0923 41.0375,18.6739 z"
         id="imagebot_49" />
      <path
         fill="#cccccc"
         stroke="#000000"
         stroke-width="1.06642"
         stroke-linecap="round"
         stroke-linejoin="round"
         stroke-miterlimit="4"
         stroke-dashoffset="0"
         id="imagebot_48"
         d="m -921.39065,1205.9989 -13.02754,-6.3521 c -2.66943,1.0813 -4.22168,3.9887 -1.90803,6.0755 l 10.57781,4.4921 2.3395,-0.3854 c 3.16478,2.8031 6.97831,15.348 29.9702,8.9688 0.14855,-3.7291 -6.25211,-1.4568 -14.43525,-1.9023 -8.01602,-0.4364 -10.61433,-7.6975 -13.51661,-10.8968 z" />
      <path
         fill="#cccccc"
         stroke="#000000"
         stroke-width="1.06642"
         stroke-linecap="round"
         stroke-linejoin="round"
         stroke-miterlimit="4"
         stroke-dashoffset="0"
         id="imagebot_47"
         d="m -900.50294,1208.6171 c -1.17837,-0.2919 -2.76576,-0.2294 -3.52216,-1.2322 -3.15066,-4.177 -5.83984,-8.8238 -4.28356,-13.8291 -2.35361,1.5401 -3.8199,2.5722 -6.49989,2.7425 1.35709,10.0348 6.34066,18.7599 14.30561,12.3188 z" />
      <path
         fill="none"
         fill-rule="nonzero"
         stroke="#000000"
         stroke-width="1.06642"
         stroke-linecap="round"
         stroke-linejoin="round"
         stroke-miterlimit="4"
         stroke-dashoffset="0"
         d="m -910.557,1199.4422 6.11953,0.4685 -5.10548,5.4985 6.6765,-0.6045"
         id="imagebot_46" />
    </g>
    <path
       fill="#003380"
       fill-rule="nonzero"
       stroke="#000000"
       stroke-width="3"
       stroke-linecap="round"
       stroke-linejoin="round"
       stroke-miterlimit="4"
       stroke-dashoffset="0"
       id="imagebot_44"
       d="m -323.37801,921.13792 c -0.82802,60.4245 3.43989,129.23758 -76.15087,167.22388 11.42423,12.4245 2.39802,20.7376 37.22934,21.5495 50.42438,-40.5809 98.13851,-89.0486 89.95055,-168.28278" />
    <path
       fill="#7774b6"
       stroke="#000000"
       stroke-width="2.72746"
       stroke-miterlimit="4"
       id="imagebot_43"
       d="m -164.13249,880.62076 c -27.53771,16.20143 -48.64806,29.8162 -86.42021,28.35071 -51.60764,-2.0047 -81.39205,-3.73491 -102.81087,-18.40682 35.87397,-59.96291 8.25237,-99.96892 7.20741,-143.62203 -0.0544,-29.13112 18.96595,-53.06469 62.16467,-54.93949 0,0 0.0492,12.62791 27.31241,14.53999 28.30071,1.98156 22.53461,-15.42245 22.53461,-15.42245 28.81195,-0.0958 40.39855,23.17521 45.94341,39.39786 26.66927,78.0268 24.56538,124.02213 24.06857,150.10223 z" />
    <g
       transform="rotate(8.59761,-362.03101,746.45695)"
       id="imagebot_32">
      <g
         display="inline"
         stroke-width="1.22405"
         stroke-miterlimit="4"
         id="imagebot_40"
         transform="matrix(-1.9916926,-2.0588923,-2.0464233,1.9796306,-1072.9964,289.22799)">
        <path
           fill="#deaa87"
           stroke="#000000"
           stroke-width="1.22405"
           stroke-linecap="round"
           stroke-linejoin="round"
           stroke-miterlimit="4"
           stroke-dashoffset="0"
           d="m -328.23295,-114.81347 -1.5664,-4.79297 c 2.5335,-1.24517 4.5333,-3.53778 5.2989,-6.48438 1.395,-5.36971 0.9882,-10.67222 -4.3184,-12.29101 -0.3783,-0.11541 -0.8283,-0.29181 -1.2988,-0.33203 -0.7843,-0.067 -1.6266,0.24419 -2.2871,1.83789 -0.7305,-1.52749 -4.2915,-2.34288 -4.4102,0.60547 -1.1634,-2.10157 -3.9407,-0.52756 -3.8242,2.14257 -0.809,-1.76074 -2.7476,0.70882 -3.3067,2.98438 -1.2551,5.1087 1.5169,10.28206 6.3848,11.99414 l -0.6758,4.96484"
           id="imagebot_42" />
        <path
           fill="#deaa87"
           stroke="#000000"
           stroke-width="1.22405"
           stroke-linecap="round"
           stroke-linejoin="round"
           stroke-miterlimit="4"
           stroke-dashoffset="0"
           d="m -325.11889,-130.02972 c -0.76663,-1.85281 -0.15971,-6.34604 2.92919,-3.68553 2.8153,2.42486 -0.34874,11.13665 -5.89013,11.85179"
           id="imagebot_41" />
      </g>
      <g
         id="imagebot_33"
         transform="matrix(1.0457326,0,0,1.0648465,-2189.8794,209.48705)">
        <g
           id="imagebot_34"
           transform="matrix(0.60223274,-0.78399079,0.81291227,0.60223274,263.21906,1483.0776)">
          <path
             fill="#deaa87"
             stroke="#000000"
             stroke-width="3"
             stroke-linecap="round"
             stroke-linejoin="round"
             stroke-miterlimit="4"
             d="m 1713.545,592.15306 c 11.0466,0.97592 26.0865,8.90586 24.4993,23.16431 l -5.4266,48.74828 4.8896,31.07607 c 1.1968,7.60661 -2.9291,18.22765 -9.2186,24.53535 -2.821,2.82917 -6.0773,4.79061 -9.4837,5.22312 -5.115,0.64944 -10.3454,-3.9523 -14.5948,-9.80242 -4.8902,-6.73211 -8.4814,-15.11743 -9.1033,-19.05593 -6.6105,-41.86403 5.0196,-42.35966 -2.6098,-75.10734 -2.5308,-10.86299 7.6601,-29.96419 21.0479,-28.78144 z"
             id="imagebot_39" />
          <g
             fill="#eefe64"
             id="imagebot_36"
             transform="matrix(0.220998,-0.97409393,0.80250235,0.20967913,635.40005,2360.4721)">
            <path
               fill="#deaa87"
               stroke="#000000"
               stroke-width="0"
               stroke-linecap="round"
               stroke-linejoin="round"
               stroke-miterlimit="4"
               id="imagebot_38"
               d="m 1887.517,944.99461 c -16.2521,-1.18524 -17.6338,-26.88259 -20.9039,-44.83241 -2.4866,-13.64944 -4.2837,-18.85616 -5.558,-28.48994 -2.2802,-17.23871 -4.2468,-34.19804 -1.0632,-43.13987 3.157,-8.86725 18.6285,-13.40924 28.9279,-6.49177 10.5843,7.10878 15.5901,34.93866 15.843,68.82078 0,46.55305 -5.0255,55.02441 -17.2458,54.13321 z" />
            <path
               fill="#deaa87"
               stroke="#000000"
               stroke-width="3"
               stroke-linecap="round"
               stroke-linejoin="round"
               stroke-miterlimit="4"
               id="imagebot_37"
               d="m 1879.7993,941.79012 c -9.0819,-7.55837 -10.4917,-27.18564 -13.141,-41.7278 -2.4867,-13.64943 -4.2837,-18.85616 -5.558,-28.48994 -2.2802,-17.23871 -4.2468,-34.19804 -1.0632,-43.13987 m 28.9279,-6.49177 c 10.5843,7.10878 15.5901,34.93866 15.843,68.82078 0,29.35805 -1.9987,43.57093 -6.54,49.84154" />
          </g>
          <path
             fill="#7774b6"
             stroke="#000000"
             stroke-width="2.34175"
             stroke-miterlimit="4"
             d="m 1723.5943,576.42164 c -5.1283,-0.95573 -9.6009,-0.55462 -12.469,0.36795 -13.3745,4.31885 -17.0641,22.97844 -21.0644,34.32982 -4.2053,11.93621 -5.557,24.26733 -9.1574,36.31106 -0.9716,3.24355 -1.9143,6.51337 -2.4812,9.79526 -0.3672,2.10255 -5.5618,7.58535 -3.8637,8.67343 4.3524,2.78703 12.3614,1.77909 15.6217,2.25658 10.3609,1.50974 20.8336,2.46268 31.6964,1.4686 6.4991,-0.59338 15.5469,1.85209 18.9372,-0.29257 2.3741,-1.50462 0.8287,-5.39551 1.1732,-10.41634 0.5783,-8.4417 3.3927,-16.40452 3.7693,-24.65259 0.6395,-13.88992 1.5774,-31.99133 -2.6809,-44.63838"
             id="imagebot_35" />
        </g>
      </g>
    </g>
  </g>
  <g
     id="imagebot_17"
     transform="matrix(2.13915,0,0,1.74912,-567.67763,-224.10421)">
    <g
       transform="matrix(2.4561194,0,0,2.574953,-1951.2786,40.254385)"
       id="imagebot_26">
      <path
         fill="#ffffff"
         d="m 982.384,82.879 c -0.385,1.707 -3.328,4.669 -7.432,4.669 -4.103,0 -6.789,-2.41 -7.431,-4.669 0.484,-1.833 3.328,-4.67 7.431,-4.67 4.104,0 6.889,2.838 7.432,4.67 z"
         id="imagebot_30" />
      <g
         id="imagebot_27">
        <path
           fill="none"
           d="m 982.384,82.879 c -0.385,1.707 -3.328,4.669 -7.432,4.669 -4.103,0 -6.789,-2.41 -7.431,-4.669 0.484,-1.833 3.328,-4.67 7.431,-4.67 4.104,0 6.889,2.838 7.432,4.67 z"
           id="imagebot_29" />
        <path
           fill="#000000"
           d="m 981.917,82.487 c -1.794,5.564 -11.239,6.139 -13.776,0.954 -0.871,-1.78 3.546,-3.95 4.513,-4.31 3.308,-1.234 8,0.256 9.295,3.71 0.179,0.475 1.159,0.846 0.871,0.077 -1.129,-3.007 -4.132,-4.7 -7.166,-5.183 -2.647,-0.42 -8.466,1.435 -8.62,4.854 -0.125,2.784 4.16,4.806 6.232,5.293 3.512,0.826 8.398,-0.932 9.585,-4.61 0.142,-0.441 -0.779,-1.262 -0.934,-0.785 z"
           id="imagebot_28" />
      </g>
    </g>
    <g
       transform="matrix(2.4561194,0,0,2.574953,-1954.5121,40.254385)"
       id="imagebot_21">
      <path
         fill="#ffffff"
         d="m 1003.457,82.879 c -0.383,1.707 -3.327,4.669 -7.431,4.669 -4.102,0 -6.789,-2.41 -7.43,-4.669 0.482,-1.833 3.328,-4.67 7.43,-4.67 4.103,0 6.887,2.838 7.431,4.67 z"
         id="imagebot_25" />
      <g
         id="imagebot_22">
        <path
           fill="none"
           d="m 1003.457,82.879 c -0.383,1.707 -3.327,4.669 -7.431,4.669 -4.102,0 -6.789,-2.41 -7.43,-4.669 0.482,-1.833 3.328,-4.67 7.43,-4.67 4.103,0 6.887,2.838 7.431,4.67 z"
           id="imagebot_24" />
        <path
           fill="#000000"
           d="m 1003.058,82.475 c -1.76,5.475 -10.266,5.73 -13.471,1.662 -1.756,-2.228 2.668,-4.431 4.091,-4.961 3.259,-1.215 8.115,0.278 9.402,3.706 0.215,0.571 1.047,0.783 0.752,-0.003 -1.135,-3.023 -3.989,-4.712 -7.068,-5.201 -2.692,-0.428 -8.416,1.488 -8.586,4.917 -0.141,2.833 3.991,4.85 6.139,5.354 3.525,0.829 8.359,-0.998 9.538,-4.664 0.134,-0.416 -0.61,-1.389 -0.797,-0.81 z"
           id="imagebot_23" />
      </g>
    </g>
    <g
       transform="matrix(2.4561194,0,0,2.574953,-1954.5219,35.389415)"
       id="imagebot_18">
      <path
         d="m 967.036,76.111 c 0.007,-0.411 -0.022,-0.805 -0.063,-1.231 -0.103,-1.07 -0.861,-2.493 -0.334,-2.573 1.6,-0.242 3.221,-0.379 4.828,-0.154 2.186,0.308 3.885,0.413 6.039,0.94 1.608,0.393 2.77,0.502 4.254,0.525 0.296,0.004 1.661,-0.229 1.93,-0.044 0.327,0.225 -0.015,0.887 0,1.268 0.04,0.938 0.135,2.258 0,3.147 -0.066,0.447 -3.446,-0.734 -3.772,-0.791 -1.052,-0.185 -2.713,-0.378 -3.77,-0.52 -2.19,-0.293 -3.038,-0.393 -5.576,-0.437 -0.538,-0.01 -1.588,0.04 -2.109,0.262 -0.47,0.2 -1.594,1.703 -1.45,0.081 0.013,-0.162 0.021,-0.318 0.023,-0.473 z"
         id="imagebot_20" />
      <path
         d="m 1002.697,76.111 c -0.01,-0.411 0.023,-0.805 0.063,-1.231 0.102,-1.07 0.851,-2.493 0.329,-2.573 -1.581,-0.242 -3.186,-0.379 -4.774,-0.154 -2.162,0.308 -3.844,0.413 -5.974,0.94 -1.592,0.393 -2.74,0.502 -4.209,0.525 -0.291,0.004 -1.644,-0.229 -1.908,-0.044 -0.323,0.225 0.017,0.887 0,1.268 -0.04,0.938 -0.132,2.258 0,3.147 0.065,0.447 3.409,-0.734 3.731,-0.791 1.041,-0.185 2.683,-0.378 3.729,-0.52 2.165,-0.293 3.006,-0.393 5.516,-0.437 0.531,-0.01 1.57,0.04 2.086,0.262 0.465,0.2 1.576,1.703 1.436,0.081 -0.015,-0.162 -0.022,-0.318 -0.025,-0.473 z"
         id="imagebot_19" />
    </g>
  </g>
  <g
     id="imagebot_8"
     transform="matrix(2.2306324,-0.0208681,0.01860067,1.988263,-838.87366,-190.51215)">
    <g
       transform="matrix(2.4561194,0,0,2.574953,-1595.6221,-2.7334432)"
       id="imagebot_13">
      <circle
         fill="#814d18"
         stroke="#000000"
         id="imagebot_16"
         r="2.5539999"
         cy="83.013"
         cx="870.71301" />
      <circle
         id="imagebot_15"
         r="1.095"
         cy="83.013"
         cx="870.71301" />
      <circle
         fill="#ffffff"
         id="imagebot_14"
         r="0.48100001"
         cy="83.255997"
         cx="871.08002" />
    </g>
    <g
       transform="matrix(2.4561194,0,0,2.574953,-1605.6221,-2.5995406)"
       id="imagebot_9">
      <circle
         fill="#814d18"
         stroke="#000000"
         id="imagebot_12"
         r="2.5539999"
         cy="82.960999"
         cx="894.65002" />
      <circle
         id="imagebot_11"
         r="1.095"
         cy="82.960999"
         cx="894.65002" />
      <circle
         fill="#ffffff"
         id="imagebot_10"
         r="0.47999999"
         cy="83.204002"
         cx="895.01703" />
    </g>
  </g>
</svg>
