<svg xmlns="http://www.w3.org/2000/svg" width="337" height="519" viewBox="0 0 337 519"><g style="fill: black; stroke: none;"><circle r="3.00" cx="61.60" cy="361.20"></circle><circle r="3.00" cx="61.60" cy="383.60"></circle><circle r="3.00" cx="61.60" cy="406.00"></circle><circle r="3.00" cx="61.60" cy="428.40"></circle><circle r="3.00" cx="61.60" cy="450.80"></circle><circle r="3.00" cx="61.60" cy="473.20"></circle><circle r="3.00" cx="61.60" cy="495.60"></circle></g><rect width="224.00" height="168.00" x="56.00" y="154.00" style="fill: none; stroke: black; stroke-width: 2px;"></rect><g style="font-family: &quot;Noto Sans&quot;, &quot;Open Sans&quot;, &quot;Droid Sans&quot;, Oxygen, sans-serif; font-size: 20px;"><g style="text-anchor: middle; dominant-baseline: middle;"><text x="168.00" y="238.00">[Illustration]</text></g><g style="font-family: &quot;Noto Serif&quot;, &quot;Open Serif&quot;, &quot;Droid Serif&quot;, serif; font-size: 18px;"><g transform="translate(0.00 -128.80)" style="text-anchor: middle; dominant-baseline: middle;"><text x="168.00" y="238.00">234 Arezzo Avenue</text></g><g transform="translate(0.00 -106.40)" style="text-anchor: middle; dominant-baseline: middle;"><text x="168.00" y="238.00">Sherwood Park</text></g><g transform="translate(-95.20 123.20)" style="text-anchor: start; dominant-baseline: middle;"><text x="168.00" y="238.00">Fine Italian Dining</text></g><g transform="translate(-95.20 145.60)" style="text-anchor: start; dominant-baseline: middle; fill: rgb(0, 101, 254); text-decoration: underline;"><text x="168.00" y="238.00">Daily Specials</text></g><g transform="translate(-95.20 168.00)" style="text-anchor: start; dominant-baseline: middle;"><text x="168.00" y="238.00">Licensed</text></g><g transform="translate(-95.20 190.40)" style="text-anchor: start; dominant-baseline: middle;"><text x="168.00" y="238.00">Banquet Room</text></g><g transform="translate(-95.20 212.80)" style="text-anchor: start; dominant-baseline: middle;"><text x="168.00" y="238.00">Open Daily Until 11 pm</text></g><g transform="translate(-95.20 235.20)" style="text-anchor: start; dominant-baseline: middle;"><text x="168.00" y="238.00">Eat In, Take Out, Delivery</text></g><g transform="translate(-95.20 257.60)" style="text-anchor: start; dominant-baseline: middle;"><text x="168.00" y="238.00">Call 780.555.1234</text></g><g style="font-weight: bold; font-size: 24px;"><g transform="translate(0.00 -201.60)" style="text-anchor: middle; dominant-baseline: middle; font-size: 32px;"><text x="168.00" y="238.00">A Taste of Tuscany</text></g><g transform="translate(0.00 -168.00)" style="text-anchor: middle; dominant-baseline: middle;"><text x="168.00" y="238.00">Italian Restaurant</text></g></g></g></g></svg>