<?xml version="1.0" encoding="UTF-8" standalone="no"?>
<!-- Created with Inkscape (http://www.inkscape.org/) -->

<svg
   version="1.1"
   id="svg2"
   width="315.26666"
   height="315.32001"
   viewBox="0 0 315.26666 315.32001"
   sodipodi:docname="biohazardous.eps"
   xmlns:inkscape="http://www.inkscape.org/namespaces/inkscape"
   xmlns:sodipodi="http://sodipodi.sourceforge.net/DTD/sodipodi-0.dtd"
   xmlns="http://www.w3.org/2000/svg"
   xmlns:svg="http://www.w3.org/2000/svg">
  <defs
     id="defs6" />
  <sodipodi:namedview
     id="namedview4"
     pagecolor="#ffffff"
     bordercolor="#000000"
     borderopacity="0.25"
     inkscape:showpageshadow="2"
     inkscape:pageopacity="0.0"
     inkscape:pagecheckerboard="0"
     inkscape:deskcolor="#d1d1d1" />
  <g
     id="g8"
     inkscape:groupmode="layer"
     inkscape:label="ink_ext_XXXXXX"
     transform="matrix(1.3333333,0,0,-1.3333333,0,315.32)">
    <g
       id="g10"
       transform="scale(0.1)">
      <path
         d="M 1189.4,118.762 C 606.824,119.621 132.301,595.422 132.828,1177.63 133.535,1761.96 610.629,2237.55 1194.06,2235.41 1776.68,2233.34 2250.45,1756.9 2248.66,1174.77 2246.9,591.449 1771.57,117.742 1189.4,118.762"
         style="fill:#ffffff;fill-opacity:1;fill-rule:evenodd;stroke:none"
         id="path12" />
      <path
         d="M 1180.7,0 C 528.762,0.550781 0,530.129 0,1182.4 0,1836.05 530.082,2365.45 1183.92,2364.85 1837.14,2364.26 2366,1833.04 2364.53,1179.05 2363.1,527.109 1833.22,-0.589844 1180.7,0"
         style="fill:#231f20;fill-opacity:1;fill-rule:evenodd;stroke:none"
         id="path14" />
      <path
         d="M 1186.12,162.629 C 627.559,163.449 172.574,619.648 173.082,1177.89 c 0.672,560.25 458.109,1016.24 1017.508,1014.19 558.62,-1.99 1012.87,-458.8 1011.16,-1016.95 C 2200.07,615.852 1744.31,161.66 1186.12,162.629"
         style="fill:#ffffff;fill-opacity:1;fill-rule:evenodd;stroke:none"
         id="path16" />
      <path
         d="m 1303.13,1089.83 c 78.61,97.2 176.84,138.05 296.72,98.04 118.33,-39.62 170.8,-132.04 179.89,-253.339 12.04,77.189 0.73,149.249 -37.5,216.179 -54.69,95.29 -138.7,149.76 -247.03,170.68 32.71,91.91 32.54,179.67 -7.21,265.91 -39.21,85.51 -128.82,166.42 -189.9,171.62 99.85,-60.03 153.96,-146.78 136.96,-264.07 -19.35,-134.17 -106.58,-204.85 -238.14,-225.38 -4.38,-28.21 -5.94,-50.21 27.72,-65.48 16.23,-7.41 32.8,-36.11 31.8,-54.12 -1.94,-36.48 16.09,-49.87 46.69,-60.04"
         style="fill:#ffffff;fill-opacity:1;fill-rule:evenodd;stroke:none"
         id="path18" />
      <path
         d="m 1079.67,1062.12 c 43.01,-113.78 31.26,-217.39 -59.19,-301.249 -89.511,-82.973 -193.925,-87.223 -303.273,-38.34 123.902,-112.429 310.363,-90.261 462.573,52.528 167.81,-146.918 352.51,-168.418 472.33,-54.899 -241.08,-123.988 -469.86,116.039 -367.4,342.35 -22.29,16.59 -41.42,31.88 -72.9,9.9 -13.91,-9.68 -45.91,-9.22 -60.17,0.56 -29.7,20.3 -48.77,10.46 -71.97,-10.85"
         style="fill:#ffffff;fill-opacity:1;fill-rule:evenodd;stroke:none"
         id="path20" />
      <path
         d="m 585.785,935.488 c 6.32,124.642 60.879,218.112 181.516,257.022 120.703,38.99 220.179,-3.37 295.959,-101.34 28.14,11.31 47.35,22.68 44.54,58.42 -1.4,17.18 13.66,44.11 29.04,52.42 31.03,16.73 32.74,38.05 25.25,67.83 -122.53,19.38 -207.988,84.92 -232.524,210.11 -22.882,116.97 25.516,207.77 122.014,275.3 -61.521,-20.98 -108.76,-60.34 -145.459,-112.43 -68.793,-97.95 -78.441,-204.84 -41.656,-316.57 -213.117,-74.01 -308.977,-208.1 -278.68,-390.762"
         style="fill:#ffffff;fill-opacity:1;fill-rule:evenodd;stroke:none"
         id="path22" />
      <path
         d="m 1055.06,850.051 c 6.48,21.449 14.22,40.09 17.18,59.64 1.24,8.149 -5.16,21.598 -12.33,26.239 -72.847,47.519 -112.16,113.53 -117.683,200.66 -0.563,10.11 -11.188,23.75 -20.567,28 -16.531,7.52 -35.719,9.01 -53.894,13.06 -24.332,-128.09 54.714,-267.568 187.294,-327.599"
         style="fill:#ffffff;fill-opacity:1;fill-rule:evenodd;stroke:none"
         id="path24" />
      <path
         d="m 1495.95,1173.96 c -16.22,-3.61 -32.46,-7.67 -48.72,-10.81 -18.12,-3.33 -25.62,-12.37 -26.35,-31.87 -3.35,-86 -43.37,-151.069 -114.77,-198.479 -7.83,-5.11 -14.67,-19.75 -13.52,-28.77 2.62,-19.293 10.86,-37.859 16.88,-57.043 129.69,53.141 215.89,205.792 186.48,326.972"
         style="fill:#ffffff;fill-opacity:1;fill-rule:evenodd;stroke:none"
         id="path26" />
      <path
         d="m 1370.19,1396.2 c -108.15,86.2 -292.67,84.23 -376.428,-1.65 12.078,-12.93 22.778,-27.98 37.018,-38.09 8.57,-6.01 25.26,-9.33 33.98,-5.05 78.18,38.14 155.03,38.38 233.02,-0.44 8.25,-4.02 23.96,-2.16 31.6,3.39 14.74,10.97 26.27,26.51 40.81,41.84"
         style="fill:#ffffff;fill-opacity:1;fill-rule:evenodd;stroke:none"
         id="path28" />
      <path
         d="m 1303.13,1089.83 c -30.6,10.17 -48.63,23.56 -46.69,60.04 1,18.01 -15.57,46.71 -31.8,54.12 -33.66,15.27 -32.1,37.27 -27.72,65.48 131.56,20.53 218.79,91.21 238.14,225.38 17,117.29 -37.11,204.04 -136.96,264.07 61.08,-5.2 150.69,-86.11 189.9,-171.62 39.75,-86.24 39.92,-174 7.21,-265.91 108.33,-20.92 192.34,-75.39 247.03,-170.68 38.23,-66.93 49.54,-138.99 37.5,-216.179 -9.09,121.299 -61.56,213.719 -179.89,253.339 -119.88,40.01 -218.11,-0.84 -296.72,-98.04"
         style="fill:#231f20;fill-opacity:1;fill-rule:evenodd;stroke:none"
         id="path30" />
      <path
         d="m 1079.67,1062.12 c 23.2,21.31 42.27,31.15 71.97,10.85 14.26,-9.78 46.26,-10.24 60.17,-0.56 31.48,21.98 50.61,6.69 72.9,-9.9 C 1182.25,836.199 1411.03,596.172 1652.11,720.16 1532.29,606.641 1347.59,628.141 1179.78,775.059 1027.57,632.27 841.109,610.102 717.207,722.531 c 109.348,-48.883 213.762,-44.633 303.273,38.34 90.45,83.859 102.2,187.469 59.19,301.249"
         style="fill:#231f20;fill-opacity:1;fill-rule:evenodd;stroke:none"
         id="path32" />
      <path
         d="m 585.785,935.488 c -30.297,182.662 65.563,316.752 278.68,390.762 -36.785,111.73 -27.137,218.62 41.656,316.57 36.699,52.09 83.938,91.45 145.459,112.43 -96.498,-67.53 -144.896,-158.33 -122.014,-275.3 24.536,-125.19 109.994,-190.73 232.524,-210.11 7.49,-29.78 5.78,-51.1 -25.25,-67.83 -15.38,-8.31 -30.44,-35.24 -29.04,-52.42 2.81,-35.74 -16.4,-47.11 -44.54,-58.42 -75.78,97.97 -175.256,140.33 -295.959,101.34 C 646.664,1153.6 592.105,1060.13 585.785,935.488"
         style="fill:#231f20;fill-opacity:1;fill-rule:evenodd;stroke:none"
         id="path34" />
      <path
         d="m 1055.06,850.051 c -132.58,60.031 -211.626,199.509 -187.294,327.599 18.175,-4.05 37.363,-5.54 53.894,-13.06 9.379,-4.25 20.004,-17.89 20.567,-28 5.523,-87.13 44.836,-153.141 117.683,-200.66 7.17,-4.641 13.57,-18.09 12.33,-26.239 -2.96,-19.55 -10.7,-38.191 -17.18,-59.64"
         style="fill:#231f20;fill-opacity:1;fill-rule:evenodd;stroke:none"
         id="path36" />
      <path
         d="m 1495.95,1173.96 c 29.41,-121.18 -56.79,-273.831 -186.48,-326.972 -6.02,19.184 -14.26,37.75 -16.88,57.043 -1.15,9.02 5.69,23.66 13.52,28.77 71.4,47.41 111.42,112.479 114.77,198.479 0.73,19.5 8.23,28.54 26.35,31.87 16.26,3.14 32.5,7.2 48.72,10.81"
         style="fill:#231f20;fill-opacity:1;fill-rule:evenodd;stroke:none"
         id="path38" />
      <path
         d="m 1370.19,1396.2 c -14.54,-15.33 -26.07,-30.87 -40.81,-41.84 -7.64,-5.55 -23.35,-7.41 -31.6,-3.39 -77.99,38.82 -154.84,38.58 -233.02,0.44 -8.72,-4.28 -25.41,-0.96 -33.98,5.05 -14.24,10.11 -24.94,25.16 -37.018,38.09 83.758,85.88 268.278,87.85 376.428,1.65"
         style="fill:#231f20;fill-opacity:1;fill-rule:evenodd;stroke:none"
         id="path40" />
    </g>
  </g>
</svg>
