<?xml version="1.0" encoding="UTF-8" standalone="no"?>
<!-- Created with Inkscape (http://www.inkscape.org/) -->

<svg
   version="1.1"
   id="svg2"
   width="367.22668"
   height="367.22668"
   viewBox="0 0 367.22668 367.22668"
   sodipodi:docname="corrosion.eps"
   xmlns:inkscape="http://www.inkscape.org/namespaces/inkscape"
   xmlns:sodipodi="http://sodipodi.sourceforge.net/DTD/sodipodi-0.dtd"
   xmlns="http://www.w3.org/2000/svg"
   xmlns:svg="http://www.w3.org/2000/svg">
  <defs
     id="defs6" />
  <sodipodi:namedview
     id="namedview4"
     pagecolor="#ffffff"
     bordercolor="#000000"
     borderopacity="0.25"
     inkscape:showpageshadow="2"
     inkscape:pageopacity="0.0"
     inkscape:pagecheckerboard="0"
     inkscape:deskcolor="#d1d1d1" />
  <g
     id="g8"
     inkscape:groupmode="layer"
     inkscape:label="ink_ext_XXXXXX"
     transform="matrix(1.3333333,0,0,-1.3333333,0,367.22667)">
    <g
       id="g10"
       transform="scale(0.1)">
      <path
         d="M 2568.95,1377.25 1369.18,177.469 169.41,1377.25 1369.18,2577.01 2568.95,1377.25"
         style="fill:#ffffff;fill-opacity:1;fill-rule:nonzero;stroke:none"
         id="path12" />
      <path
         d="m 863.516,1313.78 c -42.559,0 -68.504,14.74 -80.782,38.77 H 476.672 v -139.89 h 762.708 v 139.89 H 962.07 c -18.867,-24.18 -55.625,-38.77 -98.554,-38.77"
         style="fill:#100f0d;fill-opacity:1;fill-rule:nonzero;stroke:none"
         id="path14" />
      <path
         d="m 933.926,1365.57 c 12.441,0 30.293,6.01 44.66,34.74 3.269,6.56 3.934,14.9 4.656,23.74 0.379,4.61 1.004,12.01 2.071,14.81 1.367,0.94 4.542,2.35 6.796,3.33 8.461,3.7 20.041,8.76 26.131,20.94 3.39,6.81 4.4,13.53 4.41,19.96 0,4.81 -0.57,9.46 -1.11,13.86 -0.54,4.6 -1.07,9.04 -1.07,13.66 0,1.56 0.06,3.14 0.2,4.76 0.69,8.03 14.79,25.45 27.52,36.67 l -19.39,22.07 c -5.88,-5.15 -35.323,-32.16 -37.413,-56.19 -0.821,-9.45 0.144,-17.44 0.984,-24.49 1.02,-8.4 1.484,-13.34 -0.43,-17.17 -1.328,-2.65 -6.785,-5.03 -11.609,-7.16 -7.48,-3.26 -15.969,-6.96 -20.652,-15.55 -4.153,-7.62 -4.953,-17.54 -5.727,-27.13 -0.367,-4.42 -0.894,-11.09 -1.719,-13.08 -2.507,-5.02 -5.183,-9.05 -7.871,-12.1 -1.843,-5.07 -5.008,-12.3 -10.425,-20.08 l -0.012,-15.59"
         style="fill:#100f0d;fill-opacity:1;fill-rule:nonzero;stroke:none"
         id="path16" />
      <path
         d="m 895.664,1383.88 16.797,-24.11 c 9.609,6.69 16.492,14.26 21.477,21.39 5.417,7.78 8.582,15.01 10.425,20.08 0.696,1.9 1.235,3.52 1.614,4.71 2.644,8.22 0.695,16 -1.028,22.88 -1.804,7.19 -2.808,11.82 -0.847,16.2 2.285,5.13 6.191,8.18 11.101,12.06 5.637,4.43 12.629,9.93 17.016,19.15 5.418,11.43 2.246,23.99 -0.824,36.13 -2.149,8.53 -4.383,17.38 -3.18,24.12 l -28.938,5.13 c -0.566,-3.14 -0.793,-6.26 -0.793,-9.32 0,-9.58 2.309,-18.78 4.414,-27.12 1.204,-4.71 2.915,-11.49 2.915,-14.92 -0.012,-0.62 -0.071,-1.13 -0.2,-1.51 -1.304,-2.76 -3.965,-4.95 -8.562,-8.55 -6.465,-5.09 -14.5,-11.41 -19.766,-23.14 -2.707,-6.03 -3.64,-11.87 -3.64,-17.26 0,-7.03 1.582,-13.27 2.793,-18.13 0.574,-2.29 1.433,-5.68 1.433,-7.04 -3.016,-9.28 -8.301,-21.06 -22.207,-30.75"
         style="fill:#100f0d;fill-opacity:1;fill-rule:nonzero;stroke:none"
         id="path18" />
      <path
         d="m 766.641,1444.08 c 1.953,-3.62 3.203,-7.03 4.05,-10.26 2.922,-1.87 7.2,-4.67 8.032,-6.06 1.316,-3.46 0.066,-13.14 -0.743,-19.56 -0.277,-2.1 -0.539,-4.15 -0.753,-6.14 7.003,-6.99 18.027,-15.09 23.972,-18.07 l -11.07,-22.15 c 5.469,-7.82 11.863,-15.61 17.652,-21.98 l 21.75,19.77 c -12.519,13.78 -21.308,27.16 -23.41,33.06 -0.027,0.26 -0.058,0.54 -0.058,0.91 0,2.57 0.617,7.47 1.066,10.87 0.742,5.77 1.531,11.93 1.531,18.02 -0.008,5.51 -0.652,10.96 -2.586,15.98 -3.886,10.11 -12.91,15.87 -20.183,20.51 -4.282,2.73 -10.161,6.48 -10.453,8.83 -0.067,0.61 -0.106,1.2 -0.106,1.78 0,2.96 0.918,5.98 2.566,11.09 2.415,7.46 5.61,17.34 5.61,31.73 0,1.97 -0.063,3.98 -0.188,6.08 l -29.328,-1.75 c 0.727,-12.24 -1.597,-19.42 -4.058,-27.03 -2.305,-7.17 -4.934,-15.29 -3.664,-25.53 0.078,-0.51 0.168,-0.97 0.253,-1.44 6.836,-3.62 14.766,-8.77 20.118,-18.66"
         style="fill:#100f0d;fill-opacity:1;fill-rule:nonzero;stroke:none"
         id="path20" />
      <path
         d="m 704.648,1505 c 0.497,-5.73 -0.41,-9.83 -1.457,-14.55 -1.773,-8.05 -4.003,-18.08 2.637,-31.36 5.918,-11.82 16.106,-16.89 23.535,-20.59 6.008,-2.99 9.504,-4.85 11.438,-8.4 2.39,-4.42 2.121,-7.51 1.672,-12.58 -0.559,-6.22 -1.321,-14.72 4.09,-23.92 8.82,-14.99 31.75,-31.02 41.503,-35.89 l 2.063,4.13 11.07,22.15 c -5.945,2.98 -16.969,11.08 -23.972,18.07 -2.332,2.36 -4.219,4.58 -5.325,6.43 -0.523,0.91 -0.554,1.98 -0.156,6.4 0.422,4.76 0.949,11.26 -1.055,18.93 -0.847,3.23 -2.097,6.64 -4.05,10.26 -5.352,9.89 -13.282,15.04 -20.118,18.66 -1.418,0.73 -2.8,1.44 -4.082,2.09 -6.257,3.1 -8.945,4.64 -10.332,7.42 -1.906,3.81 -1.671,5.32 -0.222,11.85 1.238,5.56 2.937,13.21 2.058,23.41 -1.679,19.41 -16.699,35.66 -28.777,48.71 l -8.918,9.99 -22.742,-18.61 10.078,-11.32 c 9.031,-9.78 20.262,-21.93 21.062,-31.28"
         style="fill:#100f0d;fill-opacity:1;fill-rule:nonzero;stroke:none"
         id="path22" />
      <path
         d="m 834.758,1485.06 c 0,-22.56 5.445,-52.9 31.89,-52.9 26.465,0 33.469,34.22 33.469,48.24 0,12.36 -18.777,64.72 -23.191,112.14 -5.84,0.09 -10.735,1.76 -14.836,4.41 -4.094,-53.17 -27.332,-91.29 -27.332,-111.89"
         style="fill:#100f0d;fill-opacity:1;fill-rule:nonzero;stroke:none"
         id="path24" />
      <path
         d="m 1269.32,1804.36 c -39.19,-2.47 -381.461,-35.52 -381.461,-35.52 l -7.351,48.37 c 0,0 338.592,58.79 378.402,65.53 39.79,6.72 67.96,-9.2 67.96,-34.31 0,-25.11 -18.37,-41.62 -57.55,-44.07 z m -19.91,108.38 c -57.85,-9.2 -321.644,-56.66 -347.164,-61.55 -37.527,-7.18 -46.199,26.93 -63.359,34.9 0,0 25.312,-148.62 26.765,-159.64 5.278,-39.7 -21.882,-60.18 -21.882,-89.87 0,-10.75 4.687,-30.74 18.32,-39.63 4.101,-2.65 8.996,-4.32 14.836,-4.41 0.176,0 0.34,-0.05 0.523,-0.05 25.715,0.01 31.223,25.72 31.223,45.32 0,30.32 -14.688,47.75 -14.688,55.1 0,7.35 6.121,15.92 29.383,19.6 23.274,3.66 314.113,54.19 360.033,61.54 45.93,7.34 79.9,44.99 72.55,83.58 -7.35,38.56 -48.67,64.28 -106.54,55.11"
         style="fill:#100f0d;fill-opacity:1;fill-rule:nonzero;stroke:none"
         id="path26" />
      <path
         d="m 1879.54,1611.85 c -7.92,-40.87 -24.95,-80.09 -24.95,-90.84 0,-14.01 4.17,-48.99 30.62,-48.99 26.46,0 34.73,31.09 34.73,53.66 0.01,17.85 -15.6,46.68 -22.15,88.35 -3.83,-1.69 -8.21,-2.66 -13.22,-2.66 -1.79,0 -3.46,0.19 -5.03,0.48"
         style="fill:#100f0d;fill-opacity:1;fill-rule:nonzero;stroke:none"
         id="path28" />
      <path
         d="m 1489.12,1896.81 c 39.84,-6.54 398.3,-69.19 398.3,-69.19 l -7.34,-48.37 c 0,0 -370.75,32.44 -409.93,34.9 -39.19,2.44 -56.96,15.91 -56.96,41.02 0,25.12 31.23,48.99 75.93,41.64 z m -34.55,-113.88 c 45.92,-7.34 367.78,-60.98 391.05,-64.69 13.3,-2.11 24.17,-10.86 24.17,-14.49 0,-3.61 -14.19,-17.2 -14.19,-41.06 0,-18.23 2.84,-46.91 23.94,-50.84 1.57,-0.29 3.24,-0.48 5.03,-0.48 5.01,0 9.39,0.97 13.22,2.66 15.85,7.02 22.11,26.74 22.1,44.73 0.01,41.97 -21.82,33.72 -16.55,73.43 1.46,11.04 22.63,155.13 22.63,155.13 -17.15,-7.97 -21.71,-37.58 -59.22,-30.37 -25.53,4.86 -320.65,59.34 -378.51,68.53 -57.87,9.19 -97.04,-20.92 -104.38,-59.49 -7.35,-38.56 24.79,-75.7 70.71,-83.06"
         style="fill:#100f0d;fill-opacity:1;fill-rule:nonzero;stroke:none"
         id="path30" />
      <path
         d="m 2009.35,1565.98 c 0.21,-4.13 0.33,-6.41 -1.97,-11.51 -4.25,-9.47 -11.74,-21.32 -23.1,-23.98 l 6.68,-28.62 c 12.72,2.98 30.56,12.42 43.22,40.54 5.2,11.56 4.8,19.35 4.51,25.04 -0.21,4.6 -0.32,6.52 3.6,12.68 2.77,4.35 3.55,4.55 6.87,5.43 7.55,1.98 16.21,5.25 23.65,19.11 8.5,15.83 5.76,29.02 3.75,38.64 -1.08,5.28 -1.95,9.44 -1.28,13.74 1.05,6.57 5.69,11.62 14.5,20.68 4.8,4.94 10.23,10.53 15.72,17.52 l -23.1,18.16 c -4.54,-5.76 -9.2,-10.56 -13.7,-15.19 -9.78,-10.06 -19.9,-20.49 -22.43,-36.59 -1.53,-9.61 0.17,-17.76 1.52,-24.29 1.77,-8.57 2.42,-12.61 -0.88,-18.77 -2.01,-3.74 -2.07,-3.75 -5.19,-4.57 -7.39,-1.94 -16,-5.1 -24.26,-18.15 -8.22,-12.96 -8.52,-21.52 -8.11,-29.87"
         style="fill:#100f0d;fill-opacity:1;fill-rule:nonzero;stroke:none"
         id="path32" />
      <path
         d="m 1959.04,1516.11 c 14.09,12.39 18.45,16.88 24.87,37.51 4.19,13.43 3.23,22.31 2.46,29.44 -0.62,5.66 -1.06,9.75 0.9,17.05 0.99,3.73 1.32,3.91 5.44,6.12 6.26,3.35 16.75,8.97 21.41,27.21 4.26,16.73 -0.57,27.25 -4.09,34.92 -2.74,5.98 -4.4,9.6 -2.97,17.43 l -28.92,5.27 c -3.08,-16.95 1.69,-27.35 5.18,-34.95 2.74,-6 4.01,-8.76 2.31,-15.41 -1.45,-5.7 -2.48,-6.25 -6.79,-8.57 -5.87,-3.13 -15.7,-8.4 -19.97,-24.44 -3.36,-12.58 -2.44,-21.01 -1.73,-27.78 0.65,-5.98 1.08,-9.94 -1.29,-17.55 -4.26,-13.67 -4.7,-14.06 -16.21,-24.16 l -6.86,-6.08 19.66,-21.85 6.6,5.84"
         style="fill:#100f0d;fill-opacity:1;fill-rule:nonzero;stroke:none"
         id="path34" />
      <path
         d="m 1741.49,1613.85 c 3.32,-14.73 13.82,-21.21 21.48,-25.94 6.98,-4.3 9.32,-6.1 10.3,-10.7 1.52,-7.21 0.85,-9.24 -0.18,-12.33 -2.06,-6.14 -3.65,-12.56 -0.48,-23.65 5.52,-19.32 11.41,-25.85 31.01,-45.44 l 20.77,20.78 c -18.54,18.56 -20.09,20.71 -23.53,32.74 -0.91,3.22 -0.84,3.46 0.09,6.23 2.16,6.42 4.02,13.9 1.07,27.79 -3.68,17.28 -15.66,24.67 -23.61,29.58 -6.01,3.71 -7.71,5.05 -8.24,7.38 -1.05,4.67 0.09,8.25 2.56,15.26 3.01,8.48 6.75,19.05 4.97,34.15 l -29.19,-3.44 c 0.97,-8.31 -0.99,-13.88 -3.48,-20.92 -2.89,-8.17 -6.49,-18.36 -3.54,-31.49"
         style="fill:#100f0d;fill-opacity:1;fill-rule:nonzero;stroke:none"
         id="path36" />
      <path
         d="m 1721.66,1621.83 c -0.01,5.22 -0.8,11.35 -3.26,18.6 -6.82,20.03 -13.9,27.76 -22.09,36.68 l -8.23,9.34 -22.64,-18.75 9.21,-10.46 c 7.38,-8.05 11.09,-12.08 15.92,-26.25 2.53,-7.47 1.78,-11.38 0.62,-17.29 -1.45,-7.57 -3.46,-17.95 3.05,-32.59 7.17,-16.16 17.96,-20.12 25.1,-22.76 4.74,-1.74 5.61,-2.06 7.26,-5.63 2.83,-6.12 2.46,-7.87 1.8,-11.06 -0.88,-4.2 -2.36,-11.24 1.71,-20.49 5.25,-11.94 20.05,-40.08 44.03,-43.61 l 4.28,29.07 c -5.88,0.88 -15.29,12.46 -21.41,26.38 l -0.24,0.66 0.39,1.97 c 0.61,2.93 1.13,6 1.13,9.51 0,5.31 -1.18,11.63 -5.03,19.93 -6.77,14.59 -17,18.36 -23.78,20.85 -5.06,1.87 -6.25,2.31 -8.4,7.12 -1.46,3.3 -1.98,5.61 -1.98,8.01 0,2.08 0.41,4.22 0.96,7.07 0.72,3.77 1.59,8.24 1.6,13.7"
         style="fill:#100f0d;fill-opacity:1;fill-rule:nonzero;stroke:none"
         id="path38" />
      <path
         d="m 1913.73,1450.33 c -28.83,-23.29 -93.33,-25.11 -127.54,5.98 l -7.21,6.56 -8.85,-4.1 c -13.12,-6.06 -30.6,-6.57 -44.65,-6.98 -17.86,-0.51 -31.96,-0.92 -39.21,-12.2 -5.25,-8.17 -4.77,-19.32 1.39,-30.59 1,-1.82 2.17,-3.66 3.49,-5.48 h 64.1 c -23.84,0 -36.33,11.26 -40.98,18.35 3.73,0.28 8.23,0.44 12.05,0.54 14.09,0.41 31.02,1.2 47.12,6.49 17.52,-13.36 38.9,-21.02 60.74,-23.91 15.81,18.59 42.54,25.38 58.11,25.39 v -22.01 c 12.16,3.19 23.35,7.9 32.75,13.98 15.6,-6.73 37.52,-20.01 52.72,-29.25 13.24,-8.03 19.8,-11.97 24.14,-13.64 13.33,-5.12 68.87,-9.69 103.29,-9.69 v 29.38 c -38.86,0 -85.42,5.14 -92.77,7.76 -2.34,0.95 -11.8,6.7 -19.41,11.31 -19.78,12.01 -46.88,28.46 -65.4,34.64 l -7.63,2.54 -6.25,-5.07"
         style="fill:#100f0d;fill-opacity:1;fill-rule:nonzero;stroke:none"
         id="path40" />
      <path
         d="m 1755.25,1403.52 h -109.62 c -49.38,0 -54.62,-30.25 -54.62,-40.83 0,-2.94 0.35,-6.7 1.34,-10.72 h 44.56 c -13.08,0 -17.25,5.12 -17.25,10.61 0,5.49 5.01,11.54 25.97,11.54 h 175.99 c 0.95,11.96 5.2,21.64 11.33,29.4 h -77.7"
         style="fill:#100f0d;fill-opacity:1;fill-rule:nonzero;stroke:none"
         id="path42" />
      <path
         d="m 1851.23,1374.12 h 4.22 l 87.84,20.52 -50.1,8.88 h -0.9 v -2.54 c -0.4,0.01 -36.77,-1.66 -41.06,-26.86"
         style="fill:#100f0d;fill-opacity:1;fill-rule:nonzero;stroke:none"
         id="path44" />
      <path
         d="m 1575.21,1351.97 c -28.33,0 -47.38,-22.23 -47.38,-43.01 0,-19.81 17.61,-43.74 48.83,-43.73 h 9.13 c 2.11,11.3 11.09,27.34 44.59,29.19 v 0.19 h -53.72 c -11.01,0 -19.18,10.8 -19.43,14.39 0,3.82 5.35,13.58 17.98,13.58 h 190.93 v 29.39 h -129.23 -44.56 -17.14"
         style="fill:#100f0d;fill-opacity:1;fill-rule:nonzero;stroke:none"
         id="path46" />
      <path
         d="m 1585.79,1265.23 c -0.45,-2.4 -0.59,-4.58 -0.59,-6.37 0,-24.11 21.22,-43.73 57.52,-43.73 h 0.68 c 5.53,16.3 25.58,27.77 52.32,29.21 v 0.17 h -53 c -18.21,0 -28.14,9.49 -28.14,14.35 0,4.18 11.24,6.37 22.33,6.37 h 129.23 v 29.38 l -129.23,0.01 c -2.27,0 -4.44,-0.09 -6.53,-0.2 -33.5,-1.85 -42.48,-17.89 -44.59,-29.19"
         style="fill:#100f0d;fill-opacity:1;fill-rule:nonzero;stroke:none"
         id="path48" />
      <path
         d="m 1643.4,1215.13 c -1,-2.95 -1.57,-6.03 -1.57,-9.27 0,-18.44 16.51,-38.43 53.4,-41.5 26.72,-2.23 142,-5.86 163.12,-5.86 17.21,0 89.4,2.32 128.26,13.65 11.58,3.38 21.25,7.89 30.62,12.24 20.2,9.4 41.09,19.12 86.5,19.12 v 29.39 c -51.92,0 -76.88,-11.62 -98.91,-21.86 -8.74,-4.08 -17.01,-7.91 -26.43,-10.68 -32.64,-9.52 -99.42,-12.48 -120.04,-12.48 -19.5,0 -134.81,3.61 -160.68,5.76 -18.7,1.57 -26.46,8.73 -26.46,12.22 0.67,1.79 9.64,9.28 30.32,9.27 l 118.34,0.01 -28.32,29.39 -90.02,-0.02 c -1.97,0 -3.9,-0.06 -5.81,-0.17 -26.74,-1.44 -46.79,-12.91 -52.32,-29.21"
         style="fill:#100f0d;fill-opacity:1;fill-rule:nonzero;stroke:none"
         id="path50" />
      <path
         d="m 1834.18,1404.99 c -0.41,-0.5 -0.83,-0.97 -1.23,-1.47 -6.13,-7.76 -10.38,-17.44 -11.33,-29.4 -0.14,-1.64 -0.21,-3.3 -0.21,-5.03 0,-27.33 14.39,-75.03 110.83,-87.2 l 3.68,29.16 c -31.78,4.02 -85.12,16.89 -85.12,58.04 0,1.77 0.15,3.44 0.43,5.03 4.29,25.2 40.66,26.87 41.06,26.86 v 2.54 4.85 22.01 c -15.57,-0.01 -42.3,-6.8 -58.11,-25.39"
         style="fill:#100f0d;fill-opacity:1;fill-rule:nonzero;stroke:none"
         id="path52" />
      <path
         d="M 2535.97,1377.14 C 2440.55,1281.72 1472.5,313.641 1377.07,218.211 1281.66,313.641 313.629,1281.72 218.203,1377.14 313.629,1472.56 1281.66,2440.6 1377.07,2536.03 1472.49,2440.6 2440.55,1472.56 2535.97,1377.14 Z M 0,1377.14 1377.07,0 2754.18,1377.14 1377.07,2754.24 0,1377.14"
         style="fill:#ef2f32;fill-opacity:1;fill-rule:nonzero;stroke:none"
         id="path54" />
    </g>
  </g>
</svg>
