<?xml version="1.0" encoding="UTF-8" standalone="no"?>
<!-- Created with Inkscape (http://www.inkscape.org/) -->

<svg
   version="1.1"
   id="svg2"
   width="367.88"
   height="367.90668"
   viewBox="0 0 367.88 367.90668"
   sodipodi:docname="environment.eps"
   xmlns:inkscape="http://www.inkscape.org/namespaces/inkscape"
   xmlns:sodipodi="http://sodipodi.sourceforge.net/DTD/sodipodi-0.dtd"
   xmlns="http://www.w3.org/2000/svg"
   xmlns:svg="http://www.w3.org/2000/svg">
  <defs
     id="defs6" />
  <sodipodi:namedview
     id="namedview4"
     pagecolor="#ffffff"
     bordercolor="#000000"
     borderopacity="0.25"
     inkscape:showpageshadow="2"
     inkscape:pageopacity="0.0"
     inkscape:pagecheckerboard="0"
     inkscape:deskcolor="#d1d1d1" />
  <g
     id="g8"
     inkscape:groupmode="layer"
     inkscape:label="ink_ext_XXXXXX"
     transform="matrix(1.3333333,0,0,-1.3333333,0,367.90667)">
    <g
       id="g10"
       transform="scale(0.1)">
      <path
         d="M 2576.08,1378.11 1376.31,178.34 176.543,1378.11 1376.31,2577.88 2576.08,1378.11"
         style="fill:#ffffff;fill-opacity:1;fill-rule:nonzero;stroke:none"
         id="path12" />
      <path
         d="M 2540.47,1379.67 C 2444.88,1284.05 1475.06,314.219 1379.59,218.609 1283.99,314.219 314.203,1284.07 218.598,1379.67 c 95.605,95.59 1065.392,1065.4 1160.992,1161 95.46,-95.6 1065.29,-1065.41 1160.88,-1161 z M 0,1379.67 1379.59,0 2759.07,1379.67 1379.59,2759.28 0,1379.67"
         style="fill:#ef2f32;fill-opacity:1;fill-rule:nonzero;stroke:none"
         id="path14" />
      <path
         d="M 828.258,1380.78 H 1906.24"
         style="fill:none;stroke:#100f0d;stroke-width:19.169;stroke-linecap:butt;stroke-linejoin:miter;stroke-miterlimit:4;stroke-dasharray:none;stroke-opacity:1"
         id="path16" />
      <path
         d="m 973.375,1101.02 132.675,76.71 6.23,327.41 -163.788,89.16 c 0,0 -24.871,16.58 -60.117,6.22 -12.441,-4.16 -29.02,-8.31 -29.02,-8.31 0,0 89.137,74.65 105.727,68.41 16.582,-6.21 132.678,-62.19 132.678,-62.19 0,0 -12.44,87.08 -43.54,111.96 -31.09,24.88 -151.329,120.24 -151.329,120.24 v 22.79 l 163.779,-99.51 c 0,0 6.21,95.38 -26.95,151.34 -33.17,55.97 -58.056,105.74 -58.056,105.74 l 10.367,8.28 80.849,-124.39 26.96,85.01 16.58,4.15 c 0,0 -20.73,-120.24 -6.22,-157.57 14.51,-37.31 68.41,-240.47 68.41,-240.47 l 80.85,116.09 c 0,0 2.07,47.69 -2.08,80.86 -4.14,33.16 -10.36,186.57 -10.36,186.57 h 14.51 l 22.81,-167.91 130.55,151.33 v -16.58 c 0,0 -128.48,-161.72 -122.26,-196.94 6.22,-35.25 12.44,-55.98 -10.36,-105.74 -22.81,-49.75 -37.31,-84.99 -37.31,-84.99 0,0 68.4,80.84 99.5,87.07 31.1,2.07 72.51,-2.08 101.53,22.8 29.03,24.88 99.51,103.65 99.51,103.65 l -109.87,-170 c 0,0 -51.79,-2.06 -72.51,-24.87 -20.74,-22.8 -105.74,-120.24 -105.74,-120.24 v -223.75 l 140.95,-70.5 -172.04,-24.85 -41.47,-60.13 -55.96,47.67 -155.485,-14.52"
         style="fill:#100f0d;fill-opacity:1;fill-rule:nonzero;stroke:none"
         id="path18" />
      <path
         d="m 973.375,1101.02 132.675,76.71 6.23,327.41 -163.788,89.16 c 0,0 -24.871,16.58 -60.117,6.22 -12.441,-4.16 -29.02,-8.31 -29.02,-8.31 0,0 89.137,74.65 105.727,68.41 16.582,-6.21 132.678,-62.19 132.678,-62.19 0,0 -12.44,87.08 -43.54,111.96 -31.09,24.88 -151.329,120.24 -151.329,120.24 v 22.79 l 163.779,-99.51 c 0,0 6.21,95.38 -26.95,151.34 -33.17,55.97 -58.056,105.74 -58.056,105.74 l 10.367,8.28 80.849,-124.39 26.96,85.01 16.58,4.15 c 0,0 -20.73,-120.24 -6.22,-157.57 14.51,-37.31 68.41,-240.47 68.41,-240.47 l 80.85,116.09 c 0,0 2.07,47.69 -2.08,80.86 -4.14,33.16 -10.36,186.57 -10.36,186.57 h 14.51 l 22.81,-167.91 130.55,151.33 v -16.58 c 0,0 -128.48,-161.72 -122.26,-196.94 6.22,-35.25 12.44,-55.98 -10.36,-105.74 -22.81,-49.75 -37.31,-84.99 -37.31,-84.99 0,0 68.4,80.84 99.5,87.07 31.1,2.07 72.51,-2.08 101.53,22.8 29.03,24.88 99.51,103.65 99.51,103.65 l -109.87,-170 c 0,0 -51.79,-2.06 -72.51,-24.87 -20.74,-22.8 -105.74,-120.24 -105.74,-120.24 v -223.75 l 140.95,-70.5 -172.04,-24.85 -41.47,-60.13 -55.96,47.67 z"
         style="fill:none;stroke:#100f0d;stroke-width:15.3352;stroke-linecap:butt;stroke-linejoin:miter;stroke-miterlimit:4;stroke-dasharray:none;stroke-opacity:1"
         id="path20" />
      <path
         d="m 832.406,906.172 c 0,0 188.644,55.976 219.744,33.148 41.46,18.68 344.1,147.21 344.1,138.91 0,-8.3 348.27,107.8 348.27,107.8 l 126.44,-91.22 -120.22,-58.04 161.69,-14.52 -43.53,-58.039 h 89.16 l 2.06,-64.262 -1127.714,6.223"
         style="fill:#100f0d;fill-opacity:1;fill-rule:nonzero;stroke:none"
         id="path22" />
      <path
         d="m 832.406,906.172 c 0,0 188.644,55.976 219.744,33.148 41.46,18.68 344.1,147.21 344.1,138.91 0,-8.3 348.27,107.8 348.27,107.8 l 126.44,-91.22 -120.22,-58.04 161.69,-14.52 -43.53,-58.039 h 89.16 l 2.06,-64.262 z"
         style="fill:none;stroke:#100f0d;stroke-width:15.3352;stroke-linecap:butt;stroke-linejoin:miter;stroke-miterlimit:4;stroke-dasharray:none;stroke-opacity:1"
         id="path24" />
      <path
         d="m 1253.24,1069.93 c 0,0 53.91,2.08 78.78,12.45 39.44,16.45 103.61,43.53 140.92,97.44 38.58,55.71 176.22,290.09 364.87,271.43 -10.37,-24.89 -43.54,-78.77 -43.54,-78.77 l 134.76,41.45 c 0,0 2.06,-178.15 -252.92,-292.17 -118.17,-41.47 -143.05,-43.53 -153.41,-58.04 -10.37,-14.52 -58.05,-87.079 -58.05,-87.079 l -211.41,93.289"
         style="fill:#ffffff;fill-opacity:1;fill-rule:nonzero;stroke:none"
         id="path26" />
      <path
         d="m 1253.24,1069.93 c 0,0 53.91,2.08 78.78,12.45 39.44,16.45 103.61,43.53 140.92,97.44 38.58,55.71 176.22,290.09 364.87,271.43 -10.37,-24.89 -43.54,-78.77 -43.54,-78.77 l 134.76,41.45 c 0,0 2.06,-178.15 -252.92,-292.17 -118.17,-41.47 -143.05,-43.53 -153.41,-58.04 -10.37,-14.52 -58.05,-87.079 -58.05,-87.079 z"
         style="fill:none;stroke:#100f0d;stroke-width:19.169;stroke-linecap:butt;stroke-linejoin:miter;stroke-miterlimit:4;stroke-dasharray:none;stroke-opacity:1"
         id="path28" />
      <path
         d="m 1804.64,1309.39 c 0,10.86 10.21,19.66 22.8,19.66 12.58,0 22.79,-8.8 22.79,-19.66 0,-10.89 -10.21,-19.7 -22.79,-19.7 -12.59,0 -22.8,8.81 -22.8,19.7"
         style="fill:#100f0d;fill-opacity:1;fill-rule:nonzero;stroke:none"
         id="path30" />
    </g>
  </g>
</svg>
