<?xml version="1.0" encoding="UTF-8" standalone="no"?>
<!-- Created with Inkscape (http://www.inkscape.org/) -->

<svg
   version="1.1"
   id="svg2"
   width="367.33334"
   height="367.34668"
   viewBox="0 0 367.33334 367.34668"
   sodipodi:docname="exclamation_mark.eps"
   xmlns:inkscape="http://www.inkscape.org/namespaces/inkscape"
   xmlns:sodipodi="http://sodipodi.sourceforge.net/DTD/sodipodi-0.dtd"
   xmlns="http://www.w3.org/2000/svg"
   xmlns:svg="http://www.w3.org/2000/svg">
  <defs
     id="defs6">
    <clipPath
       clipPathUnits="userSpaceOnUse"
       id="clipPath22">
      <path
         d="m 1520.56,897.852 c 0,-89.313 -70.43,-161.973 -157.17,-161.973 -86.88,0 -157.27,72.66 -157.27,161.973 0,89.589 70.39,162.248 157.27,162.248 86.74,0 157.17,-72.659 157.17,-162.248 z"
         id="path20" />
    </clipPath>
    <linearGradient
       x1="0"
       y1="0"
       x2="1"
       y2="0"
       gradientUnits="userSpaceOnUse"
       gradientTransform="matrix(314.434,0,0,-314.434,1206.12,897.99)"
       spreadMethod="pad"
       id="linearGradient32">
      <stop
         style="stop-opacity:1;stop-color:#231f20"
         offset="0"
         id="stop24" />
      <stop
         style="stop-opacity:1;stop-color:#231f20"
         offset="0"
         id="stop26" />
      <stop
         style="stop-opacity:1;stop-color:#231f20"
         offset="0"
         id="stop28" />
      <stop
         style="stop-opacity:1;stop-color:#231f20"
         offset="1"
         id="stop30" />
    </linearGradient>
    <clipPath
       clipPathUnits="userSpaceOnUse"
       id="clipPath44">
      <path
         d="m 1376.77,2026.68 c 13.96,-1.15 64.22,-5.83 75.94,-11.25 11.75,-5.53 29.98,-9.96 49.14,-21.92 19.16,-11.78 41.54,-33.43 47.87,-44.27 6.31,-10.67 15.8,-38.58 15.68,-56.81 -0.18,-18.22 -4.75,-56.79 -9.24,-80.26 -4.45,-23.47 -60.49,-363.71 -68.34,-408.71 -7.77,-44.98 -25.72,-160.41 -31.31,-185.02 -5.52,-24.47 -10.97,-33.01 -19.57,-41.54 -8.63,-8.58 -17.16,-12.86 -30.13,-16.96 -12.8,-4.27 -25.71,-5.27 -35.39,-5.08 h -3.17 c -9.63,0 -22.52,1.24 -35.33,5.47 -12.79,4.61 -21.35,8.83 -29.86,17.54 -8.5,8.52 -13.75,17.23 -18.93,41.84 -5.14,24.61 -21.52,140.53 -28.63,185.47 -7.19,44.98 -58.22,386.06 -62.37,409.68 -4.08,23.65 -8.08,62.19 -7.94,80.43 0.07,18.07 9.96,46.02 16.42,56.49 6.47,10.84 29.2,32.04 48.56,43.59 19.35,11.67 37.59,15.78 49.37,21.06 11.92,5.42 62.25,9.25 76.17,10.25 z"
         id="path42" />
    </clipPath>
    <linearGradient
       x1="0"
       y1="0"
       x2="1"
       y2="0"
       gradientUnits="userSpaceOnUse"
       gradientTransform="matrix(380.215,-2.77557,-2.77557,-380.215,1182.97,1592.16)"
       spreadMethod="pad"
       id="linearGradient54">
      <stop
         style="stop-opacity:1;stop-color:#231f20"
         offset="0"
         id="stop46" />
      <stop
         style="stop-opacity:1;stop-color:#231f20"
         offset="0"
         id="stop48" />
      <stop
         style="stop-opacity:1;stop-color:#231f20"
         offset="0"
         id="stop50" />
      <stop
         style="stop-opacity:1;stop-color:#231f20"
         offset="1"
         id="stop52" />
    </linearGradient>
  </defs>
  <sodipodi:namedview
     id="namedview4"
     pagecolor="#ffffff"
     bordercolor="#000000"
     borderopacity="0.25"
     inkscape:showpageshadow="2"
     inkscape:pageopacity="0.0"
     inkscape:pagecheckerboard="0"
     inkscape:deskcolor="#d1d1d1" />
  <g
     id="g8"
     inkscape:groupmode="layer"
     inkscape:label="ink_ext_XXXXXX"
     transform="matrix(1.3333333,0,0,-1.3333333,0,367.34667)">
    <g
       id="g10"
       transform="scale(0.1)">
      <path
         d="M 2579.42,1373.64 1379.66,173.871 179.887,1373.64 1379.66,2573.41 2579.42,1373.64"
         style="fill:#ffffff;fill-opacity:1;fill-rule:nonzero;stroke:none"
         id="path12" />
      <path
         d="M 2513.06,1377.31 1377.69,2512.8 242.227,1377.31 1377.69,242.012 Z M 1377.51,0 0,1377.44 1377.51,2755.07 2754.95,1377.44 1377.51,0"
         style="fill:#ef2e31;fill-opacity:1;fill-rule:nonzero;stroke:none"
         id="path14" />
      <g
         id="g16">
        <g
           id="g18"
           clip-path="url(#clipPath22)">
          <path
             d="m 1520.56,897.852 c 0,-89.313 -70.43,-161.973 -157.17,-161.973 -86.88,0 -157.27,72.66 -157.27,161.973 0,89.589 70.39,162.248 157.27,162.248 86.74,0 157.17,-72.659 157.17,-162.248"
             style="fill:url(#linearGradient32);fill-opacity:1;fill-rule:nonzero;stroke:none"
             id="path34" />
        </g>
      </g>
      <path
         d="m 1520.56,897.852 c 0,-89.313 -70.43,-161.973 -157.17,-161.973 -86.88,0 -157.27,72.66 -157.27,161.973 0,89.589 70.39,162.248 157.27,162.248 86.74,0 157.17,-72.659 157.17,-162.248 z"
         style="fill:none;stroke:#110f0e;stroke-width:4.46626;stroke-linecap:butt;stroke-linejoin:miter;stroke-miterlimit:4;stroke-dasharray:none;stroke-opacity:1"
         id="path36" />
      <g
         id="g38">
        <g
           id="g40"
           clip-path="url(#clipPath44)">
          <path
             d="m 1376.77,2026.68 c 13.96,-1.15 64.22,-5.83 75.94,-11.25 11.75,-5.53 29.98,-9.96 49.14,-21.92 19.16,-11.78 41.54,-33.43 47.87,-44.27 6.31,-10.67 15.8,-38.58 15.68,-56.81 -0.18,-18.22 -4.75,-56.79 -9.24,-80.26 -4.45,-23.47 -60.49,-363.71 -68.34,-408.71 -7.77,-44.98 -25.72,-160.41 -31.31,-185.02 -5.52,-24.47 -10.97,-33.01 -19.57,-41.54 -8.63,-8.58 -17.16,-12.86 -30.13,-16.96 -12.8,-4.27 -25.71,-5.27 -35.39,-5.08 h -3.17 c -9.63,0 -22.52,1.24 -35.33,5.47 -12.79,4.61 -21.35,8.83 -29.86,17.54 -8.5,8.52 -13.75,17.23 -18.93,41.84 -5.14,24.61 -21.52,140.53 -28.63,185.47 -7.19,44.98 -58.22,386.06 -62.37,409.68 -4.08,23.65 -8.08,62.19 -7.94,80.43 0.07,18.07 9.96,46.02 16.42,56.49 6.47,10.84 29.2,32.04 48.56,43.59 19.35,11.67 37.59,15.78 49.37,21.06 11.92,5.42 62.25,9.25 76.17,10.25 h 1.06"
             style="fill:url(#linearGradient54);fill-opacity:1;fill-rule:nonzero;stroke:none"
             id="path56" />
        </g>
      </g>
      <path
         d="m 1376.77,2026.68 c 13.96,-1.15 64.22,-5.83 75.94,-11.25 11.75,-5.53 29.98,-9.96 49.14,-21.92 19.16,-11.78 41.54,-33.43 47.87,-44.27 6.31,-10.67 15.8,-38.58 15.68,-56.81 -0.18,-18.22 -4.75,-56.79 -9.24,-80.26 -4.45,-23.47 -60.49,-363.71 -68.34,-408.71 -7.77,-44.98 -25.72,-160.41 -31.31,-185.02 -5.52,-24.47 -10.97,-33.01 -19.57,-41.54 -8.63,-8.58 -17.16,-12.86 -30.13,-16.96 -12.8,-4.27 -25.71,-5.27 -35.39,-5.08 h -3.17 c -9.63,0 -22.52,1.24 -35.33,5.47 -12.79,4.61 -21.35,8.83 -29.86,17.54 -8.5,8.52 -13.75,17.23 -18.93,41.84 -5.14,24.61 -21.52,140.53 -28.63,185.47 -7.19,44.98 -58.22,386.06 -62.37,409.68 -4.08,23.65 -8.08,62.19 -7.94,80.43 0.07,18.07 9.96,46.02 16.42,56.49 6.47,10.84 29.2,32.04 48.56,43.59 19.35,11.67 37.59,15.78 49.37,21.06 11.92,5.42 62.25,9.25 76.17,10.25 z"
         style="fill:none;stroke:#110f0e;stroke-width:4.46626;stroke-linecap:butt;stroke-linejoin:miter;stroke-miterlimit:4;stroke-dasharray:none;stroke-opacity:1"
         id="path58" />
    </g>
  </g>
</svg>
