<?xml version="1.0" encoding="UTF-8" standalone="no"?>
<!-- Created with Inkscape (http://www.inkscape.org/) -->

<svg
   version="1.1"
   id="svg2"
   width="361.17334"
   height="361.18668"
   viewBox="0 0 361.17334 361.18668"
   sodipodi:docname="exploding_bomb.eps"
   xmlns:inkscape="http://www.inkscape.org/namespaces/inkscape"
   xmlns:sodipodi="http://sodipodi.sourceforge.net/DTD/sodipodi-0.dtd"
   xmlns="http://www.w3.org/2000/svg"
   xmlns:svg="http://www.w3.org/2000/svg">
  <defs
     id="defs6" />
  <sodipodi:namedview
     id="namedview4"
     pagecolor="#ffffff"
     bordercolor="#000000"
     borderopacity="0.25"
     inkscape:showpageshadow="2"
     inkscape:pageopacity="0.0"
     inkscape:pagecheckerboard="0"
     inkscape:deskcolor="#d1d1d1" />
  <g
     id="g8"
     inkscape:groupmode="layer"
     inkscape:label="ink_ext_XXXXXX"
     transform="matrix(1.3333333,0,0,-1.3333333,0,361.18667)">
    <g
       id="g10"
       transform="scale(0.1)">
      <path
         d="M 2554.45,1353.51 1354.69,153.73 154.918,1353.51 1354.69,2553.27 2554.45,1353.51"
         style="fill:#ffffff;fill-opacity:1;fill-rule:nonzero;stroke:none"
         id="path12" />
      <path
         d="M 2494.24,1354.46 C 2400.37,1260.63 1448.28,308.48 1354.41,214.602 1260.57,308.48 308.469,1260.63 214.609,1354.46 c 93.86,93.88 1045.961,1045.97 1139.801,1139.83 93.85,-93.86 1045.96,-1045.95 1139.83,-1139.83 z M 0,1354.46 1354.41,0 2708.84,1354.46 1354.41,2708.91 0,1354.46"
         style="fill:#ef2f32;fill-opacity:1;fill-rule:nonzero;stroke:none"
         id="path14" />
      <path
         d="m 1512.68,2066.16 -36.86,16.86 -192.12,-547.89 c 11.44,-4.08 22.47,-9.28 32.82,-15.53 l 196.16,546.56"
         style="fill:#100f0d;fill-opacity:1;fill-rule:nonzero;stroke:none"
         id="path16" />
      <path
         d="m 1486.33,1802.95 -18.93,11.59 -149.7,-295.7 c 0.82,-0.5 1.64,-1.01 2.42,-1.52 l 166.21,285.63"
         style="fill:#100f0d;fill-opacity:1;fill-rule:nonzero;stroke:none"
         id="path18" />
      <path
         d="m 1278.83,1536.83 113.81,353.5 -21.07,12.64 -93.7,-365.79 c 0.32,-0.11 0.65,-0.23 0.96,-0.35"
         style="fill:#100f0d;fill-opacity:1;fill-rule:nonzero;stroke:none"
         id="path20" />
      <path
         d="m 1303.7,1768.87 16.36,23.85 28.26,30.8 -15.57,50.42 -21.38,0.38 -9.2,-23.48 -18.1,7.13 -9.23,-44.84 19.23,-9.04 9.63,-35.22"
         style="fill:#100f0d;fill-opacity:1;fill-rule:nonzero;stroke:none"
         id="path22" />
      <path
         d="m 1477.63,1744.31 -11.97,-16.79 -6.92,-34.98 24.18,-20.94 17.25,20.94 4.85,23.69 -10.6,28.29 -8.31,-8.72 -8.48,8.51"
         style="fill:#100f0d;fill-opacity:1;fill-rule:nonzero;stroke:none"
         id="path24" />
      <path
         d="m 1378.09,1509.32 -2.85,6.68 -23.09,-25.12 c 1.24,-1.32 2.48,-2.63 3.67,-4.01 l 22.27,22.45"
         style="fill:#100f0d;fill-opacity:1;fill-rule:nonzero;stroke:none"
         id="path26" />
      <path
         d="m 1423.2,1554.88 331.99,335.17 -19.12,19.09 -336.62,-366.72 17.58,12.32 6.17,0.14"
         style="fill:#100f0d;fill-opacity:1;fill-rule:nonzero;stroke:none"
         id="path28" />
      <path
         d="m 1255.6,1385.67 85.65,86.48 -6.21,0.07 z"
         style="fill:#100f0d;fill-opacity:1;fill-rule:nonzero;stroke:none"
         id="path30" />
      <path
         d="M 1754.22,1720.01 1311,1407.63 l 443.22,275.12 z"
         style="fill:#100f0d;fill-opacity:1;fill-rule:nonzero;stroke:none"
         id="path32" />
      <path
         d="m 1616.68,1515.58 -1.9,21.97 -260.8,-123.22 z"
         style="fill:#100f0d;fill-opacity:1;fill-rule:nonzero;stroke:none"
         id="path34" />
      <path
         d="m 1380.71,1503.17 35.36,16.22 7.66,-26.72 56.35,45.84 31.49,58.27 -49.62,-41.08 -38.75,-0.82 -6.17,-0.14 -17.58,-12.32 -27.3,-19.19 3.09,-7.23 2.85,-6.68 2.62,-6.15"
         style="fill:#100f0d;fill-opacity:1;fill-rule:nonzero;stroke:none"
         id="path36" />
      <path
         d="m 1692.15,1577.66 -8.6,-22.92 79.28,-9.55 -52.53,52.55 -18.15,-20.08"
         style="fill:#100f0d;fill-opacity:1;fill-rule:nonzero;stroke:none"
         id="path38" />
      <path
         d="m 1909.94,1674.15 53.5,-36.29 -0.97,64.94 -35.32,60.2 -16.25,-50.63 -42.97,-1.93 -12.44,-9.55 -5.72,-36.29 33.41,-19.11 26.76,28.66"
         style="fill:#100f0d;fill-opacity:1;fill-rule:nonzero;stroke:none"
         id="path40" />
      <path
         d="m 2084.29,1568.09 -10.81,22.89 -780.49,-202.34 z"
         style="fill:#100f0d;fill-opacity:1;fill-rule:nonzero;stroke:none"
         id="path42" />
      <path
         d="m 1322.1,1364.91 857.34,116.46 v 28.91 l -857.45,-145.32 0.11,-0.05"
         style="fill:#100f0d;fill-opacity:1;fill-rule:nonzero;stroke:none"
         id="path44" />
      <path
         d="m 1633.83,1338.04 8.81,-9.44 67.63,-2.14 27.15,30.86 -95.15,42.15 -25.28,-24.08 -36.14,-12.06 8.52,-33.06 14.78,-0.49 29.68,8.26"
         style="fill:#100f0d;fill-opacity:1;fill-rule:nonzero;stroke:none"
         id="path46" />
      <path
         d="m 1590.48,1326.01 1.14,0.3 -1.23,0.08 z"
         style="fill:#100f0d;fill-opacity:1;fill-rule:nonzero;stroke:none"
         id="path48" />
      <path
         d="m 1649.5,1321.18 52.99,-3.63 2.93,3.39 -58.24,2.76 2.32,-2.52"
         style="fill:#100f0d;fill-opacity:1;fill-rule:nonzero;stroke:none"
         id="path50" />
      <path
         d="m 1590.39,1326.39 1.23,-0.08 55.56,-2.61 58.24,-2.76 376.47,-17.81 -15.67,12.03 -355.95,11.3 -67.63,2.14 -38.49,1.18 -14.78,0.49 -237.73,7.52 0.08,-0.13 238.67,-11.27"
         style="fill:#100f0d;fill-opacity:1;fill-rule:nonzero;stroke:none"
         id="path52" />
      <path
         d="m 1492.4,1268.81 4.24,5.9 40,-17.29 140.56,-36.22 6,40.96 -307.38,43.04 c -0.73,-1.92 -1.48,-3.85 -2.3,-5.76 l 118.88,-30.63"
         style="fill:#100f0d;fill-opacity:1;fill-rule:nonzero;stroke:none"
         id="path54" />
      <path
         d="m 1492.4,1268.81 -5.15,-7.18 -36.21,6.67 -10.02,-18.24 36.49,-27.05 96.05,-16.41 1.52,23.11 -15.78,17.94 -22.66,9.77 -40,17.29 -4.24,-5.9"
         style="fill:#100f0d;fill-opacity:1;fill-rule:nonzero;stroke:none"
         id="path56" />
      <path
         d="m 1565.05,1152.49 -11.26,22.8 -189.99,104.47 c -0.58,-1.03 -1.11,-1.98 -1.7,-2.98 l 202.95,-124.29"
         style="fill:#100f0d;fill-opacity:1;fill-rule:nonzero;stroke:none"
         id="path58" />
      <path
         d="m 1257.3,1338.8 24.85,-19.4 1,0.7 z"
         style="fill:#100f0d;fill-opacity:1;fill-rule:nonzero;stroke:none"
         id="path60" />
      <path
         d="m 1570.75,1094.02 10.4,10.38 -225.12,162.96 c -0.83,-1.26 -1.71,-2.43 -2.57,-3.64 l 217.29,-169.7"
         style="fill:#100f0d;fill-opacity:1;fill-rule:nonzero;stroke:none"
         id="path62" />
      <path
         d="m 1513.4,1109.8 -10.39,23.49 -160,117.46 c -0.62,-0.74 -1.25,-1.42 -1.91,-2.11 l 172.3,-138.84"
         style="fill:#100f0d;fill-opacity:1;fill-rule:nonzero;stroke:none"
         id="path64" />
      <path
         d="m 1018.87,1164.87 16.17,-17.99 17.98,8.1 9,-9 17.99,10.79 7.22,24.3 -17.11,10.79 h -26.16 l -21.44,-19.64 -3.65,-7.35"
         style="fill:#100f0d;fill-opacity:1;fill-rule:nonzero;stroke:none"
         id="path66" />
      <path
         d="m 853.379,1052.44 18.867,-17.97 150.274,137.75 21.44,19.64 65.15,59.72 c -0.91,1 -1.77,2.04 -2.62,3.08 L 853.379,1052.44"
         style="fill:#100f0d;fill-opacity:1;fill-rule:nonzero;stroke:none"
         id="path68" />
      <path
         d="m 870.438,1165.78 0.91,-11.71 216.632,127.55 c -0.27,0.45 -0.48,0.91 -0.71,1.37 L 870.438,1165.78"
         style="fill:#100f0d;fill-opacity:1;fill-rule:nonzero;stroke:none"
         id="path70" />
      <path
         d="m 949.57,1253.05 -1.777,-13.52 138.257,45.69 c -0.62,1.23 -1.26,2.45 -1.89,3.69 l -134.59,-35.86"
         style="fill:#100f0d;fill-opacity:1;fill-rule:nonzero;stroke:none"
         id="path72" />
      <path
         d="m 907.324,1216.16 v 16.19 l -47.668,2.7 27.883,-26.97 19.785,8.08"
         style="fill:#100f0d;fill-opacity:1;fill-rule:nonzero;stroke:none"
         id="path74" />
      <path
         d="m 784.98,1147.78 -26.992,17.09 -9.883,-32.37 27.5,-37.82 1.27,-1.78 9.023,25.2 17.071,0.92 10.801,11.66 5.39,17.1 -26.074,9.89 -8.106,-9.89"
         style="fill:#100f0d;fill-opacity:1;fill-rule:nonzero;stroke:none"
         id="path76" />
      <path
         d="m 680.645,1208.95 -2.696,-13.52 403.301,99.57 c -0.31,0.74 -0.64,1.54 -0.98,2.29 l -399.625,-88.34"
         style="fill:#100f0d;fill-opacity:1;fill-rule:nonzero;stroke:none"
         id="path78" />
      <path
         d="m 542.129,1252.14 -0.879,-11.72 533.25,72.02 c -0.11,0.26 -0.18,0.5 -0.28,0.73 l -532.091,-61.03"
         style="fill:#100f0d;fill-opacity:1;fill-rule:nonzero;stroke:none"
         id="path80" />
      <path
         d="m 740.02,1302.49 v -10.82 l 77.363,-7.15 -49.473,38.66 -27.89,-20.69"
         style="fill:#100f0d;fill-opacity:1;fill-rule:nonzero;stroke:none"
         id="path82" />
      <path
         d="m 940.586,1340.29 -1.914,3.47 -49.707,2.01 -10.43,-17.17 28.789,-20.72 31.465,-5.39 9.902,16.21 h 19.786 l -2.11,23.94 -17.207,0.7 -8.574,-3.05"
         style="fill:#100f0d;fill-opacity:1;fill-rule:nonzero;stroke:none"
         id="path84" />
      <path
         d="m 965.781,1349.28 -6.472,-2.34 6.726,-0.42 z"
         style="fill:#100f0d;fill-opacity:1;fill-rule:nonzero;stroke:none"
         id="path86" />
      <path
         d="m 931.602,1356.47 -35.079,1.8 -4.179,-6.91 43.691,-2.89 -4.433,8"
         style="fill:#100f0d;fill-opacity:1;fill-rule:nonzero;stroke:none"
         id="path88" />
      <path
         d="m 966.035,1346.52 -6.726,0.42 -23.274,1.53 -43.691,2.89 -213.489,14.09 10.801,-11.7 199.309,-7.98 49.707,-2.01 10.488,-0.42 17.207,-0.7 102.323,-4.11 0.45,1.17 -103.105,6.82"
         style="fill:#100f0d;fill-opacity:1;fill-rule:nonzero;stroke:none"
         id="path90" />
      <path
         d="m 1115.1,1336.65 -44.83,2.97 5.18,-1.35 z"
         style="fill:#100f0d;fill-opacity:1;fill-rule:nonzero;stroke:none"
         id="path92" />
      <path
         d="m 914.512,1398.74 -13.477,-11.68 213.155,-33.31 z"
         style="fill:#100f0d;fill-opacity:1;fill-rule:nonzero;stroke:none"
         id="path94" />
      <path
         d="m 976.582,1440.11 3.594,-8.99 142.114,-68.36 z"
         style="fill:#100f0d;fill-opacity:1;fill-rule:nonzero;stroke:none"
         id="path96" />
      <path
         d="m 1008.05,1469.78 8.1,-16.18 54.53,-36.61 c 0.41,1.57 0.8,3.15 1.23,4.7 l -63.86,48.09"
         style="fill:#100f0d;fill-opacity:1;fill-rule:nonzero;stroke:none"
         id="path98" />
      <path
         d="m 1139.39,1370.86 -27.36,20.6 -3.07,-0.18 z"
         style="fill:#100f0d;fill-opacity:1;fill-rule:nonzero;stroke:none"
         id="path100" />
      <path
         d="m 1311.22,1373.55 v -34.59 l -28.07,-18.86 -1,-0.7 -22.31,-14.99 -70.07,59.79 -49.54,-42.99 -64.78,17.06 -5.18,1.35 -1.03,0.29 -0.1,-0.21 -0.45,-1.17 -0.55,-1.47 c 1.5,-8.18 3.58,-16.12 6.08,-23.89 0.1,-0.23 0.17,-0.47 0.28,-0.73 1.71,-5.17 3.64,-10.23 5.77,-15.15 0.34,-0.75 0.67,-1.55 0.98,-2.29 0.94,-2.05 1.91,-4.07 2.91,-6.09 0.63,-1.24 1.27,-2.46 1.89,-3.69 0.41,-0.75 0.81,-1.5 1.22,-2.23 0.23,-0.46 0.44,-0.92 0.71,-1.37 5.37,-9.66 11.59,-18.61 18.51,-26.96 0.85,-1.04 1.71,-2.08 2.62,-3.08 29.41,-33.61 71.1,-54.61 117.32,-54.61 44.86,0 85.45,19.77 114.67,51.67 0.66,0.69 1.29,1.37 1.91,2.11 3.67,4.1 7.15,8.47 10.45,12.97 0.86,1.21 1.74,2.38 2.57,3.64 2.1,3.06 4.13,6.2 6.07,9.42 0.59,1 1.12,1.95 1.7,2.98 3.62,6.3 6.88,12.89 9.72,19.68 0.82,1.91 1.57,3.84 2.3,5.76 1.87,4.9 3.54,9.87 4.97,14.98 l -23.8,8.52 -5.27,8.96 -0.08,0.13 -3.96,6.79 -25.58,20.33 -0.11,0.05 -10.77,8.59"
         style="fill:#100f0d;fill-opacity:1;fill-rule:nonzero;stroke:none"
         id="path102" />
      <path
         d="m 1226.43,1545.46 c -72.88,0 -134.48,-52.16 -154.52,-123.77 -0.43,-1.55 -0.82,-3.13 -1.23,-4.7 -0.18,-0.79 -0.37,-1.54 -0.58,-2.33 l 22.48,-24.29 16.38,0.91 3.07,0.18 46.9,2.66 65.39,-32.72 37.38,44.83 -16.82,41.13 51.38,-5.61 7.48,30.85 31.3,-0.38 6.21,-0.07 26.04,-0.3 c -3.45,5.23 -7.31,10.24 -11.47,15.02 -1.19,1.38 -2.43,2.69 -3.67,4.01 -9.36,10.02 -20.2,18.89 -32.03,26.44 -0.78,0.51 -1.6,1.02 -2.42,1.52 -0.4,0.25 -0.79,0.51 -1.18,0.76 -10.35,6.25 -21.38,11.45 -32.82,15.53 -1.62,0.58 -3.23,1.17 -4.87,1.7 -0.31,0.12 -0.64,0.24 -0.96,0.35 -16.79,5.37 -34.24,8.28 -51.44,8.28"
         style="fill:#100f0d;fill-opacity:1;fill-rule:nonzero;stroke:none"
         id="path104" />
    </g>
  </g>
</svg>
