<?xml version="1.0" encoding="UTF-8" standalone="no"?>
<!-- Created with Inkscape (http://www.inkscape.org/) -->

<svg
   version="1.1"
   id="svg2"
   width="367.17334"
   height="367.18668"
   viewBox="0 0 367.17334 367.18668"
   sodipodi:docname="flame_circle.eps"
   xmlns:inkscape="http://www.inkscape.org/namespaces/inkscape"
   xmlns:sodipodi="http://sodipodi.sourceforge.net/DTD/sodipodi-0.dtd"
   xmlns="http://www.w3.org/2000/svg"
   xmlns:svg="http://www.w3.org/2000/svg">
  <defs
     id="defs6" />
  <sodipodi:namedview
     id="namedview4"
     pagecolor="#ffffff"
     bordercolor="#000000"
     borderopacity="0.25"
     inkscape:showpageshadow="2"
     inkscape:pageopacity="0.0"
     inkscape:pagecheckerboard="0"
     inkscape:deskcolor="#d1d1d1" />
  <g
     id="g8"
     inkscape:groupmode="layer"
     inkscape:label="ink_ext_XXXXXX"
     transform="matrix(1.3333333,0,0,-1.3333333,0,367.18667)">
    <g
       id="g10"
       transform="scale(0.1)">
      <path
         d="M 2571.92,1377.41 1372.16,177.629 172.387,1377.41 1372.16,2577.18 2571.92,1377.41"
         style="fill:#ffffff;fill-opacity:1;fill-rule:nonzero;stroke:none"
         id="path12" />
      <path
         d="M 2535.63,1376.94 C 2440.23,1281.52 1472.3,313.59 1376.89,218.18 1281.48,313.59 313.594,1281.53 218.184,1376.94 313.594,1472.35 1281.48,2440.26 1376.89,2535.67 1472.3,2440.26 2440.23,1472.35 2535.63,1376.94 Z M 0,1376.94 1376.89,0 2753.83,1376.94 1376.89,2753.85 0,1376.94"
         style="fill:#ef2f32;fill-opacity:1;fill-rule:nonzero;stroke:none"
         id="path14" />
      <path
         d="m 1284.57,898.262 h -268.65 v -113.18 h 746.5 v 113.18 h -303.01 c -28,-6.903 -57.26,-10.571 -87.4,-10.571 -30.13,0 -59.41,3.668 -87.44,10.571"
         style="fill:#100f0d;fill-opacity:1;fill-rule:nonzero;stroke:none"
         id="path16" />
      <path
         d="m 1371.99,992.461 c -143.61,0 -260.04,116.419 -260.04,260.039 0,143.61 116.43,260.03 260.04,260.03 143.62,0 260.04,-116.42 260.04,-260.03 0,-143.62 -116.42,-260.039 -260.04,-260.039 z m 338.81,267.479 11.99,93.09 c -14.7,51.38 -40.41,98.12 -74.37,137.53 l -23.34,-19.63 -16.19,20.4 -9.09,46.08 c -34.19,27.39 -73.41,48.73 -116.09,62.45 l -18.98,-29.33 -12.54,37.91 c -25.82,5.79 -52.62,8.86 -80.18,8.86 -29.24,0 -57.65,-3.46 -84.9,-9.94 l 0.39,-15.82 -35.88,-9.11 -6.46,12.21 c -30.51,-11.33 -59.12,-26.62 -85.18,-45.26 l 8.93,-22.07 -35.06,1.53 c -35.72,-30.82 -65.41,-68.46 -87.05,-110.87 l 0.74,-40.59 -22.05,-180 -16.66,20.66 c 14.59,-155.89 127.3,-283.302 275.74,-319.778 28.03,-6.903 57.31,-10.571 87.44,-10.571 30.14,0 59.4,3.668 87.4,10.571 130.69,32.148 233.68,134.688 266.41,265.138 l -13.81,-22.15 -1.21,118.69"
         style="fill:#100f0d;fill-opacity:1;fill-rule:nonzero;stroke:none"
         id="path18" />
      <path
         d="m 1337.7,2245.42 v -90.54 l -23.75,-123.46 -30.55,-76.73 -38.73,50.81 -17.15,33.07 -9.81,34.27 -62.44,75.92 14.77,-55.92 -30.66,-57.95 -12.27,-85.71 15.23,-122.96 -54.98,29.04 -36.15,53.52 -48.98,58.76 13.47,-83.25 0.65,-140.21 13.57,-73.48 -66.873,41.05 -60,45.3 13.476,-129.8 v -161.61 l 28.165,-146.93 29.375,-57.56 34.767,-43.01 16.66,-20.66 22.05,180 -0.74,40.59 -0.78,44.48 -19.18,77.21 -8.7,56.89 50.1,-48.86 30.26,-17.3 35.35,-1.55 35.06,-1.53 -8.93,22.07 -15.78,39.07 27.79,94.49 13.09,96.11 27.58,-122.89 32.5,-61.52 6.46,-12.21 35.88,9.11 -0.39,15.82 -1.48,65.7 54.7,107.19 1.19,82.72 67.76,-80.32 14.39,-88.12 28.52,-86.09 12.54,-37.91 18.98,29.33 79.63,122.85 36.46,-185.3 9.09,-46.08 16.19,-20.4 23.34,19.63 33.01,27.73 50.95,35.97 -0.6,-131.28 -8.99,-69.95 -11.99,-93.09 1.21,-118.69 13.81,22.15 79.08,126.51 42.17,125.42 v 153.06 l -41.62,172.64 v -28.16 l -45.31,-42.86 -52.64,-24.48 15.29,71.78 26.98,89.91 -29.38,105.51 -16.56,-44.37 -29.4,-30.56 -51.42,-24.48 12.24,70.97 v 84.48 l -71.03,153.05 v -31.83 l -14.69,-68.57 -28.14,-53.88 -53.89,-26.92 v 124.89 l -29.37,97.95 -40.42,96.72 -29.17,118.91 -30.84,-133.67"
         style="fill:#100f0d;fill-opacity:1;fill-rule:nonzero;stroke:none"
         id="path20" />
    </g>
  </g>
</svg>
