<?xml version="1.0" encoding="UTF-8" standalone="no"?>
<!-- Created with Inkscape (http://www.inkscape.org/) -->

<svg
   version="1.1"
   id="svg2"
   width="369.33334"
   height="369.34668"
   viewBox="0 0 369.33334 369.34668"
   sodipodi:docname="flame.eps"
   xmlns:inkscape="http://www.inkscape.org/namespaces/inkscape"
   xmlns:sodipodi="http://sodipodi.sourceforge.net/DTD/sodipodi-0.dtd"
   xmlns="http://www.w3.org/2000/svg"
   xmlns:svg="http://www.w3.org/2000/svg">
  <defs
     id="defs6" />
  <sodipodi:namedview
     id="namedview4"
     pagecolor="#ffffff"
     bordercolor="#000000"
     borderopacity="0.25"
     inkscape:showpageshadow="2"
     inkscape:pageopacity="0.0"
     inkscape:pagecheckerboard="0"
     inkscape:deskcolor="#d1d1d1" />
  <g
     id="g8"
     inkscape:groupmode="layer"
     inkscape:label="ink_ext_XXXXXX"
     transform="matrix(1.3333333,0,0,-1.3333333,0,369.34667)">
    <g
       id="g10"
       transform="scale(0.1)">
      <path
         d="M 2584.77,1385.15 1385,185.371 185.23,1385.15 1385,2584.91 2584.77,1385.15"
         style="fill:#ffffff;fill-opacity:1;fill-rule:nonzero;stroke:none"
         id="path12" />
      <path
         d="m 1349,2080.77 -0.46,-137.62 -10.63,-103.01 -15.69,-63.27 -32.8,-73.9 -36.95,74.37 -10.17,67.43 -21.25,54.5 -31.39,33.24 -47.57,11.54 12,-61.42 -12.94,-62.81 -9.69,-80.83 -0.92,-81.75 20.79,-61.89 -42.5,27.25 -59.12,84.99 -51.265,52.19 10.165,-105.77 0.92,-81.29 8.78,-70.65 26.32,-71.13 33.71,-71.6 -83.582,12.01 -46.653,36.04 -29.57,39.23 -45.254,46.64 10.625,-71.58 72.969,-254.47 50.805,-91 84.06,-60.48 119.63,-49.441 188.86,-12.008 -88.64,16.168 -72.06,35.101 -72.98,86.84 -44.78,103 46.64,-34.2 43.43,-15.23 79.42,-9.24 -43.88,56.35 -24,41.11 -17.55,51.27 11.54,48.5 2.78,51.25 19.85,-51.72 28.17,-40.65 83.61,-46.19 -12.01,69.75 -0.92,53.55 49.39,141.82 v 98.85 l 49.38,-48.99 47.11,-71.11 23.55,-98.36 -0.47,-146.89 39.73,41.11 70.66,46.64 24.03,54.04 v -102.07 l -25.88,-76.68 -30,-41.09 -31.41,-31.41 54.49,-0.47 48.03,13.4 55.9,35.57 -57.29,-107.15 -75.27,-73.91 -43.42,-32.342 -31.27,-17.847 h 66.39 l 72.27,12.597 75.64,36.972 71.43,49.59 59.64,94.96 37,121 11.66,173.26 -13.34,-61.51 -46.23,-31.91 -84.05,-24.39 47.07,69.74 25.22,49.59 23.4,97.21 -11.1,68.89 -26.03,91.41 -39.38,-76.51 -47.3,-47.29 -55.53,-31.44 32.05,79.06 0.94,104.42 -12.05,103.8 -50.47,98.41 -12.7,-121.26 -24.76,-86.65 -35.24,-35.56 -36.81,-13.65 11.42,73.65 -8.88,64.75 -49.85,141.26 -74.25,138.72 -24.93,120.71 -25.41,-75.76 -12.93,-56.35"
         style="fill:#100f0d;fill-opacity:1;fill-rule:nonzero;stroke:none"
         id="path14" />
      <path
         d="M 994.531,783.262 H 1828.63 V 868.93 H 994.531 v -85.668"
         style="fill:#100f0d;fill-opacity:1;fill-rule:nonzero;stroke:none"
         id="path16" />
      <path
         d="M 2550.53,1385.08 C 2454.57,1289.1 1480.94,315.43 1385.02,219.461 1289.04,315.43 315.438,1289.1 219.465,1385.08 c 95.973,95.96 1069.575,1069.58 1165.555,1165.58 95.92,-96 1069.55,-1069.62 1165.51,-1165.58 z M 0,1385.08 1385.02,0 2770,1385.08 1385.02,2770.12 0,1385.08"
         style="fill:#ef2f32;fill-opacity:1;fill-rule:nonzero;stroke:none"
         id="path18" />
    </g>
  </g>
</svg>
