<?xml version="1.0" encoding="UTF-8" standalone="no"?>
<!-- Created with Inkscape (http://www.inkscape.org/) -->

<svg
   version="1.1"
   id="svg2"
   width="368.84"
   height="368.84"
   viewBox="0 0 368.84 368.84"
   sodipodi:docname="health_hazard.eps"
   xmlns:inkscape="http://www.inkscape.org/namespaces/inkscape"
   xmlns:sodipodi="http://sodipodi.sourceforge.net/DTD/sodipodi-0.dtd"
   xmlns="http://www.w3.org/2000/svg"
   xmlns:svg="http://www.w3.org/2000/svg">
  <defs
     id="defs6" />
  <sodipodi:namedview
     id="namedview4"
     pagecolor="#ffffff"
     bordercolor="#000000"
     borderopacity="0.25"
     inkscape:showpageshadow="2"
     inkscape:pageopacity="0.0"
     inkscape:pagecheckerboard="0"
     inkscape:deskcolor="#d1d1d1" />
  <g
     id="g8"
     inkscape:groupmode="layer"
     inkscape:label="ink_ext_XXXXXX"
     transform="matrix(1.3333333,0,0,-1.3333333,0,368.84)">
    <g
       id="g10"
       transform="scale(0.1)">
      <path
         d="M 2581.02,1387.1 1381.25,187.332 181.48,1387.1 1381.25,2586.87 2581.02,1387.1"
         style="fill:#ffffff;fill-opacity:1;fill-rule:nonzero;stroke:none"
         id="path12" />
      <path
         d="M 2547.09,1383.18 C 2451.25,1287.33 1478.96,315.02 1383.11,219.16 1287.27,315.02 314.996,1287.33 219.156,1383.18 314.996,1479.02 1287.27,2451.3 1383.11,2547.14 1478.96,2451.3 2451.25,1479.02 2547.09,1383.18 Z M 0,1383.18 1383.11,0 2766.25,1383.18 1383.11,2766.31 0,1383.18"
         style="fill:#ef2f32;fill-opacity:1;fill-rule:nonzero;stroke:none"
         id="path14" />
      <path
         d="m 1239.92,1253.17 c -11.06,0 -20.04,-8.98 -20.04,-20.05 0,-11.07 8.98,-20.04 20.04,-20.04 11.08,0 20.05,8.97 20.05,20.04 0,11.07 -8.97,20.05 -20.05,20.05"
         style="fill:#100f0d;fill-opacity:1;fill-rule:nonzero;stroke:none"
         id="path16" />
      <path
         d="m 1543.62,1060.78 c 0,11.56 -9.35,20.92 -20.91,20.92 -11.55,0 -20.91,-9.36 -20.91,-20.92 0,-2.64 0.5,-5.15 1.4,-7.49 -7.58,-1.06 -13.43,-7.51 -13.43,-15.38 0,-2.2 0.46,-4.31 1.29,-6.21 2.19,-5.52 7.53,-9.43 13.84,-9.43 l 0.4,0.04 0.04,-0.01 c 8.66,0 15.65,7 15.65,15.61 0,0.7 -0.12,1.37 -0.22,2.06 0.64,-0.07 1.29,-0.1 1.94,-0.1 11.56,0 20.91,9.37 20.91,20.91"
         style="fill:#100f0d;fill-opacity:1;fill-rule:nonzero;stroke:none"
         id="path18" />
      <path
         d="m 1339.32,1035.8 c 0,-10.78 8.73,-19.51 19.51,-19.51 10.77,0 19.51,8.73 19.51,19.51 0,10.77 -8.74,19.5 -19.51,19.5 -10.78,0 -19.51,-8.73 -19.51,-19.5"
         style="fill:#100f0d;fill-opacity:1;fill-rule:nonzero;stroke:none"
         id="path20" />
      <path
         d="m 1276.58,1137.53 c 10.78,0 19.51,8.74 19.51,19.51 0,10.79 -8.73,19.5 -19.51,19.5 -5.38,0 -10.24,-2.17 -13.78,-5.68 -1.47,6.17 -6.99,10.78 -13.62,10.78 -7.76,0 -14.05,-6.29 -14.05,-14.05 0,-7.75 6.29,-14.04 14.05,-14.04 2.97,0 5.71,0.93 8,2.51 0.52,-10.31 8.96,-18.53 19.4,-18.53"
         style="fill:#100f0d;fill-opacity:1;fill-rule:nonzero;stroke:none"
         id="path22" />
      <path
         d="m 1491.54,1208.62 c -3.43,0 -6.67,-0.84 -9.54,-2.3 -1.92,6.47 -7.85,11.22 -14.95,11.22 -8.66,0 -15.69,-7.02 -15.69,-15.7 0,-8.66 7.03,-15.68 15.69,-15.68 1.25,0 2.45,0.19 3.63,0.46 0.56,-11.03 9.67,-19.82 20.86,-19.82 1.52,0 3.02,0.15 4.46,0.48 9.7,1.12 17.28,9.26 17.28,19.29 0,3.55 -1,6.84 -2.67,9.71 -3.29,7.28 -10.57,12.34 -19.07,12.34"
         style="fill:#100f0d;fill-opacity:1;fill-rule:nonzero;stroke:none"
         id="path24" />
      <path
         d="m 1416.29,1333.12 c 0,10.78 -8.73,19.52 -19.51,19.52 -10.78,0 -19.51,-8.74 -19.51,-19.52 0,-7.45 4.22,-13.85 10.36,-17.14 -5.85,-1.69 -10.18,-7.02 -10.18,-13.43 0,-7.77 6.3,-14.06 14.06,-14.06 7.75,0 14.06,6.29 14.06,14.06 0,4.68 -2.32,8.8 -5.85,11.35 9.36,1.42 16.57,9.45 16.57,19.22"
         style="fill:#100f0d;fill-opacity:1;fill-rule:nonzero;stroke:none"
         id="path26" />
      <path
         d="m 1244.96,1052.46 c -8.63,0 -15.61,-6.98 -15.61,-15.6 0,-8.63 6.98,-15.62 15.61,-15.62 8.61,0 15.61,6.99 15.61,15.62 0,8.62 -7,15.6 -15.61,15.6"
         style="fill:#100f0d;fill-opacity:1;fill-rule:nonzero;stroke:none"
         id="path28" />
      <path
         d="m 1355.31,1254.04 c 0,-7.74 6.3,-14.04 14.06,-14.04 7.75,0 14.05,6.3 14.05,14.04 0,7.77 -6.3,14.06 -14.05,14.06 -7.76,0 -14.06,-6.29 -14.06,-14.06"
         style="fill:#100f0d;fill-opacity:1;fill-rule:nonzero;stroke:none"
         id="path30" />
      <path
         d="m 1419.88,875.559 c 0,8.793 -5.23,16.339 -12.74,19.742 1.3,2.269 2.08,4.859 2.08,7.66 0,8.617 -6.98,15.598 -15.6,15.598 -8.63,0 -15.61,-6.981 -15.61,-15.598 0,-4.66 2.07,-8.789 5.32,-11.672 -4.19,-3.937 -6.81,-9.519 -6.81,-15.73 0,-11.969 9.71,-21.668 21.68,-21.668 11.99,0 21.68,9.699 21.68,21.668"
         style="fill:#100f0d;fill-opacity:1;fill-rule:nonzero;stroke:none"
         id="path32" />
      <path
         d="m 1368.11,711.789 c 5.18,3.949 8.55,10.18 8.55,17.231 0,7.332 -3.66,13.808 -9.25,17.75 3.15,3.75 5.04,8.582 5.04,13.871 0,11.98 -9.72,21.679 -21.69,21.679 -1.8,0 -3.55,-0.25 -5.22,-0.66 2.42,5.031 3.83,10.649 3.83,16.602 0,5.578 -1.24,10.859 -3.37,15.636 11.25,0.813 20.11,10.141 20.11,21.614 0,9.328 -5.9,17.25 -14.16,20.297 8.09,7.019 13.24,17.363 13.24,28.902 0,13.238 -6.71,24.871 -16.91,31.75 5.91,6.719 9.52,15.527 9.52,25.187 0,8.473 -2.78,16.25 -7.44,22.571 6.04,2.16 10.36,7.871 10.36,14.652 0,8.609 -6.98,15.609 -15.6,15.609 -5.28,0 -9.91,-2.621 -12.74,-6.64 -7,8.66 -17.69,14.19 -29.68,14.19 -5.61,0 -10.91,-1.24 -15.71,-3.421 -3.66,6.831 -10.84,11.481 -19.12,11.481 -11.97,0 -21.67,-9.72 -21.67,-21.699 0,-10.879 8.02,-19.852 18.47,-21.422 -0.07,-0.809 -0.16,-1.61 -0.17,-2.438 -6.62,5.489 -15.12,8.801 -24.39,8.801 -13.93,0 -26.08,-7.461 -32.76,-18.582 -5.67,6.23 -13.81,10.172 -22.91,10.172 -14.46,0 -26.56,-9.922 -29.98,-23.332 -4.97,3.41 -10.99,5.398 -17.47,5.398 -17.1,0 -30.97,-13.847 -30.97,-30.957 0,-2.402 0.3,-4.722 0.82,-6.972 -8.22,7.48 -19.11,12.082 -31.1,12.082 -19.08,0 -35.45,-11.559 -42.53,-28.039 -4.96,3.41 -10.99,5.386 -17.47,5.386 -17.092,0 -30.967,-13.847 -30.967,-30.957 0,-2.511 0.29,-4.929 0.852,-7.261 L 1361.23,478.699 c 4.9,2.063 8.34,6.91 8.34,12.582 0,5.348 -3.11,9.93 -7.59,12.188 5.31,1.851 9.14,6.871 9.14,12.82 0,5.641 -3.39,10.449 -8.25,12.543 4.81,3.168 7.97,8.609 7.97,14.789 0,8.449 -5.9,15.481 -13.79,17.277 15.72,10.852 26.06,28.981 26.06,49.543 0,12.688 -3.96,24.438 -10.66,34.129 10.81,6.782 18.03,18.739 18.03,32.43 0,15.48 -9.17,28.77 -22.37,34.789"
         style="fill:#100f0d;fill-opacity:1;fill-rule:nonzero;stroke:none"
         id="path34" />
      <path
         d="m 1789.9,882.602 c -3.71,0 -7.21,-0.942 -10.27,-2.602 -3.75,12.871 -15.64,22.309 -29.73,22.309 -6.08,0 -11.71,-1.789 -16.5,-4.809 0.05,0.801 0.11,1.57 0.11,2.391 0,21.109 -17.1,38.238 -38.24,38.238 -4.95,0 -9.64,-0.981 -13.98,-2.688 -0.56,11.481 -10.02,20.641 -21.64,20.641 -11.97,0 -21.67,-9.703 -21.67,-21.684 0,-0.937 0.07,-1.859 0.19,-2.769 -5.45,8.871 -15.21,14.812 -26.39,14.812 -1.78,0 -3.5,-0.191 -5.21,-0.472 -0.24,20.922 -17.23,37.793 -38.21,37.793 -2.13,0 -4.21,-0.211 -6.25,-0.563 -1.04,11.02 -10.3,19.631 -21.58,19.631 -9.35,0 -17.28,-5.908 -20.33,-14.201 -0.96,0.07 -1.93,0.152 -2.91,0.152 -4.37,0 -8.56,-0.64 -12.57,-1.769 -3.72,9.828 -13.19,16.818 -24.31,16.818 -14.37,0 -26.02,-11.639 -26.02,-26.021 0,-4.418 1.12,-8.579 3.06,-12.227 -3.74,3.09 -8.53,4.977 -13.78,4.977 -11.98,0 -21.68,-9.719 -21.68,-21.688 0,-10.301 7.19,-18.91 16.82,-21.101 -2.82,-5.34 -4.43,-11.411 -4.43,-17.872 0,-12.398 5.93,-23.386 15.06,-30.378 -3.48,-6.5 -5.48,-13.95 -5.48,-21.848 0,-12.293 4.81,-23.41 12.61,-31.692 -2.55,-5.742 -3.99,-12.058 -3.99,-18.75 0,-2.589 0.25,-5.101 0.67,-7.57 -3.14,2.172 -6.84,3.57 -10.89,3.852 2.65,3.59 4.24,8.027 4.24,12.84 0,11.957 -9.71,21.679 -21.69,21.679 -11.97,0 -21.67,-9.722 -21.67,-21.679 0,-5.75 2.23,-10.981 5.88,-14.84 -9.07,-2.59 -15.73,-10.93 -15.73,-20.832 0,-11.989 9.72,-21.668 21.69,-21.668 0.69,0 1.35,0.097 2.01,0.16 -4,-6.832 -6.33,-14.774 -6.33,-23.274 0,-16.128 8.26,-30.316 20.78,-38.589 -16.56,-7.047 -28.16,-23.457 -28.16,-42.59 0,-13.879 6.12,-26.278 15.8,-34.758 -10.04,-6.891 -16.6,-18.43 -16.6,-31.5 0,-5.34 1.09,-10.422 3.06,-15.02 -2.78,-4.66 -4.41,-10.082 -4.41,-15.89 0,-6.719 2.17,-12.922 5.79,-17.992 -3.13,-2.5 -5.18,-6.309 -5.18,-10.637 0,-4.692 2.36,-8.813 5.94,-11.274 -3.73,-2.429 -6.21,-6.617 -6.21,-11.418 0,-0.871 0.11,-1.71 0.27,-2.539 -3.12,-2.5 -5.15,-6.3 -5.15,-10.621 0,-5.64 3.43,-10.5 8.33,-12.57 l 405.33,373.148 c 0.81,2.274 1.25,4.723 1.25,7.25 0,11.993 -9.72,21.704 -21.7,21.704"
         style="fill:#100f0d;fill-opacity:1;fill-rule:nonzero;stroke:none"
         id="path36" />
      <path
         d="m 1758.36,1301.8 0.01,-0.2 c -3.88,0.96 -7.89,1.52 -12.06,1.52 -27.87,0 -50.47,-22.6 -50.47,-50.48 0,-2.61 0.24,-5.17 0.63,-7.68 -2.96,1.31 -6.26,2.04 -9.7,2.04 -7.96,0 -15.02,-3.85 -19.44,-9.78 -4.57,1.51 -9.44,2.35 -14.5,2.35 -24.89,0 -45.12,-19.65 -46.17,-44.28 -1.57,0.32 -3.22,0.49 -4.9,0.49 -13.39,0 -24.25,-10.85 -24.25,-24.25 0,-4.06 1.02,-7.88 2.78,-11.26 -3.86,2.18 -8.3,3.42 -13.03,3.42 -14.75,0 -26.69,-11.93 -26.69,-26.66 0,-7.7 3.28,-14.6 8.49,-19.46 l 0.01,-0.28 c -6.2,-0.58 -11.31,-4.73 -13.29,-10.41 -0.77,-1.75 -1.22,-3.68 -1.22,-5.71 0,-4.94 2.55,-9.25 6.42,-11.76 2.64,-2.06 5.93,-3.35 9.57,-3.35 6.7,0 12.37,4.21 14.64,10.13 3.63,-1.96 7.79,-3.11 12.21,-3.11 1.99,0 3.95,0.25 5.8,0.68 -0.15,-1.61 -0.24,-3.24 -0.24,-4.88 0,-6.1 1.2,-11.93 3.36,-17.26 -8.62,-2.02 -15.06,-9.71 -15.06,-18.95 0,-2.85 0.64,-5.53 1.73,-7.96 2.78,-7.04 9.62,-12.04 17.64,-12.04 6.66,0 12.49,3.43 15.87,8.61 1.25,1.76 2.25,3.72 2.88,5.84 6.04,-2.86 12.73,-4.5 19.84,-4.5 2.2,0 4.33,0.19 6.44,0.5 -1.26,-3.37 -1.98,-7.01 -1.98,-10.8 0,-5.02 1.26,-9.72 3.37,-13.9 -1,0.18 -2,0.31 -3.06,0.31 -8.61,0 -15.6,-6.99 -15.6,-15.61 0,-8.632 6.99,-15.632 15.6,-15.632 7.79,0 14.19,5.723 15.37,13.182 4.21,-16.561 19.15,-28.811 37.02,-28.811 8.01,0 15.45,2.481 21.59,6.7 1.84,-15.368 14.88,-27.258 30.72,-27.258 8.08,0 15.41,3.109 20.92,8.16 -0.06,-0.922 -0.14,-1.84 -0.14,-2.801 0,-21.109 17.11,-38.23 38.24,-38.23 7.23,0 13.96,2.039 19.73,5.531 -2.89,-3.941 -4.62,-8.801 -4.62,-14.07 0,-13.172 10.69,-23.832 23.85,-23.832 7.97,0 15.01,3.91 19.34,9.902 l 0.01,-0.012 207.07,190.601 v 139.59 c 0,42.34 -45.59,95.25 -100.67,114.09 -12.35,4.23 -94,30.87 -94,30.87 -9.39,-0.72 -17.04,-7.67 -18.86,-16.71 -2.86,1.47 -6.1,2.32 -9.55,2.32 -11.55,0 -20.91,-9.37 -20.91,-20.92 0,-1.14 0.11,-2.24 0.29,-3.33 -6.37,4.74 -14.24,7.58 -22.8,7.58 -21.11,0 -38.23,-17.12 -38.23,-38.24"
         style="fill:#100f0d;fill-opacity:1;fill-rule:nonzero;stroke:none"
         id="path38" />
      <path
         d="m 1326.99,1334.55 -0.08,-0.83 -0.98,0.51 c 0.36,0.1 0.71,0.21 1.06,0.32 z m -232.64,620.62 c 0,-114.14 42.67,-274.28 125.86,-372.45 l -10.13,-104.12 -223.193,-80.75 c 3.566,-17.42 18.983,-30.53 37.463,-30.53 3.26,0 6.41,0.45 9.42,1.22 4.27,-16.46 19.17,-28.64 36.97,-28.64 1.89,0 3.72,0.19 5.53,0.45 4.38,-16.3 19.21,-28.31 36.89,-28.31 5.2,0 10.16,1.05 14.69,2.93 1.21,-12.26 11.54,-21.83 24.12,-21.83 2.47,0 4.88,0.37 7.13,1.07 3.09,-18.01 18.75,-31.72 37.63,-31.72 14.7,0 27.44,8.3 33.85,20.47 6.41,-4.89 14.4,-7.82 23.09,-7.82 5.63,0 10.96,1.24 15.77,3.43 4.97,-10.56 14.22,-18.71 25.51,-22.22 -0.47,-1.39 -0.79,-2.85 -0.79,-4.42 0,-7.75 6.31,-14.04 14.06,-14.04 7.76,0 14.05,6.29 14.05,14.04 0,1.74 -0.35,3.38 -0.93,4.92 16.39,5.74 28.14,21.31 28.14,39.66 0,8.4 -2.46,16.2 -6.7,22.75 6.86,0.94 12.16,6.75 12.16,13.87 0,6.06 -3.85,11.17 -9.23,13.14 5.88,6.71 9.45,15.47 9.45,25.1 0,1.84 -0.17,3.62 -0.41,5.4 14.4,5.48 24.65,19.37 24.65,35.71 0,10.22 -4.05,19.45 -10.58,26.29 1.2,-0.33 2.42,-0.56 3.71,-0.56 7.76,0 14.05,6.3 14.05,14.06 0,7.75 -6.29,14.04 -14.05,14.04 -3.09,0 -5.9,-1.02 -8.22,-2.71 -2.82,5.21 -7.88,8.99 -13.92,9.99 4.73,7.73 7.51,16.8 7.51,26.53 0,6.31 -1.19,12.31 -3.29,17.88 14.48,5.44 24.79,19.37 24.79,35.77 0,9.54 -3.5,18.23 -9.27,24.93 10.61,3.52 18.29,13.51 18.29,25.32 0,9.69 -5.2,18.14 -12.92,22.82 3.6,4.54 5.79,10.29 5.79,16.55 0,1.6 -0.18,3.16 -0.45,4.68 5.54,0.25 10.65,2.14 14.8,5.26 -0.31,-1.63 -0.48,-3.32 -0.48,-5.04 0,-9.46 4.95,-17.75 12.37,-22.49 -1.48,-4.06 -2.32,-8.42 -2.32,-13 0,-15.56 9.31,-28.92 22.65,-34.89 -1.22,-4.37 -1.93,-8.96 -1.93,-13.71 0,-16.18 7.62,-30.54 19.45,-39.79 -10.35,-4.52 -17.61,-14.85 -17.61,-26.88 0,-12.02 7.23,-22.32 17.55,-26.86 -2.07,-3.58 -3.27,-7.72 -3.27,-12.15 0,-9.72 5.7,-18.05 13.95,-21.94 -2.38,-5.86 -3.71,-12.24 -3.71,-18.94 0,-8.08 1.94,-15.7 5.31,-22.47 -1.6,-1.82 -3.1,-3.75 -4.45,-5.8 -2.53,2.59 -6.08,4.19 -9.98,4.19 -7.76,0 -14.05,-6.29 -14.05,-14.05 0,-7.76 6.29,-14.04 14.05,-14.04 0.66,0 1.29,0.1 1.94,0.19 -0.11,-1.29 -0.21,-2.59 -0.21,-3.9 0,-9.74 2.81,-18.8 7.58,-26.51 -4.07,-7.75 -6.42,-16.58 -6.42,-25.96 0,-14.37 5.46,-27.43 14.37,-37.34 -2.49,-3.97 -3.93,-8.66 -3.93,-13.69 0,-14.36 11.64,-26.01 26.01,-26.01 12.79,0 23.41,9.24 25.6,21.4 7.03,0.75 13.66,2.83 19.65,5.95 3.1,-6.7 9.84,-11.36 17.69,-11.36 10.77,0 19.5,8.73 19.5,19.52 0,8.15 -5.02,15.12 -12.14,18.04 1.98,4.26 3.38,8.83 4.26,13.56 4.2,-1.13 8.6,-1.8 13.17,-1.8 0.58,0 1.15,0.08 1.71,0.1 3.46,-8.8 11.99,-15.03 22.01,-15.03 7.69,0 14.53,3.71 18.82,9.42 2.42,-8.87 10.52,-15.39 20.17,-15.39 7.3,0 13.71,3.74 17.46,9.41 4.05,-2.48 8.81,-3.94 13.92,-3.94 14.72,0 26.67,11.93 26.67,26.67 0,4.91 -1.36,9.51 -3.68,13.47 2.04,-0.66 4.19,-1.02 6.42,-1.02 11.56,0 20.93,9.36 20.93,20.91 0,1 -0.09,1.94 -0.23,2.9 4.45,-8.58 13.37,-14.44 23.69,-14.44 14.55,0 26.35,11.65 26.65,26.12 6.95,4.3 11.78,11.7 12.54,20.29 1.37,-0.43 2.79,-0.73 4.28,-0.73 7.78,0 14.06,6.28 14.06,14.05 0,1.61 -0.29,3.16 -0.78,4.6 l -21.34,6.89 -222.81,71.75 -0.9,95.16 c 33.85,36.41 60.24,83.41 79.36,134.35 36.22,96.57 55.76,198.62 55.76,252.07 0,138.44 -132.22,317.96 -295.3,317.96 -163.09,0 -295.3,-142.36 -295.3,-317.96"
         style="fill:#100f0d;fill-opacity:1;fill-rule:nonzero;stroke:none"
         id="path40" />
      <path
         d="m 1035.18,946.922 c 0,1.519 -0.11,2.988 -0.28,4.457 5.68,-7.008 14.35,-11.508 24.07,-11.508 17.11,0 30.97,13.867 30.97,30.988 0,4.621 -1.04,8.993 -2.85,12.93 6.21,2.172 11.49,6.27 15.2,11.551 3.93,-4 9.4,-6.508 15.46,-6.508 11.98,0 21.68,9.719 21.68,21.688 0,6.23 -2.63,11.82 -6.85,15.78 7.94,3.86 13.96,11 16.34,19.66 4.99,-5.47 11.89,-9.16 19.66,-9.97 -3.14,-3.76 -5.03,-8.6 -5.03,-13.87 0,-11.97 9.71,-21.69 21.68,-21.69 11.98,0 21.68,9.72 21.68,21.69 0,9.81 -6.51,18.08 -15.44,20.76 6.9,5.68 11.29,14.28 11.29,23.92 0,2.83 -0.41,5.56 -1.13,8.17 0.94,-0.09 1.89,-0.15 2.85,-0.15 4.36,0 8.51,0.92 12.28,2.55 0.31,-8.34 7.14,-15.01 15.54,-15.01 8.63,0 15.62,6.99 15.62,15.62 0,8.41 -6.67,15.21 -15.01,15.54 1.62,3.77 2.54,7.91 2.54,12.28 0,2.67 -0.41,5.22 -1.05,7.68 h 0.01 c 7.77,0 14.06,6.29 14.06,14.06 0,7.76 -6.29,14.03 -14.06,14.03 -0.41,0 -0.79,-0.08 -1.19,-0.11 -0.8,11.7 -6.8,21.93 -15.79,28.39 0.07,0.88 0.15,1.78 0.15,2.7 0,21.13 -17.12,38.24 -38.24,38.24 -7.37,0 -14.21,-2.12 -20.04,-5.72 0.83,2.2 1.31,4.59 1.31,7.09 0,11.08 -8.97,20.04 -20.03,20.04 -1.98,0 -3.89,-0.29 -5.68,-0.82 0.27,1.8 0.43,3.62 0.43,5.49 0,21.12 -17.1,38.23 -38.23,38.23 -6.52,0 -12.68,-1.64 -18.07,-4.54 -4.83,7.88 -12.41,13.87 -21.45,16.6 1.16,2.53 1.82,5.33 1.82,8.3 0,11.06 -8.98,20.03 -20.03,20.03 -2.61,0 -5.09,-0.5 -7.37,-1.41 -0.14,21.01 -17.19,37.99 -38.223,37.99 -3.382,0 -6.648,-0.49 -9.785,-1.32 -3.054,7.18 -10.164,12.2 -18.449,12.2 -4.875,0 -9.367,-1.77 -12.84,-4.68 -1.332,9.78 -9.695,17.33 -19.832,17.33 -3.848,0 -7.433,-1.12 -10.476,-2.99 -53.04,-20.31 -97.059,-37.26 -113.864,-43.99 -37.422,-14.94 -65.273,-54.94 -65.273,-94.59 V 1106.32 L 950.145,896.281 c 2.117,-0.449 4.308,-0.691 6.554,-0.691 11.489,0 21.492,6.269 26.848,15.558 4.172,-1.578 8.664,-2.468 13.394,-2.468 21.119,0 38.239,17.109 38.239,38.242"
         style="fill:#100f0d;fill-opacity:1;fill-rule:nonzero;stroke:none"
         id="path42" />
    </g>
  </g>
</svg>
