<?xml version="1.0" encoding="UTF-8" standalone="no"?>
<!-- Created with Inkscape (http://www.inkscape.org/) -->

<svg
   version="1.1"
   id="svg2"
   width="367.33334"
   height="367.33334"
   viewBox="0 0 367.33334 367.33334"
   sodipodi:docname="skull_crossbones.eps"
   xmlns:inkscape="http://www.inkscape.org/namespaces/inkscape"
   xmlns:sodipodi="http://sodipodi.sourceforge.net/DTD/sodipodi-0.dtd"
   xmlns="http://www.w3.org/2000/svg"
   xmlns:svg="http://www.w3.org/2000/svg">
  <defs
     id="defs6" />
  <sodipodi:namedview
     id="namedview4"
     pagecolor="#ffffff"
     bordercolor="#000000"
     borderopacity="0.25"
     inkscape:showpageshadow="2"
     inkscape:pageopacity="0.0"
     inkscape:pagecheckerboard="0"
     inkscape:deskcolor="#d1d1d1" />
  <g
     id="g8"
     inkscape:groupmode="layer"
     inkscape:label="ink_ext_XXXXXX"
     transform="matrix(1.3333333,0,0,-1.3333333,0,367.33333)">
    <g
       id="g10"
       transform="scale(0.1)">
      <path
         d="M 2574.07,1386.28 1374.31,186.512 174.535,1386.28 1374.31,2586.05 2574.07,1386.28"
         style="fill:#ffffff;fill-opacity:1;fill-rule:nonzero;stroke:none"
         id="path12" />
      <path
         d="M 2513.02,1377.42 1377.63,2512.88 242.273,1377.42 1377.63,241.988 Z M 1377.41,0 0,1377.42 1377.41,2755.05 2754.99,1377.42 1377.41,0"
         style="fill:#ef2e31;fill-opacity:1;fill-rule:nonzero;stroke:none"
         id="path14" />
      <path
         d="m 1114.94,1689.91 c -1.28,-2.28 -3.28,-3.4 -8.12,-12.24 -4.67,-8.25 -5.7,-18.79 -5.4,-21.49 0.28,-2.71 0.28,-10.26 2.49,-16.52 1.64,-4.69 11.03,-21.82 13.17,-24.67 2.84,-3.95 4.26,-5.68 6.69,-8.68 2.27,-2.56 4.64,-4.98 6.85,-7.55 2.92,-3.4 0.98,-1.14 4.12,-4.55 2.01,-2.29 3.26,-3.4 5.82,-5.68 2.15,-1.86 3.2,-1.7 7.5,-4.4 4.34,-2.86 12.94,-16.39 17.99,-18.8 3.83,-1.71 10.51,-1 15.1,-1.28 4.52,-0.3 15.23,0 18.41,0 3.48,0 11.46,0.28 17.29,0.28 5.85,0 12.75,2.56 15.37,3.56 2.93,1.14 9.97,4.41 12.76,6.12 1.93,1.28 5.05,3.84 6.53,5.41 3.23,3.14 4.15,4.83 6.36,7.56 1.46,1.83 6.24,9.64 8.24,12.5 1.49,2.29 5.97,9.25 6.69,10.54 0.85,1.71 2.58,4.4 3.49,6 1.05,1.69 3.12,6.55 15.15,16.94 14.54,12.67 11.38,27.93 9.82,33.6 -2.21,8.28 -17.07,24.76 -39.77,24.76 -22.57,0 -112.82,-0.27 -128.76,-0.27 0,0 -17.27,-0.16 -17.79,-1.14 z m 339.91,0.84 c -2.14,0 -9.18,-4.24 -14.1,-7.38 -9.08,-5.7 -13.01,-6.69 -13.2,-12.27 -0.31,-10.09 -1.11,-23.76 4.67,-29.02 7.42,-6.69 15.09,-18.49 16.23,-20.22 6.11,-9.42 6.95,-9.42 12.65,-17.4 7,-10.11 9.69,-12.65 11.53,-15.51 2.54,-3.83 14.84,-18.5 19.53,-22.06 5.25,-4 9.96,-7.69 15.78,-9.67 5,-1.85 15.66,-2.14 20.78,-2.14 6.41,0 15.08,1.41 19.22,2.69 7.4,2.15 12.89,5.85 16.8,8.98 3.98,2.99 32.11,29.04 38.86,36.29 4.85,5.13 8.54,11.1 10.96,15.84 1.86,3.44 5.14,9.96 5.68,18.21 0.75,10.11 -1.83,53.38 -9.82,53.38 -7.95,0 -13.79,0 -44.32,0 -30.54,0 -81.77,-0.14 -104.47,0.17 0,0 -3.22,0.11 -6.78,0.11 z m -156.71,-270.88 c 0,1.11 0.85,-8.54 1.43,-10.26 0.69,-1.84 1.27,-5.98 4.68,-10.66 5.86,-7.99 14.09,-5 30.29,-5.28 16.29,-0.27 10.45,10.67 19.84,11.21 7.45,0.32 42.39,2.45 42.93,-3.96 0.86,-11.39 25.94,-10.1 34.91,-7.25 8.41,2.7 18.06,18.77 18.38,29.59 0.29,8.12 0.19,15.81 -3.34,22.23 -2.5,4.38 -5.36,9.52 -9.48,14.21 -3.79,4.15 -11.25,5.99 -12.38,11.68 -1.17,5.55 -1.17,5.26 -1.86,11.53 -0.72,6.41 0.57,17.79 -7.12,36.57 -8.97,21.79 -35.9,20.51 -51.8,20.51 -15.96,0 -24.61,-5.12 -28.91,-8.69 -5.06,-4.41 -6.83,-6.54 -8.95,-11.22 -2.67,-5.71 -3.36,-12.4 -4.27,-17.96 -1.02,-5.4 -1.57,-12.09 -1.57,-21.9 0,-10.4 -2.15,-17.65 -10.95,-27.19 -10.4,-11.27 -12.27,-7.98 -12.05,-23.63 0,0 0.22,-11.82 0.22,-9.53 z M 751.191,1153.4 c 3.758,-4.41 10.938,-12.27 13.313,-14.1 0.586,-0.43 4.402,-2.27 8.262,-0.12 3.894,2.23 3.132,11.21 3.132,16.37 0,4.96 1.348,7.93 5.547,12.65 3.274,3.56 4.539,4.54 6.309,5.71 2.5,1.56 8.469,1.99 13.84,1.68 5.332,-0.12 8.023,-4.81 15.379,-19.34 7.238,-14.65 24.98,-101.95 27.968,-114.61 1.27,-5.12 2.539,-22.77 24.192,-23.32 19.707,-0.58 33.711,-3.44 44.383,14.06 8.964,14.57 16.535,68.75 42.004,94.69 25.543,26.06 27.273,29.18 101.79,61.92 74.54,32.73 79.44,35.43 95.15,43.71 15.73,8.24 24.68,9.37 13.59,29.14 -9.54,16.95 -5.84,18.67 -32.73,6.99 -26.97,-11.68 -146.211,-63.75 -157.871,-69.88 -11.679,-6.14 -23.144,-19.53 -30.82,-23.36 -9.609,-4.81 -28.399,-3.83 -44.629,0.31 -16.277,4.1 -40,16.48 -55.852,18.91 -11.035,1.6 -52.73,1.44 -61.714,-0.71 -9.321,-2.26 -21.489,-8.83 -25.879,-10.97 -6.985,-3.4 -11.977,-6.25 -12.473,-11.64 -1.062,-12 7.109,-18.09 7.109,-18.09 z M 1896.83,1023.44 c 5.41,3.83 7.48,6.68 9.37,9.84 1.86,3.24 8.73,16.92 14.42,51.96 4.96,31.56 13.49,75.27 16.19,80.54 2.71,5.28 7.69,7.27 13.24,7.42 6.29,0.12 12.38,-1.17 14.1,-6.44 2.27,-6.84 1.29,-14.92 1.41,-21.76 0.15,-5.7 -1.55,-12.23 8,-6.99 11.1,6.29 20.47,11.09 23.72,14.69 2.18,2.42 1.17,1.83 1.44,16.75 0.31,14.85 -4.55,17.39 -9.65,19.97 -3.85,2.14 -9.82,6.09 -28.2,5.54 -18.44,-0.7 -47.56,0.55 -60.2,-1.56 -12.24,-2.15 -49.66,-19.81 -53.94,-20.51 -8.48,-1.72 -24.38,-1.4 -35.61,2.27 -11.23,3.75 -39.43,27.5 -53.71,33.32 -13.61,5.54 -54.47,21.25 -102.56,43.55 -48.24,22.35 -61.93,28.05 -66.75,29.89 -4.73,1.87 -8.48,4.57 -9.85,3.86 -1.19,-0.58 -5.54,-8.4 -5.54,-8.4 -2.41,-4.68 -8.74,-12.96 -10.36,-16.36 -2.89,-5.39 -9.29,-9.69 25.08,-25.35 39.1,-17.93 108.2,-50.94 112.66,-53.4 4.45,-2.39 69.26,-32.43 83.01,-38.83 8.24,-3.87 17.77,-19.38 20.76,-25.63 5.88,-11.83 9.41,-19.37 10.99,-24.18 0.84,-3.12 3.81,-14.8 7.37,-27.93 6.42,-23.9 11.25,-30.03 18.65,-37.57 9.61,-9.81 19.96,-11.41 34.88,-11.53 0,0 7.66,0.86 10.18,1.41 6.35,1.72 10.9,5.43 10.9,5.43 z m -333.79,408.8 c 0,0 0.35,6.98 -1.27,5.54 -1.72,-1.27 -4.98,-4.14 -10.12,-7.96 -6.13,-4.56 -6.72,-4.98 -9.96,-7.55 -2.29,-1.7 -4.61,-3.26 -7.13,-4.85 -2.69,-1.56 -4.67,-3.26 -6.95,-4.41 -2.25,-1.13 -10.88,-5.82 -10.69,-8.24 0.28,-4.1 -1.27,-52.97 -2.71,-58.21 -1.41,-5.43 -7.09,-8.39 -16.39,-15.39 -9.22,-6.99 -14.37,-10.39 -19.43,-13.63 -6.74,-4.61 -13.58,-8.12 -21.43,-12.7 -7.81,-4.41 -27.58,-14.37 -35.86,-17.77 -6.23,-2.58 -11.5,-4.3 -26.03,-7.58 -14.51,-3.43 -26.43,-2.69 -41.54,-1.09 -18.09,1.84 -48.15,12.34 -65.23,18.48 -16.98,6.13 -34.94,12.65 -45.4,19.8 -7.37,5.12 -9.94,6.95 -17.94,14.06 -8.33,7.54 -10.24,10.39 -10.24,17.23 0,6.68 -0.27,16.21 0,37.42 0.3,21.21 -1.51,28.05 -7.95,33.45 -11.85,10.12 -12.82,9.27 -22.35,13.83 -10.04,4.85 -14.68,6.69 -19.52,8.53 -5.25,2.15 -7.26,3.69 -7.26,-3.27 0,-6.98 -0.56,-82.42 0.85,-84.14 1.43,-1.68 4.57,-9.37 6.13,-13.36 1.71,-4.41 4.63,-8.98 6.11,-11.68 1.65,-3.12 6.35,-10.39 7.29,-11.8 3.67,-6.13 6.4,-11.09 9.96,-16.09 2.83,-4.14 3.17,-5 5.26,-7.97 2.42,-3.4 1.97,-3.71 5.41,-8.83 2.13,-3.12 1.36,-2.57 3.39,-4.96 1.85,-2.42 3.42,-4.84 6.71,-8.98 3.42,-4.3 2.83,-6.72 27.88,-24.77 25,-18.04 84.43,-45.27 116.31,-49.84 23.55,-3.4 62.62,5.16 76.29,10.7 13.75,5.67 15.94,3.83 50.66,31.29 30.88,24.34 38.17,36.6 49.67,51.52 32.32,41.61 33.07,39.73 32.91,52 -0.12,7.81 0.57,91.22 0.57,91.22 z m 46.27,-54.07 c 2.4,0.85 6.11,2.96 13.67,6.25 7.5,3.39 79.1,38.59 92.23,45.26 12.81,6.54 89.1,43.96 92.46,45.83 3.32,2 8.16,3.98 14.41,6.11 7.48,2.72 17.95,5.41 21.21,6.26 2.09,0.43 21.21,3.57 25.55,3.86 2.65,0.27 13.9,0.69 16.09,0.58 12.74,-0.87 20,-3.16 23.87,-3.85 3.98,-0.71 11.37,-2.73 15.21,-4.27 1.98,-1.01 17.37,-7.98 18.79,-8.84 2.72,-1.42 4.4,-2.41 9.4,-5.41 9.88,-6.1 12.38,-6.69 29.68,-6.81 17.29,-0.31 17.86,-1.56 17.86,5.41 0,2.12 0.45,17.63 0,30.87 -0.57,19.93 1.01,22.07 -4.07,22.49 -8.16,0.56 -4.25,-4.41 -5.78,-8.96 -1.68,-5.14 -20.95,-2.14 -23.16,-1.57 -8.79,2.29 -14.26,7.11 -13.91,46.7 0.35,29.6 9.2,19.5 7.58,29.6 -1.35,7.96 -8.32,28.61 -12.48,38.46 -3.28,7.41 -12.11,12.1 -23.91,11.53 -23.34,-1.13 -34,-11.37 -45.25,-24.67 -8.55,-9.96 -11.41,-23.92 -34.18,-53.38 -14.22,-18.49 -23.63,-22.64 -33.16,-27.88 -4.26,-2.44 -15.79,-8.55 -22.56,-12.26 -9.03,-5.11 -30.76,-18.51 -94.14,-48.38 -63.5,-29.9 -86.12,-37.71 -86.08,-52.51 0.08,-10.27 -0.04,-18.51 -0.04,-27.91 0,-0.29 0,-4.12 0,-4.43 0,0 -0.15,-8.51 0.71,-8.08 z m -585.34,394.01 c -1.32,7.68 -3.33,44.99 -3.11,53.24 0.28,8.25 0.86,30.04 15.38,45.83 14.21,15.66 34.45,35.32 38.78,39.98 5.77,6.13 5.77,10.4 5.89,12.54 0.29,4.41 10.06,3.43 14.68,3.43 6.99,0 7.12,-1.3 7.84,-21.2 0.69,-19.95 -5.44,-22.37 -9,-26.65 -4.83,-5.83 -28.17,-24.89 -33.23,-35.14 -4.74,-9.54 -2.42,-53.24 -2.42,-69.33 0,-17.64 18,-47.96 20.36,-67.33 3.28,-26.74 -4.92,-27.46 -10.59,-37 -3.28,-5.27 -1.35,-74.76 -1.58,-82.87 -0.27,-9.98 -1.42,-29.47 80.86,-84.98 82.34,-55.66 88.96,-54.94 97.84,-77.3 5.65,-13.95 -0.21,-51.81 4.79,-65.32 4.11,-11.41 13.59,-14.65 25.48,-20.24 8.53,-3.82 11.11,-4.53 28.61,-11.09 15.6,-5.7 17.5,-6.83 31.16,-9.8 13.99,-3.01 16.53,-3.44 22.58,-3.99 7.74,-0.74 9.3,-1.13 18.56,-0.74 8.12,0.47 14.96,1.45 27.34,5.43 12.11,3.83 30.98,14.22 37.42,18.2 4.77,2.85 11.23,6.41 17.23,10.55 9.84,6.84 18.63,12.27 21.29,17.07 2.61,4.84 3.18,31.05 3.18,48.55 0,19.92 120.29,99.47 137.68,112.58 1.25,1 37.42,23.5 38.63,57.65 1.33,40.03 0.27,77.47 0.19,82.89 -0.11,5.41 -5.27,14.5 -8.53,18.5 -2.56,2.98 -1.27,17.08 -1.11,19.5 0.25,2.41 12.65,46.55 20.62,63.19 6.52,13.38 7.38,52.67 5.12,63.34 -4.77,21.51 -30.61,41.57 -39.88,49.98 -9.22,8.54 -13.13,10.69 1.87,22.76 15.1,12.26 15.37,14.68 27.77,1.7 12.39,-12.8 30.14,-29.59 37.13,-49.66 7.13,-20.22 7.41,-27.34 7.13,-42.28 -0.15,-15.09 -3.69,-38.86 2.64,-21.62 6.33,17.21 17.6,13.23 17.99,30.59 0.37,18.79 0.58,51.8 0.19,59.51 -0.31,8.81 -7.42,9.82 -13.26,10.1 -5.84,0.29 -99.86,92.8 -111.03,102.48 -11.1,9.8 -19.58,18.22 -31.63,29.03 -7.05,6.42 -25.76,22.22 -46.11,34.02 -56.01,32.31 -84.69,42.13 -131.52,47.42 -59.07,6.82 -96.8,-3.29 -139.91,-17.95 -30.76,-10.37 -73.04,-18.49 -169.4,-120.14 -69.25,-73.02 -68.9,-76.43 -83.11,-76.43 -13.659,0 -15.464,-51.23 -12.534,-58.22 2.844,-7.11 9.964,-1.85 9.964,-26.05 0,-17.95 10.1,-31.01 15.77,-39.14 10.92,-15.37 9,-12.09 9,-12.09 z m 95.51,-329.55 c -2.4,1.57 -2.26,1.57 -18,9.55 -15.79,7.95 -78.77,30.16 -137.125,62.9 -40.832,22.75 -55.957,47.98 -70.656,67.89 -8.277,11.24 -9.781,12.55 -19.031,27.19 -6.973,11.41 -17.371,21.52 -38.789,22.25 -8.457,0.14 -14.895,-0.29 -28.543,-0.44 -18.481,-0.42 -18.352,-15.95 -18.352,-23.08 0,-3.43 3.223,-94.52 -4.265,-96.67 -10.239,-2.98 -23.188,-1.69 -27.453,5.28 -3.028,4.84 -3.086,13.37 -6.133,11.8 -4.57,-2.12 -7.403,-4.26 -7.266,-9.64 0,-3.59 -0.996,-19.25 0.988,-22.66 1.708,-3.13 9.969,-9.12 9.825,-13.81 -0.762,-17.5 0.144,-19.64 3.101,-20.5 3.813,-1.11 22.434,-1.11 27.297,1.43 6.172,3.44 16.27,11.39 30.098,20.08 16.015,10.08 21.433,13.1 46.394,13.81 22.219,0.69 59.946,-13.1 72.325,-18.95 12.367,-5.83 134.795,-63.79 160.535,-77.13 26.1,-13.55 28.4,-14.39 28.4,-7.87 0,6.61 0.22,33.33 0,42.3 0,0 -0.91,4.84 -3.35,6.27 z M 883.086,979.77 c -15.652,-0.469 -38.242,2.691 -48.418,9.371 -11.648,7.847 -23.914,15.239 -35.723,41.719 -8.105,18.05 -7.832,51.09 -15.078,57.5 -8.269,7.23 -72.734,30 -78.015,68.16 -5.129,38.29 13.367,45.12 57.222,65.2 23.489,10.66 55.793,11.09 59.946,11.09 4.683,0 17.5,-0.11 22.339,-0.11 4.985,0 19.375,-1.02 22.207,-1.02 4.985,0 20.5,-0.7 23.633,-0.7 2.114,0 20.766,-1.14 36.926,-0.86 15.313,0.15 30.957,0.15 43.75,5.97 8.906,3.99 100.385,47.27 137.945,63.64 36.45,15.78 16.8,37.15 12.95,39.88 -6.98,4.65 -9.87,6.52 -18.51,11.09 -8.54,4.65 -132.651,67.31 -193.584,100.32 -14.145,7.7 -63.008,1.28 -67.629,0.28 -6.438,-1.56 -10.371,-2.56 -16.359,-3.96 -6.383,-1.43 -14.059,-5.15 -19.352,-8.42 -11.516,-6.96 -13.664,-8.39 -42.109,-8.39 -22.356,0.15 -25.918,2.86 -33.899,6.25 -7.961,3.3 -11.379,10.26 -13.215,13.69 -4.05,7.52 -7.554,15.52 -8.55,19.35 -1.575,6.4 -4.512,14.66 -4.102,24.76 0.242,10.1 2.527,38.14 3.797,42.7 1.301,4.98 1.164,8.53 4.98,17.09 2.364,5.25 6.375,15.65 14.258,19.94 7.949,4.26 20.352,7.96 21.555,15.23 1.238,7.38 7.215,30.33 8.394,35.89 1.223,5.42 3.086,21.08 27.278,39.41 24.101,18.36 53.066,8.73 70.73,1 17.793,-7.53 64.055,-55.54 71.313,-62.8 8.113,-8.38 20.195,-18.36 29.746,-26.9 13.367,-11.95 49.808,-36.85 77.008,-53.67 27.91,-17.08 12.39,4.42 7.24,11.84 -5.25,7.25 -18.48,19.78 -20.1,31.02 -1.64,11.1 4.74,110.36 -2.5,131.55 -4.48,12.96 -37.722,81.99 -50.613,101.63 -12.883,19.49 -12.578,31.18 -12.031,59.08 0.664,27.75 0.718,37.43 8.394,44.56 7.695,6.98 3.567,11.52 14.25,24.48 10.664,12.8 65.46,54.94 91.53,78.28 25.89,23.2 72.29,65.34 103.9,86.42 17.49,11.65 47.16,23.47 58.37,28.02 11.65,4.56 47.05,13.09 60.69,16.23 19.87,4.69 58.45,8.25 70.11,8.25 8.09,0 40,-1 58.36,-4.69 17.52,-3.56 31.91,-6.27 45.55,-10.53 18.67,-5.84 33.79,-12.52 43.1,-17.24 13.69,-6.84 40.67,-22.92 49.08,-28.74 13.13,-8.97 26.37,-18.37 33.5,-25.2 24.9,-23.48 61.35,-51.96 123.12,-112.16 52.25,-50.82 60.67,-77.72 59.71,-93.93 -0.92,-16.24 -15.58,-58.53 -21.68,-70.05 -13.1,-24.62 -53.47,-74 -54.26,-91.07 -1.4,-32.19 8.4,-33.62 8.72,-43.71 0.82,-40.48 0.39,-84.31 -3.68,-91.87 -6.91,-13.08 -13.12,-20.06 -21.25,-28.46 -10.52,-11.25 -28.34,-31.03 -34.02,-33.86 -3.05,-1.6 35.31,17.5 42.97,20.49 7.69,3.14 68.18,32.58 72.97,35.14 3.36,1.73 6.58,3.44 8.61,4.29 1.97,0.83 11.93,5.53 17.21,8.53 5.13,3.15 10.97,8.39 16.44,13.96 5.47,5.54 11.02,15.93 14.57,23.48 3.01,6.25 8.64,16.08 14.14,21.39 3.17,3.26 7.66,8.55 8.21,9.12 2.77,2.83 7.3,7.54 12.54,12.09 17.81,15.22 43.71,32.76 65.35,33.29 17.22,0.43 45.84,-8.4 55.78,-23.61 7.56,-11.39 13.83,-59.4 20.29,-63.96 6.41,-4.55 28.77,-22.2 34.24,-33.32 4.39,-8.94 6.25,-16.78 6.97,-25.02 0.57,-7.56 1.06,-26.07 0.22,-33.18 -1.27,-10.81 -1.64,-13.09 -4.12,-24.75 -2.43,-11.54 -11.96,-26.62 -14.52,-29.63 -9.62,-10.81 -23.16,-13.81 -58.88,-9.54 -35.78,4.41 -17.72,20.21 -69.75,21.78 -58.61,1.73 -74.59,-10.68 -86.56,-17.37 -11.91,-6.82 -135.78,-72.88 -180.04,-91.51 -44.41,-18.64 -21.05,-25.36 -10.39,-30.63 10.68,-5.08 161.15,-73.28 184.92,-88.63 16.7,-10.71 31.45,-15.82 91.37,4.69 54.32,18.63 97.34,-4.69 109.37,-11.29 8.05,-4.38 27.13,-13.48 34.18,-36.96 3.48,-11.83 -0.21,-25.93 -0.91,-30.78 -0.84,-6.52 -1.86,-10.23 -3.56,-16.21 -2.69,-9.53 -7.77,-17.93 -14.26,-21.91 -9.31,-5.86 -25.66,-11.53 -31.87,-14.1 -2.01,-0.86 -27.68,-6.57 -31.82,-24.34 -2.19,-9.1 -7.07,-33.91 -8.96,-43.28 -1.04,-4.96 -3.23,-15.94 -12.01,-27.74 -8.91,-12.111 -17.97,-21.951 -37.58,-22.38 -16.25,-0.391 -45.28,-4.098 -63.21,3.992 -15.39,6.988 -14.66,7.137 -21.99,13.976 -5.33,4.962 -7.5,8.522 -9.76,12.072 -1.76,3.12 -6.55,10.98 -10.08,20.51 -2.42,6.25 -4.42,14.1 -6.56,22.07 -1.72,6.13 -3.21,9.8 -7.35,26.21 -3.05,12.23 -4.88,21.33 -17.17,30.16 -12.2,8.94 -35.68,18.63 -45.52,23.9 -9.83,5.16 -138.66,67.62 -143.68,69.92 -5.37,2.23 -36.32,18.6 -45.76,17.35 -3.36,-0.59 -12.18,-11.84 -44.78,-30.75 -29.26,-17.1 -69.26,-33.04 -84.34,-35.03 -27.48,-3.4 -50.04,3.55 -70.18,9.53 -19.49,5.74 -77.38,27.89 -98.08,42.73 -19.79,14.22 -18.63,9.53 -36.29,0.59 -17.65,-8.83 -139.34,-68.95 -168.72,-81.6 -17.6,-7.54 -27.695,-11.37 -32.976,-19.34 -6.692,-9.73 -10.676,-20.35 -15.09,-29.49 -4.406,-9.22 -8.489,-18.79 -11.883,-27.03 -3.496,-8.56 -5.332,-11.96 -9.68,-20.51 -2.636,-5.39 -5.605,-10.94 -8.965,-17.07 -3.339,-6.13 -11.179,-24.448 -26.472,-29.339 0,0 -8.672,-2.972 -33.508,-3.511"
         style="fill:#211c1d;fill-opacity:1;fill-rule:nonzero;stroke:none"
         id="path16" />
    </g>
  </g>
</svg>
