<svg xmlns="http://www.w3.org/2000/svg" viewBox="-2 -2 104 64">
<style>

rect {fill: #28A058}
rect.Green {fill: #40B070}
polyline {fill: none}

rect.White, line, circle {
	fill: none;
	stroke: white;
	stroke-width: 0.2;
}

g.Red * {
	stroke: red;
	stroke-width: 0.4;
}

g.Blue * {
	stroke: blue;
	stroke-width: 0.4;
}

</style>
<rect x="-2" y="-2" width="104" height="64"></rect>
<rect class="Green" x="0" y="0" width="10" height="60"></rect>
<rect class="Green" x="20" y="0" width="10" height="60"></rect>
<rect class="Green" x="40" y="0" width="10" height="60"></rect>
<rect class="Green" x="60" y="0" width="10" height="60"></rect>
<rect class="Green" x="80" y="0" width="10" height="60"></rect>
<rect class="White" x="0" y="0" width="100" height="60"></rect>
<rect class="White" x="0" y="15" width="12" height="30"></rect>
<rect class="White" x="88" y="15" width="12" height="30"></rect>
<line x1="50" y1="0" x2="50" y2="60"></line>
<circle cx="50" cy="30" r="12"></circle>
<circle cx="50" cy="30" r="0.4" style="fill: white"></circle>
<g class="Red" transform="rotate(-45 40,20) translate(40,20)">
	<line x1="0" y1="0" x2="-42.4264" y2="0"></line>
	<polyline points="-3,-2 0,0 -3,2"></polyline>
</g>
<g class="Red" transform="translate(80,20)">
	<line x1="0" y1="0" x2="-40" y2="0"></line>
	<polyline points="-3,-2 0,0 -3,2"></polyline>
</g>
<g class="Blue" transform="rotate(-23.1986 80,20) translate(80,20)">
	<line x1="0" y1="0" x2="-76.1577" y2="0"></line>
	<polyline points="-3,-2 0,0 -3,2"></polyline>
</g>
</svg>