<?xml version="1.0" encoding="UTF-8" standalone="no"?>
<svg
   version="1.1"
   width="800"
   height="600"
   id="svg87"
   sodipodi:docname="2HR.svg"
   inkscape:version="1.3.2 (091e20e, 2023-11-25, custom)"
   xmlns:inkscape="http://www.inkscape.org/namespaces/inkscape"
   xmlns:sodipodi="http://sodipodi.sourceforge.net/DTD/sodipodi-0.dtd"
   xmlns:xlink="http://www.w3.org/1999/xlink"
   xmlns="http://www.w3.org/2000/svg"
   xmlns:svg="http://www.w3.org/2000/svg">
  <sodipodi:namedview
     id="namedview87"
     pagecolor="#ffffff"
     bordercolor="#666666"
     borderopacity="1.0"
     inkscape:showpageshadow="2"
     inkscape:pageopacity="0.0"
     inkscape:pagecheckerboard="0"
     inkscape:deskcolor="#d1d1d1"
     inkscape:zoom="1.355"
     inkscape:cx="400"
     inkscape:cy="300"
     inkscape:window-width="2560"
     inkscape:window-height="1009"
     inkscape:window-x="-8"
     inkscape:window-y="-2"
     inkscape:window-maximized="1"
     inkscape:current-layer="svg87" />
  <title
     id="title1">VFPt_cylindrical_coil_real</title>
  <desc
     id="desc1">VFPt_cylindrical_coil_real
created with VectorFieldPlot 1.1
http://commons.wikimedia.org/wiki/User:Geek3/VectorFieldPlot

about: http://commons.wikimedia.org/wiki/File:VFPt_cylindrical_coil_real.svg
rights: GNU Free Documentation license,
        Creative Commons Attribution ShareAlike license
  </desc>
  <defs
     id="defs7">
    <rect
       x="661.99262"
       y="186.71587"
       width="80.442804"
       height="89.298893"
       id="rect98" />
    <radialGradient
       id="white_spot"
       cx="0.65"
       cy="0.7"
       r="0.75">
      <stop
         stop-color="#ffffff"
         offset="0"
         stop-opacity="0.7"
         id="stop1" />
      <stop
         stop-color="#ffffff"
         offset="0.1"
         stop-opacity="0.5"
         id="stop2" />
      <stop
         stop-color="#ffffff"
         offset="0.6"
         stop-opacity="0"
         id="stop3" />
      <stop
         stop-color="#000000"
         offset="0.6"
         stop-opacity="0"
         id="stop4" />
      <stop
         stop-color="#000000"
         offset="0.75"
         stop-opacity="0.05"
         id="stop5" />
      <stop
         stop-color="#000000"
         offset="0.85"
         stop-opacity="0.15"
         id="stop6" />
      <stop
         stop-color="#000000"
         offset="1"
         stop-opacity="0.5"
         id="stop7" />
    </radialGradient>
    <path
       id="arrow1"
       stroke="none"
       fill="#000000"
       transform="scale(0.01)"
       d="M 0.3,0 L -2.2,2.25 L 3.8,0 L -2.2,-2.25 L 0.3,0 Z" />
    <radialGradient
       inkscape:collect="always"
       xlink:href="#white_spot"
       id="radialGradient87"
       cx="4.4999993"
       cy="5.9999996"
       r="22.5"
       fx="4.4999993"
       fy="5.9999996"
       gradientUnits="userSpaceOnUse" />
    <radialGradient
       inkscape:collect="always"
       xlink:href="#white_spot"
       id="radialGradient88"
       cx="4.4999993"
       cy="5.9999996"
       r="22.5"
       fx="4.4999993"
       fy="5.9999996"
       gradientUnits="userSpaceOnUse" />
    <radialGradient
       inkscape:collect="always"
       xlink:href="#white_spot"
       id="radialGradient89"
       cx="4.4999993"
       cy="5.9999996"
       r="22.5"
       fx="4.4999993"
       fy="5.9999996"
       gradientUnits="userSpaceOnUse" />
    <radialGradient
       inkscape:collect="always"
       xlink:href="#white_spot"
       id="radialGradient90"
       cx="4.4999993"
       cy="5.9999996"
       r="22.5"
       fx="4.4999993"
       fy="5.9999996"
       gradientUnits="userSpaceOnUse" />
    <radialGradient
       inkscape:collect="always"
       xlink:href="#white_spot"
       id="radialGradient91"
       cx="4.4999993"
       cy="5.9999996"
       r="22.5"
       fx="4.4999993"
       fy="5.9999996"
       gradientUnits="userSpaceOnUse" />
    <radialGradient
       inkscape:collect="always"
       xlink:href="#white_spot"
       id="radialGradient92"
       cx="4.4999993"
       cy="5.9999996"
       r="22.5"
       fx="4.4999993"
       fy="5.9999996"
       gradientUnits="userSpaceOnUse" />
    <radialGradient
       inkscape:collect="always"
       xlink:href="#white_spot"
       id="radialGradient93"
       cx="4.4999993"
       cy="5.9999996"
       r="22.5"
       fx="4.4999993"
       fy="5.9999996"
       gradientUnits="userSpaceOnUse" />
    <radialGradient
       inkscape:collect="always"
       xlink:href="#white_spot"
       id="radialGradient94"
       cx="4.4999993"
       cy="5.9999996"
       r="22.5"
       fx="4.4999993"
       fy="5.9999996"
       gradientUnits="userSpaceOnUse" />
    <radialGradient
       inkscape:collect="always"
       xlink:href="#white_spot"
       id="radialGradient95"
       cx="4.4999993"
       cy="5.9999996"
       r="22.5"
       fx="4.4999993"
       fy="5.9999996"
       gradientUnits="userSpaceOnUse" />
    <radialGradient
       inkscape:collect="always"
       xlink:href="#white_spot"
       id="radialGradient96"
       cx="4.4999993"
       cy="5.9999996"
       r="22.5"
       fx="4.4999993"
       fy="5.9999996"
       gradientUnits="userSpaceOnUse" />
    <radialGradient
       inkscape:collect="always"
       xlink:href="#white_spot"
       id="radialGradient97"
       cx="4.4999993"
       cy="5.9999996"
       r="22.5"
       fx="4.4999993"
       fy="5.9999996"
       gradientUnits="userSpaceOnUse" />
    <radialGradient
       inkscape:collect="always"
       xlink:href="#white_spot"
       id="radialGradient98"
       cx="4.4999993"
       cy="5.9999996"
       r="22.5"
       fx="4.4999993"
       fy="5.9999996"
       gradientUnits="userSpaceOnUse" />
    <rect
       x="661.99261"
       y="186.71587"
       width="80.442802"
       height="89.298897"
       id="rect98-3" />
  </defs>
  <g
     id="g98">
    <rect
       id="background"
       x="0"
       y="0"
       width="800"
       height="600"
       fill="#ffffff" />
    <g
       id="fieldlines"
       fill="none"
       stroke="#000000"
       stroke-width="0.02"
       stroke-linejoin="round"
       stroke-linecap="round"
       transform="matrix(100,0,0,-100,400,300)">
      <g
         id="fieldline1">
        <path
           d="m 0,-0.7839 0.0151,0.0012 0.0153,0.0039 0.0158,0.0068 0.0168,0.01 0.0183,0.0143 0.0226,0.0213 0.0485,0.0501 0.0221,0.0198 0.0198,0.0146 0.0189,0.011 0.0187,0.008 0.0186,0.0052 0.0185,0.0027 0.0185,10e-5 0.0185,-0.0024 0.0183,-0.0049 0.0183,-0.0076 0.0183,-0.0105 0.0186,-0.0136 0.0194,-0.0176 0.022,-0.0238 0.0552,-0.0674 0.0212,-0.0226 0.0179,-0.0158 0.0161,-0.0112 0.0149,-0.0075 0.0138,-0.0043 0.0131,-0.0016 0.0126,0.001 0.0126,0.0036 0.0127,0.0064 0.0134,0.0098 0.0148,0.0142 0.0184,0.0223 0.0382,0.053 0.0216,0.0275 0.0182,0.0196 0.0174,0.0152 0.0172,0.0118 0.0172,0.0089 0.0173,0.0062 0.0174,0.0035 0.0172,0.001 L 0.8564,-0.6233 0.8732,-0.6274 0.8895,-0.6339 0.9052,-0.643 0.9201,-0.6546 0.934,-0.6687 0.9467,-0.6852 0.958,-0.7041 0.9674,-0.725 0.9746,-0.7472 0.9794,-0.7699 0.9816,-0.7924 0.9812,-0.8143 0.9784,-0.8354 0.9731,-0.8556 0.9654,-0.8752 0.9553,-0.8941 0.9426,-0.9122 0.9274,-0.9294 0.9098,-0.9456 0.8897,-0.9604 0.8673,-0.9738 0.8427,-0.9855 0.8156,-0.9955 0.7855,-1.0038 0.7508,-1.0105 0.686,-1.019 0.6512,-1.0246 0.6249,-1.0312 0.5999,-1.0401 0.5716,-1.0531 0.5234,-1.0794 0.4688,-1.1091 0.4276,-1.1288 0.3887,-1.1447 0.3498,-1.1579 0.3101,-1.1687 0.2687,-1.1772 0.2247,-1.1837 0.1761,-1.1882 0.1176,-1.1907 l -0.1115,-7e-4 -0.1181,6e-4 -0.0601,0.0024 -0.0492,0.0043 -0.0442,0.0063 -0.0415,0.0084 -0.0398,0.0106 -0.039,0.013 -0.039,0.0158 -0.0408,0.0193 -0.0523,0.0282 -0.051,0.028 -0.029,0.0136 -0.0252,0.0092 -0.0262,0.0067 -0.034,0.0057 -0.0663,0.0086 -0.0349,0.0067 -0.0301,0.0082 -0.0272,0.0099 -0.0247,0.0117 -0.0225,0.0133 -0.0201,0.0148 -0.0178,0.0161 -0.0152,0.0172 -0.0128,0.0181 -0.0102,0.0188 -0.0078,0.0196 -0.0054,0.0202 -0.0029,0.0211 -4e-4,0.0218 0.0021,0.0225 0.0047,0.0227 0.0071,0.0222 0.0094,0.021 0.0112,0.0189 0.0126,0.0167 0.0139,0.0142 0.0148,0.0116 0.0157,0.0092 0.0163,0.0067 0.0168,0.0041 0.0171,0.0016 0.0172,-8e-4 0.0174,-0.0035 0.0173,-0.006 0.0172,-0.0088 0.0172,-0.0117 0.0174,-0.0151 0.0181,-0.0194 0.0214,-0.0271 0.039,-0.0542 0.0186,-0.0224 0.0147,-0.0142 0.0134,-0.0097 0.0128,-0.0064 0.0125,-0.0036 0.0126,-0.001 0.0131,0.0016 0.0138,0.0043 0.0149,0.0075 0.0161,0.0112 0.0179,0.0158 0.0212,0.0226 0.0552,0.0673 0.022,0.0239 0.0194,0.0176 0.0186,0.0136 0.0183,0.0105 0.0183,0.0076 0.0183,0.0049 0.0185,0.0024 0.0185,-10e-5 0.0185,-0.0027 0.0186,-0.0052 0.0187,-0.008 0.0189,-0.011 0.0198,-0.0146 0.0221,-0.0198 0.0485,-0.0501 0.0226,-0.0213 0.0183,-0.0143 0.0168,-0.01 0.0158,-0.0068 0.0153,-0.0039 z"
           id="path7" />
        <g
           id="arrows1">
          <use
             xlink:href="#arrow1"
             transform="matrix(-1.9999931,0.00523598,-0.00523598,-1.9999931,0,-1.1913)"
             id="use7" />
        </g>
      </g>
      <g
         id="fieldline2">
        <path
           d="m 0,-0.6449 0.0231,0.0012 0.0241,0.004 0.0267,0.0071 0.0337,0.012 0.0649,0.0257 0.0314,0.0101 0.0274,0.0063 0.0259,0.0035 0.0252,9e-4 0.0251,-0.0017 0.0258,-0.0043 0.0271,-0.0072 0.0307,-0.011 0.0545,-0.0238 0.0375,-0.0157 0.0272,-0.009 0.024,-0.0054 0.0224,-0.0026 h 0.0221 l 0.0224,0.0025 0.0239,0.0055 0.0273,0.009 0.0477,0.02 0.0391,0.0161 0.0289,0.0095 0.0257,0.0059 0.0243,0.003 0.0235,5e-4 0.0232,-0.0021 0.0231,-0.0047 0.0234,-0.0073 0.0242,-0.0104 0.0261,-0.0141 0.0324,-0.0209 0.0535,-0.0373 0.0276,-0.0168 0.0217,-0.0106 0.0195,-0.0068 0.0179,-0.0037 0.017,-0.0011 0.0166,0.0015 0.0167,0.0041 0.0175,0.0071 0.0199,0.0111 0.0309,0.0215 0.033,0.0235 0.0241,0.0145 0.021,0.01 0.0198,0.0067 0.019,0.0039 0.0185,0.0012 L 1.406,-0.6149 1.423,-0.6186 1.4391,-0.6248 1.4542,-0.6332 1.4679,-0.6437 1.48,-0.6563 1.4904,-0.6708 1.4989,-0.6869 1.5053,-0.7046 1.5095,-0.7234 1.5112,-0.7434 1.5104,-0.7641 1.507,-0.7855 1.501,-0.8072 1.4921,-0.8293 1.4804,-0.8515 1.4656,-0.8739 1.4473,-0.8969 1.4244,-0.9212 1.392,-0.9511 1.3345,-1.0008 1.2992,-1.0339 1.2673,-1.0676 1.2287,-1.1129 1.1358,-1.2291 1.0809,-1.2945 1.0316,-1.3492 0.9823,-1.4003 0.9321,-1.4486 0.8811,-1.4942 0.8294,-1.5371 0.7772,-1.5771 0.7248,-1.6142 0.6722,-1.6484 0.6193,-1.6798 0.5663,-1.7083 0.5131,-1.7341 0.4597,-1.7572 0.4061,-1.7776 0.3523,-1.7954 0.2983,-1.8107 0.2442,-1.8233 0.19,-1.8334 0.1356,-1.841 0.0811,-1.846 0.0267,-1.8485 h -0.0546 l -0.0545,0.0026 -0.0544,0.0051 -0.0544,0.0076 -0.0542,0.0101 -0.0542,0.0128 -0.0539,0.0153 -0.0538,0.0178 -0.0536,0.0205 -0.0534,0.0232 -0.0532,0.0258 -0.053,0.0286 -0.0529,0.0314 -0.0526,0.0343 -0.0524,0.0371 -0.0522,0.0401 -0.0517,0.043 -0.051,0.0457 -0.0501,0.0484 -0.0494,0.0511 -0.0493,0.0548 -0.0552,0.0659 -0.091,0.114 -0.0392,0.0459 -0.032,0.0337 -0.0354,0.0333 -0.0567,0.0489 -0.0326,0.03 -0.0229,0.0244 -0.0184,0.023 -0.0148,0.0224 -0.0117,0.0223 -0.0089,0.022 -0.0061,0.0218 -0.0034,0.0213 -8e-4,0.0208 0.0017,0.0199 0.0041,0.0189 0.0064,0.0176 0.0085,0.0162 0.0104,0.0145 0.0122,0.0126 0.0136,0.0106 0.015,0.0084 0.0162,0.0061 0.017,0.0038 0.0178,0.0014 0.0185,-0.0012 0.019,-0.0039 0.0198,-0.0067 0.021,-0.0099 0.0241,-0.0145 0.0328,-0.0234 0.031,-0.0216 0.02,-0.0112 0.0176,-0.0071 0.0167,-0.0041 0.0166,-0.0015 0.017,0.0011 0.018,0.0037 0.0194,0.0068 0.0218,0.0106 0.0275,0.0168 0.0531,0.037 0.0325,0.021 0.0261,0.0142 0.0243,0.0104 0.0234,0.0074 0.0231,0.0046 0.0232,0.0021 0.0235,-4e-4 0.0242,-0.003 0.0257,-0.0058 0.0288,-0.0095 0.039,-0.016 0.048,-0.0201 0.0274,-0.0091 0.0239,-0.0054 0.0224,-0.0026 h 0.0221 l 0.0224,0.0026 0.0239,0.0054 0.0272,0.009 0.0374,0.0156 0.0547,0.0239 0.0307,0.011 0.0272,0.0072 0.0257,0.0043 0.0252,0.0017 0.0252,-9e-4 0.0259,-0.0035 0.0274,-0.0063 0.0314,-0.0101 0.065,-0.0257 0.0337,-0.012 0.0265,-0.0071 0.0241,-0.0039 z"
           id="path8" />
        <g
           id="arrows2">
          <use
             xlink:href="#arrow1"
             transform="matrix(-1.4514694,-1.3759494,1.3759494,-1.4514694,0.9567,-1.4246)"
             id="use8" />
          <use
             xlink:href="#arrow1"
             transform="matrix(-1.4308978,1.3973301,-1.3973301,-1.4308978,-0.9568,-1.4247)"
             id="use9" />
        </g>
      </g>
      <g
         id="fieldline3">
        <path
           d="m 0,-0.5413 0.0362,0.0012 0.0403,0.0042 0.0692,0.0109 0.0558,0.0084 0.0411,0.0038 0.0376,0.001 0.0373,-0.0015 0.0401,-0.0044 0.0513,-0.0086 0.0768,-0.0141 0.0399,-0.0052 0.0354,-0.0021 0.0349,5e-4 0.0381,0.0032 0.0534,0.0077 0.0661,0.0101 0.0399,0.0039 0.0356,0.001 0.0341,-0.0016 0.0343,-0.0041 0.0369,-0.0072 0.0453,-0.0118 0.0785,-0.0224 0.0358,-0.008 0.0309,-0.0044 0.0293,-0.0017 0.0301,9e-4 0.034,0.0037 0.0595,0.0104 0.0431,0.0068 0.0314,0.0026 L 1.38,-0.5582 1.4056,-0.5608 1.4297,-0.5657 1.4526,-0.5729 1.4743,-0.5824 1.4948,-0.5942 1.5142,-0.6083 1.5324,-0.6246 1.5491,-0.6431 1.5645,-0.6639 1.5782,-0.687 1.5903,-0.7123 1.6006,-0.74 1.6091,-0.7701 1.6155,-0.8029 1.6199,-0.8387 1.622,-0.8778 1.6216,-0.9212 1.6184,-0.9699 1.6121,-1.0255 1.602,-1.0901 1.5874,-1.1653 1.5683,-1.2499 1.5455,-1.3387 1.5204,-1.4265 1.4936,-1.5114 1.4652,-1.5928 1.4353,-1.6709 1.4039,-1.7459 1.371,-1.8181 1.3366,-1.8875 1.3006,-1.9543 1.2632,-2.0185 1.2244,-2.0801 1.1841,-2.1393 1.1425,-2.196 1.0996,-2.2501 1.0554,-2.3018 1.0101,-2.351 0.9636,-2.3978 0.916,-2.442 0.8674,-2.4838 0.8178,-2.523 0.7673,-2.5597 0.716,-2.594 0.6639,-2.6257 0.611,-2.6548 0.5575,-2.6815 0.5034,-2.7056 0.4488,-2.7272 0.3937,-2.7462 0.3381,-2.7628 0.2822,-2.7767 0.2261,-2.7882 0.1696,-2.797 0.1131,-2.8034 0.0564,-2.8072 -4e-4,-2.8084 l -0.0568,0.0013 -0.0567,0.0038 -0.0566,0.0064 -0.0564,0.0089 -0.0562,0.0115 -0.0559,0.014 -0.0555,0.0165 -0.0551,0.0191 -0.0546,0.0216 -0.0541,0.0242 -0.0535,0.0267 -0.0529,0.0292 -0.052,0.0317 -0.0514,0.0343 -0.0504,0.0368 -0.0496,0.0393 -0.0486,0.0417 -0.0476,0.0443 -0.0465,0.0468 -0.0453,0.0492 -0.0441,0.0517 -0.0429,0.0543 -0.0416,0.0567 -0.0403,0.0592 -0.0388,0.0617 -0.0374,0.0642 -0.0359,0.0668 -0.0344,0.0695 -0.0329,0.0722 -0.0314,0.075 -0.0298,0.0782 -0.0284,0.0814 -0.0268,0.0849 -0.0251,0.088 -0.0227,0.0888 -0.0191,0.0845 -0.0145,0.0751 -0.01,0.0641 -0.0063,0.0555 -0.0031,0.0486 -4e-4,0.0433 0.0022,0.0391 0.0043,0.0357 0.0065,0.0328 0.0085,0.0301 0.0103,0.0276 0.0121,0.0253 0.0138,0.0231 0.0153,0.0208 0.0168,0.0185 0.0182,0.0163 0.0194,0.014 0.0206,0.0118 0.0217,0.0095 0.0228,0.0072 0.0241,0.0049 0.0256,0.0025 0.0278,10e-5 0.0314,-0.0027 0.0431,-0.0067 0.0601,-0.0105 0.0338,-0.0037 0.03,-8e-4 0.0293,0.0017 0.031,0.0046 0.0361,0.0081 0.078,0.0223 0.0452,0.0117 0.0369,0.0071 0.0343,0.0042 0.0341,0.0015 0.0356,-0.001 0.04,-0.0039 0.0656,-0.0101 0.0537,-0.0077 0.0379,-0.0032 0.0349,-5e-4 0.0354,0.0021 0.04,0.0052 0.0757,0.0139 0.0517,0.0087 0.0402,0.0044 0.0374,0.0016 0.0375,-0.001 0.041,-0.0037 0.0553,-0.0083 0.0701,-0.0111 0.0404,-0.0041 z"
           id="path9" />
        <g
           id="arrows3">
          <use
             xlink:href="#arrow1"
             transform="matrix(-0.65839255,-1.888523,1.888523,-0.65839255,1.486,-1.5333)"
             id="use10" />
          <use
             xlink:href="#arrow1"
             transform="matrix(-1.9999238,0.01745307,-0.01745307,-1.9999238,0,-2.8078)"
             id="use11" />
          <use
             xlink:href="#arrow1"
             transform="matrix(-0.63858025,1.895314,-1.895314,-0.63858025,-1.4857,-1.5332)"
             id="use12" />
        </g>
      </g>
      <g
         id="fieldline4">
        <path
           d="m -1.8033,-3.01 -0.0281,0.0789 -0.026,0.0805 -0.0238,0.0822 -0.0216,0.0837 -0.0193,0.0853 -0.0171,0.0866 -0.0147,0.088 -0.0124,0.0893 -0.0099,0.0905 -0.0075,0.0916 -0.005,0.0926 -0.0025,0.0934 v 0.0942 l 0.0026,0.0946 0.0051,0.0948 0.0077,0.0945 0.0101,0.0936 0.0125,0.0921 0.0146,0.0895 0.0166,0.0858 0.0182,0.081 0.0194,0.0755 0.0204,0.0692 0.0211,0.0631 0.0217,0.0571 0.0222,0.0516 0.0227,0.0467 0.0232,0.042 0.0238,0.0381 0.0243,0.0342 0.0249,0.0309 0.0256,0.0277 0.0263,0.0247 0.0269,0.022 0.0276,0.0192 0.0283,0.0168 0.0293,0.0143 0.0302,0.012 0.0315,0.0097 0.0332,0.0076 0.0358,0.0054 0.0404,0.0034 0.0526,0.0014 0.1011,10e-5 0.0558,0.0025 0.0556,0.0052 0.0937,0.0127 0.0688,0.0086 0.054,0.0042 0.0527,0.0016 0.0623,-0.0011 0.1223,-0.0053 0.0629,-5e-4 0.0611,0.0024 0.0938,0.0072 0.0773,0.0051 0.0589,0.0013 0.0615,-0.0013 0.1138,-0.0067 0.0682,-0.0028 h 0.0588 l 0.0729,0.0032 0.1032,0.0061 0.0625,0.0015 0.059,-0.0012 0.0759,-0.0048 0.0973,-0.0075 0.062,-0.0025 0.0616,4e-4 0.1167,0.0051 0.0636,0.0014 0.0531,-0.0013 0.0534,-0.0039 0.0662,-0.008 0.0999,-0.0136 0.0566,-0.0054 0.056,-0.0026 0.1109,-2e-4 0.0499,-0.0016 0.0396,-0.0037 0.0354,-0.0057 0.0329,-0.0079 0.0313,-0.01 L 1.5202,-0.516 1.5493,-0.5306 1.5775,-0.5477 1.6051,-0.5674 1.6319,-0.5897 1.658,-0.6148 1.6835,-0.6429 1.7083,-0.6742 1.7326,-0.709 1.7563,-0.7475 1.7795,-0.7902 1.8021,-0.8375 1.8242,-0.8898 1.8458,-0.9477 1.8668,-1.0116 1.8871,-1.0817 1.9064,-1.1579 1.9243,-1.2397 1.9407,-1.3261 1.9551,-1.416 1.9672,-1.5083 1.977,-1.6022 1.9843,-1.6967 1.9891,-1.7915 1.9913,-1.8861 1.991,-1.9801 1.9882,-2.0735 1.9829,-2.1648 1.9752,-2.2552 1.9652,-2.3444 1.9527,-2.4325 1.938,-2.5193 1.921,-2.6048 1.9018,-2.6888 1.8803,-2.7715 1.8568,-2.8526 1.8311,-2.9321 1.8033,-3.01"
           id="path12" />
        <g
           id="arrows4">
          <use
             xlink:href="#arrow1"
             transform="matrix(-0.03036756,1.9997694,-1.9997694,-0.03036756,-1.9905,-1.9861)"
             id="use13" />
          <use
             xlink:href="#arrow1"
             transform="matrix(1.9818727,0.26866419,-0.26866419,1.9818727,-1.0437,-0.462)"
             id="use14" />
          <use
             xlink:href="#arrow1"
             transform="matrix(1.9839217,-0.25309047,0.25309047,1.9839217,1.0437,-0.4618)"
             id="use15" />
          <use
             xlink:href="#arrow1"
             transform="matrix(-0.04886436,-1.999403,1.999403,-0.04886436,1.9905,-1.9861)"
             id="use16" />
        </g>
      </g>
      <g
         id="fieldline5">
        <path
           d="m -3.0255,-3.01 0.0221,0.1132 0.0246,0.1131 0.0271,0.1129 0.0297,0.1126 0.0321,0.1123 0.0346,0.1118 0.037,0.1112 0.0394,0.1105 0.0417,0.1095 0.044,0.1085 0.0461,0.1071 0.0482,0.1055 0.0499,0.1035 0.0516,0.1011 0.0528,0.0983 0.0538,0.0948 0.0543,0.0907 0.0544,0.0861 0.0539,0.0809 0.0531,0.0752 0.0519,0.0693 0.0505,0.0634 0.0489,0.0575 0.0473,0.052 0.0459,0.0468 0.0445,0.042 0.0434,0.0376 0.0424,0.0335 0.0416,0.0299 0.0411,0.0264 0.0407,0.0233 0.0405,0.0203 0.0407,0.0177 0.0411,0.0151 0.042,0.0128 0.0436,0.0106 0.0463,0.0086 0.0514,0.0069 0.0633,0.0055 0.1702,0.0094 0.1421,0.0102 0.1006,0.0065 0.0839,0.0028 0.1107,3e-4 0.1209,-10e-5 0.1163,0.0027 0.1295,0.004 0.1006,7e-4 0.1783,-0.0032 h 0.1098 l 0.1783,0.0032 0.1006,-7e-4 0.1295,-0.004 0.1163,-0.0027 0.1209,10e-5 0.1107,-3e-4 L 0.8951,-0.3459 0.9957,-0.3524 1.1378,-0.3626 1.308,-0.372 1.3713,-0.3775 1.4227,-0.3844 1.469,-0.393 1.5126,-0.4036 1.5546,-0.4164 1.5957,-0.4315 1.6364,-0.4492 1.6769,-0.4695 1.7176,-0.4928 1.7587,-0.5192 1.8003,-0.5491 1.8427,-0.5826 1.8861,-0.6202 1.9306,-0.6622 1.9765,-0.709 2.0238,-0.761 2.0727,-0.8185 2.1232,-0.8819 2.1751,-0.9512 2.2282,-1.0264 2.2821,-1.1073 2.3365,-1.1934 2.3908,-1.2841 2.4446,-1.3789 2.4974,-1.4772 2.549,-1.5783 2.5989,-1.6818 2.6471,-1.7873 2.6932,-1.8944 2.7372,-2.0029 2.7789,-2.1124 2.8183,-2.2229 2.8553,-2.3341 2.8899,-2.4459 2.922,-2.5582 2.9517,-2.6708 2.9788,-2.7837 3.0034,-2.8968 3.0255,-3.01"
           id="path16" />
        <g
           id="arrows5">
          <use
             xlink:href="#arrow1"
             transform="matrix(0.69714409,1.874564,-1.874564,0.69714409,-2.7801,-2.1168)"
             id="use17" />
          <use
             xlink:href="#arrow1"
             transform="matrix(1.5974811,1.2033513,-1.2033513,1.5974811,-1.8111,-0.5582)"
             id="use18" />
          <use
             xlink:href="#arrow1"
             transform="matrix(2,0,0,2,0,-0.3387)"
             id="use19" />
          <use
             xlink:href="#arrow1"
             transform="matrix(1.5678205,-1.2417484,1.2417484,1.5678205,1.8111,-0.5581)"
             id="use20" />
          <use
             xlink:href="#arrow1"
             transform="matrix(0.68174367,-1.8802196,1.8802196,0.68174367,2.7802,-2.1168)"
             id="use21" />
        </g>
      </g>
      <g
         id="fieldline6">
        <path
           d="m -4.01,-2.2056 0.1046,0.1224 0.1061,0.1202 0.1073,0.1179 0.1085,0.1154 0.1094,0.1127 0.1101,0.1099 0.1106,0.1068 0.1106,0.1034 0.1102,0.0996 0.1093,0.0955 0.1078,0.0908 0.1055,0.0857 0.1025,0.0801 0.0989,0.0742 0.0947,0.068 0.0901,0.0617 0.0854,0.0555 0.0807,0.0496 0.0763,0.0441 0.0722,0.0389 0.0686,0.0341 0.0655,0.0299 0.0629,0.0261 0.0609,0.0225 0.0595,0.0194 0.0587,0.0165 0.0587,0.0139 0.0599,0.0116 0.0628,0.0095 0.069,0.0077 0.0837,0.0065 0.1674,0.0086 0.1867,0.0081 0.1347,0.0036 0.2909,0.0025 0.2323,0.003 0.287,-9e-4 0.287,9e-4 0.2323,-0.003 L 0.8102,-0.2352 0.9449,-0.2388 1.1316,-0.2469 1.299,-0.2555 1.3827,-0.262 1.4517,-0.2697 1.5145,-0.2792 1.5744,-0.2908 1.6331,-0.3047 1.6918,-0.3212 1.7513,-0.3406 1.8122,-0.3631 1.8751,-0.3892 1.9406,-0.4191 2.0092,-0.4532 2.0814,-0.4921 2.1577,-0.5362 2.2384,-0.5858 2.3238,-0.6413 2.4139,-0.703 2.5086,-0.771 2.6075,-0.8452 2.71,-0.9253 2.8155,-1.011 2.9233,-1.1018 3.0326,-1.1973 3.1428,-1.2969 3.2534,-1.4003 3.364,-1.5071 3.4741,-1.617 3.5835,-1.7297 3.692,-1.8451 3.7993,-1.963 3.9054,-2.0832 4.01,-2.2056"
           id="path21" />
        <g
           id="arrows6">
          <use
             xlink:href="#arrow1"
             transform="matrix(1.4287011,1.3995761,-1.3995761,1.4287011,-3.3699,-1.5132)"
             id="use22" />
          <use
             xlink:href="#arrow1"
             transform="matrix(1.8425066,0.77792633,-0.77792633,1.8425066,-1.8679,-0.3866)"
             id="use23" />
          <use
             xlink:href="#arrow1"
             transform="matrix(1.9999985,0.00244346,-0.00244346,1.9999985,0,-0.2305)"
             id="use24" />
          <use
             xlink:href="#arrow1"
             transform="matrix(1.8314655,-0.80357591,0.80357591,1.8314655,1.8679,-0.3867)"
             id="use25" />
          <use
             xlink:href="#arrow1"
             transform="matrix(1.4198792,-1.4085252,1.4085252,1.4198792,3.3699,-1.5132)"
             id="use26" />
        </g>
      </g>
      <g
         id="fieldline7">
        <path
           d="m -4.01,-0.9033 0.213,0.0872 0.2089,0.0829 0.2036,0.0782 0.197,0.073 0.1888,0.0673 0.1788,0.0613 0.1676,0.0548 0.1553,0.0482 0.1427,0.0419 0.1308,0.0359 0.1199,0.0304 0.1104,0.0255 0.1026,0.0213 0.0965,0.0175 0.0925,0.0143 0.0905,0.0115 0.0917,0.009 0.098,0.0071 0.1155,0.0055 0.1876,0.0055 0.2284,0.0045 0.313,0.0022 0.3336,0.0016 H 0.2433 L 0.5769,-0.1183 0.8899,-0.1205 1.1183,-0.125 1.3059,-0.1305 1.4214,-0.136 1.5194,-0.1431 1.6111,-0.1521 1.7016,-0.1636 1.7941,-0.1779 1.8906,-0.1954 1.9932,-0.2167 2.1036,-0.2422 2.2235,-0.2726 2.3543,-0.3085 2.497,-0.3504 2.6523,-0.3986 2.8199,-0.4534 2.9987,-0.5147 3.1875,-0.582 3.3845,-0.655 3.5881,-0.7332 3.797,-0.8161 4.01,-0.9033"
           id="path26" />
        <g
           id="arrows7">
          <use
             xlink:href="#arrow1"
             transform="matrix(1.8837634,0.67188957,-0.67188957,1.8837634,-3.0462,-0.5316)"
             id="use27" />
          <use
             xlink:href="#arrow1"
             transform="matrix(1.999611,0.03944188,-0.03944188,1.999611,-1.0331,-0.1233)"
             id="use28" />
          <use
             xlink:href="#arrow1"
             transform="matrix(1.999611,-0.03944188,0.03944188,1.999611,1.0331,-0.1233)"
             id="use29" />
          <use
             xlink:href="#arrow1"
             transform="matrix(1.8837634,-0.67188957,0.67188957,1.8837634,3.0462,-0.5316)"
             id="use30" />
        </g>
      </g>
      <g
         id="fieldline8">
        <path
           d="M -4.01,0 H 4.01"
           id="path30" />
        <g
           id="arrows8">
          <use
             xlink:href="#arrow1"
             transform="matrix(2,0,0,2,-3.0075,0)"
             id="use31" />
          <use
             xlink:href="#arrow1"
             transform="matrix(2,0,0,2,-1.0025,0)"
             id="use32" />
          <use
             xlink:href="#arrow1"
             transform="matrix(2,0,0,2,1.0025,0)"
             id="use33" />
          <use
             xlink:href="#arrow1"
             transform="matrix(2,0,0,2,3.0075,0)"
             id="use34" />
        </g>
      </g>
      <g
         id="fieldline9">
        <path
           d="M -4.01,0.9033 -3.797,0.8161 -3.5881,0.7332 -3.3845,0.655 -3.1875,0.582 -2.9987,0.5147 -2.8199,0.4534 -2.6523,0.3986 -2.497,0.3504 -2.3543,0.3085 -2.2235,0.2726 -2.1036,0.2422 -1.9932,0.2167 -1.8906,0.1954 -1.7941,0.1779 -1.7016,0.1636 -1.6111,0.1521 -1.5194,0.1431 -1.4214,0.136 -1.3059,0.1305 -1.1183,0.125 -0.8899,0.1205 -0.5769,0.1183 -0.2433,0.1167 H 0.2433 L 0.5769,0.1183 0.8899,0.1205 1.1183,0.125 1.3059,0.1305 1.4214,0.136 1.5194,0.1431 1.6111,0.1521 1.7016,0.1636 1.7941,0.1779 1.8906,0.1954 1.9932,0.2167 2.1036,0.2422 2.2235,0.2726 2.3543,0.3085 2.497,0.3504 2.6523,0.3986 2.8199,0.4534 2.9987,0.5147 3.1875,0.582 3.3845,0.655 3.5881,0.7332 3.797,0.8161 4.01,0.9033"
           id="path34" />
        <g
           id="arrows9">
          <use
             xlink:href="#arrow1"
             transform="matrix(1.8837634,-0.67188957,0.67188957,1.8837634,-3.0462,0.5316)"
             id="use35" />
          <use
             xlink:href="#arrow1"
             transform="matrix(1.999611,-0.03944188,0.03944188,1.999611,-1.0331,0.1233)"
             id="use36" />
          <use
             xlink:href="#arrow1"
             transform="matrix(1.999611,0.03944188,-0.03944188,1.999611,1.0331,0.1233)"
             id="use37" />
          <use
             xlink:href="#arrow1"
             transform="matrix(1.8837634,0.67188957,-0.67188957,1.8837634,3.0462,0.5316)"
             id="use38" />
        </g>
      </g>
      <g
         id="fieldline10">
        <path
           d="M -4.01,2.2056 -3.9054,2.0832 -3.7993,1.963 -3.692,1.8451 -3.5835,1.7297 -3.4741,1.617 -3.364,1.5071 -3.2534,1.4003 -3.1428,1.2969 -3.0326,1.1973 -2.9233,1.1018 -2.8155,1.011 -2.71,0.9253 -2.6075,0.8452 -2.5086,0.771 -2.4139,0.703 -2.3238,0.6413 -2.2384,0.5858 -2.1577,0.5362 -2.0814,0.4921 -2.0092,0.4532 -1.9406,0.4191 -1.8751,0.3892 -1.8122,0.3631 -1.7513,0.3406 -1.6918,0.3212 -1.6331,0.3047 -1.5744,0.2908 -1.5145,0.2792 -1.4517,0.2697 -1.3827,0.262 -1.299,0.2555 -1.1316,0.2469 -0.9449,0.2388 -0.8102,0.2352 -0.5193,0.2327 -0.287,0.2297 0,0.2306 0.287,0.2297 0.5193,0.2327 0.8102,0.2352 0.9449,0.2388 1.1316,0.2469 1.299,0.2555 1.3827,0.262 1.4517,0.2697 1.5145,0.2792 1.5744,0.2908 1.6331,0.3047 1.6918,0.3212 1.7513,0.3406 1.8122,0.3631 1.8751,0.3892 1.9406,0.4191 2.0092,0.4532 2.0814,0.4921 2.1577,0.5362 2.2384,0.5858 2.3238,0.6413 2.4139,0.703 2.5086,0.771 2.6075,0.8452 2.71,0.9253 2.8155,1.011 2.9233,1.1018 3.0326,1.1973 3.1428,1.2969 3.2534,1.4003 3.364,1.5071 3.4741,1.617 3.5835,1.7297 3.692,1.8451 3.7993,1.963 3.9054,2.0832 4.01,2.2056"
           id="path38" />
        <g
           id="arrows10">
          <use
             xlink:href="#arrow1"
             transform="matrix(1.4287011,-1.3995761,1.3995761,1.4287011,-3.3699,1.5132)"
             id="use39" />
          <use
             xlink:href="#arrow1"
             transform="matrix(1.8425066,-0.77792633,0.77792633,1.8425066,-1.8679,0.3866)"
             id="use40" />
          <use
             xlink:href="#arrow1"
             transform="matrix(1.9999985,-0.00244346,0.00244346,1.9999985,0,0.2305)"
             id="use41" />
          <use
             xlink:href="#arrow1"
             transform="matrix(1.8314655,0.80357591,-0.80357591,1.8314655,1.8679,0.3867)"
             id="use42" />
          <use
             xlink:href="#arrow1"
             transform="matrix(1.4198792,1.4085252,-1.4085252,1.4198792,3.3699,1.5132)"
             id="use43" />
        </g>
      </g>
      <g
         id="fieldline11">
        <path
           d="M -3.0255,3.01 -3.0034,2.8968 -2.9788,2.7837 -2.9517,2.6708 -2.922,2.5582 -2.8899,2.4459 -2.8553,2.3341 -2.8183,2.2229 -2.7789,2.1124 -2.7372,2.0029 -2.6932,1.8944 -2.6471,1.7873 -2.5989,1.6818 -2.549,1.5783 -2.4974,1.4772 -2.4446,1.3789 -2.3908,1.2841 -2.3365,1.1934 -2.2821,1.1073 -2.2282,1.0264 -2.1751,0.9512 -2.1232,0.8819 -2.0727,0.8185 -2.0238,0.761 -1.9765,0.709 -1.9306,0.6622 -1.8861,0.6202 -1.8427,0.5826 -1.8003,0.5491 -1.7587,0.5192 -1.7176,0.4928 -1.6769,0.4695 -1.6364,0.4492 -1.5957,0.4315 -1.5546,0.4164 -1.5126,0.4036 -1.469,0.393 -1.4227,0.3844 -1.3713,0.3775 -1.308,0.372 l 0.1702,-0.0094 0.1421,-0.0102 0.1006,-0.0065 0.0839,-0.0028 0.1107,-3e-4 0.1209,10e-5 0.1163,-0.0027 0.1295,-0.004 0.1006,-7e-4 0.1783,0.0032 h 0.1098 l 0.1783,-0.0032 0.1006,7e-4 0.1295,0.004 0.1163,0.0027 0.1209,-10e-5 0.1107,3e-4 L 0.8951,0.3459 0.9957,0.3524 1.1378,0.3626 1.308,0.372 1.3713,0.3775 1.4227,0.3844 1.469,0.393 1.5126,0.4036 1.5546,0.4164 1.5957,0.4315 1.6364,0.4492 1.6769,0.4695 1.7176,0.4928 1.7587,0.5192 1.8003,0.5491 1.8427,0.5826 1.8861,0.6202 1.9306,0.6622 1.9765,0.709 2.0238,0.761 2.0727,0.8185 2.1232,0.8819 2.1751,0.9512 2.2282,1.0264 2.2821,1.1073 2.3365,1.1934 2.3908,1.2841 2.4446,1.3789 2.4974,1.4772 2.549,1.5783 2.5989,1.6818 2.6471,1.7873 2.6932,1.8944 2.7372,2.0029 2.7789,2.1124 2.8183,2.2229 2.8553,2.3341 2.8899,2.4459 2.922,2.5582 2.9517,2.6708 2.9788,2.7837 3.0034,2.8968 3.0255,3.01"
           id="path43" />
        <g
           id="arrows11">
          <use
             xlink:href="#arrow1"
             transform="matrix(0.69714409,-1.874564,1.874564,0.69714409,-2.7801,2.1168)"
             id="use44" />
          <use
             xlink:href="#arrow1"
             transform="matrix(1.5974811,-1.2033513,1.2033513,1.5974811,-1.8111,0.5582)"
             id="use45" />
          <use
             xlink:href="#arrow1"
             transform="matrix(2,0,0,2,0,0.3387)"
             id="use46" />
          <use
             xlink:href="#arrow1"
             transform="matrix(1.5678205,1.2417484,-1.2417484,1.5678205,1.8111,0.5581)"
             id="use47" />
          <use
             xlink:href="#arrow1"
             transform="matrix(0.68174367,1.8802196,-1.8802196,0.68174367,2.7802,2.1168)"
             id="use48" />
        </g>
      </g>
      <g
         id="fieldline12">
        <path
           d="M -1.8033,3.01 -1.8314,2.9311 -1.8574,2.8506 -1.8812,2.7684 -1.9028,2.6847 -1.9221,2.5994 -1.9392,2.5128 -1.9539,2.4248 -1.9663,2.3355 -1.9762,2.245 -1.9837,2.1534 -1.9887,2.0608 -1.9912,1.9674 V 1.8732 L -1.9886,1.7786 -1.9835,1.6838 -1.9758,1.5893 -1.9657,1.4957 -1.9532,1.4036 -1.9386,1.3141 -1.922,1.2283 -1.9038,1.1473 -1.8844,1.0718 -1.864,1.0026 -1.8429,0.9395 -1.8212,0.8824 -1.799,0.8308 -1.7763,0.7841 -1.7531,0.7421 -1.7293,0.704 -1.705,0.6698 l 0.0249,-0.0309 0.0256,-0.0277 0.0263,-0.0247 0.0269,-0.022 0.0276,-0.0192 0.0283,-0.0168 0.0293,-0.0143 0.0302,-0.012 0.0315,-0.0097 0.0332,-0.0076 0.0358,-0.0054 0.0404,-0.0034 0.0526,-0.0014 0.1011,-10e-5 0.0558,-0.0025 0.0556,-0.0052 0.0937,-0.0127 0.0688,-0.0086 0.054,-0.0042 0.0527,-0.0016 0.0623,0.0011 0.1223,0.0053 0.0629,5e-4 0.0611,-0.0024 0.0938,-0.0072 0.0773,-0.0051 0.0589,-0.0013 0.0615,0.0013 0.1138,0.0067 0.0682,0.0028 H 0.0302 L 0.1031,0.4383 0.2063,0.4322 0.2688,0.4307 0.3278,0.4319 0.4037,0.4367 0.501,0.4442 0.563,0.4467 0.6246,0.4463 0.7413,0.4412 0.8049,0.4398 0.858,0.4411 0.9114,0.445 0.9776,0.453 1.0775,0.4666 1.1341,0.472 1.1901,0.4746 1.301,0.4748 1.3509,0.4764 1.3905,0.4801 1.4259,0.4858 1.4588,0.4937 1.4901,0.5037 1.5202,0.516 1.5493,0.5306 1.5775,0.5477 1.6051,0.5674 1.6319,0.5897 1.658,0.6148 1.6835,0.6429 1.7083,0.6742 1.7326,0.709 1.7563,0.7475 1.7795,0.7902 1.8021,0.8375 1.8242,0.8898 1.8458,0.9477 1.8668,1.0116 1.8871,1.0817 1.9064,1.1579 1.9243,1.2397 1.9407,1.3261 1.9551,1.416 1.9672,1.5083 1.977,1.6022 1.9843,1.6967 1.9891,1.7915 1.9913,1.8861 1.991,1.9801 1.9882,2.0735 1.9829,2.1648 1.9752,2.2552 1.9652,2.3444 1.9527,2.4325 1.938,2.5193 1.921,2.6048 1.9018,2.6888 1.8803,2.7715 1.8568,2.8526 1.8311,2.9321 1.8033,3.01"
           id="path48" />
        <g
           id="arrows12">
          <use
             xlink:href="#arrow1"
             transform="matrix(-0.03036756,-1.9997694,1.9997694,-0.03036756,-1.9905,1.9861)"
             id="use49" />
          <use
             xlink:href="#arrow1"
             transform="matrix(1.9818727,-0.26866419,0.26866419,1.9818727,-1.0437,0.462)"
             id="use50" />
          <use
             xlink:href="#arrow1"
             transform="matrix(1.9839217,0.25309047,-0.25309047,1.9839217,1.0437,0.4618)"
             id="use51" />
          <use
             xlink:href="#arrow1"
             transform="matrix(-0.04886436,1.999403,-1.999403,-0.04886436,1.9905,1.9861)"
             id="use52" />
        </g>
      </g>
      <g
         id="fieldline13">
        <path
           d="M 0,0.5413 0.0362,0.5401 0.0765,0.5359 0.1457,0.525 0.2015,0.5166 0.2426,0.5128 0.2802,0.5118 0.3175,0.5133 0.3576,0.5177 0.4089,0.5263 0.4857,0.5404 0.5256,0.5456 0.561,0.5477 0.5959,0.5472 0.634,0.544 0.6874,0.5363 0.7535,0.5262 0.7934,0.5223 0.829,0.5213 0.8631,0.5229 0.8974,0.527 0.9343,0.5342 0.9796,0.546 1.0581,0.5684 1.0939,0.5764 1.1248,0.5808 1.1541,0.5825 1.1842,0.5816 1.2182,0.5779 1.2777,0.5675 1.3208,0.5607 1.3522,0.5581 1.38,0.5582 1.4056,0.5608 1.4297,0.5657 1.4526,0.5729 1.4743,0.5824 1.4948,0.5942 1.5142,0.6083 1.5324,0.6246 1.5491,0.6431 1.5645,0.6639 1.5782,0.687 1.5903,0.7123 1.6006,0.74 1.6091,0.7701 1.6155,0.8029 1.6199,0.8387 1.622,0.8778 1.6216,0.9212 1.6184,0.9699 1.6121,1.0255 1.602,1.0901 1.5874,1.1653 1.5683,1.2499 1.5455,1.3387 1.5204,1.4265 1.4936,1.5114 1.4652,1.5928 1.4353,1.6709 1.4039,1.7459 1.371,1.8181 1.3366,1.8875 1.3006,1.9543 1.2632,2.0185 1.2244,2.0801 1.1841,2.1393 1.1425,2.196 1.0996,2.2501 1.0554,2.3018 1.0101,2.351 0.9636,2.3978 0.916,2.442 0.8674,2.4838 0.8178,2.523 0.7673,2.5597 0.716,2.594 0.6639,2.6257 0.611,2.6548 0.5575,2.6815 0.5034,2.7056 0.4488,2.7272 0.3937,2.7462 0.3381,2.7628 0.2822,2.7767 0.2261,2.7882 0.1696,2.797 0.1131,2.8034 0.0564,2.8072 -4e-4,2.8084 -0.0572,2.8071 -0.1139,2.8033 -0.1705,2.7969 -0.2269,2.788 -0.2831,2.7765 -0.339,2.7625 -0.3945,2.746 -0.4496,2.7269 -0.5042,2.7053 -0.5583,2.6811 -0.6118,2.6544 -0.6647,2.6252 -0.7167,2.5935 -0.7681,2.5592 -0.8185,2.5224 -0.8681,2.4831 -0.9167,2.4414 -0.9643,2.3971 -1.0108,2.3503 -1.0561,2.3011 -1.1002,2.2494 -1.1431,2.1951 -1.1847,2.1384 -1.225,2.0792 -1.2638,2.0175 -1.3012,1.9533 -1.3371,1.8865 -1.3715,1.817 -1.4044,1.7448 -1.4358,1.6698 -1.4656,1.5916 -1.494,1.5102 -1.5208,1.4253 -1.5459,1.3373 -1.5686,1.2485 -1.5877,1.164 -1.6022,1.0889 -1.6122,1.0248 -1.6185,0.9693 -1.6216,0.9207 -1.622,0.8774 -1.6198,0.8383 -1.6155,0.8026 -1.609,0.7698 -1.6005,0.7397 -1.5902,0.7121 -1.5781,0.6868 -1.5643,0.6637 -1.549,0.6429 -1.5322,0.6244 -1.514,0.6081 l 0.0194,-0.014 0.0206,-0.0118 0.0217,-0.0095 0.0228,-0.0072 0.0241,-0.0049 0.0256,-0.0025 0.0278,-10e-5 0.0314,0.0027 0.0431,0.0067 0.0601,0.0105 0.0338,0.0037 0.03,8e-4 0.0293,-0.0017 0.031,-0.0046 0.0361,-0.0081 0.078,-0.0223 0.0452,-0.0117 0.0369,-0.0071 0.0343,-0.0042 0.0341,-0.0015 0.0356,0.001 0.04,0.0039 0.0656,0.0101 0.0537,0.0077 0.0379,0.0032 0.0349,5e-4 0.0354,-0.0021 0.04,-0.0052 0.0757,-0.0139 0.0517,-0.0087 0.0402,-0.0044 0.0374,-0.0016 0.0375,0.001 0.041,0.0037 0.0553,0.0083 0.0701,0.0111 0.0404,0.0041 z"
           id="path52" />
        <g
           id="arrows13">
          <use
             xlink:href="#arrow1"
             transform="matrix(-0.65839255,1.888523,-1.888523,-0.65839255,1.486,1.5333)"
             id="use53" />
          <use
             xlink:href="#arrow1"
             transform="matrix(-1.9999238,-0.01745307,0.01745307,-1.9999238,0,2.8078)"
             id="use54" />
          <use
             xlink:href="#arrow1"
             transform="matrix(-0.63858025,-1.895314,1.895314,-0.63858025,-1.4857,1.5332)"
             id="use55" />
        </g>
      </g>
      <g
         id="fieldline14">
        <path
           d="M 0,0.6449 0.0231,0.6437 0.0472,0.6397 0.0739,0.6326 0.1076,0.6206 0.1725,0.5949 0.2039,0.5848 0.2313,0.5785 0.2572,0.575 l 0.0252,-9e-4 0.0251,0.0017 0.0258,0.0043 0.0271,0.0072 0.0307,0.011 0.0545,0.0238 0.0375,0.0157 0.0272,0.009 0.024,0.0054 0.0224,0.0026 H 0.5788 L 0.6012,0.6523 0.6251,0.6468 0.6524,0.6378 0.7001,0.6178 0.7392,0.6017 0.7681,0.5922 0.7938,0.5863 0.8181,0.5833 0.8416,0.5828 0.8648,0.5849 0.8879,0.5896 0.9113,0.5969 0.9355,0.6073 0.9616,0.6214 0.994,0.6423 1.0475,0.6796 1.0751,0.6964 1.0968,0.707 1.1163,0.7138 1.1342,0.7175 1.1512,0.7186 1.1678,0.7171 1.1845,0.713 1.202,0.7059 1.2219,0.6948 1.2528,0.6733 1.2858,0.6498 1.3099,0.6353 1.3309,0.6253 1.3507,0.6186 1.3697,0.6147 1.3882,0.6135 1.406,0.6149 1.423,0.6186 1.4391,0.6248 1.4542,0.6332 1.4679,0.6437 1.48,0.6563 1.4904,0.6708 1.4989,0.6869 1.5053,0.7046 1.5095,0.7234 1.5112,0.7434 1.5104,0.7641 1.507,0.7855 1.501,0.8072 1.4921,0.8293 1.4804,0.8515 1.4656,0.8739 1.4473,0.8969 1.4244,0.9212 1.392,0.9511 1.3345,1.0008 1.2992,1.0339 1.2673,1.0676 1.2287,1.1129 1.1358,1.2291 1.0809,1.2945 1.0316,1.3492 0.9823,1.4003 0.9321,1.4486 0.8811,1.4942 0.8294,1.5371 0.7772,1.5771 0.7248,1.6142 0.6722,1.6484 0.6193,1.6798 0.5663,1.7083 0.5131,1.7341 0.4597,1.7572 0.4061,1.7776 0.3523,1.7954 0.2983,1.8107 0.2442,1.8233 0.19,1.8334 0.1356,1.841 0.0811,1.846 0.0267,1.8485 H -0.0279 L -0.0824,1.8459 -0.1368,1.8408 -0.1912,1.8332 -0.2454,1.8231 -0.2996,1.8103 -0.3535,1.795 -0.4073,1.7772 -0.4609,1.7567 -0.5143,1.7335 -0.5675,1.7077 -0.6205,1.6791 -0.6734,1.6477 -0.726,1.6134 -0.7784,1.5763 -0.8306,1.5362 -0.8823,1.4932 -0.9333,1.4475 -0.9834,1.3991 -1.0328,1.348 -1.0821,1.2932 -1.1373,1.2273 -1.2283,1.1133 -1.2675,1.0674 -1.2995,1.0337 -1.3349,1.0004 -1.3916,0.9515 -1.4242,0.9215 -1.4471,0.8971 -1.4655,0.8741 -1.4803,0.8517 -1.492,0.8294 -1.5009,0.8074 -1.507,0.7856 -1.5104,0.7643 l -8e-4,-0.0208 0.0017,-0.0199 0.0041,-0.0189 0.0064,-0.0176 0.0085,-0.0162 0.0104,-0.0145 0.0122,-0.0126 0.0136,-0.0106 0.015,-0.0084 0.0162,-0.0061 0.017,-0.0038 0.0178,-0.0014 0.0185,0.0012 0.019,0.0039 0.0198,0.0067 0.021,0.0099 0.0241,0.0145 0.0328,0.0234 0.031,0.0216 0.02,0.0112 0.0176,0.0071 0.0167,0.0041 0.0166,0.0015 0.017,-0.0011 0.018,-0.0037 0.0194,-0.0068 0.0218,-0.0106 0.0275,-0.0168 0.0531,-0.037 0.0325,-0.021 0.0261,-0.0142 0.0243,-0.0104 0.0234,-0.0074 0.0231,-0.0046 0.0232,-0.0021 0.0235,4e-4 0.0242,0.003 0.0257,0.0058 0.0288,0.0095 0.039,0.016 0.048,0.0201 0.0274,0.0091 0.0239,0.0054 0.0224,0.0026 h 0.0221 l 0.0224,-0.0026 0.0239,-0.0054 0.0272,-0.009 0.0374,-0.0156 0.0547,-0.0239 0.0307,-0.011 0.0272,-0.0072 0.0257,-0.0043 0.0252,-0.0017 0.0252,9e-4 0.0259,0.0035 0.0274,0.0063 0.0314,0.0101 0.065,0.0257 0.0337,0.012 0.0265,0.0071 0.0241,0.0039 z"
           id="path55" />
        <g
           id="arrows14">
          <use
             xlink:href="#arrow1"
             transform="matrix(-1.4514694,1.3759494,-1.3759494,-1.4514694,0.9567,1.4246)"
             id="use56" />
          <use
             xlink:href="#arrow1"
             transform="matrix(-1.4308978,-1.3973301,1.3973301,-1.4308978,-0.9568,1.4247)"
             id="use57" />
        </g>
      </g>
      <g
         id="fieldline15">
        <path
           d="M 0,0.7839 0.0151,0.7827 0.0304,0.7788 0.0462,0.772 0.063,0.762 0.0813,0.7477 0.1039,0.7264 0.1524,0.6763 0.1745,0.6565 0.1943,0.6419 0.2132,0.6309 0.2319,0.6229 0.2505,0.6177 0.269,0.615 0.2875,0.6149 0.306,0.6173 0.3243,0.6222 0.3426,0.6298 0.3609,0.6403 0.3795,0.6539 0.3989,0.6715 0.4209,0.6953 0.4761,0.7627 0.4973,0.7853 0.5152,0.8011 0.5313,0.8123 0.5462,0.8198 0.56,0.8241 0.5731,0.8257 0.5857,0.8247 0.5983,0.8211 0.611,0.8147 0.6244,0.8049 0.6392,0.7907 0.6576,0.7684 0.6958,0.7154 0.7174,0.6879 0.7356,0.6683 0.753,0.6531 0.7702,0.6413 0.7874,0.6324 0.8047,0.6262 0.8221,0.6227 0.8393,0.6217 0.8564,0.6233 0.8732,0.6274 0.8895,0.6339 0.9052,0.643 0.9201,0.6546 0.934,0.6687 0.9467,0.6852 0.958,0.7041 0.9674,0.725 0.9746,0.7472 0.9794,0.7699 0.9816,0.7924 0.9812,0.8143 0.9784,0.8354 0.9731,0.8556 0.9654,0.8752 0.9553,0.8941 0.9426,0.9122 0.9274,0.9294 0.9098,0.9456 0.8897,0.9604 0.8673,0.9738 0.8427,0.9855 0.8156,0.9955 0.7855,1.0038 0.7508,1.0105 0.686,1.019 0.6512,1.0246 0.6249,1.0312 0.5999,1.0401 0.5716,1.0531 0.5234,1.0794 0.4688,1.1091 0.4276,1.1288 0.3887,1.1447 0.3498,1.1579 0.3101,1.1687 0.2687,1.1772 0.2247,1.1837 0.1761,1.1882 0.1176,1.1907 0.0061,1.1914 -0.112,1.1908 -0.1721,1.1884 -0.2213,1.1841 -0.2655,1.1778 -0.307,1.1694 -0.3468,1.1588 -0.3858,1.1458 -0.4248,1.13 -0.4656,1.1107 -0.5179,1.0825 -0.5689,1.0545 -0.5979,1.0409 -0.6231,1.0317 -0.6493,1.025 -0.6833,1.0193 -0.7496,1.0107 -0.7845,1.004 -0.8146,0.9958 -0.8418,0.9859 -0.8665,0.9742 -0.889,0.9609 -0.9091,0.9461 -0.9269,0.93 -0.9421,0.9128 -0.9549,0.8947 -0.9651,0.8759 -0.9729,0.8563 -0.9783,0.8361 -0.9812,0.815 -0.9816,0.7932 -0.9795,0.7707 -0.9748,0.748 -0.9677,0.7258 -0.9583,0.7048 -0.9471,0.6859 -0.9345,0.6692 -0.9206,0.655 -0.9058,0.6434 -0.8901,0.6342 -0.8738,0.6275 -0.857,0.6234 l 0.0171,-0.0016 0.0172,8e-4 0.0174,0.0035 0.0173,0.006 0.0172,0.0088 0.0172,0.0117 0.0174,0.0151 0.0181,0.0194 0.0214,0.0271 0.039,0.0542 0.0186,0.0224 0.0147,0.0142 0.0134,0.0097 0.0128,0.0064 0.0125,0.0036 0.0126,0.001 0.0131,-0.0016 0.0138,-0.0043 0.0149,-0.0075 0.0161,-0.0112 0.0179,-0.0158 0.0212,-0.0226 0.0552,-0.0673 0.022,-0.0239 0.0194,-0.0176 0.0186,-0.0136 0.0183,-0.0105 0.0183,-0.0076 0.0183,-0.0049 0.0185,-0.0024 0.0185,10e-5 0.0185,0.0027 0.0186,0.0052 0.0187,0.008 0.0189,0.011 0.0198,0.0146 0.0221,0.0198 0.0485,0.0501 0.0226,0.0213 0.0183,0.0143 0.0168,0.01 0.0158,0.0068 0.0153,0.0039 z"
           id="path57" />
        <g
           id="arrows15">
          <use
             xlink:href="#arrow1"
             transform="matrix(-1.9999931,-0.00523598,0.00523598,-1.9999931,0,1.1913)"
             id="use58" />
        </g>
      </g>
    </g>
    <g
       id="symbols"
       transform="matrix(100,0,0,100,400,300)">
      <g
         id="current_out1"
         transform="matrix(0.01,0,0,0.01,-1.4,0.7)">
        <circle
           style="fill:#b0b0b0;stroke:none"
           cx="0"
           cy="0"
           r="14"
           id="circle58" />
        <circle
           cx="0"
           cy="0"
           r="14"
           style="fill:url(#radialGradient87);stroke:#000000;stroke-width:2"
           id="circle59" />
        <circle
           cx="0"
           cy="0"
           r="4"
           id="circle60" />
      </g>
      <g
         id="current_in2"
         transform="matrix(0.01,0,0,0.01,-1.4,-0.7)">
        <circle
           style="fill:#b0b0b0;stroke:none"
           cx="0"
           cy="0"
           r="14"
           id="circle61" />
        <circle
           cx="0"
           cy="0"
           r="14"
           style="fill:url(#radialGradient88);stroke:#000000;stroke-width:2"
           id="circle62" />
        <path
           d="M 8.6,-11 11,-8.6 2.6,0 11,8.6 8.6,11 0,2.6 -8.6,11 -11,8.6 -2.6,0 -11,-8.6 -8.6,-11 0,-2.6 Z"
           style="fill:#000000;stroke:none"
           id="path62" />
      </g>
      <g
         id="current_out3"
         transform="matrix(0.01,0,0,0.01,-0.84,0.7)">
        <circle
           style="fill:#b0b0b0;stroke:none"
           cx="0"
           cy="0"
           r="14"
           id="circle63" />
        <circle
           cx="0"
           cy="0"
           r="14"
           style="fill:url(#radialGradient89);stroke:#000000;stroke-width:2"
           id="circle64" />
        <circle
           cx="0"
           cy="0"
           r="4"
           id="circle65" />
      </g>
      <g
         id="current_in4"
         transform="matrix(0.01,0,0,0.01,-0.84,-0.7)">
        <circle
           style="fill:#b0b0b0;stroke:none"
           cx="0"
           cy="0"
           r="14"
           id="circle66" />
        <circle
           cx="0"
           cy="0"
           r="14"
           style="fill:url(#radialGradient90);stroke:#000000;stroke-width:2"
           id="circle67" />
        <path
           d="M 8.6,-11 11,-8.6 2.6,0 11,8.6 8.6,11 0,2.6 -8.6,11 -11,8.6 -2.6,0 -11,-8.6 -8.6,-11 0,-2.6 Z"
           style="fill:#000000;stroke:none"
           id="path67" />
      </g>
      <g
         id="current_out5"
         transform="matrix(0.01,0,0,0.01,-0.28,0.7)">
        <circle
           style="fill:#b0b0b0;stroke:none"
           cx="0"
           cy="0"
           r="14"
           id="circle68" />
        <circle
           cx="0"
           cy="0"
           r="14"
           style="fill:url(#radialGradient91);stroke:#000000;stroke-width:2"
           id="circle69" />
        <circle
           cx="0"
           cy="0"
           r="4"
           id="circle70" />
      </g>
      <g
         id="current_in6"
         transform="matrix(0.01,0,0,0.01,-0.28,-0.7)">
        <circle
           style="fill:#b0b0b0;stroke:none"
           cx="0"
           cy="0"
           r="14"
           id="circle71" />
        <circle
           cx="0"
           cy="0"
           r="14"
           style="fill:url(#radialGradient92);stroke:#000000;stroke-width:2"
           id="circle72" />
        <path
           d="M 8.6,-11 11,-8.6 2.6,0 11,8.6 8.6,11 0,2.6 -8.6,11 -11,8.6 -2.6,0 -11,-8.6 -8.6,-11 0,-2.6 Z"
           style="fill:#000000;stroke:none"
           id="path72" />
      </g>
      <g
         id="current_out7"
         transform="matrix(0.01,0,0,0.01,0.28,0.7)">
        <circle
           style="fill:#b0b0b0;stroke:none"
           cx="0"
           cy="0"
           r="14"
           id="circle73" />
        <circle
           cx="0"
           cy="0"
           r="14"
           style="fill:url(#radialGradient93);stroke:#000000;stroke-width:2"
           id="circle74" />
        <circle
           cx="0"
           cy="0"
           r="4"
           id="circle75" />
      </g>
      <g
         id="current_in8"
         transform="matrix(0.01,0,0,0.01,0.28,-0.7)">
        <circle
           style="fill:#b0b0b0;stroke:none"
           cx="0"
           cy="0"
           r="14"
           id="circle76" />
        <circle
           cx="0"
           cy="0"
           r="14"
           style="fill:url(#radialGradient94);stroke:#000000;stroke-width:2"
           id="circle77" />
        <path
           d="M 8.6,-11 11,-8.6 2.6,0 11,8.6 8.6,11 0,2.6 -8.6,11 -11,8.6 -2.6,0 -11,-8.6 -8.6,-11 0,-2.6 Z"
           style="fill:#000000;stroke:none"
           id="path77" />
      </g>
      <g
         id="current_out9"
         transform="matrix(0.01,0,0,0.01,0.84,0.7)">
        <circle
           style="fill:#b0b0b0;stroke:none"
           cx="0"
           cy="0"
           r="14"
           id="circle78" />
        <circle
           cx="0"
           cy="0"
           r="14"
           style="fill:url(#radialGradient95);stroke:#000000;stroke-width:2"
           id="circle79" />
        <circle
           cx="0"
           cy="0"
           r="4"
           id="circle80" />
      </g>
      <g
         id="current_in10"
         transform="matrix(0.01,0,0,0.01,0.84,-0.7)">
        <circle
           style="fill:#b0b0b0;stroke:none"
           cx="0"
           cy="0"
           r="14"
           id="circle81" />
        <circle
           cx="0"
           cy="0"
           r="14"
           style="fill:url(#radialGradient96);stroke:#000000;stroke-width:2"
           id="circle82" />
        <path
           d="M 8.6,-11 11,-8.6 2.6,0 11,8.6 8.6,11 0,2.6 -8.6,11 -11,8.6 -2.6,0 -11,-8.6 -8.6,-11 0,-2.6 Z"
           style="fill:#000000;stroke:none"
           id="path82" />
      </g>
      <g
         id="current_out11"
         transform="matrix(0.01,0,0,0.01,1.4,0.7)">
        <circle
           style="fill:#b0b0b0;stroke:none"
           cx="0"
           cy="0"
           r="14"
           id="circle83" />
        <circle
           cx="0"
           cy="0"
           r="14"
           style="fill:url(#radialGradient97);stroke:#000000;stroke-width:2"
           id="circle84" />
        <circle
           cx="0"
           cy="0"
           r="4"
           id="circle85" />
      </g>
      <g
         id="current_in12"
         transform="matrix(0.01,0,0,0.01,1.4,-0.7)">
        <circle
           style="fill:#b0b0b0;stroke:none"
           cx="0"
           cy="0"
           r="14"
           id="circle86" />
        <circle
           cx="0"
           cy="0"
           r="14"
           style="fill:url(#radialGradient98);stroke:#000000;stroke-width:2"
           id="circle87" />
        <path
           d="M 8.6,-11 11,-8.6 2.6,0 11,8.6 8.6,11 0,2.6 -8.6,11 -11,8.6 -2.6,0 -11,-8.6 -8.6,-11 0,-2.6 Z"
           style="fill:#000000;stroke:none"
           id="path87" />
      </g>
    </g>
  </g>
  <text
     xml:space="preserve"
     id="text98"
     style="font-style:normal;font-variant:normal;font-weight:normal;font-stretch:normal;font-size:48px;line-height:1.25;font-family:sans-serif;-inkscape-font-specification:'sans-serif, Normal';font-variant-ligatures:normal;font-variant-caps:normal;font-variant-numeric:normal;font-variant-east-asian:normal;white-space:pre;shape-inside:url(#rect98);fill:#ff0000;fill-opacity:1;stroke:none"
     transform="translate(-78,86)"><tspan
       x="661.99219"
       y="230.39081"
       id="tspan1">N</tspan></text>
  <text
     xml:space="preserve"
     id="text98-8"
     style="font-style:normal;font-variant:normal;font-weight:normal;font-stretch:normal;font-size:48px;line-height:1.25;font-family:sans-serif;-inkscape-font-specification:'sans-serif, Normal';font-variant-ligatures:normal;font-variant-caps:normal;font-variant-numeric:normal;font-variant-east-asian:normal;white-space:pre;shape-inside:url(#rect98-3);fill:#ff0000;fill-opacity:1;stroke:none"
     transform="translate(-469.64819,87.88119)"><tspan
       x="661.99219"
       y="230.39081"
       id="tspan2">S</tspan></text>
</svg>
