<svg id="Icon" xmlns="http://www.w3.org/2000/svg" width="225" height="225" viewBox="0 0 225 225"><g transform="translate(-16.00 32.00) rotate(-15.00 128.00 92.80)" style="fill: white; stroke: red; stroke-width: 10px;"><path d="M 64.00 172.80 H 192.00 A 16.00 16.00 0 0 0 208.00 156.80 V 28.80 A 16.00 16.00 0 0 0 192.00 12.80 H 64.00 A 16.00 16.00 0 0 0 48.00 28.80 V 156.80 A 16.00 16.00 0 0 0 64.00 172.80"></path></g><g style="fill: white; stroke: rgb(0, 101, 254); stroke-width: 10px;"><path d="M 64.00 172.80 H 192.00 A 16.00 16.00 0 0 0 208.00 156.80 V 28.80 A 16.00 16.00 0 0 0 192.00 12.80 H 64.00 A 16.00 16.00 0 0 0 48.00 28.80 V 156.80 A 16.00 16.00 0 0 0 64.00 172.80"></path></g><polygon points="174.40,92.80 88.00,42.92 88.00,142.68" style="stroke: none; fill: rgb(0, 101, 254);"></polygon></svg>