<?xml version="1.0" encoding="UTF-8" standalone="no"?><svg version="1.1" width="64pt" height="64pt" id="svg604" sodipodi:docname="correct1.svg" inkscape:version="1.3.1 (91b66b0783, 2023-11-16)" xmlns:inkscape="http://www.inkscape.org/namespaces/inkscape" xmlns:sodipodi="http://sodipodi.sourceforge.net/DTD/sodipodi-0.dtd" xmlns:xlink="http://www.w3.org/1999/xlink" xmlns="http://www.w3.org/2000/svg" xmlns:svg="http://www.w3.org/2000/svg" xmlns:rdf="http://www.w3.org/1999/02/22-rdf-syntax-ns#" xmlns:cc="http://creativecommons.org/ns#" xmlns:dc="http://purl.org/dc/elements/1.1/"><sodipodi:namedview id="namedview1" pagecolor="#ffffff" bordercolor="#666666" borderopacity="1.0" inkscape:showpageshadow="2" inkscape:pageopacity="0.0" inkscape:pagecheckerboard="0" inkscape:deskcolor="#d1d1d1" inkscape:document-units="pt" inkscape:zoom="4.71875" inkscape:cx="41.536424" inkscape:cy="45.245033" inkscape:window-width="1920" inkscape:window-height="1009" inkscape:window-x="-8" inkscape:window-y="-8" inkscape:window-maximized="1" inkscape:current-layer="svg604" /><metadata id="metadata45"><rdf:RDF><cc:Work rdf:about=""><dc:format>image/svg+xml</dc:format><dc:type rdf:resource="http://purl.org/dc/dcmitype/StillImage" /></cc:Work></rdf:RDF></metadata><defs id="defs606"><linearGradient id="linearGradient612"><stop id="stop613" style="stop-color:#7fa8e3;stop-opacity:0.74117601" offset="0" /><stop id="stop614" style="stop-color:#ffffff;stop-opacity:0" offset="1" /></linearGradient><linearGradient x1="50.643887" y1="5.3679295" x2="35.752094" y2="68.044357" id="linearGradient615" xlink:href="#linearGradient612" gradientUnits="userSpaceOnUse" spreadMethod="pad" gradientTransform="matrix(0.97943293,0,0,0.95049602,-1.6723513,-0.42594526)" /><defs id="defs611"><linearGradient id="linearGradient626"><stop id="stop627" style="stop-color:#b5772d;stop-opacity:1" offset="0" /><stop id="stop628" style="stop-color:#ffffff;stop-opacity:0" offset="1" /></linearGradient><linearGradient id="linearGradient619"><stop id="stop620" style="stop-color:#770000;stop-opacity:1" offset="0" /><stop id="stop621" style="stop-color:#ffffff;stop-opacity:0" offset="1" /></linearGradient><linearGradient x1="66.331696" y1="23.212469" x2="63.465496" y2="20.962799" id="linearGradient622" xlink:href="#linearGradient619" gradientUnits="userSpaceOnUse" gradientTransform="matrix(0.72575984,0,0,0.69799881,31.311655,-0.16322915)" spreadMethod="pad" /><linearGradient x1="56.327614" y1="43.377247" x2="51.654526" y2="39.762909" id="linearGradient625" xlink:href="#linearGradient626" gradientUnits="userSpaceOnUse" gradientTransform="matrix(0.65939704,0,0,0.76824715,31.311655,-0.16322915)" spreadMethod="pad" /></defs></defs><path d="M 5.1625405,74.338495 C 2.3590825,73.101803 -1.4637446,69.144593 0.57512039,63.70333 1.5944894,57.767571 19.944274,5.3339432 24.022073,2.8606726 26.570524,0.63474026 30.266102,-0.23093243 35.490681,1.1293832 39.823256,2.1187026 78.816432,12.011897 81.110107,13.990446 c 2.293791,1.978661 4.077799,3.586282 2.293791,7.914533 -1.274226,2.22591 -16.438411,52.186155 -16.693187,55.401508 -1.01945,3.462601 -3.950238,7.667172 -8.792596,7.419811 C 53.075873,84.478938 8.7305571,75.080465 5.1625405,74.338495 Z" id="path609" style="fill:#3d4e67;fill-rule:evenodd;stroke-width:1.13619" /><path d="M 11.024348,70.133924 C 8.0935596,69.391954 3.8881995,68.649872 5.4174318,64.198052 8.2208899,53.315639 22.492956,11.517176 28.609424,6.3232738 30.011211,5.0865825 34.726007,4.5919732 43.646049,7.3126044 53.840431,10.280484 74.483857,16.958326 76.522756,17.947657 c 2.038784,0.98933 2.803458,0.98933 1.274226,5.441262 -2.293676,4.451932 -12.487943,42.540433 -15.036625,48.970914 -1.783893,4.575613 -2.16623,6.677842 -5.224579,6.677842" id="path608" style="fill:#ffffff;fill-rule:evenodd;stroke-width:1.13619" /><path d="m 26.486345,12.643375 c 0,0 3.060728,-5.9406476 10.712548,-4.1584676 7.65182,1.7822276 37.646953,9.5050076 37.34088,11.8812476 -0.306072,2.37624 -5.815383,16.336651 -6.121455,17.524771 -0.306073,1.18812 -28.46477,0.59406 -39.177318,6.83169 -10.712547,6.23763 -18.67044,11.58417 -18.67044,11.58417 0,0 11.018621,-33.267361 15.915785,-43.663411 z" id="path636" style="fill:url(#linearGradient615);fill-rule:evenodd;stroke-width:0.964856" /><path d="M 30.251041,15.979512 72.250649,26.810456" id="path671" style="fill:none;stroke:#42667e;stroke-width:1.01909pt" /><path d="M 27.214438,23.163295 68.825811,34.162994" id="path672" style="fill:none;stroke:#42667e;stroke-width:1.01909pt" /><path d="M 23.495865,32.225992 65.495473,43.056937" id="path673" style="fill:none;stroke:#42667e;stroke-width:1.01909pt" /><path d="M 17.328093,49.327551 59.327701,60.158496" id="path675" style="fill:none;stroke:#42667e;stroke-width:1.01909pt" /><path d="M 14.291776,56.511438 55.903149,67.511137" id="path676" style="fill:none;stroke:#42667e;stroke-width:1.01909pt" /><path d="M 20.459399,39.40983 62.070773,50.409529" id="path674" style="fill:none;stroke:#42667e;stroke-width:1.01909pt" /><g id="g666" transform="matrix(1.0344884,0,0,1.0039249,-1.1752113,-0.83706957)"><path d="m 44.8581,15.0473 c -3.4478,0 -5.1105,-2.5484 -5.1105,-6.38799 0,-3.83962 2.7983,-6.95584 6.2461,-6.95584 3.4478,0 4.5425,1.12884 4.5425,4.96845" transform="matrix(0.948718,0,0,1,4.011168,0.567827)" id="path667" style="fill:none;stroke:#4f4f4f;stroke-width:2.875;stroke-linecap:round" /><path d="m 44.8581,14.7634 c -3.4478,0 -5.3944,-2.2645 -5.3944,-6.10409 0,-3.83962 2.7983,-7.807574 6.2461,-7.807574 3.4478,0 4.8264,1.980574 4.8264,5.820184" transform="matrix(0.948718,0,0,1,4.011168,0.567827)" id="path668" style="fill:none;stroke:#c2c2c2;stroke-width:0.625;stroke-linecap:round" /></g><use transform="translate(11.160724,1.9951813)" id="use669" x="0" y="0" width="90" height="90" xlink:href="#g666" /><path d="M 38.057501,57.412222 C 44.253672,55.763464 51.948916,52.368981 58.594805,48.392613 70.787232,41.506607 77.732957,26.764833 85.27821,15.514511 85.87781,6.2038687 77.632963,4.021746 74.035145,6.0584009 64.890861,17.696634 58.444887,30.353325 48.251176,39.081956 45.103112,46.501327 37.907576,57.848618 38.057501,57.412222 Z" id="path617" style="fill-rule:evenodd;stroke-width:0.711744" /><path d="m 83.329419,14.496159 c -1.249197,1.745727 -2.498467,3.491453 -3.747665,5.237179 -1.648955,-3.78243 -3.597746,-5.673645 -8.544683,-6.110042 1.59903,-1.891215 3.197989,-3.7824299 4.797019,-5.673645 3.997504,-0.4364666 7.095571,2.909567 7.495329,6.546508 z" id="path613" style="fill:#be6d6d;fill-rule:evenodd;stroke-width:0.711744" /><path d="m 70.887153,14.496159 c 3.897582,-0.242458 6.595892,2.57014 8.094929,5.819135 -6.096213,9.553044 -11.143072,18.96067 -21.436704,26.477011 0,0 -2.548392,-7.128464 -6.296056,-6.255531 4.647101,-5.09176 15.440412,-19.639525 19.637831,-26.040615 z" id="path614" style="fill:#ffbc24;fill-rule:evenodd;stroke-width:0.711744" /><path d="m 50.874491,40.973171 c 3.372905,-0.169749 6.221133,3.733981 5.471614,6.110112 -1.449112,1.066801 -3.797589,2.133673 -5.246701,3.200475 -0.24984,-1.939665 -1.549034,-3.442933 -4.347337,-3.200475 1.249197,-2.085224 2.873226,-4.024888 4.122424,-6.110112 z" id="path615" style="fill:#e9dbb9;fill-rule:evenodd;stroke-width:0.711744" /><path d="m 47.051903,46.792305 c 2.57339,-0.581885 3.647743,1.891215 4.197419,3.346034 l -9.59411,4.218827 z" id="path616" style="fill:#586f93;fill-rule:evenodd;stroke-width:0.711744" /><path d="m 83.329419,14.496159 c -1.249197,1.745727 -2.498467,3.491453 -3.747665,5.237179 -1.648955,-3.78243 -3.597746,-5.673645 -8.544683,-6.110042 1.59903,-1.891215 3.197989,-3.7824299 4.797019,-5.673645 3.997504,-0.4364666 7.095571,2.909567 7.495329,6.546508 z" id="path618" style="fill:url(#linearGradient622);fill-rule:evenodd;stroke-width:0.711744" /><path d="m 76.733527,8.3860475 -3.897583,4.8007825 2.09871,0.727374 3.897582,-4.5098045 z" id="path623" style="fill:#ffffff;fill-rule:evenodd;stroke-width:0.711744" /><path d="m 70.887153,14.496159 c 3.897582,-0.242458 6.595892,2.57014 8.094929,5.819135 -6.096213,9.553044 -11.143072,18.96067 -21.436704,26.477011 0,0 -2.548392,-7.128464 -6.296056,-6.255531 4.647101,-5.09176 15.440412,-19.639525 19.637831,-26.040615 z" id="path624" style="fill:url(#linearGradient625);fill-rule:evenodd;stroke-width:0.711744" /><path d="m 52.748359,39.227445 c 0.899436,0.533436 1.798873,1.066801 2.69831,1.600237 6.595964,-7.61338 9.59411,-15.372179 18.43863,-23.712933 -0.849512,-0.533436 -1.698952,-1.066802 -2.548464,-1.600238 -5.296698,8.92264 -11.342987,17.554372 -18.588476,23.712934 z" id="path630" style="fill:#ffffff;fill-rule:evenodd;stroke-width:0.711744" /><path d="m 56.421173,47.010573 c 0.149846,-1.527527 -0.224914,-2.618659 -1.049427,-3.855209 -1.09928,2.376131 -2.798231,4.097597 -5.171779,4.655293 -0.524677,0.436397 0.899437,1.382039 1.049355,2.254902 1.349191,-0.800153 5.171851,-2.618589 5.171851,-3.054986 z" id="path631" style="fill:#9c7850;fill-rule:evenodd;stroke-width:0.711744" /></svg> 