<?xml version="1.0" encoding="UTF-8" standalone="no"?>
<svg
   version="1.1"
   x="0"
   y="0"
   width="385"
   height="420"
   viewBox="0, 0, 385, 420"
   id="svg91"
   sodipodi:docname="bike.svg"
   inkscape:version="1.3.1 (91b66b0783, 2023-11-16)"
   xmlns:inkscape="http://www.inkscape.org/namespaces/inkscape"
   xmlns:sodipodi="http://sodipodi.sourceforge.net/DTD/sodipodi-0.dtd"
   xmlns="http://www.w3.org/2000/svg"
   xmlns:svg="http://www.w3.org/2000/svg">
  <sodipodi:namedview
     id="namedview91"
     pagecolor="#ffffff"
     bordercolor="#666666"
     borderopacity="1.0"
     inkscape:showpageshadow="2"
     inkscape:pageopacity="0.0"
     inkscape:pagecheckerboard="0"
     inkscape:deskcolor="#d1d1d1"
     inkscape:zoom="1.0785714"
     inkscape:cx="192.84768"
     inkscape:cy="210"
     inkscape:window-width="1920"
     inkscape:window-height="1009"
     inkscape:window-x="-8"
     inkscape:window-y="-8"
     inkscape:window-maximized="1"
     inkscape:current-layer="svg91" />
  <defs
     id="defs2">
    <radialGradient
       id="Gradient_1"
       gradientUnits="userSpaceOnUse"
       cx="186.405"
       cy="65.693"
       r="9.106">
      <stop
         offset="0"
         stop-color="#EEA497"
         id="stop1" />
      <stop
         offset="1"
         stop-color="#F7CEAA"
         id="stop2" />
    </radialGradient>
  </defs>
  <g
     id="g93"
     transform="matrix(-1,0,0,1,386.12,0)">
    <g
       id="g3">
      <path
         d="m 284.345,295.423 c 9.552,-5.493 20.65,-8.64 32.465,-8.64 36.13,0 65.413,29.322 65.413,65.445 0,36.125 -29.283,65.447 -65.413,65.447 -26.535,0 -49.335,-15.775 -59.622,-38.432 -3.73,-8.238 -5.82,-17.385 -5.82,-27.015 0,-5.488 0.66,-10.83 1.937,-15.923 3.733,-14.932 12.588,-27.817 24.6,-36.71 z m -1.755,8.895 c -2.642,1.867 -5.13,3.992 -7.427,6.255 -5.565,5.605 -10.03,12.267 -13,19.692 -0.878,2.163 -1.608,4.398 -2.228,6.705 -1.32,4.865 -2.017,9.99 -2.017,15.258 0,8.2 1.69,16.032 4.725,23.13 0.292,0.697 0.62,1.397 0.949,2.052 2.888,6.153 6.808,11.715 11.571,16.47 5.56,5.565 12.26,10.035 19.687,12.995 6.81,2.748 14.203,4.248 21.96,4.248 8.203,0 16.038,-1.685 23.133,-4.725 6.957,-2.96 13.212,-7.245 18.489,-12.518 5.56,-5.56 10.028,-12.262 12.988,-19.69 2.748,-6.77 4.25,-14.2 4.25,-21.962 0,-8.198 -1.68,-16.03 -4.72,-23.133 -2.97,-6.992 -7.252,-13.25 -12.518,-18.522 -5.562,-5.563 -12.259,-10.025 -19.697,-12.99 -6.77,-2.745 -14.162,-4.248 -21.925,-4.248 -8.235,0 -16.063,1.685 -23.135,4.758 -1.642,0.662 -3.252,1.465 -4.787,2.307 h -0.035 z"
         fill="#b4b5b4"
         id="path2" />
      <path
         d="m 284.345,295.423 c 9.552,-5.493 20.65,-8.64 32.465,-8.64 36.13,0 65.413,29.322 65.413,65.445 0,36.125 -29.283,65.447 -65.413,65.447 -26.535,0 -49.335,-15.775 -59.622,-38.432 -3.73,-8.238 -5.82,-17.385 -5.82,-27.015 0,-5.488 0.66,-10.83 1.937,-15.923 3.733,-14.932 12.588,-27.817 24.6,-36.71 z m -1.755,8.895 c -2.642,1.867 -5.13,3.992 -7.427,6.255 -5.565,5.605 -10.03,12.267 -13,19.692 -0.878,2.163 -1.608,4.398 -2.228,6.705 -1.32,4.865 -2.017,9.99 -2.017,15.258 0,8.2 1.69,16.032 4.725,23.13 0.292,0.697 0.62,1.397 0.949,2.052 2.888,6.153 6.808,11.715 11.571,16.47 5.56,5.565 12.26,10.035 19.687,12.995 6.81,2.748 14.203,4.248 21.96,4.248 8.203,0 16.038,-1.685 23.133,-4.725 6.957,-2.96 13.212,-7.245 18.489,-12.518 5.56,-5.56 10.028,-12.262 12.988,-19.69 2.748,-6.77 4.25,-14.2 4.25,-21.962 0,-8.198 -1.68,-16.03 -4.72,-23.133 -2.97,-6.992 -7.252,-13.25 -12.518,-18.522 -5.562,-5.563 -12.259,-10.025 -19.697,-12.99 -6.77,-2.745 -14.162,-4.248 -21.925,-4.248 -8.235,0 -16.063,1.685 -23.135,4.758 -1.642,0.662 -3.252,1.465 -4.787,2.307 h -0.035 z"
         fill-opacity="0"
         stroke="#6c4022"
         stroke-width="3.112"
         stroke-linecap="round"
         stroke-linejoin="round"
         id="path3" />
    </g>
    <path
       d="m 318.755,361.635 -0.152,0.038 c -0.585,0.072 -1.17,0.145 -1.793,0.145 -1.242,0 -2.485,-0.255 -3.58,-0.658 -1.207,-0.517 -2.31,-1.245 -3.222,-2.157 -0.883,-0.843 -1.578,-1.87 -2.055,-3.005 -0.508,-1.173 -0.765,-2.45 -0.765,-3.77 0,-1.243 0.257,-2.488 0.69,-3.583 0.482,-1.21 1.212,-2.307 2.13,-3.222 l -3.888,-3.88 3.558,0.365 c 1.607,3.842 2.812,7.682 3.437,11.42 0.365,2.087 3.26,3.66 5.233,3.222 3.037,-0.622 2.45,-4.357 1.91,-6.55 0,0 -0.883,-2.677 -3.038,-7.362 1.09,0.037 2.155,0.295 3.145,0.657 1.205,0.515 2.305,1.248 3.223,2.163 0.872,0.842 1.575,1.865 2.045,3.002 0.515,1.168 0.775,2.453 0.775,3.768 0,1.25 -0.26,2.492 -0.705,3.592 -0.473,1.205 -1.203,2.305 -2.115,3.183 -0.843,0.877 -1.875,1.572 -3.005,2.05 -0.585,0.255 -1.208,0.435 -1.828,0.582"
       fill="#b4b5b4"
       id="path4" />
    <path
       d="m 375.67,352.227 h -49.262 m -2.82,-6.805 34.844,-34.85 m 0,83.308 -34.844,-34.84 m -3.223,-15.745 18.37,-45.713 m 32.685,76.608 -45.717,-18.37 m -0.07,-7.36 45.317,-19.365 m -31.042,77.267 -19.325,-45.31"
       fill-opacity="0"
       stroke="#6c4022"
       stroke-width="1.558"
       stroke-linecap="round"
       stroke-linejoin="round"
       id="path5" />
    <path
       d="m 316.81,342.638 c 0.148,0 0.255,0 0.41,0 1.09,0.037 2.155,0.295 3.145,0.657 1.205,0.515 2.305,1.248 3.223,2.163 0.872,0.842 1.575,1.865 2.045,3.002 0.515,1.168 0.775,2.453 0.775,3.768 0,1.25 -0.26,2.492 -0.705,3.592 -0.473,1.205 -1.203,2.305 -2.115,3.183 -0.843,0.877 -1.875,1.572 -3.005,2.05 -0.585,0.255 -1.208,0.435 -1.828,0.582"
       fill-opacity="0"
       stroke="#6c4022"
       stroke-width="3.112"
       stroke-linecap="round"
       stroke-linejoin="round"
       id="path6" />
    <path
       d="m 288.888,300.4 c 15.19,17.24 23.72,32.543 27.922,41.435 v 0.803 c 0.148,0 0.255,0 0.41,0 2.155,4.685 3.038,7.362 3.038,7.362 0.54,2.193 1.127,5.927 -1.91,6.55 -1.973,0.438 -4.868,-1.135 -5.233,-3.222 -0.625,-3.738 -1.83,-7.578 -3.437,-11.42 -5.385,-12.735 -15.668,-25.803 -27.053,-37.59 0,0 -0.035,0 0,-0.038 -1.572,-1.572 -3.147,-3.147 -4.72,-4.685 C 255.463,277.522 230.76,260.94 230.76,260.94 l -1.175,-0.145 c 0.37,-2.78 0.738,-5.453 1.068,-7.942 h 0.107 c 22.99,13.655 40.48,28.587 53.585,42.57 1.575,1.68 3.078,3.332 4.543,4.977"
       fill="#e46e64"
       id="path7" />
    <path
       d="m 316.81,342.638 v -49.303 m 0,68.483 v 49.305 m -9.622,-58.895 h -49.271 m 52.091,6.812 -7.138,7.13 -27.707,27.71 m 34.845,-48.457 -3.888,-3.88 -30.957,-30.97 m 38.067,50.587 -0.918,2.308 -17.462,43.407 m 13.028,-58.23 -22.836,-9.192 -22.879,-9.188 m 45.789,25.733 -45.31,19.36 m 37.885,-61.268 -6.852,-15.997 v -0.035"
       fill-opacity="0"
       stroke="#6c4022"
       stroke-width="1.558"
       stroke-linecap="round"
       stroke-linejoin="round"
       id="path8" />
    <path
       d="m 318.603,361.673 c -0.585,0.072 -1.171,0.145 -1.793,0.145 -1.242,0 -2.485,-0.256 -3.58,-0.658 -1.207,-0.517 -2.31,-1.245 -3.222,-2.157 -0.883,-0.843 -1.578,-1.87 -2.055,-3.006 -0.508,-1.172 -0.765,-2.449 -0.765,-3.769 0,-1.243 0.257,-2.488 0.69,-3.583 0.482,-1.21 1.212,-2.307 2.13,-3.222 m -80.93,41.87 0.11,-0.038 28,-8.012 6.404,-1.833 48.72,-13.943 4.498,-1.277 1.793,-0.517 0.152,-0.038 0.44,-0.147 m -98.502,-28.403 32.612,3.22 6.63,0.665 25.108,2.483 21.077,2.09 3.558,0.365 M 230.76,260.94 c 0,0 24.703,16.583 47.145,38.655 1.573,1.538 3.148,3.113 4.72,4.685 -0.035,0.038 0,0.038 0,0.038 11.385,11.787 21.668,24.855 27.053,37.59 1.607,3.842 2.812,7.682 3.437,11.42 0.365,2.087 3.26,3.66 5.233,3.222 3.037,-0.622 2.45,-4.357 1.91,-6.55 0,0 -0.883,-2.677 -3.038,-7.362 -0.155,-0.255 -0.262,-0.513 -0.41,-0.803 -4.202,-8.892 -12.732,-24.195 -27.922,-41.435 -1.465,-1.645 -2.968,-3.297 -4.543,-4.977 C 271.24,281.44 253.75,266.508 230.76,252.853"
       fill-opacity="0"
       stroke="#6c4022"
       stroke-width="3.112"
       stroke-linecap="round"
       stroke-linejoin="round"
       id="path9" />
    <path
       d="M 64.89,363.315 91.265,297.582"
       fill-opacity="0"
       stroke="#6c4022"
       stroke-width="1.558"
       stroke-linecap="round"
       stroke-linejoin="round"
       id="path10" />
    <g
       id="g12">
      <path
         d="m 180.282,358.56 -0.22,-0.107 -13.942,-7.431 -0.115,-0.077 7.762,-3.925 7.945,4.405 z"
         fill="#909190"
         id="path11" />
      <path
         d="m 180.282,358.56 -0.22,-0.107 -13.942,-7.431 -0.115,-0.077 7.762,-3.925 7.945,4.405 z"
         fill-opacity="0"
         stroke="#6c4022"
         stroke-width="3.112"
         stroke-linecap="round"
         stroke-linejoin="round"
         id="path12" />
    </g>
    <g
       id="g14">
      <path
         d="m 173.622,347.142 -7.502,3.88 -7.245,3.733 c -3.333,0.952 -4.29,-0.478 -4.29,-0.478 -2.995,-3.365 -1.57,-5.565 -0.838,-6.327 0.218,-0.225 0.363,-0.335 0.363,-0.335 l 3.335,-1.495 10.467,-4.723 z"
         fill="#909190"
         id="path13" />
      <path
         d="m 173.622,347.142 -7.502,3.88 -7.245,3.733 c -3.333,0.952 -4.29,-0.478 -4.29,-0.478 -2.995,-3.365 -1.57,-5.565 -0.838,-6.327 0.218,-0.225 0.363,-0.335 0.363,-0.335 l 3.335,-1.495 10.467,-4.723 z"
         fill-opacity="0"
         stroke="#6c4022"
         stroke-width="3.112"
         stroke-linecap="round"
         stroke-linejoin="round"
         id="path14" />
    </g>
    <g
       id="g16">
      <path
         d="m 240.995,362.577 c 0,17.013 -13.79,30.81 -30.805,30.81 -17.015,0 -30.81,-13.797 -30.81,-30.81 0,-17.015 13.795,-30.805 30.81,-30.805 17.015,0 30.805,13.79 30.805,30.805 z"
         fill="#b4b5b4"
         id="path15" />
      <path
         d="m 240.995,362.577 c 0,17.013 -13.79,30.81 -30.805,30.81 -17.015,0 -30.81,-13.797 -30.81,-30.81 0,-17.015 13.795,-30.805 30.81,-30.805 17.015,0 30.805,13.79 30.805,30.805 z"
         fill-opacity="0"
         stroke="#6c4022"
         stroke-width="3.112"
         stroke-linecap="round"
         stroke-linejoin="round"
         id="path16" />
    </g>
    <g
       id="g18">
      <path
         d="m 206.015,365.22 12.37,-5.23 c 6.115,-1.028 6.59,7.612 1.905,9.515 -0.185,0.075 -23.355,9.517 -23.355,9.517 -1.863,0.22 -3.768,-0.037 -4.685,-1.792 -0.69,-1.285 -1.57,-5.19 0.405,-5.518 z"
         fill="#909190"
         id="path17" />
      <path
         d="m 206.015,365.22 12.37,-5.23 c 6.115,-1.028 6.59,7.612 1.905,9.515 -0.185,0.075 -23.355,9.517 -23.355,9.517 -1.863,0.22 -3.768,-0.037 -4.685,-1.792 -0.69,-1.285 -1.57,-5.19 0.405,-5.518 z"
         fill-opacity="0"
         stroke="#6c4022"
         stroke-width="3.112"
         stroke-linecap="round"
         stroke-linejoin="round"
         id="path18" />
    </g>
    <g
       id="g20">
      <path
         d="m 222.305,259.99 c 0,0 -8.88,72.623 -13.528,104.065 l 7.01,-3.1 c 0.588,-4.1 2.05,-15.315 3.883,-28.2 3.035,-21.517 7.14,-50.657 9.915,-71.96 0.37,-2.78 0.737,-5.452 1.067,-7.942 0.175,-1.685 0.4,-3.26 0.583,-4.76 z"
         fill="#b4b5b4"
         id="path19" />
      <path
         d="m 222.305,259.99 c 0,0 -8.88,72.623 -13.528,104.065 l 7.01,-3.1 c 0.588,-4.1 2.05,-15.315 3.883,-28.2 3.035,-21.517 7.14,-50.657 9.915,-71.96 0.37,-2.78 0.737,-5.452 1.067,-7.942 0.175,-1.685 0.4,-3.26 0.583,-4.76 z"
         fill-opacity="0"
         stroke="#6c4022"
         stroke-width="3.112"
         stroke-linecap="round"
         stroke-linejoin="round"
         id="path20" />
    </g>
    <g
       id="g22">
      <path
         d="m 160.255,245.497 -8.52,4.978 c 0,0 13.537,34.042 17.13,56.33 l 0.475,1.28 c 7.612,5.715 3.112,15.01 3.112,15.01 -0.33,3.883 -2.377,5.962 -3.44,8.785 v 0.035 l -3.297,6.442 c -2.928,4.396 -5.89,6.408 -5.89,6.408 -0.77,0.472 -1.575,0.912 -2.38,1.355 -1.21,0.692 -2.415,1.315 -3.698,1.83 -0.622,0.252 -1.242,0.51 -1.862,0.727 -1.8,0.623 -5.2,1.616 -5.933,-0.915 -0.99,-3.37 2.596,-6.842 3.803,-9.627 0.7,-1.61 1.282,-3.33 1.72,-5.05 0.992,-3.368 1.575,-6.917 2.127,-10.32 v -0.037 l 0.983,-9.04 c -0.655,-4.943 -1.203,-5.93 -2.155,-8.566 -3.588,-10.214 -8.382,-20.06 -13.108,-29.829 -3.872,-8.016 -8.815,-15.593 -11.452,-24.198 -1.39,-4.463 -3.145,-11.275 -0.545,-15.59 2.155,-3.588 8.125,-5.748 11.782,-7.25 2.71,-1.095 5.53,-2.233 8.345,-3 z"
         fill="#f7ceaa"
         id="path21" />
      <path
         d="m 160.255,245.497 -8.52,4.978 c 0,0 13.537,34.042 17.13,56.33 l 0.475,1.28 c 7.612,5.715 3.112,15.01 3.112,15.01 -0.33,3.883 -2.377,5.962 -3.44,8.785 v 0.035 l -3.297,6.442 c -2.928,4.396 -5.89,6.408 -5.89,6.408 -0.77,0.472 -1.575,0.912 -2.38,1.355 -1.21,0.692 -2.415,1.315 -3.698,1.83 -0.622,0.252 -1.242,0.51 -1.862,0.727 -1.8,0.623 -5.2,1.616 -5.933,-0.915 -0.99,-3.37 2.596,-6.842 3.803,-9.627 0.7,-1.61 1.282,-3.33 1.72,-5.05 0.992,-3.368 1.575,-6.917 2.127,-10.32 v -0.037 l 0.983,-9.04 c -0.655,-4.943 -1.203,-5.93 -2.155,-8.566 -3.588,-10.214 -8.382,-20.06 -13.108,-29.829 -3.872,-8.016 -8.815,-15.593 -11.452,-24.198 -1.39,-4.463 -3.145,-11.275 -0.545,-15.59 2.155,-3.588 8.125,-5.748 11.782,-7.25 2.71,-1.095 5.53,-2.233 8.345,-3 z"
         fill-opacity="0"
         stroke="#6c4022"
         stroke-width="3.112"
         stroke-linecap="round"
         stroke-linejoin="round"
         id="path22" />
    </g>
    <g
       id="g24">
      <path
         d="m 165.715,338.357 c -2.928,4.396 -5.89,6.408 -5.89,6.408 -0.77,0.472 -1.575,0.912 -2.38,1.355 l -3.335,1.495 c 0,0 -0.145,0.11 -0.363,0.335 -0.622,0.252 -1.242,0.51 -1.862,0.727 -1.8,0.623 -5.2,1.616 -5.933,-0.915 -0.99,-3.37 2.596,-6.842 3.803,-9.627 0.7,-1.61 1.282,-3.33 1.72,-5.05 0,0 3.3,-0.695 6.847,-3.732 l 4.285,-4.943 c 2.56,-4.027 5.233,-6.402 6.258,-17.605 l 0.475,1.28 c 7.612,5.715 3.112,15.01 3.112,15.01 -0.33,3.883 -2.377,5.962 -3.44,8.785 z"
         fill="#bc564c"
         id="path23" />
      <path
         d="m 165.715,338.357 c -2.928,4.396 -5.89,6.408 -5.89,6.408 -0.77,0.472 -1.575,0.912 -2.38,1.355 l -3.335,1.495 c 0,0 -0.145,0.11 -0.363,0.335 -0.622,0.252 -1.242,0.51 -1.862,0.727 -1.8,0.623 -5.2,1.616 -5.933,-0.915 -0.99,-3.37 2.596,-6.842 3.803,-9.627 0.7,-1.61 1.282,-3.33 1.72,-5.05 0,0 3.3,-0.695 6.847,-3.732 l 4.285,-4.943 c 2.56,-4.027 5.233,-6.402 6.258,-17.605 l 0.475,1.28 c 7.612,5.715 3.112,15.01 3.112,15.01 -0.33,3.883 -2.377,5.962 -3.44,8.785 z"
         fill-opacity="0"
         stroke="#6c4022"
         stroke-width="3.112"
         stroke-linecap="round"
         stroke-linejoin="round"
         id="path24" />
    </g>
    <path
       d="m 95.64,168.935 c -0.025,-1.44 0.322,-2.575 1.04,-3.813 0.822,-1.414 2.29,-2.174 3.84,-2.629 1.267,-0.378 1.807,-0.276 2.848,0.569 1.202,0.981 2.442,2.826 2.57,4.416 0.22,2.775 -2.983,4.445 -4.816,5.947 -0.845,0.69 -2.057,1.853 -3.262,1.432 -1.562,-0.547 -1.74,-2.527 -1.965,-3.905 -0.108,-0.669 -0.237,-1.337 -0.255,-2.017"
       fill="#e46e64"
       id="path27" />
    <g
       id="g29">
      <path
         d="m 195.082,157.583 c -10.435,20.387 -18.885,19.89 -18.885,19.89 l -60.152,-4.478 c -9.445,0 -10.503,-6.302 -10.503,-6.302 -6.222,-8.568 -14.02,6.622 -5.712,8.092 1.997,3.545 -1.425,5.233 -1.425,5.233 -10.03,-2.456 -11.42,-8.275 -10.723,-12.818 0.478,-3.475 2.155,-6.22 2.155,-6.22 9.518,-8.562 22.99,-2.343 23.06,-2.343 2.6,1.208 26.868,2.053 35.58,2.273 l 22.805,0.402 6.663,-9.519 z"
         fill="#f7ceaa"
         id="path28" />
      <path
         d="m 195.082,157.583 c -10.435,20.387 -18.885,19.89 -18.885,19.89 l -60.152,-4.478 c -9.445,0 -10.503,-6.302 -10.503,-6.302 -6.222,-8.568 -14.02,6.622 -5.712,8.092 1.997,3.545 -1.425,5.233 -1.425,5.233 -10.03,-2.456 -11.42,-8.275 -10.723,-12.818 0.478,-3.475 2.155,-6.22 2.155,-6.22 9.518,-8.562 22.99,-2.343 23.06,-2.343 2.6,1.208 26.868,2.053 35.58,2.273 l 22.805,0.402 6.663,-9.519 z"
         fill-opacity="0"
         stroke="#6c4022"
         stroke-width="3.112"
         stroke-linecap="round"
         stroke-linejoin="round"
         id="path29" />
    </g>
    <path
       d="m 192.545,82.91 c -23.318,14.017 -27.633,-12.958 -27.633,-12.958 -1.357,-0.257 -2.967,-0.625 -4.137,-1.392 -1.095,-0.697 -1.613,-1.792 -1.095,-3.038 0.655,-1.684 2.632,-2.16 3.582,-3.55 0.62,-0.915 0.585,-2.122 0.55,-3.187 -0.075,-1.647 -0.365,-3.333 -0.802,-4.938 -2.968,-21.194 1.937,-30.489 6.695,-35.649 0,0 8.127,-16.218 34.7,-13.983 0,0 20.497,-0.59 30.272,17.052 0,0 4.61,9.773 10.356,10.323 0,0 15.922,5.013 15.702,14.97 0,0 -4.577,-3.073 -7.653,-2.305 0,0 2.898,8.238 9.41,8.822 0,0 -4.025,4.39 -13.432,0 0,0 3.075,5.563 11.307,5.158 0,0 -5.375,5.197 -14.377,3.077 0,0 9.002,5.963 9.002,14.203 0,0 -6.885,-5.02 -11.307,-4.432 0,0 4.572,4.765 3.84,10.912 0,-0.733 -1.94,-2.382 -2.305,-2.822 -1.725,-1.788 -4.065,-3.325 -6.448,-4.063 -1.902,-0.585 -3.945,-0.255 -5.855,0.185 -2.595,0.623 -4.642,1.683 -6.992,2.855 -2.228,1.1 -5.45,1.315 -7.905,1.355 -2.78,0.038 -5.748,-0.438 -8.053,-2.087 0,0 -0.877,12.187 -0.877,17.755 l -0.038,0.472 c -1.827,-0.11 -3.657,0.038 -5.487,0.477 -1.833,0.476 -3.517,1.246 -5.055,2.235 l -1.133,-0.515 c -0.585,-3.625 -4.687,-14.68 -4.687,-14.68 l -0.145,-0.252"
       fill="#f7ceaa"
       id="path30" />
    <path
       d="m 225.925,78.15 c 2.35,-1.172 4.397,-2.233 6.992,-2.855 1.91,-0.44 3.953,-0.77 5.855,-0.185 2.383,0.737 4.723,2.275 6.448,4.063 0.365,0.439 2.305,2.089 2.305,2.822 0.732,-6.148 -3.84,-10.913 -3.84,-10.913 4.422,-0.587 11.307,4.433 11.307,4.433 0,-8.24 -9.002,-14.203 -9.002,-14.203 9.002,2.12 14.377,-3.077 14.377,-3.077 -8.232,0.405 -11.307,-5.158 -11.307,-5.158 9.407,4.39 13.432,0 13.432,0 -6.512,-0.585 -9.409,-8.822 -9.409,-8.822 3.075,-0.768 7.652,2.305 7.652,2.305 0.22,-9.958 -15.702,-14.97 -15.702,-14.97 C 239.287,31.04 234.678,21.267 234.678,21.267 224.902,3.625 204.405,4.215 204.405,4.215 c -21.285,-1.788 -30.712,8.242 -33.633,12.31 0.455,2.84 0.841,4.927 0.841,4.927 0,0 4.022,32.21 33.744,31.04 0.583,0 1.831,-1.502 2.196,-1.902 0.877,-0.843 2.599,-2.71 3.512,-3.513 1.942,-1.762 4.395,-2.347 6.518,-0.627 4.394,3.52 3.295,10.542 -0.55,13.985 -0.988,0.915 -2.381,1.722 -3.696,2.082 -1.757,0.483 -3.885,0.518 -5.679,0.333 0,10.06 2.309,14.567 2.309,14.567 2.305,1.65 5.273,2.125 8.053,2.088 2.455,-0.04 5.677,-0.255 7.905,-1.355"
       fill="#8b6b46"
       id="path31" />
    <path
       d="m 264.068,207.175 c 0,0 1.427,26.645 -30.45,35.687 5.197,-9.922 8.272,-20.605 6.622,-30.93 h 0.033 c 0,0 5.242,-3.807 8.092,-7.135 0,0 13.325,-12.882 15.703,2.378"
       fill="#e46e64"
       id="path32"
       style="stroke:#6c4022;stroke-width:2.4;stroke-dasharray:none;stroke-opacity:1" />
    <path
       d="M 147.708,225.11 145,219.837 186.69,205.342 c -0.15,1.028 -0.292,1.978 -0.51,2.783 0,0 30.597,4.537 51.64,-6.738 l 0.118,0.223 c 0,0 2.195,9.7 2.302,10.322 1.65,10.325 -1.425,21.008 -6.622,30.931 -0.916,1.679 -1.828,3.329 -2.826,4.977 -2.597,4.285 -5.487,8.345 -8.487,12.15 -12.26,15.555 -26.132,26.537 -26.132,26.537 -1.905,-1.717 -8.79,-8.712 -16.183,-16.215 -5.855,-5.962 -12.008,-12.265 -16.288,-16.652 -3.332,-3.407 -5.49,-5.64 -5.49,-5.64 0.038,-0.035 0.076,-0.108 0.11,-0.145 L 147.708,225.11"
       fill="#8e705b"
       id="path33" />
    <path
       d="m 172.082,51.905 c 1.303,0 2.343,1.475 2.343,3.328 0,1.855 -1.04,3.385 -2.343,3.385 -1.31,0 -2.39,-1.53 -2.39,-3.385 0,-1.853 1.08,-3.328 2.39,-3.328"
       fill="#6c4022"
       id="path34" />
    <path
       d="m 95.477,215.738 c 0.34,-3.225 0.86,-8.563 0.86,-8.563 h 5.323 c 0,0 -0.253,4.575 -0.438,6.585 -1.132,1.135 -3.44,1.723 -5.745,1.978"
       fill="#b4b5b4"
       id="path35" />
    <path
       d="m 45.77,148.937 8.157,28.953 c -0.327,0.332 -0.69,0.695 -1.092,1.062 -2.015,2.013 -4.98,2.635 -7.323,2.785 l -7.537,-30.345 7.795,-2.455"
       fill="#fffffe"
       id="path52" />
    <path
       d="m 192.69,83.162 c 0,0 4.102,11.055 4.688,14.68 m 7.209,-24.455 c -4.502,4.288 -8.487,7.363 -12.042,9.523 -23.318,14.017 -27.633,-12.958 -27.633,-12.958 -1.357,-0.257 -2.967,-0.625 -4.137,-1.392 -1.095,-0.698 -1.613,-1.793 -1.095,-3.038 0.655,-1.685 2.632,-2.16 3.582,-3.55 0.62,-0.915 0.586,-2.122 0.55,-3.187 -0.074,-1.648 -0.365,-3.333 -0.802,-4.938 -2.968,-21.195 1.937,-30.49 6.695,-35.65 0,0 8.128,-16.217 34.7,-13.982 0,0 20.497,-0.59 30.272,17.052 0,0 4.61,9.773 10.356,10.323 0,0 15.922,5.012 15.702,14.97 0,0 -4.577,-3.073 -7.652,-2.305 0,0 2.897,8.237 9.409,8.822 0,0 -4.025,4.39 -13.432,0 0,0 3.075,5.563 11.307,5.158 0,0 -5.375,5.197 -14.377,3.077 0,0 9.002,5.963 9.002,14.203 0,0 -6.885,-5.02 -11.307,-4.433 0,0 4.572,4.765 3.84,10.948 v -0.035 c 0,-0.733 -1.94,-2.383 -2.305,-2.823 -1.725,-1.787 -4.065,-3.325 -6.448,-4.062 -1.902,-0.585 -3.945,-0.255 -5.855,0.185 -2.595,0.622 -4.642,1.682 -6.992,2.855 -2.228,1.1 -5.45,1.315 -7.905,1.355 -2.78,0.037 -5.748,-0.438 -8.053,-2.088 0,0 -0.877,12.188 -0.877,17.755 m -20.605,121.593 c 0,0 -29.945,30.818 -30.163,31.11 -0.035,0.037 -0.072,0.11 -0.11,0.145 0,0 2.158,2.233 5.49,5.64 4.28,4.387 10.433,10.69 16.288,16.652 7.392,7.503 14.278,14.498 16.183,16.215 0,0 13.872,-10.982 26.132,-26.537 3,-3.805 5.89,-7.865 8.487,-12.15 0.998,-1.648 1.91,-3.298 2.825,-4.977 5.198,-9.923 8.273,-20.606 6.623,-30.931 -0.108,-0.622 -0.215,-1.242 -0.365,-1.867 l -1.937,-8.455"
       fill-opacity="0"
       stroke="#6c4022"
       stroke-width="3.112"
       stroke-linecap="round"
       stroke-linejoin="round"
       id="path59" />
    <g
       id="g61">
      <path
         d="m 164.11,294.143 -6.995,-9.63 c -6.623,-8.236 -5.053,-15.88 -1.755,-21.486 3.223,-5.632 8.16,-9.182 8.16,-9.182 l 16.47,16.467 -2.265,4.141 c 5.923,5.962 32.94,55.375 32.94,55.375 1.138,0.037 2.088,0.222 2.855,0.514 1.173,0.4 2.007,1.021 2.597,1.828 3.438,4.868 -2.745,15.488 -2.745,15.488 -3.622,5.122 -3.737,11.785 -7.285,16.942 -0.11,0.147 -0.217,0.293 -0.325,0.44 -2.967,4.063 -7.399,6.55 -12.114,8.052 -0.368,0.111 -0.696,0.22 -1.065,0.293 -3.295,0.84 -6.3,0.22 -5.453,-4.027 0.403,-2.158 1.245,-4.723 2.45,-6.586 1.798,-2.75 3.185,-5.93 4.208,-9.079 2.457,-7.323 3.114,-14.275 3.114,-14.275 l -2.414,-3.368 -30.378,-41.875"
         fill="#f7ceaa"
         id="path60" />
      <path
         d="m 164.11,294.143 -6.995,-9.63 c -6.623,-8.236 -5.053,-15.88 -1.755,-21.486 3.223,-5.632 8.16,-9.182 8.16,-9.182 l 16.47,16.467 -2.265,4.141 c 5.923,5.962 32.94,55.375 32.94,55.375 1.138,0.037 2.088,0.222 2.855,0.514 1.173,0.4 2.007,1.021 2.597,1.828 3.438,4.868 -2.745,15.488 -2.745,15.488 -3.622,5.122 -3.737,11.785 -7.285,16.942 -0.11,0.147 -0.217,0.293 -0.325,0.44 -2.967,4.063 -7.399,6.55 -12.114,8.052 -0.368,0.111 -0.696,0.22 -1.065,0.293 -3.295,0.84 -6.3,0.22 -5.453,-4.027 0.403,-2.158 1.245,-4.723 2.45,-6.586 1.798,-2.75 3.185,-5.93 4.208,-9.079 2.457,-7.323 3.114,-14.275 3.114,-14.275 l -2.414,-3.368 -30.378,-41.875"
         fill-opacity="0"
         stroke="#6c4022"
         stroke-width="3.112"
         stroke-linecap="round"
         stroke-linejoin="round"
         id="path61" />
    </g>
    <g
       id="g64">
      <path
         d="m 111.248,164.787 c -6.085,0.14 -10.06,6.775 -12.625,15.3 -3.663,12.155 -4.5,27.088 -4.5,27.088 h 10.47 c 0,0 0.472,-17.168 5.23,-21.45 0,0 16,-21.273 1.425,-20.938 z"
         fill="#e46e64"
         id="path63" />
      <path
         d="m 111.248,164.787 c -6.085,0.14 -10.06,6.775 -12.625,15.3 -3.663,12.155 -4.5,27.088 -4.5,27.088 h 10.47 c 0,0 0.472,-17.168 5.23,-21.45 0,0 16,-21.273 1.425,-20.938 z"
         fill-opacity="0"
         stroke="#6c4022"
         stroke-width="3.112"
         stroke-linecap="round"
         stroke-linejoin="round"
         id="path64" />
    </g>
    <g
       id="g66">
      <path
         d="m 78.93,352.228 c 0,-1.35 -0.25,-2.638 -0.77,-3.768 -0.475,-1.095 -1.133,-2.09 -1.975,-2.93 0,-0.038 -0.038,-0.073 -0.073,-0.108 l -0.092,-0.037 c -0.86,-0.855 -1.928,-1.567 -3.11,-2.067 -1.098,-0.438 -2.343,-0.698 -3.59,-0.698 -1.313,0 -2.598,0.295 -3.763,0.768 -0.532,0.245 -1.037,0.532 -1.515,0.847 -0.03,0.023 -0.06,0.032 -0.092,0.053 -0.505,0.345 -0.975,0.725 -1.395,1.152 l -0.005,0.008 c -0.005,0.004 -0.013,0.004 -0.018,0.009 -0.362,0.37 -0.687,0.788 -0.997,1.225 -0.44,0.618 -0.84,1.273 -1.143,1.981 -0.085,0.242 -0.137,0.509 -0.212,0.767 -0.28,0.895 -0.468,1.837 -0.468,2.798 0,0.655 0.075,1.297 0.208,1.93 0.06,0.304 0.177,0.589 0.265,0.882 0.1,0.32 0.172,0.653 0.297,0.957 0.07,0.15 0.168,0.286 0.24,0.438 0.45,0.925 1.028,1.782 1.763,2.5 0.012,0.022 0.035,0.047 0.047,0.068 0,0 0.005,0 0.005,0.002 0.008,0.005 0.013,0.01 0.018,0.015 0.807,0.842 1.813,1.505 2.905,1.983 0.105,0.047 0.192,0.114 0.292,0.157 0.208,0.072 0.438,0.115 0.645,0.18 0.933,0.295 1.918,0.5 2.923,0.5 1.36,0 2.637,-0.26 3.77,-0.772 0.557,-0.241 1.083,-0.528 1.572,-0.861 0.283,-0.19 0.523,-0.417 0.778,-0.637 0.19,-0.165 0.402,-0.3 0.58,-0.475 0.035,0 0.07,-0.038 0.105,-0.075 l 0.03,-0.07 c 0.895,-0.875 1.612,-1.947 2.08,-3.13 0.445,-1.1 0.695,-2.342 0.695,-3.592 z"
         fill="#b4b5b4"
         id="path65" />
      <path
         d="m 78.93,352.228 c 0,-1.35 -0.25,-2.638 -0.77,-3.768 -0.475,-1.095 -1.133,-2.09 -1.975,-2.93 0,-0.038 -0.038,-0.073 -0.073,-0.108 l -0.092,-0.037 c -0.86,-0.855 -1.928,-1.567 -3.11,-2.067 -1.098,-0.438 -2.343,-0.698 -3.59,-0.698 -1.313,0 -2.598,0.295 -3.763,0.768 -0.532,0.245 -1.037,0.532 -1.515,0.847 -0.03,0.023 -0.06,0.032 -0.092,0.053 -0.505,0.345 -0.975,0.725 -1.395,1.152 l -0.005,0.008 c -0.005,0.004 -0.013,0.004 -0.018,0.009 -0.362,0.37 -0.687,0.788 -0.997,1.225 -0.44,0.618 -0.84,1.273 -1.143,1.981 -0.085,0.242 -0.137,0.509 -0.212,0.767 -0.28,0.895 -0.468,1.837 -0.468,2.798 0,0.655 0.075,1.297 0.208,1.93 0.06,0.304 0.177,0.589 0.265,0.882 0.1,0.32 0.172,0.653 0.297,0.957 0.07,0.15 0.168,0.286 0.24,0.438 0.45,0.925 1.028,1.782 1.763,2.5 0.012,0.022 0.035,0.047 0.047,0.068 0,0 0.005,0 0.005,0.002 0.008,0.005 0.013,0.01 0.018,0.015 0.807,0.842 1.813,1.505 2.905,1.983 0.105,0.047 0.192,0.114 0.292,0.157 0.208,0.072 0.438,0.115 0.645,0.18 0.933,0.295 1.918,0.5 2.923,0.5 1.36,0 2.637,-0.26 3.77,-0.772 0.557,-0.241 1.083,-0.528 1.572,-0.861 0.283,-0.19 0.523,-0.417 0.778,-0.637 0.19,-0.165 0.402,-0.3 0.58,-0.475 0.035,0 0.07,-0.038 0.105,-0.075 l 0.03,-0.07 c 0.895,-0.875 1.612,-1.947 2.08,-3.13 0.445,-1.1 0.695,-2.342 0.695,-3.592 z"
         fill-opacity="0"
         stroke="#6c4022"
         stroke-width="3.112"
         stroke-linecap="round"
         stroke-linejoin="round"
         id="path66" />
    </g>
    <path
       d="m 69.34,342.638 v -49.303 m 0,68.483 v 49.305 M 59.713,352.228 H 10.448 m 117.787,0 H 78.93 m -2.817,-6.805 0.185,-0.185 34.662,-34.625 v -0.04 M 62.533,359.04 27.688,393.88 M 62.533,345.423 27.688,310.573 M 110.96,393.88 76.113,359.04 m -10.36,2.12 -18.375,45.715 m 13.037,-58.23 -45.72,-18.38 M 123.99,374.19 78.235,355.82 m -0.075,-7.36 45.318,-19.365 M 60.483,355.998 15.17,375.358 M 65.573,343.41 46.21,298.058 m 46.23,108.305 -19.33,-45.31"
       fill-opacity="0"
       stroke="#6c4022"
       stroke-width="1.558"
       stroke-linecap="round"
       stroke-linejoin="round"
       id="path67" />
    <g
       id="g69">
      <path
         d="m 90.28,290.225 c 25.838,8.748 44.465,33.198 44.465,62.003 0,36.125 -29.278,65.447 -65.405,65.447 -36.123,0 -65.443,-29.322 -65.443,-65.447 0,-36.123 29.32,-65.445 65.443,-65.445 5.237,0 10.32,0.62 15.192,1.792 z m -7.138,4.763 c -4.43,-1.065 -9.039,-1.653 -13.802,-1.653 -8.198,0 -16.033,1.685 -23.13,4.723 -6.955,2.962 -13.25,7.247 -18.523,12.515 -5.557,5.57 -10.025,12.267 -12.992,19.692 -2.748,6.81 -4.248,14.208 -4.248,21.963 0,8.2 1.685,16.032 4.723,23.13 2.965,6.957 7.25,13.255 12.517,18.522 5.565,5.565 12.265,10.035 19.69,12.995 6.775,2.748 14.205,4.248 21.963,4.248 8.2,0 16.035,-1.685 23.135,-4.725 6.955,-2.96 13.21,-7.245 18.485,-12.518 5.562,-5.56 10.027,-12.262 13.03,-19.69 2.745,-6.77 4.245,-14.2 4.245,-21.962 0,-8.198 -1.685,-16.03 -4.72,-23.133 -3.005,-6.955 -7.285,-13.212 -12.555,-18.482 -5.568,-5.603 -12.26,-10.065 -19.695,-13.03 -0.768,-0.333 -1.57,-0.625 -2.378,-0.915 z"
         fill="#b4b5b4"
         id="path68" />
      <path
         d="m 90.28,290.225 c 25.838,8.748 44.465,33.198 44.465,62.003 0,36.125 -29.278,65.447 -65.405,65.447 -36.123,0 -65.443,-29.322 -65.443,-65.447 0,-36.123 29.32,-65.445 65.443,-65.445 5.237,0 10.32,0.62 15.192,1.792 z m -7.138,4.763 c -4.43,-1.065 -9.039,-1.653 -13.802,-1.653 -8.198,0 -16.033,1.685 -23.13,4.723 -6.955,2.962 -13.25,7.247 -18.523,12.515 -5.557,5.57 -10.025,12.267 -12.992,19.692 -2.748,6.81 -4.248,14.208 -4.248,21.963 0,8.2 1.685,16.032 4.723,23.13 2.965,6.957 7.25,13.255 12.517,18.522 5.565,5.565 12.265,10.035 19.69,12.995 6.775,2.748 14.205,4.248 21.963,4.248 8.2,0 16.035,-1.685 23.135,-4.725 6.955,-2.96 13.21,-7.245 18.485,-12.518 5.562,-5.56 10.027,-12.262 13.03,-19.69 2.745,-6.77 4.245,-14.2 4.245,-21.962 0,-8.198 -1.685,-16.03 -4.72,-23.133 -3.005,-6.955 -7.285,-13.212 -12.555,-18.482 -5.568,-5.603 -12.26,-10.065 -19.695,-13.03 -0.768,-0.333 -1.57,-0.625 -2.378,-0.915 z"
         fill-opacity="0"
         stroke="#6c4022"
         stroke-width="3.112"
         stroke-linecap="round"
         stroke-linejoin="round"
         id="path69" />
    </g>
    <path
       d="m 171.612,21.453 c 0,0 4.023,32.21 33.745,31.04 0.583,0 1.83,-1.503 2.195,-1.903 0.878,-0.842 2.6,-2.71 3.513,-3.512 1.942,-1.763 4.395,-2.348 6.517,-0.628 4.395,3.52 3.295,10.543 -0.55,13.985 -0.987,0.915 -2.38,1.723 -3.695,2.083 -1.757,0.482 -3.885,0.517 -5.68,0.332"
       fill-opacity="0"
       stroke="#6c4022"
       stroke-width="3.112"
       stroke-linecap="round"
       stroke-linejoin="round"
       id="path73" />
    <path
       d="m 168.755,78.372 c 0,0 10.54,1.898 10.908,-8.42"
       fill-opacity="0"
       stroke="#6c4022"
       stroke-width="3.112"
       stroke-linecap="round"
       stroke-linejoin="round"
       id="path75" />
    <path
       d="m 167.125,46.655 c 0,0 4.557,-8.202 10.58,1.08"
       fill-opacity="0"
       stroke="#6c4022"
       stroke-width="1.558"
       stroke-linecap="round"
       stroke-linejoin="round"
       id="path76" />
    <g
       id="g78">
      <path
         d="m 227.392,121.12 c 5.97,7.687 10.545,44.472 10.545,44.472 1.35,8.053 10.17,27.963 10.17,27.963 -2.965,3.22 -6.44,5.785 -10.287,7.832 -21.043,11.275 -51.64,6.738 -51.64,6.738 0.217,-0.805 0.36,-1.755 0.51,-2.783 1.207,-8.672 0.257,-23.827 0.257,-23.827 0,-4.903 -5.747,-23.793 -5.747,-23.793 -2.273,-2.305 -3.255,-5.93 -3.255,-5.93 2.482,-11.892 11.125,-34.29 11.125,-34.29 0,0 5.202,-20.382 18.037,-17.492 0,0 13.655,0.482 20.285,21.11 z"
         fill="#efa781"
         id="path77" />
      <path
         d="m 227.392,121.12 c 5.97,7.687 10.545,44.472 10.545,44.472 1.35,8.053 10.17,27.963 10.17,27.963 -2.965,3.22 -6.44,5.785 -10.287,7.832 -21.043,11.275 -51.64,6.738 -51.64,6.738 0.217,-0.805 0.36,-1.755 0.51,-2.783 1.207,-8.672 0.257,-23.827 0.257,-23.827 0,-4.903 -5.747,-23.793 -5.747,-23.793 -2.273,-2.305 -3.255,-5.93 -3.255,-5.93 2.482,-11.892 11.125,-34.29 11.125,-34.29 0,0 5.202,-20.382 18.037,-17.492 0,0 13.655,0.482 20.285,21.11 z"
         fill-opacity="0"
         stroke="#6c4022"
         stroke-width="3.112"
         stroke-linecap="round"
         stroke-linejoin="round"
         id="path78" />
    </g>
    <g
       id="g80">
      <path
         d="m 131.747,174.598 c 0,0 32.396,9.59 44.291,9.59 0,0 5.379,-0.073 10.687,-3.038 3.003,-1.65 5.93,-4.248 7.908,-8.272 0,0 37.192,-50.803 18.192,-56.733 -1.76,-0.55 -3.59,-0.773 -5.345,-0.328 -5.265,1.351 -9.042,6.216 -11.643,10.686 -1.972,3.405 -3.439,7.172 -5.012,10.795 -1.315,2.964 -2.748,5.892 -4.065,8.862 -1.79,3.875 -3.582,7.795 -5.453,11.638 -0.845,1.72 -1.677,3.44 -2.562,5.16 -0.837,1.647 -1.61,3.402 -2.707,4.942 0,0 -40.078,-1.722 -51.391,-5.385 0,0 -7.137,-1.605 -12.992,2.822 -1.682,1.27 -3.045,2.893 -4.093,4.708 -0.644,1.118 -1.174,2.307 -1.599,3.527 -1.518,4.343 -0.193,9.026 3.934,11.458 0.551,0.365 1.208,0.66 1.936,0.878 0,0 15.119,4.027 18.602,-3.623 0,0 -10.773,4.158 -11.313,-5.325 0,0 1.576,-7.008 12.625,-2.362 z"
         fill="#f7ceaa"
         id="path79" />
      <path
         d="m 131.747,174.598 c 0,0 32.396,9.59 44.291,9.59 0,0 5.379,-0.073 10.687,-3.038 3.003,-1.65 5.93,-4.248 7.908,-8.272 0,0 37.192,-50.803 18.192,-56.733 -1.76,-0.55 -3.59,-0.773 -5.345,-0.328 -5.265,1.351 -9.042,6.216 -11.643,10.686 -1.972,3.405 -3.439,7.172 -5.012,10.795 -1.315,2.964 -2.748,5.892 -4.065,8.862 -1.79,3.875 -3.582,7.795 -5.453,11.638 -0.845,1.72 -1.677,3.44 -2.562,5.16 -0.837,1.647 -1.61,3.402 -2.707,4.942 0,0 -40.078,-1.722 -51.391,-5.385 0,0 -7.137,-1.605 -12.992,2.822 -1.682,1.27 -3.045,2.893 -4.093,4.708 -0.644,1.118 -1.174,2.307 -1.599,3.527 -1.518,4.343 -0.193,9.026 3.934,11.458 0.551,0.365 1.208,0.66 1.936,0.878 0,0 15.119,4.027 18.602,-3.623 0,0 -10.773,4.158 -11.313,-5.325 0,0 1.576,-7.008 12.625,-2.362 z"
         fill-opacity="0"
         stroke="#6c4022"
         stroke-width="3.112"
         stroke-linecap="round"
         stroke-linejoin="round"
         id="path80" />
    </g>
    <g
       id="g82">
      <path
         d="m 131.312,175.077 c 0.878,0.838 1.388,1.9 1.388,3.07 0,1.578 -0.915,2.966 -2.417,3.88 -1.168,0.771 -2.708,1.208 -4.39,1.208 -3.733,0 -6.77,-2.27 -6.77,-5.088 0,-2.82 3.037,-5.09 6.77,-5.09 2.199,0 4.169,0.77 5.419,2.02 z"
         fill="#b95a53"
         id="path81" />
      <path
         d="m 131.312,175.077 c 0.878,0.838 1.388,1.9 1.388,3.07 0,1.578 -0.915,2.966 -2.417,3.88 -1.168,0.771 -2.708,1.208 -4.39,1.208 -3.733,0 -6.77,-2.27 -6.77,-5.088 0,-2.82 3.037,-5.09 6.77,-5.09 2.199,0 4.169,0.77 5.419,2.02 z"
         fill-opacity="0"
         stroke="#6c4022"
         stroke-width="3.112"
         stroke-linecap="round"
         stroke-linejoin="round"
         id="path82" />
    </g>
    <g
       id="g84">
      <path
         d="m 227.723,120.722 c -1.613,-1.21 -3.043,-2.674 -4.398,-4.212 -3.513,-3.918 -7.575,-6.845 -12.552,-8.53 -4.796,-1.61 -9.373,-0.695 -13.615,1.977 -3.331,2.125 -5.823,5.378 -7.905,8.678 0.069,-0.15 0.035,-0.625 -0.038,-1.133 -0.075,-0.63 -0.185,-1.252 -0.185,-1.435 0.04,-2.302 0.33,-4.644 1.027,-6.879 0.803,-2.743 2.268,-5.163 4.211,-7.246 1.242,-1.322 2.667,-2.562 4.242,-3.585 1.538,-0.989 3.222,-1.76 5.055,-2.235 1.83,-0.44 3.66,-0.587 5.488,-0.477 2.012,0.112 3.992,0.513 5.892,1.028 5.567,1.462 10.29,3.842 14.425,7.902 4.722,4.647 9.955,8.348 16.62,9.37 1.755,0.292 3.548,0.335 5.34,0.042 4.03,-0.662 8.018,-5.02 12.405,-3.59 0.81,0.255 2.49,1.425 2.38,2.488 -0.175,1.645 -1.137,3.407 -2.12,4.65 -4.978,6.295 -13.507,8.522 -21.225,7.943 -2.385,-0.183 -4.797,-0.621 -7.142,-1.173 -1.905,-0.44 -3.803,-1.098 -5.528,-2.013 -0.842,-0.437 -1.645,-0.99 -2.377,-1.57 z"
         fill="#efa781"
         id="path83" />
      <path
         d="m 227.723,120.722 c -1.613,-1.21 -3.043,-2.674 -4.398,-4.212 -3.513,-3.918 -7.575,-6.845 -12.552,-8.53 -4.796,-1.61 -9.373,-0.695 -13.615,1.977 -3.331,2.125 -5.823,5.378 -7.905,8.678 0.069,-0.15 0.035,-0.625 -0.038,-1.133 -0.075,-0.63 -0.185,-1.252 -0.185,-1.435 0.04,-2.302 0.33,-4.644 1.027,-6.879 0.803,-2.743 2.268,-5.163 4.211,-7.246 1.242,-1.322 2.667,-2.562 4.242,-3.585 1.538,-0.989 3.222,-1.76 5.055,-2.235 1.83,-0.44 3.66,-0.587 5.488,-0.477 2.012,0.112 3.992,0.513 5.892,1.028 5.567,1.462 10.29,3.842 14.425,7.902 4.722,4.647 9.955,8.348 16.62,9.37 1.755,0.292 3.548,0.335 5.34,0.042 4.03,-0.662 8.018,-5.02 12.405,-3.59 0.81,0.255 2.49,1.425 2.38,2.488 -0.175,1.645 -1.137,3.407 -2.12,4.65 -4.978,6.295 -13.507,8.522 -21.225,7.943 -2.385,-0.183 -4.797,-0.621 -7.142,-1.173 -1.905,-0.44 -3.803,-1.098 -5.528,-2.013 -0.842,-0.437 -1.645,-0.99 -2.377,-1.57 z"
         fill-opacity="0"
         stroke="#6c4022"
         stroke-width="3.112"
         stroke-linecap="round"
         stroke-linejoin="round"
         id="path84" />
    </g>
    <g
       id="g86">
      <path
         d="m 216.117,332.17 c 3.438,4.868 -2.745,15.488 -2.745,15.488 -3.622,5.122 -3.737,11.785 -7.285,16.942 -0.11,0.148 -0.217,0.293 -0.325,0.44 -2.967,4.063 -7.4,6.55 -12.115,8.053 -0.367,0.11 -0.695,0.22 -1.065,0.292 -3.295,0.84 -6.3,0.22 -5.452,-4.027 0.402,-2.158 1.245,-4.723 2.45,-6.585 1.797,-2.75 3.185,-5.93 4.207,-9.08 l 0.293,0.112 c 0,0 18.815,-6.08 16.585,-23.977 1.137,0.037 2.087,0.222 2.855,0.515 1.172,0.4 2.007,1.02 2.597,1.827 z"
         fill="#bc564c"
         id="path85" />
      <path
         d="m 216.117,332.17 c 3.438,4.868 -2.745,15.488 -2.745,15.488 -3.622,5.122 -3.737,11.785 -7.285,16.942 -0.11,0.148 -0.217,0.293 -0.325,0.44 -2.967,4.063 -7.4,6.55 -12.115,8.053 -0.367,0.11 -0.695,0.22 -1.065,0.292 -3.295,0.84 -6.3,0.22 -5.452,-4.027 0.402,-2.158 1.245,-4.723 2.45,-6.585 1.797,-2.75 3.185,-5.93 4.207,-9.08 l 0.293,0.112 c 0,0 18.815,-6.08 16.585,-23.977 1.137,0.037 2.087,0.222 2.855,0.515 1.172,0.4 2.007,1.02 2.597,1.827 z"
         fill-opacity="0"
         stroke="#6c4022"
         stroke-width="3.112"
         stroke-linecap="round"
         stroke-linejoin="round"
         id="path86" />
    </g>
    <path
       d="m 186.947,205.273 -0.257,0.069 -41.69,14.496 2.707,5.272 11.565,22.402"
       fill-opacity="0"
       stroke="#6c4022"
       stroke-width="3.112"
       stroke-linecap="round"
       stroke-linejoin="round"
       id="path87" />
    <g
       id="g89">
      <path
         d="m 153.603,322.728 c -4.395,-6.333 -8.565,-12.848 -13.218,-19.073 -7.977,-10.723 -16.362,-19.288 -28.177,-25.547 -5.57,-2.963 -11.933,-6.336 -18.085,-7.871 l 0.947,-6.439 c 0.038,0 0.078,0 0.113,0.037 4.647,0.733 9.262,3.148 13.43,5.198 11.277,5.489 21.235,12.922 29.435,22.434 6.04,7.03 11.197,14.68 16.537,22.221 2.6,3.66 5.24,7.244 8.022,10.722 0.438,0.585 0.913,1.172 1.393,1.758 1.61,1.975 3.253,3.882 5.013,5.712 1.062,1.168 2.189,2.343 3.365,3.475 3.622,3.477 7.467,6.735 11.714,9.41 l -2.379,6.66 c -3.88,-1.797 -6.368,-3.952 -9.553,-6.773 -2.272,-2.014 -4.392,-4.1 -6.445,-6.294 -2.638,-2.893 -5.052,-5.896 -7.392,-9.005 -1.613,-2.16 -3.183,-4.358 -4.72,-6.588"
         fill="#e46e64"
         id="path88" />
      <path
         d="m 153.603,322.728 c -4.395,-6.333 -8.565,-12.848 -13.218,-19.073 -7.977,-10.723 -16.362,-19.288 -28.177,-25.547 -5.57,-2.963 -11.933,-6.336 -18.085,-7.871 l 0.947,-6.439 c 0.038,0 0.078,0 0.113,0.037 4.647,0.733 9.262,3.148 13.43,5.198 11.277,5.489 21.235,12.922 29.435,22.434 6.04,7.03 11.197,14.68 16.537,22.221 2.6,3.66 5.24,7.244 8.022,10.722 0.438,0.585 0.913,1.172 1.393,1.758 1.61,1.975 3.253,3.882 5.013,5.712 1.062,1.168 2.189,2.343 3.365,3.475 3.622,3.477 7.467,6.735 11.714,9.41 l -2.379,6.66 c -3.88,-1.797 -6.368,-3.952 -9.553,-6.773 -2.272,-2.014 -4.392,-4.1 -6.445,-6.294 -2.638,-2.893 -5.052,-5.896 -7.392,-9.005 -1.613,-2.16 -3.183,-4.358 -4.72,-6.588"
         fill-opacity="0"
         stroke="#6c4022"
         stroke-width="3.112"
         stroke-linecap="round"
         stroke-linejoin="round"
         id="path89" />
    </g>
    <g
       id="g91"
       transform="translate(-0.086156,-3.09103)">
      <path
         d="m 96.025,208.6 c -0.182,2.382 -0.362,4.795 -0.547,7.137 l -0.48,5.493 c -1.28,13.65 -2.998,26.61 -5.01,38.725 v 0.035 l -0.915,5.525 c -1.433,8.162 -2.925,15.855 -4.508,23.06 -0.472,2.197 -0.947,4.322 -1.422,6.412 -4.983,21.81 -10.103,38.463 -13.213,47.835 -1.832,5.418 -2.97,8.42 -3.04,8.565 -0.695,1.903 0.148,4.725 2.268,5.345 2.785,0.805 3.92,-2.455 4.867,-4.354 0,0 0.808,-2.418 2.16,-6.848 0.038,-0.108 0.078,-0.18 0.113,-0.293 2.085,-6.767 5.377,-18.077 8.935,-32.612 1.207,-4.935 2.45,-10.285 3.655,-15.958 0.48,-2.087 0.915,-4.245 1.392,-6.442 1.315,-6.335 2.598,-12.995 3.843,-19.988 0.295,-1.862 0.622,-3.77 0.947,-5.71 0.038,-0.217 0.078,-0.437 0.113,-0.692 0.332,-1.945 0.66,-3.915 0.952,-5.893 2.158,-13.945 3.99,-28.805 5.088,-44.182 0.185,-2.01 0.33,-4.06 0.437,-6.113 z"
         fill="#b4b5b4"
         id="path90" />
      <path
         d="m 96.025,208.6 c -0.182,2.382 -0.362,4.795 -0.547,7.137 l -0.48,5.493 c -1.28,13.65 -2.998,26.61 -5.01,38.725 v 0.035 l -0.915,5.525 c -1.433,8.162 -2.925,15.855 -4.508,23.06 -0.472,2.197 -0.947,4.322 -1.422,6.412 -4.983,21.81 -10.103,38.463 -13.213,47.835 -1.832,5.418 -2.97,8.42 -3.04,8.565 -0.695,1.903 0.148,4.725 2.268,5.345 2.785,0.805 3.92,-2.455 4.867,-4.354 0,0 0.808,-2.418 2.16,-6.848 0.038,-0.108 0.078,-0.18 0.113,-0.293 2.085,-6.767 5.377,-18.077 8.935,-32.612 1.207,-4.935 2.45,-10.285 3.655,-15.958 0.48,-2.087 0.915,-4.245 1.392,-6.442 1.315,-6.335 2.598,-12.995 3.843,-19.988 0.295,-1.862 0.622,-3.77 0.947,-5.71 0.038,-0.217 0.078,-0.437 0.113,-0.692 0.332,-1.945 0.66,-3.915 0.952,-5.893 2.158,-13.945 3.99,-28.805 5.088,-44.182 0.185,-2.01 0.33,-4.06 0.437,-6.113 z"
         fill-opacity="0"
         stroke="#6c4022"
         stroke-width="3.112"
         stroke-linecap="round"
         stroke-linejoin="round"
         id="path91" />
    </g>
  </g>
</svg>
