<?xml version="1.0" encoding="UTF-8" standalone="no"?>
<!-- Created with Inkscape (http://www.inkscape.org/) -->

<svg
   id="svg5722"
   sodipodi:docname="calcu.svg"
   xml:space="preserve"
   viewBox="0 0 100 100"
   sodipodi:version="0.32"
   version="1.0"
   inkscape:output_extension="org.inkscape.output.svg.inkscape"
   inkscape:version="1.3.1 (91b66b0783, 2023-11-16)"
   width="100"
   height="100"
   xmlns:inkscape="http://www.inkscape.org/namespaces/inkscape"
   xmlns:sodipodi="http://sodipodi.sourceforge.net/DTD/sodipodi-0.dtd"
   xmlns="http://www.w3.org/2000/svg"
   xmlns:svg="http://www.w3.org/2000/svg"
   xmlns:rdf="http://www.w3.org/1999/02/22-rdf-syntax-ns#"
   xmlns:cc="http://creativecommons.org/ns#"
   xmlns:dc="http://purl.org/dc/elements/1.1/"><defs
   id="defs1" />
  <sodipodi:namedview
   id="base"
   bordercolor="#666666"
   inkscape:pageshadow="2"
   guidetolerance="10.0"
   pagecolor="#ffffff"
   gridtolerance="10.0"
   inkscape:zoom="2.1580247"
   objecttolerance="10.0"
   borderopacity="1.0"
   inkscape:current-layer="g5729"
   inkscape:cx="-31.510298"
   inkscape:cy="37.766019"
   inkscape:window-y="-8"
   inkscape:window-x="-8"
   inkscape:window-height="1009"
   showgrid="false"
   inkscape:pageopacity="0.0"
   inkscape:window-width="1920"
   inkscape:showpageshadow="2"
   inkscape:pagecheckerboard="0"
   inkscape:deskcolor="#d1d1d1"
   inkscape:window-maximized="1" />
  <g
   id="g5729"
   inkscape:label="guide"
   inkscape:groupmode="layer"
   transform="matrix(1.25,0,0,-1.25,-188.9794,795.27704)">
    <path
   id="path5755"
   style="fill:#f9a749;stroke-width:1.329"
   d="m -68.69723,1163.9941 h 0.11961 -0.11961" /><text
   id="text6003"
   y="-836.37433"
   x="-204.51369"
   style="font-size:15.948px;line-height:0%;stroke-width:1.329"
   transform="scale(1,-1)"><tspan
     id="tspan6005"
     sodipodi:role="line"
     style="font-size:139.957px;line-height:1.25;font-family:ZapfDingbats;fill:#2857af;stroke-width:1.329"
     inkscape:font-specification="ZapfDingbats"
     y="-836.37433"
     x="-204.51369"> </tspan></text><g
   id="g1"
   transform="matrix(0.94793696,0,0,0.88341115,7.8710739,74.176348)"><path
     id="path6169"
     style="fill:#1f57af;stroke-width:1.329"
     d="m 199.60129,632.32769 c 12.42615,-9.13023 24.86559,-18.32691 35.97603,-28.48047 l -35.57733,-38.22204 -0.17277,0.093 -0.89043,-1.44861 -17.51622,-18.606 c -5.38245,5.88747 -10.37949,12.38628 -15.97458,18.28704 -4.74453,5.16981 -9.4359,10.3662 -13.87476,15.69549 -1.47519,2.36562 1.67454,3.78765 2.5251,5.64825 l 38.82009,50.92728 c 2.41878,-0.82398 4.54518,-2.57826 6.68487,-3.89397" /><path
     id="path6171"
     style="fill:#8495d3;stroke-width:1.329"
     d="m 195.54784,630.14813 c 9.32958,-7.1766 19.82868,-13.79502 28.86588,-21.41019 l 0.30567,-2.71116 c -14.19372,-15.88155 -28.41402,-31.69665 -42.28878,-47.96361 -0.87714,-0.33225 -1.55493,0.30567 -2.08653,0.91701 -7.93413,7.66833 -16.4796,14.79177 -24.69282,22.23417 0.1329,2.89722 2.89722,4.62492 4.26609,7.13673 l 5.38245,6.61842 24.04161,29.42406 c 1.80744,1.7277 3.17631,3.94713 4.85085,5.8476 l 1.35558,-0.093" /><path
     id="path6173"
     style="fill:#1f57af;stroke-width:1.329"
     d="m 185.99233,603.7409 c -0.85056,-1.01004 -2.88393,-0.70437 -4.53189,0.67779 -1.64796,1.39545 -2.27259,3.34908 -1.42203,4.37241 0.86385,1.02333 2.89722,0.71766 4.54518,-0.67779 1.63467,-1.39545 2.27259,-3.34908 1.40874,-4.37241" /><path
     id="path6175"
     style="fill:#1f57af;stroke-width:1.329"
     d="m 194.28529,596.72378 c -0.86385,-1.02333 -2.88393,-0.71766 -4.53189,0.67779 -1.64796,1.39545 -2.28588,3.34908 -1.42203,4.37241 0.86385,1.01004 2.89722,0.70437 4.53189,-0.69108 1.64796,-1.38216 2.28588,-3.34908 1.42203,-4.35912" /><path
     id="path6177"
     style="fill:#1f57af;stroke-width:1.329"
     d="m 202.5118,589.74653 c -0.85056,-1.02333 -2.88393,-0.71766 -4.53189,0.67779 -1.63467,1.39545 -2.27259,3.34908 -1.40874,4.37241 0.85056,1.01004 2.88393,0.70437 4.53189,-0.67779 1.63467,-1.39545 2.27259,-3.34908 1.40874,-4.37241" /><path
     id="path6179"
     style="fill:#1f57af;stroke-width:1.329"
     d="m 181.16806,597.80027 c -0.86385,-1.02333 -2.88393,-0.71766 -4.53189,0.67779 -1.64796,1.39545 -2.28588,3.34908 -1.42203,4.35912 0.86385,1.02333 2.89722,0.71766 4.54518,-0.67779 1.63467,-1.39545 2.27259,-3.34908 1.40874,-4.35912" /><path
     id="path6181"
     style="fill:#1f57af;stroke-width:1.329"
     d="m 189.46102,590.76986 c -0.86385,-1.02333 -2.89722,-0.71766 -4.53189,0.67779 -1.64796,1.39545 -2.28588,3.34908 -1.42203,4.37241 0.86385,1.01004 2.88393,0.71766 4.53189,-0.67779 1.64796,-1.39545 2.28588,-3.34908 1.42203,-4.37241" /><path
     id="path6183"
     style="fill:#1f57af;stroke-width:1.329"
     d="m 197.68753,583.79261 c -0.86385,-1.01004 -2.88393,-0.70437 -4.53189,0.67779 -1.64796,1.39545 -2.28588,3.34908 -1.42203,4.37241 0.86385,1.01004 2.89722,0.71766 4.53189,-0.67779 1.64796,-1.39545 2.28588,-3.34908 1.42203,-4.37241" /><path
     id="path6185"
     style="fill:#1f57af;stroke-width:1.329"
     d="m 176.1976,592.12544 c -0.86385,-1.01004 -2.88393,-0.71766 -4.53189,0.67779 -1.64796,1.39545 -2.28588,3.34908 -1.42203,4.37241 0.86385,1.01004 2.89722,0.71766 4.53189,-0.67779 1.64796,-1.39545 2.28588,-3.34908 1.42203,-4.37241" /><path
     id="path6187"
     style="fill:#1f57af;stroke-width:1.329"
     d="m 184.49056,585.10832 c -0.86385,-1.02333 -2.89722,-0.71766 -4.54518,0.67779 -1.63467,1.39545 -2.27259,3.34908 -1.40874,4.35912 0.85056,1.02333 2.88393,0.71766 4.53189,-0.67779 1.64796,-1.39545 2.27259,-3.34908 1.42203,-4.35912" /><path
     id="path6189"
     style="fill:#1f57af;stroke-width:1.329"
     d="m 192.71707,578.13107 c -0.86385,-1.02333 -2.88393,-0.71766 -4.53189,0.67779 -1.64796,1.39545 -2.28588,3.34908 -1.42203,4.37241 0.86385,1.01004 2.89722,0.70437 4.53189,-0.67779 1.64796,-1.39545 2.28588,-3.34908 1.42203,-4.37241" /><path
     id="path6191"
     style="fill:#1f57af;stroke-width:1.329"
     d="m 171.32017,586.14494 c -0.86385,-1.02333 -2.88393,-0.71766 -4.53189,0.67779 -1.64796,1.39545 -2.28588,3.34908 -1.42203,4.35912 0.86385,1.02333 2.89722,0.71766 4.53189,-0.67779 1.64796,-1.39545 2.28588,-3.34908 1.42203,-4.35912" /><path
     id="path6193"
     style="fill:#1f57af;stroke-width:1.329"
     d="m 179.61313,579.11453 c -0.86385,-1.02333 -2.88393,-0.71766 -4.53189,0.67779 -1.64796,1.39545 -2.28588,3.34908 -1.42203,4.37241 0.86385,1.01004 2.88393,0.70437 4.53189,-0.67779 1.64796,-1.39545 2.28588,-3.34908 1.42203,-4.37241" /><path
     id="path6195"
     style="fill:#1f57af;stroke-width:1.329"
     d="m 187.83964,572.13728 c -0.85056,-1.01004 -2.88393,-0.71766 -4.53189,0.67779 -1.64796,1.39545 -2.27259,3.34908 -1.42203,4.37241 0.86385,1.01004 2.89722,0.71766 4.54518,-0.67779 1.63467,-1.39545 2.27259,-3.34908 1.40874,-4.37241" /><path
     id="path6197"
     style="fill:#ffffff;stroke-width:1.329"
     d="m 189.0889,616.44614 18.68574,-18.26046 3.40224,0.30567 6.95067,9.22326 -24.04161,15.45627 -1.70112,-0.14619 -3.62817,-5.16981 0.33225,-1.40874" /><path
     id="path6199"
     style="fill:#1f57af;stroke-width:1.329"
     d="m 188.75665,617.85488 c 7.32279,-6.08682 13.63554,-12.97104 21.46335,-18.63258 2.23272,2.61813 5.03691,4.98375 6.27288,8.35941 l -0.31896,1.79415 c 0.69108,-0.21264 1.30242,-1.07649 1.95363,-1.66125 2.00679,-0.38541 0.78411,-1.92705 0.41199,-3.01683 -1.90047,-3.29592 -4.69137,-5.4489 -6.96396,-8.14677 -0.59805,0.7974 -1.55493,-0.18606 -2.28588,0.15948 l -1.96692,0.46515 c -6.10011,5.96721 -12.82485,11.45598 -18.77877,17.60925 0.11961,1.02333 -1.40874,3.36237 0.21264,3.06999" /></g>
  </g>
<metadata
   id="metadata1"><rdf:RDF><cc:Work><dc:format>image/svg+xml</dc:format><dc:type
         rdf:resource="http://purl.org/dc/dcmitype/StillImage" /><cc:license
         rdf:resource="http://creativecommons.org/publicdomain/zero/1.0/" /><dc:publisher><cc:Agent
           rdf:about="http://openclipart.org/"><dc:title>Openclipart</dc:title></cc:Agent></dc:publisher><dc:title>ruler and calculator</dc:title><dc:date>2007-11-09T04:59:43</dc:date><dc:description>an image from the US government EPA &quot;Sunwise&quot; program. I converted it from PDF format, and removed all the &quot;sunwise&quot; logos. the source link is here - http://www.epa.gov/sunwise/doc/guide.pdf</dc:description><dc:source>https://openclipart.org/detail/8055/ruler-and-calculator-by-ryanlerch</dc:source><dc:creator><cc:Agent><dc:title>ryanlerch</dc:title></cc:Agent></dc:creator><dc:subject><rdf:Bag><rdf:li>adding machine</rdf:li><rdf:li>calculator</rdf:li><rdf:li>counting</rdf:li><rdf:li>epa</rdf:li><rdf:li>epa sunwise</rdf:li><rdf:li>equals</rdf:li><rdf:li>externalsource</rdf:li><rdf:li>geometry</rdf:li><rdf:li>maths</rdf:li><rdf:li>plus</rdf:li><rdf:li>rule</rdf:li><rdf:li>ruler</rdf:li></rdf:Bag></dc:subject></cc:Work><cc:License
       rdf:about="http://creativecommons.org/publicdomain/zero/1.0/"><cc:permits
         rdf:resource="http://creativecommons.org/ns#Reproduction" /><cc:permits
         rdf:resource="http://creativecommons.org/ns#Distribution" /><cc:permits
         rdf:resource="http://creativecommons.org/ns#DerivativeWorks" /></cc:License></rdf:RDF></metadata></svg>
