<svg width="312" height="266" xmlns="http://www.w3.org/2000/svg" fill-rule="evenodd">

 <g>
  <title>Layer 1</title>
  <g transform="translate(6, 256.418) matrix(1.06016, 0, 0, 1.07828, -6.36098, -276.489)" id="imagebot_86">
   <path transform="matrix(0.824188, 0, 0, 0.803165, 2.25838, 40.0023)" id="imagebot_62" fill="#2c2c2b" d="M265.56799,19.1525L280.24899,19.1525L277.87299,21.4428L272.28101,21.4428L265.56799,19.1525L265.56799,19.1525z"/>
   <path transform="matrix(0.824188, 0, 0, 0.803165, 8.25838, 37.0023)" id="imagebot_2" stroke="#2c2c2b" stroke-width="0.17282" fill="#ed801f" d="M197.67599,71.7165L212.13699,82.634L95.6903,208.01401L80.9957,198.035L197.67599,71.7165L197.67599,71.7165z"/>
   <path transform="matrix(0.824188, 0, 0, 0.803165, 8.25838, 37.0023)" id="imagebot_3" stroke="#2c2c2b" stroke-width="0.17282" fill="#ed801f" d="M157.938,176.147L125.97,176.147L125.97,220.52499L163.42101,220.52499L170.517,203.15601L157.938,176.147L157.938,176.147z"/>
   <path transform="matrix(0.824188, 0, 0, 0.803165, 8.25838, 37.0023)" id="imagebot_4" fill="#2c2c2b" d="M114.672,220.599L114.672,225.686L154.129,225.686L154.129,220.599L114.672,220.599L114.672,220.599z"/>
   <path transform="matrix(0.824188, 0, 0, 0.803165, 8.25838, 37.0023)" id="imagebot_5" fill="#2c2c2b" d="M1.42387,224.51801L50.527,224.51801L50.527,246.84L1.42387,246.84L1.42387,224.51801L1.42387,224.51801z"/>
   <path transform="matrix(0.824188, 0, 0, 0.803165, 8.25838, 37.0023)" id="imagebot_6" stroke="#2c2c2b" stroke-width="0.17282" fill="#ed801f" d="M24.5659,190.216C30.149,190.216 35.732,190.216 41.315,190.216C45.8829,190.487 47.8793,192.11099 47.3041,195.088C47.3041,208.048 47.3041,221.007 47.3041,233.967C36.1052,229.668 25.8845,231.259 16.8512,239.95599L0.20366,239.95599L0.20366,221.68401C4.04091,212.399 8.57503,203.114 14.0386,193.83299C15.9218,191.679 19.4313,190.47301 24.5659,190.216L24.5659,190.216z"/>
   <path transform="matrix(0.824188, 0, 0, 0.803165, 8.25838, 37.0023)" id="imagebot_7" fill="#2c2c2b" d="M48.3382,242.728L204.83701,242.728L204.83701,236.62199L187.739,236.62199L187.739,234.702L207.45399,234.702L207.45399,228.59599L48.3382,228.59599L48.3382,232.43401L48.3382,234.702L48.3382,236.62199L48.3382,238.541L48.3382,242.728L48.3382,242.728z"/>
   <path transform="matrix(0.824188, 0, 0, 0.803165, 8.25838, 37.0023)" id="imagebot_9" fill="#2c2c2b" d="M35.0764,235.593C43.5207,235.593 50.4086,242.481 50.4086,250.925C50.4086,259.37 43.5207,266.258 35.0764,266.258C26.6321,266.258 19.7442,259.37 19.7442,250.925C19.7442,242.481 26.6321,235.593 35.0764,235.593L35.0764,235.593z"/>
   <path transform="matrix(0.824188, 0, 0, 0.803165, 8.25838, 37.0023)" id="imagebot_10" fill="#868889" d="M35.0764,243.323C30.8955,243.323 27.4854,247.101 27.4854,251.733C27.4854,256.36499 30.8955,260.14301 35.0764,260.14301C39.2573,260.14301 42.6674,256.36499 42.6674,251.733C42.6674,247.101 39.2573,243.323 35.0764,243.323L35.0764,243.323z"/>
   <path transform="matrix(0.824188, 0, 0, 0.803165, 8.25838, 37.0023)" id="imagebot_11" fill="#c5c5c7" d="M35.0764,243.323C39.2573,243.323 42.6674,246.733 42.6674,250.914C42.6674,255.095 39.2573,258.505 35.0764,258.505C30.8955,258.505 27.4854,255.095 27.4854,250.914C27.4854,246.733 30.8955,243.323 35.0764,243.323L35.0764,243.323z"/>
   <path transform="matrix(0.824188, 0, 0, 0.803165, 8.25838, 37.0023)" id="imagebot_12" fill="#2c2c2b" d="M35.0764,248.15601C36.5959,248.15601 37.8352,249.395 37.8352,250.914C37.8352,252.43401 36.5959,253.673 35.0764,253.673C33.5569,253.673 32.3177,252.43401 32.3177,250.914C32.3177,249.395 33.5569,248.15601 35.0764,248.15601L35.0764,248.15601z"/>
   <path transform="matrix(0.824188, 0, 0, 0.803165, 8.25838, 37.0023)" id="imagebot_13" fill="#454545" d="M35.0257,235.70399C26.7454,235.70399 19.9843,242.058 19.9843,249.838C19.9843,250.073 19.9915,250.30499 20.004,250.537C20.3956,243.784 26.9952,238.377 35.0257,238.377C43.0562,238.377 49.6557,243.784 50.0473,250.537C50.0598,250.30499 50.067,250.073 50.067,249.838C50.067,242.058 43.3059,235.70399 35.0257,235.70399L35.0257,235.70399z"/>
   <path transform="matrix(0.824188, 0, 0, 0.803165, 8.25838, 37.0023)" id="imagebot_14" fill="#2c2c2b" d="M145.339,235.593C153.783,235.593 160.67101,242.481 160.67101,250.925C160.67101,259.37 153.783,266.258 145.339,266.258C136.895,266.258 130.007,259.37 130.007,250.925C130.007,242.481 136.895,235.593 145.339,235.593L145.339,235.593z"/>
   <path transform="matrix(0.824188, 0, 0, 0.803165, 8.25838, 37.0023)" id="imagebot_15" fill="#868889" d="M145.339,243.323C141.158,243.323 137.748,247.101 137.748,251.733C137.748,256.36499 141.158,260.14301 145.339,260.14301C149.52,260.14301 152.92999,256.36499 152.92999,251.733C152.92999,247.101 149.52,243.323 145.339,243.323L145.339,243.323z"/>
   <path transform="matrix(0.824188, 0, 0, 0.803165, 8.25838, 37.0023)" id="imagebot_16" fill="#c5c5c7" d="M145.339,243.323C149.52,243.323 152.92999,246.733 152.92999,250.914C152.92999,255.095 149.52,258.505 145.339,258.505C141.158,258.505 137.748,255.095 137.748,250.914C137.748,246.733 141.158,243.323 145.339,243.323L145.339,243.323z"/>
   <path transform="matrix(0.824188, 0, 0, 0.803165, 8.25838, 37.0023)" id="imagebot_17" fill="#2c2c2b" d="M145.339,248.15601C146.85899,248.15601 148.09801,249.395 148.09801,250.914C148.09801,252.43401 146.85899,253.673 145.339,253.673C143.82001,253.673 142.58,252.43401 142.58,250.914C142.58,249.395 143.82001,248.15601 145.339,248.15601L145.339,248.15601z"/>
   <path transform="matrix(0.824188, 0, 0, 0.803165, 8.25838, 37.0023)" id="imagebot_18" fill="#454545" d="M145.28799,235.70399C137.008,235.70399 130.24699,242.058 130.24699,249.838C130.24699,250.073 130.254,250.30499 130.267,250.537C130.658,243.784 137.258,238.377 145.28799,238.377C153.319,238.377 159.918,243.784 160.31,250.537C160.32201,250.30499 160.33,250.073 160.33,249.838C160.33,242.058 153.569,235.70399 145.28799,235.70399L145.28799,235.70399z"/>
   <path transform="matrix(0.824188, 0, 0, 0.803165, 8.25838, 37.0023)" id="imagebot_19" stroke="#2c2c2b" stroke-width="0.17282" fill="#ed801f" d="M59.4366,261.87601L75.0152,261.87601C76.5928,261.87601 77.8817,262.862 77.8817,264.06699L77.8817,266.258L56.57,266.258L56.57,264.06699C56.57,262.862 57.859,261.87601 59.4366,261.87601L59.4366,261.87601z"/>
   <path transform="matrix(0.824188, 0, 0, 0.803165, 8.25838, 37.0023)" id="imagebot_20" stroke="#2c2c2b" stroke-width="0.17282" fill="#8e522c" d="M65.9977,258.103L68.4551,258.103L68.4551,261.70099L65.9977,261.70099L65.9977,258.103L65.9977,258.103z"/>
   <path transform="matrix(0.824188, 0, 0, 0.803165, 8.25838, 37.0023)" id="imagebot_21" stroke="#2c2c2b" stroke-width="0.17282" fill="#ed801f" d="M58.6108,244.763L83.4478,244.763L83.4478,232.651L58.6108,232.651L58.6108,244.763L58.6108,244.763z"/>
   <path transform="matrix(0.824188, 0, 0, 0.803165, 8.25838, 37.0023)" id="imagebot_22" stroke="#2c2c2b" stroke-width="0.17282" fill="#ed801f" d="M92.3838,244.52L70.0348,256.88501L70.0348,248.97701L86.1759,235.248L92.5308,235.099L92.3838,244.52L92.3838,244.52z"/>
   <path transform="matrix(0.824188, 0, 0, 0.803165, 8.25838, 37.0023)" id="imagebot_23" stroke="#2c2c2b" stroke-width="0.17282" fill="#ed801f" d="M64.418,258.103L70.0348,258.103L70.0348,240.02299L64.418,240.02299L64.418,258.103L64.418,258.103z"/>
   <path transform="matrix(0.824188, 0, 0, 0.803165, 8.25838, 37.0023)" id="imagebot_24" fill="#2c2c2b" d="M92.3125,235.24699L70.0938,251.841L70.2188,251.99699L92.4375,235.40401L92.3125,235.24699L92.3125,235.24699z"/>
   <path transform="matrix(0.824188, 0, 0, 0.803165, 8.25838, 37.0023)" id="imagebot_25" fill="#2c2c2b" d="M74.25,249.216L74.0625,249.341L76.5312,253.40401L76.7188,253.27901L74.25,249.216L74.25,249.216z"/>
   <path transform="matrix(0.824188, 0, 0, 0.803165, 8.25838, 37.0023)" id="imagebot_26" fill="#2c2c2b" d="M78.3125,246.185L78.125,246.31L80.7812,250.935L80.9688,250.81L78.3125,246.185L78.3125,246.185z"/>
   <path transform="matrix(0.824188, 0, 0, 0.803165, 8.25838, 37.0023)" id="imagebot_27" fill="#2c2c2b" d="M81.9375,243.15401L81.75,243.27901L85.2188,248.591L85.375,248.466L81.9375,243.15401L81.9375,243.15401z"/>
   <path transform="matrix(0.824188, 0, 0, 0.803165, 8.25838, 37.0023)" id="imagebot_28" fill="#2c2c2b" d="M86.0625,240.31L85.875,240.435L89.75,245.74699L89.9375,245.62199L86.0625,240.31L86.0625,240.31z"/>
   <path transform="matrix(0.824188, 0, 0, 0.803165, 8.25838, 37.0023)" id="imagebot_29" fill="#2c2c2b" d="M70.5625,252.12199L70.375,252.216L71.9688,255.81L72.1562,255.716L70.5625,252.12199L70.5625,252.12199z"/>
   <path transform="matrix(0.824188, 0, 0, 0.803165, 8.25838, 37.0023)" id="imagebot_30" stroke="#2c2c2b" stroke-width="0.17282" fill="#ed801f" d="M205.90199,261.87601L190.32401,261.87601C188.746,261.87601 187.457,262.862 187.457,264.06699L187.457,266.258L208.769,266.258L208.769,264.06699C208.769,262.862 207.48,261.87601 205.90199,261.87601L205.90199,261.87601z"/>
   <path transform="matrix(0.824188, 0, 0, 0.803165, 8.25838, 37.0023)" id="imagebot_31" stroke="#2c2c2b" stroke-width="0.17282" fill="#8e522c" d="M199.341,258.103L196.884,258.103L196.884,261.70099L199.341,261.70099L199.341,258.103L199.341,258.103z"/>
   <path transform="matrix(0.824188, 0, 0, 0.803165, 8.25838, 37.0023)" id="imagebot_32" stroke="#2c2c2b" stroke-width="0.17282" fill="#ed801f" d="M172.955,244.52L195.304,256.88501L195.304,248.97701L179.16299,235.248L172.808,235.099L172.955,244.52L172.955,244.52z"/>
   <path transform="matrix(0.824188, 0, 0, 0.803165, 8.25838, 37.0023)" id="imagebot_33" stroke="#2c2c2b" stroke-width="0.17282" fill="#ed801f" d="M200.92101,258.103L195.304,258.103L195.304,240.02299L200.92101,240.02299L200.92101,258.103L200.92101,258.103z"/>
   <path transform="matrix(0.824188, 0, 0, 0.803165, 8.25838, 37.0023)" id="imagebot_34" fill="#2c2c2b" d="M173.03101,235.24699L172.90601,235.40401L195.125,251.99699L195.25,251.841L173.03101,235.24699L173.03101,235.24699z"/>
   <path transform="matrix(0.824188, 0, 0, 0.803165, 8.25838, 37.0023)" id="imagebot_35" fill="#2c2c2b" d="M191.09399,249.216L188.625,253.27901L188.812,253.40401L191.28101,249.341L191.09399,249.216L191.09399,249.216z"/>
   <path transform="matrix(0.824188, 0, 0, 0.803165, 8.25838, 37.0023)" id="imagebot_36" fill="#2c2c2b" d="M187.03101,246.185L184.375,250.81L184.562,250.935L187.21899,246.31L187.03101,246.185L187.03101,246.185z"/>
   <path transform="matrix(0.824188, 0, 0, 0.803165, 8.25838, 37.0023)" id="imagebot_37" fill="#2c2c2b" d="M183.40601,243.15401L179.96899,248.466L180.125,248.591L183.59399,243.27901L183.40601,243.15401L183.40601,243.15401z"/>
   <path transform="matrix(0.824188, 0, 0, 0.803165, 8.25838, 37.0023)" id="imagebot_38" fill="#2c2c2b" d="M179.28101,240.31L175.40601,245.62199L175.59399,245.74699L179.46899,240.435L179.28101,240.31L179.28101,240.31z"/>
   <path transform="matrix(0.824188, 0, 0, 0.803165, 8.25838, 37.0023)" id="imagebot_39" fill="#2c2c2b" d="M194.78101,252.12199L193.188,255.716L193.375,255.81L194.96899,252.216L194.78101,252.12199L194.78101,252.12199z"/>
   <path transform="matrix(0.824188, 0, 0, 0.803165, 8.25838, 37.0023)" id="imagebot_40" stroke="#2c2c2b" stroke-width="0.17282" fill="#737476" d="M48.3382,225.10699L207.45399,225.10699L207.45399,228.59599L48.3382,228.59599L48.3382,225.10699L48.3382,225.10699z"/>
   <path transform="matrix(0.824188, 0, 0, 0.803165, 8.25838, 37.0023)" id="imagebot_41" stroke="#2c2c2b" stroke-width="0.17282" fill="#737476" d="M93.1769,234.354L122.488,234.354L122.488,237.843L93.1769,237.843L93.1769,234.354L93.1769,234.354z"/>
   <path transform="matrix(0.824188, 0, 0, 0.803165, 8.25838, 37.0023)" id="imagebot_42" stroke="#2c2c2b" stroke-width="0.17282" fill="#737476" d="M123.447,243.60001L123.448,229.992L125.628,229.992L125.628,243.60001L123.447,243.60001L123.447,243.60001z"/>
   <path transform="matrix(0.824188, 0, 0, 0.803165, 8.25838, 37.0023)" id="imagebot_43" fill="#2c2c2b" d="M123.447,243.60001L123.448,257.20901L125.628,257.20901L125.628,243.60001L123.447,243.60001L123.447,243.60001z"/>
   <path transform="matrix(0.824188, 0, 0, 0.803165, 8.25838, 37.0023)" id="imagebot_44" stroke="#2c2c2b" stroke-width="0.17282" fill="#737476" d="M165.494,243.60001L165.495,229.992L167.675,229.992L167.675,243.60001L165.494,243.60001L165.494,243.60001z"/>
   <path transform="matrix(0.824188, 0, 0, 0.803165, 8.25838, 37.0023)" id="imagebot_45" fill="#2c2c2b" d="M165.494,243.60001L165.495,257.20901L167.675,257.20901L167.675,243.60001L165.494,243.60001L165.494,243.60001z"/>
   <path transform="matrix(0.824188, 0, 0, 0.803165, 8.25838, 37.0023)" id="imagebot_46" stroke="#2c2c2b" stroke-width="0.17282" fill="#ed801f" d="M0.00063,241.98599C1.2917,242.02 2.58278,242.05299 3.87386,242.08701C3.87175,243.584 3.87068,245.08099 3.86961,246.578C6.39574,246.539 8.92183,246.5 11.448,246.461C15.3117,236.306 22.154,230.347 31.9762,228.58701C36.341,228.58701 40.7059,228.58701 45.0709,228.58701C45.0709,230.549 45.0709,232.51199 45.0709,234.474C37.3783,233.40401 30.794,233.241 25.5017,235.89301C17.2477,240.03101 12.8923,248.549 12.2833,252.13699C-2.74013,252.13699 15.024,252.13699 0.00063,252.13699C0.00063,248.75301 0.00063,245.369 0.00063,241.98599L0.00063,241.98599z"/>
   <path transform="matrix(0.824188, 0, 0, 0.803165, 8.25838, 37.0023)" id="imagebot_47" stroke="#2c2c2b" stroke-width="0.17282" fill="#ffffff" d="M21.2161,199.55499L39.9954,199.55499L39.9954,215.89799L21.2161,215.89799L21.2161,199.55499L21.2161,199.55499z"/>
   <path transform="matrix(0.824188, 0, 0, 0.803165, 8.25838, 37.0023)" id="imagebot_48" stroke="#2c2c2b" stroke-width="0.17282" fill="#ffffff" d="M21.2161,199.55499L17.1557,199.55499L10.1516,215.89799L21.2161,215.89799L21.2161,199.55499L21.2161,199.55499z"/>
   <path transform="matrix(0.824188, 0, 0, 0.803165, 8.25838, 37.0023)" id="imagebot_49" fill="#2c2c2b" d="M0.90625,220.466L0.90625,220.685L47.0312,220.685L47.0312,220.466L0.90625,220.466L0.90625,220.466z"/>
   <path transform="matrix(0.824188, 0, 0, 0.803165, 8.25838, 37.0023)" id="imagebot_50" fill="#2c2c2b" d="M6.78125,220.56L6.78125,239.74699L7,239.74699L7,220.56L6.78125,220.56L6.78125,220.56z"/>
   <path transform="matrix(0.824188, 0, 0, 0.803165, 8.25838, 37.0023)" id="imagebot_51" fill="#2c2c2b" d="M12.5938,195.591L12.5938,195.81L47.3125,195.81L47.3125,195.591L12.5938,195.591L12.5938,195.591z"/>
   <path transform="matrix(0.824188, 0, 0, 0.803165, 8.25838, 37.0023)" id="imagebot_52" fill="#2c2c2b" d="M54.6466,242.647L54.6477,257.20901L56.828,257.20901L56.828,242.647L54.6466,242.647L54.6466,242.647z"/>
   <path transform="matrix(0.824188, 0, 0, 0.803165, 8.25838, 37.0023)" id="imagebot_53" stroke="#2c2c2b" stroke-width="0.17282" fill="#ffffff" d="M130.299,184.56599L140.25101,184.56599L140.25101,200.909L130.299,200.909L130.299,184.56599L130.299,184.56599z"/>
   <path transform="matrix(0.824188, 0, 0, 0.803165, 8.25838, 37.0023)" id="imagebot_54" stroke="#2c2c2b" stroke-width="0.17282" fill="#ffffff" d="M143.696,184.56599L154.45799,184.56599L161.742,200.909L143.696,200.909L143.696,184.56599L143.696,184.56599z"/>
   <path transform="matrix(0.824188, 0, 0, 0.803165, 8.25838, 37.0023)" id="imagebot_55" stroke="#2c2c2b" stroke-width="0.17282" fill="#ed801f" d="M71.8186,195.071L125.97,195.071L125.97,220.52499L71.8186,220.52499L71.8186,195.071L71.8186,195.071z"/>
   <path transform="matrix(0.824188, 0, 0, 0.803165, 8.25838, 37.0023)" id="imagebot_56" fill="#2c2c2b" d="M125.969,180.12199L125.969,180.31L160.125,180.31L160.125,180.12199L125.969,180.12199L125.969,180.12199z"/>
   <path transform="matrix(0.824188, 0, 0, 0.803165, 8.25838, 37.0023)" id="imagebot_57" stroke="#2c2c2b" stroke-width="0.17282" fill="#ed801f" d="M256.245,12.748L265.24399,19.3616L209.489,80.5478L200.145,73.4462L256.245,12.748L256.245,12.748z"/>
   <path transform="matrix(0.824188, 0, 0, 0.803165, 8.25838, 37.0023)" id="imagebot_72" stroke="#2c2c2b" stroke-width="0.17282" fill="#ed801f" d="M149.842,150.10899C155.492,156.586 153.85201,156.965 153.118,158.037C152.375,159.12399 151.996,159.864 144.144,155.75301C146.04401,153.87199 147.94299,151.991 149.842,150.10899L149.842,150.10899z"/>
   <path transform="matrix(0.824188, 0, 0, 0.803165, 8.25838, 37.0023)" id="imagebot_73" stroke="#2c2c2b" stroke-width="0.17282" fill="#ed801f" d="M138.27499,175.82899C140.326,170.39 142.05099,170.87199 143.771,170.80299C145.492,170.735 146.576,170.487 148.774,175.853C145.274,175.845 141.77499,175.83701 138.27499,175.82899L138.27499,175.82899z"/>
   <path transform="matrix(0.824188, 0, 0, 0.803165, 8.25838, 37.0023)" id="imagebot_74" stroke="#2c2c2b" stroke-width="0.17282" fill="#ce6c2a" d="M148.035,157.494L150.64799,158.61L145.571,170.93401L142.28101,171.03101L148.035,157.494L148.035,157.494z"/>
   <path transform="matrix(0.764174, -0.300871, 0.308746, 0.744681, 11.8789, 123.191)" id="imagebot_63" stroke="#2c2c2b" stroke-width="0.17282" fill="#ed801f" d="M275.08401,58.4892L282.23401,58.4519L285.672,43.2882L271.42999,43.087L275.08401,58.4892L275.08401,58.4892z"/>
   <path transform="matrix(0.764174, -0.300871, 0.308746, 0.744681, 11.8789, 123.191)" id="imagebot_65" fill="#2c2c2b" d="M280.215,43.2014L284.39401,48.4849L284.01999,50.7204L277.65201,43.1399L280.215,43.2014L280.215,43.2014z"/>
   <path transform="matrix(0.764174, -0.300871, 0.308746, 0.744681, 11.8789, 123.191)" id="imagebot_66" fill="#2c2c2b" d="M273.16199,48.6976L281.13699,58.4077L278.71799,58.4052L274.14999,52.6732L273.16199,48.6976L273.16199,48.6976z"/>
   <path transform="matrix(0.758669, -0.313822, 0.322036, 0.739317, 12.8183, 127.026)" id="imagebot_64" fill="#2c2c2b" d="M274.573,43.2014L283.034,53.3972L282.46301,56.265L272.009,43.1399L274.573,43.2014L274.573,43.2014z"/>
   <path transform="matrix(0.758669, -0.313822, 0.322036, 0.739317, 12.8183, 127.026)" id="imagebot_67" fill="#2c2c2b" d="M274.40601,22.216L274.40601,43.091L274.625,43.091L274.625,22.216L274.40601,22.216L274.40601,22.216z"/>
   <path transform="matrix(0.758669, -0.313822, 0.322036, 0.739317, 12.8183, 127.026)" id="imagebot_68" fill="#2c2c2b" d="M282.81201,16.1848L282.81201,43.091L283.03101,43.091L283.03101,16.1848L282.81201,16.1848L282.81201,16.1848z"/>
   <path transform="matrix(0.758669, -0.313822, 0.322036, 0.739317, 12.8183, 127.026)" id="imagebot_69" fill="#2c2c2b" d="M277.09,58.6525C277.84,58.6525 278.591,58.6525 279.341,58.6525C279.341,60.0725 279.341,61.4926 279.341,62.9137C282.32599,63.0501 283.5,66.2223 283.47198,67.8623C283.42099,70.9002 281.01801,72.5402 278.216,72.5402C274.97501,72.5402 273.13699,69.5615 272.189,65.9273C272.866,65.7127 273.647,65.8089 273.854,66.2212C274.79599,68.2843 276.23401,69.3458 277.99701,69.4389C278.80301,69.3723 280.08401,69.1788 280.099,67.6033C280.11499,66.0996 279.784,64.8604 277.09,64.8932C277.09,62.8122 277.09,60.7323 277.09,58.6525L277.09,58.6525z"/>
   <line transform="rotate(7, 255.5, 115.5) matrix(1, 0, 0, 1, -155, -64)" id="imagebot_80" y2="203" x2="424" y1="156" x1="397" fill-opacity="null" stroke-opacity="null" stroke-linecap="null" stroke-linejoin="null" stroke-dasharray="null" stroke="#000000" fill="none"/>
   <circle transform="matrix(1, 0, 0, 1, 0, 1)" id="imagebot_82" r="15" cy="149" cx="268" stroke-opacity="null" stroke-linecap="null" stroke-linejoin="null" stroke-dasharray="null" stroke-width="null" stroke="#000000" fill="#000000"/>
   <path transform="matrix(0.758669, 0.322036, -0.313822, 0.739317, 27.439, -45.7282)" id="imagebot_58" stroke="#2c2c2b" stroke-width="0.17282" fill="#ed801f" d="M256.245,12.748L265.24399,19.3616L276.828,22.8817L282.948,15.9176L263.84698,-0.00284L254.01199,9.56619L256.245,12.748L256.245,12.748z"/>
   <path transform="matrix(0.758669, 0.322036, -0.313822, 0.739317, 27.439, -45.7282)" id="imagebot_59" fill="#2c2c2b" d="M259.97501,3.67963L268.08499,3.67963L270.92899,5.97L257.646,5.97L259.97501,3.67963L259.97501,3.67963z"/>
   <path transform="matrix(0.758669, 0.322036, -0.313822, 0.739317, 27.439, -45.7282)" id="imagebot_60" fill="#2c2c2b" d="M254.80099,8.96243L274.51599,8.96243L277.314,11.2527L255.12801,11.2527L254.14,9.83792L254.80099,8.96243L254.80099,8.96243z"/>
   <path transform="matrix(0.758669, 0.322036, -0.313822, 0.739317, 27.439, -45.7282)" id="imagebot_61" fill="#2c2c2b" d="M257.97,13.8698L280.29599,13.8698L282.953,16.1601L261.047,16.1601L257.97,13.8698L257.97,13.8698z"/>
  </g>
 </g>
</svg>