<?xml version="1.0" encoding="UTF-8" standalone="no"?>
<svg
   id="svg1"
   inkscape:version="1.3.1 (91b66b0783, 2023-11-16)"
   viewBox="0 0 53.750999 53.750999"
   sodipodi:version="0.32"
   _SVGFile__filename="oldscale/apps/gnome_question.svg"
   version="1.0"
   y="0"
   x="0"
   sodipodi:docname="help.svg"
   width="53.750999"
   height="53.750999"
   xmlns:inkscape="http://www.inkscape.org/namespaces/inkscape"
   xmlns:sodipodi="http://sodipodi.sourceforge.net/DTD/sodipodi-0.dtd"
   xmlns="http://www.w3.org/2000/svg"
   xmlns:svg="http://www.w3.org/2000/svg"
   xmlns:rdf="http://www.w3.org/1999/02/22-rdf-syntax-ns#"
   xmlns:cc="http://creativecommons.org/ns#"
   xmlns:dc="http://purl.org/dc/elements/1.1/">
  <defs
     id="defs1" />
  <sodipodi:namedview
     id="base"
     bordercolor="#666666"
     inkscape:window-x="-8"
     inkscape:window-y="-8"
     pagecolor="#ffffff"
     inkscape:zoom="7.2023173"
     inkscape:pageshadow="2"
     borderopacity="1.0"
     inkscape:current-layer="svg1"
     inkscape:cx="40.681351"
     inkscape:cy="25.616755"
     inkscape:window-width="1920"
     inkscape:pageopacity="0.0"
     inkscape:window-height="1009"
     inkscape:showpageshadow="2"
     inkscape:pagecheckerboard="0"
     inkscape:deskcolor="#d1d1d1"
     inkscape:window-maximized="1" />
  <path
     id="path839"
     sodipodi:nodetypes="ccccc"
     style="fill:#e0e0ff;fill-opacity:1;fill-rule:evenodd;stroke:#0065fe;stroke-width:3.125;stroke-opacity:1"
     d="m 26.8755,1.5625 c -13.97,0 -25.313,11.343 -25.313,25.313 10e-5,13.97 11.343,25.313 25.313,25.313 13.97,0 25.313,-11.343 25.313,-25.313 0,-13.97 -11.343,-25.313 -25.313,-25.313 z" />
  <path
     id="path1710"
     sodipodi:nodetypes="ccccccccccccccccccccccccccccccccccccccccccc"
     style="fill:#0065fe;fill-opacity:1;fill-rule:evenodd;stroke:#0065fe;stroke-width:1.25;stroke-linejoin:round"
     d="m 26.3905,7.3404 c 1.69,0 3.295,0.259 4.76,0.758 1.465,0.499 2.754,1.217 3.881,2.183 1.126,0.965 2.01,2.133 2.638,3.517 0.643,1.368 0.94,2.918 0.94,4.608 0,3.026 -0.745,5.361 -2.274,7.034 -1.513,1.658 -3.591,2.758 -6.246,3.305 v 0.97 c 0,0.773 -0.178,1.467 -0.516,2.062 -0.321,0.579 -0.799,1.026 -1.394,1.364 -0.58,0.322 -1.231,0.486 -1.971,0.486 -0.74,0 -1.406,-0.164 -2.001,-0.486 -0.579,-0.338 -1.026,-0.785 -1.364,-1.364 -0.322,-0.595 -0.486,-1.289 -0.486,-2.062 v -3.971 c 0,-0.821 0.148,-1.476 0.486,-1.911 0.338,-0.434 0.76,-0.718 1.243,-0.879 0.482,-0.161 1.217,-0.338 2.183,-0.515 2.51,-0.467 3.759,-1.73 3.759,-3.79 0,-0.837 -0.355,-1.584 -1.031,-2.244 -0.66,-0.676 -1.529,-1 -2.607,-1 -0.998,0 -1.786,0.19 -2.365,0.576 -0.563,0.386 -1.104,0.957 -1.668,1.698 -0.547,0.724 -1.091,1.281 -1.606,1.667 -0.499,0.37 -1.193,0.546 -2.062,0.546 -0.982,0 -1.809,-0.382 -2.517,-1.122 -0.692,-0.756 -1.031,-1.624 -1.031,-2.638 0,-1.77 0.57,-3.333 1.729,-4.669 1.158,-1.336 2.597,-2.354 4.335,-3.062 1.738,-0.708 3.463,-1.061 5.185,-1.061 z m -0.243,30.369 c 0.757,0 1.463,0.204 2.123,0.606 0.66,0.402 1.16,0.931 1.546,1.607 0.402,0.66 0.606,1.38 0.606,2.153 0,0.788 -0.204,1.537 -0.606,2.213 -0.386,0.66 -0.901,1.16 -1.577,1.546 -0.66,0.386 -1.351,0.576 -2.092,0.576 -0.74,0 -1.446,-0.19 -2.122,-0.576 -0.66,-0.386 -1.205,-0.886 -1.607,-1.546 -0.386,-0.676 -0.576,-1.425 -0.576,-2.213 0,-0.773 0.19,-1.493 0.576,-2.153 0.402,-0.676 0.947,-1.205 1.607,-1.607 0.66,-0.402 1.366,-0.606 2.122,-0.606 z" />
  <metadata
     id="metadata1">
    <rdf:RDF>
      <cc:Work>
        <dc:format>image/svg+xml</dc:format>
        <dc:type
           rdf:resource="http://purl.org/dc/dcmitype/StillImage" />
        <cc:license
           rdf:resource="http://creativecommons.org/publicdomain/zero/1.0/" />
        <dc:publisher>
          <cc:Agent
             rdf:about="http://openclipart.org/">
            <dc:title>Openclipart</dc:title>
          </cc:Agent>
        </dc:publisher>
      </cc:Work>
      <cc:License
         rdf:about="http://creativecommons.org/publicdomain/zero/1.0/">
        <cc:permits
           rdf:resource="http://creativecommons.org/ns#Reproduction" />
        <cc:permits
           rdf:resource="http://creativecommons.org/ns#Distribution" />
        <cc:permits
           rdf:resource="http://creativecommons.org/ns#DerivativeWorks" />
      </cc:License>
    </rdf:RDF>
  </metadata>
</svg>
