<?xml version="1.0"?>
<svg xmlns:rdf="http://www.w3.org/1999/02/22-rdf-syntax-ns#" xmlns="http://www.w3.org/2000/svg" xmlns:cc="http://web.resource.org/cc/" xmlns:xlink="http://www.w3.org/1999/xlink" xmlns:dc="http://purl.org/dc/elements/1.1/" xmlns:svg="http://www.w3.org/2000/svg" id="Layer_1" xml:space="preserve" overflow="visible" viewBox="0 0 132.773 256.659" version="1.1" enable-background="new 0 0 132.773 256.659">
<path d="m89.607 143.2c-1.977-2.808-4.42-6.745-6.791-10.411-3.396-5.252-6.996-9.324-4.735-15.698 0.006-0.057 0.004-0.114 0.024-0.17 0.175-0.492 0.4-0.946 0.619-1.385 0.224-0.451 0.436-0.876 0.582-1.316 0.062-0.185 0.191-0.325 0.349-0.414 4.043-7.672 11.933-15.907 17.192-23.109 9.646-13.205 15.498-27.716 16.748-48.882-22.238 6.425-58.576 9.118-85.545 2.716-3.479-0.826-6.972-2.269-10.361-2.261-0.024 0.223-0.033 0.455-0.034 0.7-0.001 0.349-0.004 0.732-0.073 1.125l0.059-0.016c-0.01 1.066 0.78 1.333 0.453 2.716l-0.052-0.017c1.943 13.964 7.948 29.479 16.509 42.62 1.544 2.372 4.002 5.246 6.604 8.288 7.365 8.612 16.531 19.33 12.656 27.59-1.162 2.478-3.01 4.633-4.798 6.717-0.654 0.763-1.332 1.553-1.955 2.337-13.726 17.258-26.733 36.971-29.032 64.112l0.068-0.023c-0.096 3.326-0.433 3.763-0.453 6.79l-0.101-0.027c0.056 0.358 0.138 0.72 0.234 1.1 0.191 0.748 0.389 1.521 0.326 2.372-0.004 0.059-0.027 0.109-0.045 0.163l0.038 0.013c1.524 3.153-1.035 10.39 1.811 12.221l-0.019 0.006c24.771 16.954 75.53 14.323 94.653 0.007l-0.039-0.013c0.5-34.04-10.02-56.73-24.893-77.86z" fill="#fff"/>
<path d="m111.52 204.2c-0.8-6.763-2.89-13.328-2.89-13.328l-0.399-1.268s-33.813-24.094-41.417-24.094c-0.095 0-0.2 0.007-0.307 0.014l0.022-0.014v-36.797s9.456-19.389 9.456-19.389l10.842-13.138s10.92-14.816 12.12-17.353c1.202-2.537-28.015-4.65-35.62-5.072-7.604-0.423-33.619 3.382-33.219 5.072 0.401 1.69 15.494 21.58 15.494 21.58s16.124 19.423 16.924 22.382c0.801 2.959 1.2 6.341 1.2 6.341v36.955c-12.273 3.516-42.538 22.668-42.538 22.668l-2.402 16.908 1.602 13.527s4.002 15.639 41.624 14.793c64.805-1.455 48.698-9.849 49.625-10.812 0 0.01 0.68-12.21-0.12-18.97z" fill="#D9D3A4"/>
<polygon points="132.32 23.666 132.32 23.665 132.32 23.665" fill="#5190CD"/>
	<polygon points="132.32 23.666 132.32 23.665 132.32 23.665" fill="none"/>
	<path d="m47.837 131.18c1.735-2.024 3.531-4.117 4.625-6.45 3.553-7.573-5.34-17.971-12.484-26.326-2.628-3.072-5.109-5.975-6.696-8.41-8.688-13.338-14.776-29.106-16.716-43.283l-0.112 0.038h-0.906c-3.455 23.482 10.377 46.823 2.264 68.344 1.167 2.388 2.672 3.855 2.264 6.337-0.469 2.841-3.836 3.072-4.527 5.431 2.565 3.491 4.211 7.844 4.979 12.22 3.46 19.7-6.737 39.94-4.073 59.292l0.105 0.035c2.3-27.511 15.436-47.43 29.294-64.856 0.636-0.79 1.321-1.59 1.983-2.36z" fill="none"/>
	<path d="m117.69 50.583c-0.793-1.491 0.166-4.735-1.66-5.192-2.559 32.574-19.645 50.622-35.729 69.669-0.154 0.383-0.325 0.752-0.501 1.105-0.159 0.319-0.303 0.625-0.431 0.933-0.291 9.389 7.351 17.298 11.766 23.342 10.877 14.889 20.369 31.044 23.99 52.503 0.727 4.315 0.254 9.256 1.811 13.126-0.109-0.27 0.069-0.386 0.263-0.43 0.196-0.454 0.283-0.993 0.368-1.562 0.066-0.444 0.149-0.9 0.276-1.354 0.439-14.088-3.229-25.434-5.435-38.749-2.178-13.155-2.242-28.934 3.621-37.566-4.24-2.013-3.678-8.062-0.453-10.863-3.257-5.401-4.449-14.982-3.314-22.591-0.038-0.096-0.061-0.198-0.054-0.308 0.33-5.774 1.649-11.514 2.926-17.064 1.86-8.122 3.79-16.523 2.55-24.994z" fill="none"/>
	<path d="m130.77 29.07c0.873-1.107 1.846-2.36 1.85-4.078l0.15 0.03c-0.07-0.533 0.078-1.285-0.451-1.358l-0.001 0.001-0.001-0.001h0.002c0.176-1.716-1.233-1.845-0.977-3.642 0.004-0.016 0.016-0.027 0.019-0.043 0.343-1.643 0.6-3.254-0.012-4.9-0.032-0.087-0.084-0.16-0.141-0.227-0.41-1.261-1.124-2.218-2.06-2.956l-0.026 0.064c-0.617-0.744-1.522-1.456-2.789-2.162-20.83-11.58-79.455-12.535-106.38-4.765l-1.352 0.388c-7.824 2.235-17.514 5.008-18.022 11.767-0.011 0.015-0.027 0.023-0.037 0.039-1.126 1.817-0.247 3.532 0.459 4.91 0.19 0.372 0.361 0.725 0.503 1.069-0.001 0.018 0.004 0.036 0.005 0.054-1.37 2.398-0.183 4.728 0.876 6.798 0.354 0.696 0.69 1.353 0.919 1.985l-0.134 1.051c-0.507 3.884-1.137 8.714 1.661 12.021 0.47 2.139 1.117 4.101 1.667 6.159l0.121-0.04c0.521 8.559-0.897 17.254-2.272 25.665-2.01 12.29-4.075 24.992-0.121 37.485-0.963 0.386-1.782 1.072-2.329 2.012-0.655 1.128-0.849 2.474-0.584 3.743l-0.245-0.067c-0.521 4.293 3.322 4.221 4.072 7.242-0.893 0.313-1.206 1.207-1.357 2.263l0.044-0.015c-5.888 12.984-2.979 26.903-0.152 40.371 2.742 13.062 5.577 26.566 0.172 38.947l-0.085 0.194c-0.002-0.003 0.078 0.193 0.078 0.193l0.074 0.18c-0.317 1.341-0.27 2.723-0.217 4.061 0.058 1.454 0.106 2.839-0.287 4.128-0.06 0.014-0.119 0.013-0.177 0.038-1.813 0.791-1.918 2.816-1.987 4.157-0.012 0.238-0.023 0.464-0.042 0.666-0.015 0.163 0.021 0.315 0.077 0.458-0.703 1.369-0.234 2.747 0.198 3.984 0.217 0.619 0.42 1.213 0.491 1.791-0.083 0.068-0.16 0.146-0.218 0.245-0.176 0.303-0.149 0.658 0.019 0.938-0.639 2.039-0.456 4.127 0.559 6.218 4.771 9.834 26.039 16.484 26.25 16.545 16.862 4.855 50.157 5.981 74.544-0.665 13.429-3.661 21.979-8.211 25.431-13.523l0.15 0.168c3.438-2.226 1.838-5.843 2.262-9.505 0.135-1.149 1.201-1.815 1.359-2.716 1.061-6.073-2.266-6.686-3.17-10.41-0.654-2.698 1.164-4.46-0.904-6.789l-0.074 0.095c-0.28-0.381-0.516-0.794-0.757-1.235-0.162-0.297-0.329-0.605-0.518-0.907-0.029-0.047-0.071-0.078-0.108-0.115l0.1-0.1c0.045-1.98-0.75-3.342-0.906-4.979-2.291-24.102 13.9-56.278 0.906-75.133 4.449-2.261 4.453-8.38 0.904-11.315 3.457-3.752 4.553-12.073 3.693-18.882 0.059-0.125 0.099-0.26 0.089-0.408-0.42-6.453-1.713-12.908-2.963-19.151-1.782-8.906-3.626-18.116-2.92-27.349 0.005-0.069-0.014-0.133-0.024-0.198 0.674-1.725 1.198-3.598 2.125-5.071l-0.265-0.109c2.414-3.411 2.275-8.153 1.649-12.868 0.123-0.107 0.229-0.234 0.288-0.399 0.24-0.697 0.75-1.347 1.29-2.035zm-114.32 169.3c-2.664-19.352 7.533-39.592 4.073-59.292-0.769-4.376-2.414-8.729-4.979-12.22 0.691-2.359 4.059-2.59 4.527-5.431 0.408-2.481-1.097-3.949-2.264-6.337 8.113-21.521-5.719-44.862-2.264-68.344h0.906l0.112-0.038c1.939 14.177 8.027 29.945 16.716 43.283 1.587 2.436 4.068 5.338 6.696 8.41 7.145 8.355 16.037 18.753 12.484 26.326-1.094 2.333-2.89 4.426-4.625 6.45-0.662 0.771-1.347 1.569-1.984 2.371-13.858 17.427-26.994 37.346-29.294 64.856l-0.104-0.04zm3.15 22.64l0.019-0.006c-2.846-1.831-0.286-9.067-1.811-12.221l-0.038-0.013c0.018-0.054 0.041-0.104 0.045-0.163 0.062-0.851-0.135-1.624-0.326-2.372-0.097-0.38-0.179-0.741-0.234-1.1l0.101 0.027c0.021-3.027 0.357-3.464 0.453-6.79l-0.068 0.023c2.299-27.142 15.307-46.854 29.032-64.112 0.623-0.784 1.301-1.574 1.955-2.337 1.788-2.084 3.636-4.239 4.798-6.717 3.875-8.26-5.291-18.979-12.656-27.59-2.602-3.042-5.06-5.917-6.604-8.288-8.561-13.141-14.565-28.656-16.509-42.62l0.052 0.017c0.327-1.383-0.463-1.649-0.453-2.716l-0.059 0.016c0.069-0.392 0.072-0.775 0.073-1.125 0.001-0.246 0.01-0.478 0.034-0.7 3.39-0.008 6.882 1.435 10.361 2.261 26.969 6.402 63.307 3.709 85.545-2.716-1.25 21.166-7.102 35.677-16.748 48.882-5.26 7.202-13.149 15.437-17.192 23.109-0.157 0.089-0.287 0.229-0.349 0.414-0.146 0.44-0.358 0.865-0.582 1.316-0.219 0.439-0.444 0.893-0.619 1.385-0.021 0.056-0.019 0.113-0.024 0.17-2.261 6.374 1.339 10.446 4.735 15.698 2.371 3.666 4.814 7.604 6.791 10.411 14.873 21.131 25.395 43.822 24.893 77.849l0.039 0.013c-19.127 14.31-69.887 16.94-94.657-0.01zm92.657-128.06c-1.135 7.608 0.058 17.189 3.314 22.591-3.225 2.8-3.787 8.85 0.453 10.863-5.863 8.633-5.799 24.411-3.621 37.566 2.205 13.315 5.874 24.661 5.435 38.749-0.127 0.453-0.21 0.909-0.276 1.354-0.085 0.568-0.172 1.107-0.368 1.562-0.193 0.044-0.372 0.16-0.263 0.43-1.557-3.87-1.084-8.811-1.811-13.126-3.621-21.459-13.113-37.614-23.99-52.503-4.415-6.044-12.057-13.953-11.766-23.342 0.128-0.308 0.271-0.614 0.431-0.933 0.176-0.353 0.347-0.722 0.501-1.105 16.084-19.048 33.17-37.095 35.729-69.669 1.826 0.458 0.867 3.701 1.66 5.192 1.239 8.471-0.687 16.872-2.556 25-1.276 5.551-2.596 11.291-2.926 17.064 0.01 0.109 0.03 0.212 0.07 0.308z"/>
<path d="m119.65 128.22c-6.004 0.385-6.975 15.669-6.336 24.44 1.146 15.76 7.962 35.623 6.023 49.612 0.116 0.193 0.157 0.43 0.078 0.659-0.144 0.416-0.214 0.884-0.288 1.38-0.125 0.84-0.255 1.708-0.759 2.499-0.032 0.05-0.078 0.082-0.118 0.122l0.042 0.042c-0.181 1.125-1.473 2.152-0.688 3.326 2.742 1.466 6.392 1.442 9.287 0v-0.351c-0.265-0.391-0.499-0.787-0.712-1.179-0.128-0.235-0.254-0.455-0.384-0.674-2.562-3.082-3.061-9.565-2.525-16.513 0.775-10.062 6.432-28.595 6.336-42.093-0.05-7.86-3.23-21.71-9.95-21.28z" fill="#5190CD"/>
<path d="m79.798 116.16c-0.159 0.319-0.303 0.625-0.431 0.933-0.291 9.389 7.351 17.298 11.766 23.342 10.877 14.889 20.369 31.044 23.99 52.503 0.727 4.315 0.254 9.256 1.811 13.126-0.109-0.27 0.069-0.386 0.263-0.43 0.196-0.454 0.283-0.993 0.368-1.562 0.066-0.444 0.149-0.9 0.276-1.354 0.439-14.088-3.229-25.434-5.435-38.749-2.178-13.155-2.242-28.934 3.621-37.566-4.24-2.013-3.678-8.062-0.453-10.863-3.257-5.401-4.449-14.982-3.314-22.591-0.038-0.096-0.061-0.198-0.054-0.308 0.33-5.774 1.649-11.514 2.926-17.064 1.869-8.127 3.795-16.528 2.556-25-0.793-1.491 0.166-4.735-1.66-5.192-2.559 32.574-19.645 50.622-35.729 69.669-0.166 0.39-0.337 0.76-0.513 1.11z" fill="none"/>
<path d="m121.13 225.18c2.109 0.146 4.639-0.557 5.836-2.387l-0.076 0.025c0.332-4.178 0.451-6.015 0.451-11.768l0.067-0.203c-3.087 1.62-7.035 1.685-10.024 0.143v0.061h-0.451c-0.326 3-0.582 6.765-0.453 11.315l-0.165-0.055c0.84 1.92 2.99 2.75 4.81 2.88z" fill="#5190CD"/>
<path d="m116.03 118.26c-3.516 6.297 11.838 8.132 10.863 1.358-3.73 0.24-7.16 0.3-10.86-1.36z" fill="#5190CD"/>
<path d="m126 32.987c-2.944 1.622-5.989 3.284-9.189 4.464-3.341 5.579 4.919 8.659 9.626 6.129l0.201 0.201c2.194-3.077 2.081-7.51 1.502-11.959l-2.14 1.165z" fill="#5190CD"/>
<path d="m74.98 112.95c2.273-5.187 6.039-9.494 9.681-13.659 3.871-4.428 7.874-9.007 9.993-14.59 0.163-0.43 0.645-0.647 1.075-0.483 0.431 0.163 0.646 0.645 0.483 1.075-2.226 5.863-6.328 10.557-10.297 15.096-3.559 4.071-7.238 8.28-9.408 13.231-0.185 0.422-0.677 0.614-1.099 0.429-0.42-0.19-0.612-0.68-0.428-1.1z" fill="#5190CD"/>
<path d="m36.775 152.52c3.968-7.751 9.335-15.327 15.521-21.912 0.308-0.327 0.822-0.343 1.149-0.036 0.327 0.308 0.343 0.822 0.036 1.149-6.084 6.475-11.36 13.923-15.259 21.539-0.205 0.399-0.694 0.558-1.094 0.354-0.399-0.21-0.557-0.69-0.353-1.09z" fill="#5190CD"/>
<polygon points="132.32 23.666 132.32 23.665 132.32 23.665" fill="#5190CD"/>
<path d="m8.896 225.18c2.441 0.783 5.544 0.434 7.265-1.957l-0.161 0.05v-13.126l-0.027-0.055c-0.01 0.004-0.016 0.013-0.025 0.017-3.263 1.368-7.256 1.347-11.052-0.013-0.191 1.075-0.162 2.195-0.116 3.374 0.061 1.511 0.115 3.064-0.354 4.555 0.041 0.057 0.091 0.104 0.12 0.171 0.217 0.498-0.007 1.073-0.496 1.302 0.153 3.08 2.621 4.98 4.846 5.69z" fill="#5190CD"/>
<path d="m129.96 15.971h-0.242c-4.632 7.244-17.881 10.106-26.777 12.025l-0.861 0.186c-30.763 6.661-76.445 4.925-100.45-9.37-0.111 0.744 0.257 1.526 0.801 2.588 0.189 0.369 0.371 0.75 0.535 1.136 25.42 14.158 55.934 14.052 82.44 12.076 0.226-0.017 0.432 0.059 0.6 0.185 17.189-2.595 34.086-5.483 43.867-15.485 0.25-1.195 0.38-2.291 0.09-3.341z" fill="#5190CD"/>
<path d="m124.01 49.626c0.001-0.014 0.01-0.025 0.011-0.039-1.354 1.057-4.239-1.493-4.828 0.782l-0.066-0.018c1.283 8.749-0.676 17.292-2.576 25.558-1.244 5.413-2.526 11.006-2.872 16.576l0.083-0.023c0.354 7.601 0.852 22.461 8.6 22.63 7.17 0.156 7.21-12.223 7.646-18.371-0.062-0.107-0.105-0.226-0.114-0.358-0.413-6.341-1.694-12.741-2.934-18.93-1.8-9.015-3.67-18.34-2.95-27.805z" fill="#5190CD"/>
<path d="m127.8 223.27l-0.066-0.198c-1.335 2.215-4.247 3.065-6.652 2.899-2.573-0.177-4.609-1.423-5.461-3.276l-0.041 0.122c-0.437-0.1-0.342-0.73-0.736-0.873-19.447 14.466-70.789 17.119-95.854-0.032h-0.269c-0.932 0.125-0.427 1.687-1.358 1.811l-0.248-0.319c-1.913 3.058-5.614 3.521-8.477 2.602-2.363-0.759-4.644-2.63-5.281-5.318-0.061 0.358-0.089 0.779-0.113 1.25-0.013 0.248-0.025 0.504-0.048 0.745-0.011 0.124-0.051 0.236-0.102 0.342 5.709 13.403 32.885 19.239 44.453 21.14 29.935 4.917 56.083-0.552 79.935-16.715l-0.135-0.104c0.77-1.806 3.41-4.121 1.811-6.789 0.03 1.38-0.41 2.31-1.35 2.72z" fill="#5190CD"/>
<path d="m4.839 209.09c0.002-0.004 0.003-0.008 0.005-0.012l-0.074-0.182-0.002 0.125c0.027 0.02 0.047 0.04 0.071 0.07z" fill="#5190CD"/>
<path d="m47.329 245.45c-11.646-1.913-38.836-7.774-45.238-21.433-0.145 0.725 0.093 1.514 0.454 2.547 0.241 0.69 0.486 1.398 0.562 2.136 1.226 0.74 2.138 1.802 3.017 2.834 0.604 0.711 1.176 1.383 1.828 1.929 0.104 0.087 0.18 0.192 0.235 0.306 13.299 9.148 39.211 16.985 64.39 15.297 10.465-0.702 21.301-2.864 31.684-6.337 9.141-3.059 21.459-7.145 23.988-14.031-0.011 0.03-0.162 0.009-0.288-0.003-24.07 16.21-50.454 21.7-80.631 16.74z" fill="#5190CD"/>
<path d="m101.75 26.628l0.862-0.186c8.311-1.792 22.122-4.776 26.066-11.818l-0.429-0.011v-1.358l0.119-0.119c-0.027-0.027-0.061-0.047-0.084-0.08-0.48-0.682-1.356-1.379-2.604-2.075-20.6-11.446-78.666-12.354-105.36-4.649l-1.36 0.388c-7.354 2.101-16.428 4.711-17.013 10.44 23.523 14.362 69.119 16.11 99.793 9.468z" fill="#5190CD"/>
<path d="m128.25 234.13c-2.137 0.332-3.666 1.987-5.432 3.168-12.107 8.097-31.438 13.316-50.692 14.484-25.868 1.568-50.395-5.577-64.992-16.716-0.132-0.032-0.261-0.087-0.372-0.181-0.771-0.647-1.421-1.411-2.05-2.148-0.638-0.75-1.25-1.466-1.948-2.022-0.386 1.607-0.188 3.253 0.616 4.907 3.98 8.202 21.419 14.75 25.522 15.932 16.78 4.832 50.484 5.716 73.913-0.669 12.685-3.459 21.136-7.849 24.535-12.718 0.16-1.47 1.29-1.98 0.89-4.03z" fill="#5190CD"/>
<path d="m4.881 209.13c3.669 1.395 7.546 1.457 10.689 0.149l-0.023-0.047c0.397-0.197 0.796-0.395 0.898-0.886 0.012-0.577-0.13-1.16-0.286-1.775-0.096-0.375-0.183-0.765-0.249-1.164-7.008-14.897 2.206-35.638 2.354-54.109 0.074-9.258-2.093-29.341-13.535-21.3-5.737 12.679-2.866 26.425-0.074 39.725 2.76 13.144 5.604 26.732 0.189 39.35l0.012 0.03c0.008 0.02 0.017 0.02 0.025 0.03z" fill="#5190CD"/>
<path d="m5.431 114.21c0.342 0.352 0.718 0.866 1.021 1.382l0.043-0.047c6.901 4.244 9.931-5.065 10.41-11.768 1.222-17.063-5.642-36.162-4.073-53.861-2.246 0.851-5.5-2.118-4.979 1.358l-0.108-0.036c0.517 8.661-0.905 17.395-2.287 25.843-1.993 12.19-4.043 24.791-0.13 37.06 0.034 0.03 0.072 0.05 0.103 0.08z" fill="#5190CD"/>
<path d="m15.94 43.606c0.022-0.218 0.031-0.445 0.032-0.686 0.001-0.362 0.003-0.759 0.081-1.166l-0.053 0.016c-0.086-1.331 0.246-3.082-0.341-3.913-1.929-0.721-3.793-1.661-5.596-2.582-1.786-0.912-3.629-1.837-5.5-2.528l-0.065 0.521c-0.488 3.734-1.031 7.951 1.22 10.805 3.206 1.19 7.473 0.982 10.222-0.467z" fill="#5190CD"/>
<path d="m4.593 31.301c2.102 0.731 4.13 1.755 6.092 2.756 1.898 0.969 3.861 1.971 5.859 2.678 0.1 0.035 0.182 0.095 0.252 0.165l0.109-0.109c28.746 9.328 70.022 7.752 98.669-0.453l0.079 0.079c0.074-0.075 0.162-0.139 0.269-0.176 3.237-1.146 6.358-2.866 9.377-4.528l2.311-1.257c0.001-0.003 0-0.007 0.001-0.01 0.358-1.006 0.997-1.815 1.614-2.598 0.798-1.012 1.485-1.886 1.433-2.986l-0.146-0.291-0.001-0.001c-0.44-0.013-0.351-0.554-0.452-0.905-11.544 6.738-27.248 12.283-44.203 12.653-0.097 0.045-0.2 0.079-0.312 0.087-26.596 1.983-57.206 2.084-82.935-12.021-0.641 1.602 0.203 3.259 1.093 5 0.328 0.629 0.648 1.275 0.9 1.917z" fill="#5190CD"/>
<path d="m16.453 119.17c-3.246-0.152-10.273 1.78-11.236-2.815-0.191-0.329-0.423-0.662-0.644-0.924-0.709 0.299-1.314 0.819-1.725 1.524-0.483 0.833-0.644 1.814-0.496 2.757l0.069-0.089c1.133 4.38 14.136 6.82 14.032-0.46z" fill="#5190CD"/>
<path d="m116.93 211.05h0.451v-0.061c2.989 1.542 6.938 1.478 10.024-0.143l-0.067 0.203c0 5.753-0.119 7.59-0.451 11.768l0.076-0.025c-1.197 1.83-3.727 2.532-5.836 2.387-1.82-0.125-3.976-0.959-4.815-2.868l0.165 0.055c-0.11-4.57 0.15-8.33 0.47-11.33z" fill="#5190CD"/>
<path d="m129.6 149.49c0.096 13.498-5.561 32.03-6.336 42.093-0.535 6.947-0.037 13.431 2.525 16.513 0.13 0.219 0.256 0.438 0.384 0.674 0.213 0.392 0.447 0.788 0.712 1.179v0.351c-2.896 1.442-6.545 1.466-9.287 0-0.785-1.174 0.507-2.201 0.688-3.326l-0.042-0.042c0.04-0.04 0.086-0.072 0.118-0.122 0.504-0.791 0.634-1.659 0.759-2.499 0.074-0.496 0.145-0.964 0.288-1.38 0.079-0.229 0.038-0.466-0.078-0.659 1.938-13.989-4.877-33.853-6.023-49.612-0.639-8.771 0.332-24.056 6.336-24.44 6.73-0.42 9.91 13.43 9.96 21.28z" fill="#5190CD"/>
<path d="m116.03 118.26c3.703 1.655 7.133 1.602 10.863 1.358 0.97 6.77-14.38 4.94-10.86-1.36z" fill="#5190CD"/>
<path d="m126.96 77.434c1.239 6.189 2.521 12.589 2.934 18.93 0.009 0.132 0.053 0.25 0.114 0.358-0.437 6.148-0.477 18.527-7.646 18.371-7.748-0.169-8.246-15.029-8.6-22.63l-0.083 0.023c0.346-5.57 1.628-11.163 2.872-16.576 1.9-8.266 3.859-16.81 2.576-25.558l0.066 0.018c0.589-2.275 3.474 0.274 4.828-0.782-0.001 0.014-0.01 0.025-0.011 0.039-0.72 9.467 1.15 18.792 2.95 27.81z" fill="#5190CD"/>
<path d="m126.64 43.781l-0.201-0.201c-4.707 2.53-12.967-0.55-9.626-6.129 3.2-1.181 6.245-2.843 9.189-4.464l2.14-1.165c0.58 4.449 0.69 8.883-1.5 11.959z" fill="#5190CD"/>
<path d="m86.01 34.797c-0.168-0.125-0.374-0.202-0.6-0.185-26.507 1.977-57.02 2.082-82.44-12.075-0.164-0.387-0.346-0.768-0.535-1.137-0.544-1.062-0.912-1.845-0.801-2.588 24.005 14.294 69.688 16.031 100.45 9.37l0.861-0.186c8.896-1.919 22.146-4.781 26.777-12.025h0.242c0.289 1.05 0.15 2.146-0.088 3.341-9.77 10.002-26.67 12.89-43.86 15.485z" fill="#5190CD"/>
<path d="m18.97 6.72l1.355-0.388c26.699-7.705 84.762-6.797 105.35 4.649 1.247 0.695 2.123 1.393 2.604 2.075 0.023 0.033 0.057 0.052 0.084 0.08l-0.119 0.119v1.358l0.429 0.011c-3.944 7.042-17.756 10.026-26.066 11.818l-0.862 0.186c-30.664 6.642-76.26 4.894-99.783-9.468 0.585-5.729 9.659-8.339 17.013-10.44z" fill="#5190CD"/>
<path d="m2.608 24.384c25.729 14.105 56.339 14.005 82.935 12.021 0.112-0.008 0.216-0.042 0.312-0.087 16.955-0.37 32.659-5.915 44.203-12.653 0.102 0.352 0.012 0.892 0.452 0.905l0.001 0.001 0.146 0.291c0.053 1.1-0.635 1.975-1.433 2.986-0.617 0.782-1.256 1.591-1.614 2.598-0.001 0.003 0 0.006-0.001 0.01l-2.311 1.257c-3.019 1.663-6.14 3.382-9.377 4.528-0.106 0.038-0.194 0.101-0.269 0.176l-0.079-0.079c-28.646 8.205-69.923 9.781-98.669 0.453l-0.115 0.109c-0.07-0.07-0.152-0.13-0.252-0.165-1.998-0.707-3.961-1.709-5.859-2.678-1.962-1.001-3.99-2.025-6.092-2.756-0.252-0.642-0.571-1.289-0.892-1.917-0.889-1.741-1.733-3.399-1.093-5z" fill="#5190CD"/>
<path d="m5.718 44.073c-2.251-2.854-1.708-7.071-1.22-10.805l0.065-0.521c1.871 0.691 3.714 1.616 5.5 2.528 1.803 0.92 3.667 1.86 5.596 2.582 0.587 0.831 0.255 2.583 0.341 3.913l0.054-0.015c-0.078 0.407-0.08 0.804-0.081 1.166-0.001 0.241-0.01 0.468-0.032 0.686-2.75 1.448-7.017 1.656-10.223 0.466z" fill="#5190CD"/>
<path d="m5.458 77.081c1.382-8.448 2.804-17.182 2.287-25.843l0.108 0.036c-0.521-3.476 2.732-0.507 4.979-1.358-1.568 17.699 5.295 36.797 4.073 53.861-0.479 6.703-3.509 16.012-10.41 11.768l-0.043 0.047c-0.304-0.516-0.68-1.03-1.021-1.382-0.03-0.031-0.068-0.046-0.103-0.07-3.913-12.28-1.863-24.879 0.13-37.069z" fill="#5190CD"/>
<path d="m2.422 119.62l-0.069 0.089c-0.147-0.943 0.013-1.924 0.496-2.757 0.41-0.705 1.016-1.225 1.725-1.524 0.221 0.262 0.452 0.596 0.644 0.924 0.963 4.595 7.99 2.664 11.236 2.815 0.103 7.29-12.9 4.85-14.032 0.46z" fill="#5190CD"/>
<path d="m4.844 209.08c5.415-12.617 2.57-26.206-0.189-39.35-2.792-13.3-5.663-27.046 0.074-39.725 11.442-8.041 13.609 12.042 13.535 21.3-0.147 18.472-9.361 39.212-2.354 54.109 0.066 0.399 0.153 0.789 0.249 1.164 0.156 0.615 0.298 1.198 0.286 1.775-0.103 0.491-0.501 0.688-0.898 0.886l0.023 0.047c-3.144 1.308-7.021 1.245-10.689-0.149-0.008-0.01-0.017-0.019-0.025-0.027l-0.012-0.02c-0.002 0.004-0.003 0.008-0.005 0.012-0.023-0.024-0.044-0.049-0.071-0.068l0.002-0.125 0.074 0.18z" fill="#5190CD"/>
<path d="m127.96 228.7c0.126 0.012 0.277 0.033 0.288 0.003-2.529 6.887-14.848 10.973-23.988 14.031-10.383 3.473-21.219 5.635-31.684 6.337-25.179 1.688-51.091-6.148-64.39-15.297-0.056-0.113-0.132-0.219-0.235-0.306-0.652-0.546-1.224-1.218-1.828-1.929-0.879-1.032-1.791-2.094-3.017-2.834-0.075-0.737-0.32-1.445-0.562-2.136-0.361-1.033-0.599-1.822-0.454-2.547 6.402 13.658 33.592 19.52 45.238 21.433 30.178 4.97 56.562-0.52 80.632-16.74z" fill="#5190CD"/>
<path d="m102.81 250.88c-23.429 6.385-57.133 5.501-73.913 0.669-4.104-1.182-21.542-7.729-25.522-15.932-0.804-1.654-1.002-3.3-0.616-4.907 0.698 0.557 1.311 1.272 1.948 2.022 0.629 0.737 1.278 1.501 2.05 2.148 0.111 0.094 0.24 0.148 0.372 0.181 14.598 11.139 39.124 18.284 64.992 16.716 19.255-1.168 38.585-6.388 50.692-14.484 1.766-1.181 3.295-2.836 5.432-3.168 0.402 2.048-0.731 2.56-0.899 4.037-3.39 4.87-11.84 9.26-24.53 12.71z" fill="#5190CD"/>
<path d="m127.34 227.34l0.135 0.104c-23.852 16.163-50 21.632-79.935 16.715-11.568-1.9-38.744-7.736-44.453-21.14 0.051-0.105 0.091-0.218 0.102-0.342 0.022-0.241 0.035-0.497 0.048-0.745 0.024-0.471 0.053-0.892 0.113-1.25 0.638 2.688 2.918 4.56 5.281 5.318 2.862 0.919 6.563 0.456 8.477-2.602l0.248 0.319c0.932-0.124 0.427-1.686 1.358-1.811h0.269c25.064 17.151 76.406 14.498 95.854 0.032 0.395 0.143 0.3 0.773 0.736 0.873l0.041-0.122c0.852 1.854 2.888 3.1 5.461 3.276 2.405 0.166 5.317-0.685 6.652-2.899l0.066 0.198c0.947-0.411 1.381-1.336 1.357-2.716 1.59 2.66-1.05 4.98-1.82 6.78z" fill="#5190CD"/>
<path d="m4.545 218.19c-0.029-0.066-0.079-0.114-0.12-0.171 0.47-1.49 0.415-3.044 0.354-4.555-0.046-1.179-0.075-2.299 0.116-3.374 3.796 1.359 7.789 1.381 11.052 0.013 0.01-0.004 0.016-0.013 0.025-0.017l0.028 0.06v13.126l0.161-0.044c-1.721 2.391-4.823 2.74-7.265 1.957-2.226-0.715-4.693-2.613-4.848-5.688 0.49-0.24 0.714-0.81 0.497-1.31z" fill="#5190CD"/>
<path d="m75.409 114.05c0.422 0.185 0.914-0.007 1.099-0.429 2.17-4.951 5.85-9.16 9.408-13.231 3.969-4.539 8.071-9.232 10.297-15.096 0.163-0.431-0.053-0.912-0.483-1.075-0.431-0.164-0.912 0.053-1.075 0.483-2.119 5.583-6.122 10.162-9.993 14.59-3.642 4.166-7.407 8.473-9.681 13.659-0.185 0.42 0.007 0.91 0.428 1.1z"/>
<path d="m37.129 153.61c0.399 0.204 0.889 0.046 1.094-0.354 3.898-7.616 9.175-15.064 15.259-21.539 0.307-0.327 0.291-0.842-0.036-1.149s-0.842-0.291-1.149 0.036c-6.186 6.585-11.553 14.161-15.521 21.912-0.205 0.4-0.047 0.88 0.353 1.09z"/>
<metadata><rdf:RDF><cc:Work><dc:format>image/svg+xml</dc:format><dc:type rdf:resource="http://purl.org/dc/dcmitype/StillImage"/><cc:license rdf:resource="http://creativecommons.org/licenses/publicdomain/"/><dc:publisher><cc:Agent rdf:about="http://openclipart.org/"><dc:title>Openclipart</dc:title></cc:Agent></dc:publisher><dc:title>hourglass with sand</dc:title><dc:date>2006-10-07T10:00:53</dc:date><dc:description>a color drawing of an hourglass with sand</dc:description><dc:source>http://openclipart.org/detail/412/hourglass-with-sand-by-johnny_automatic</dc:source><dc:creator><cc:Agent><dc:title>johnny_automatic</dc:title></cc:Agent></dc:creator><dc:subject><rdf:Bag><rdf:li>clip art</rdf:li><rdf:li>clipart</rdf:li><rdf:li>hourglass</rdf:li><rdf:li>image</rdf:li><rdf:li>media</rdf:li><rdf:li>png</rdf:li><rdf:li>public domain</rdf:li><rdf:li>sand</rdf:li><rdf:li>svg</rdf:li><rdf:li>time</rdf:li><rdf:li>timepiece</rdf:li></rdf:Bag></dc:subject></cc:Work><cc:License rdf:about="http://creativecommons.org/licenses/publicdomain/"><cc:permits rdf:resource="http://creativecommons.org/ns#Reproduction"/><cc:permits rdf:resource="http://creativecommons.org/ns#Distribution"/><cc:permits rdf:resource="http://creativecommons.org/ns#DerivativeWorks"/></cc:License></rdf:RDF></metadata></svg>
