<?xml version="1.0"?>
<svg xmlns:rdf="http://www.w3.org/1999/02/22-rdf-syntax-ns#" xmlns="http://www.w3.org/2000/svg" xmlns:cc="http://web.resource.org/cc/" xmlns:xlink="http://www.w3.org/1999/xlink" xmlns:dc="http://purl.org/dc/elements/1.1/" xmlns:svg="http://www.w3.org/2000/svg" id="Layer_1" xml:space="preserve" overflow="visible" viewBox="-23.608 0 419.531 419.531"
	version="1.1" enable-background="new -23.608 0 419.531 419.531">
<g clip-rule="evenodd" fill-rule="evenodd">
	<path d="m176.51 34.991c-4.932 7.756-15.106 8.357-23.394 3.544-2.606 0.465-3.53 2.613-4.962 4.253 21.622 5.161 42.285 14.81 62.381 24.102 17.214 7.959 32.418 18.321 46.786 29.064 22.544 16.855 41.201 34.083 59.546 54.583 6.15 6.872 10.193 14.258 15.596 21.975 1.505 2.151 4.169 3.532 5.671 5.672 2.683 3.822 4.923 9.811 7.798 14.886 7.337 12.952 16.396 31.31 20.557 46.786 8.557 31.822 9.392 65.986-9.215 92.863-1.672 2.414-4.343 5.196-6.38 7.797-9.257 11.822-21.021 24.12-33.317 34.026-3.296 2.655-6.277 6.325-9.216 8.507-2.62 1.946-5.835 2.606-8.506 4.253-8.246 5.083-15.634 11.571-24.812 16.305-2.872 1.481-6.694 2.058-9.924 3.544-7.597 3.496-18.194 8.288-28.355 9.925-8.856 1.426-18.394 1.086-29.063 2.126-32.74 3.193-75.313-17.344-94.989-41.114-2.136-2.58-4.209-6.194-6.38-9.216-13.411-18.663-27.968-39.175-39.697-60.963-10.332-19.17-20.547-40.02-26.247-58.14-9.587-30.475-13.423-59.557-13.469-96.408-7.575 2.59-14.613 11.85-23.393 15.596-1.192-8.369 6.545-17.469 5.671-25.52-1.603-1.941-7.554 0.465-9.215-1.418 0.851-6.71 6.499-8.624 7.798-14.886 9.609-8.797 21.531-13.166 31.19-22.685 4.386-4.322 7.389-12.172 11.342-17.013 0.884-1.082 3.107-1.53 4.253-2.835 3.769-4.29 7.007-10.546 11.342-16.304 4.104-5.453 11.184-12.745 11.342-15.595 0.25-4.512-5.376-7.733-5.671-12.051-0.312-4.563 3.733-10.524 9.215-11.342 11.54-1.722 17.28 9.389 24.102 17.013 3.833-1.756 8.821-4.363 13.469-1.418 8.155-6.258 15.906-12.921 22.684-20.557-2.238-5.642-6.198-12.262-3.544-20.558 16.88-13.628 37.58 12.363 38.99 31.191zm-29.77-32.608c-0.396 1.021-1.105 1.73-2.126 2.126 3.871 13.184 11.93 25.82 27.646 24.811-3.05-14.437-10.54-24.435-25.52-26.937zm21.26 32.608c-13.493-5.883-20.305-18.448-28.355-29.773-0.1 19.35 10.26 30.862 28.36 29.773zm-45.36 12.051c1.913 1.158 3.373 2.771 4.253 4.962 7.574-3.059 11.003-10.264 17.723-14.177-0.895-3.596-3.32-5.659-4.963-8.507-4.76 6.815-12.63 10.53-17.01 17.722zm-42.537-13.469c2.496 12.099 12.069 24.613 25.52 22.684-2.7-12.988-11.558-23.281-25.517-22.684zm-5.671 6.38c3.421 7.947 12.895 23.924 22.684 24.102 2.14 0.039 6.252 1.131 5.671-3.544-14.212-2.569-19.188-14.368-26.94-23.393-0.369 1.049-1.049 1.786-1.418 2.835zm36.148 7.089c-1.573 14.4 4.251 30.333 21.267 30.481 3-11.283-4.24-30.485-21.27-30.481zm37.58 24.102c15.209 5.123 29.608 8.304 43.241 12.76 16.908 5.526 31.617 14.585 47.495 19.849 0.98-4.132-1.512-9.025-1.418-12.76-15.541-14.177-38.054-20.925-58.128-30.481-10.857-5.169-21.955-9.834-33.317-11.342-1.25 5.856 0.35 12.831 2.13 21.977zm-12.76-8.507c-0.444 2.608 1.385 5.534 1.418 7.798 0.177 12.056-6.41 18.595-20.558 14.886 0.128 7.355 1.251 9.509 2.127 15.595 7.5-2.464 14.516-16.289 20.558-23.393 2.19-2.577 5.004-3.476 5.671-6.38 1.069-4.654-0.282-14.006-3.545-17.722-0.39 3.355-4.92 4.718-5.68 9.212zm-8.51 18.431c-0.161-2.91-3.456-2.687-6.38-2.835-5.406-4.754-10.204-10.117-11.342-19.14h-2.126c-6.13 12.128 9.2 24.255 19.85 21.975zm-50.331 2.835c7.283-5.004 15.719-8.855 21.976-14.886-10.344-7.315-17.012 6.635-21.976 14.886zm21.266-10.632c-14.5 11.256-33.12 18.392-41.115 36.153 15.396-10.36 31.234-20.278 46.077-31.191v-3.544c-2.831 0.704-2.14-2.116-4.965-1.414zm48.205 1.417c-8.105 9.144-16.615 17.883-22.684 29.064 29.023 13.272 52.822 31.771 79.395 47.495 6.959-6.037 11.63-14.362 19.14-19.849 3.892-9.813 13.901-13.509 17.722-23.393-28.19-14.097-58.46-26.123-93.57-33.312zm-54.585 26.932c-4.698 4.793-10.458 8.659-10.633 12.76-0.11 2.566 1.353 5.47 2.148 8.326 2.409 8.653 6.002 15.957 9.194 24.282 13.834 28.355 36.523 78.888 40.405 87.192 7.716 13.213 13.101 24.027 20.382 36.714 4.616 8.043 10.241 16.483 15.062 24.25 1.195 1.924 6.451 10.1 7.798 12.051 7.372 10.679 25.714 24.34 43.241 26.229 13.068 1.407 28.21-5.21 35.444-10.634 12.787-9.586 22.613-23.252 30.481-36.861 10.291-17.804 2.843-37.289-6.38-53.166-17.469-21.756-36.483-41.966-58.837-58.837-10.527-9.435-23.161-15.955-34.735-24.102-11.634-8.188-23.146-16.888-36.152-23.393-0.299-2.301-2.947-2.252-3.545-4.253-9.054-3.233-16.527-8.047-24.811-12.051-2.971-1.655-2.191-0.543-5.671 0-5.744-5.36-5.745-13.009-7.088-23.393-0.906-0.039-0.982-0.909-2.127-0.709-4.55 5.029-8.262 9.585-14.155 15.592zm151 4.97c23.65 10.612 41.492 27.032 60.254 42.533-5.327-10.183-14.741-17.129-22.684-24.811-8.077-7.811-16.331-16.161-26.938-21.267-2.249-4.367-8.088-5.145-10.633-9.215h-2.127c0.9 5.869 1.91 9.275 2.13 12.765zm-36.87 47.49c4.056 6.087 6.876 5.202 12.051 8.507 6.22 3.973 12.508 10.062 19.14 15.596 21.942 18.31 48.694 43.004 58.837 69.47 8.962 23.383 2.467 56.058-10.633 73.723-5.419 7.308-13.643 13.826-20.558 18.432-11.198 7.457-23.34 11.756-37.57 13.469-34.263 4.124-59.23-15.222-80.104-38.988-20.524-23.371-31.658-54.784-43.241-80.104-16.954 7.385-34.254 14.423-51.039 21.976 5.752 16.28 13.302 32.805 21.975 48.203 8.453 15.008 16.467 30.589 26.229 43.95 15.583 21.334 29.445 40.297 53.166 52.457 7.272 3.728 16.3 7.976 24.811 10.634 14.225 4.441 32.098 2.663 47.495 1.417 3.304-0.267 8.383-0.893 12.76-2.126 15.828-4.463 34.062-14.745 48.912-25.52 20.912-15.171 39.047-33.106 53.166-52.457 5.866-19.103 18.845-36.717 16.305-60.255-1.107-10.259-5.768-19.303-7.798-29.063-0.57-2.742-0.125-5.709-0.709-8.507-2.724-13.04-9.167-25.464-14.887-37.57-12.339-26.119-27.507-41.262-48.203-58.837-13.638-11.581-26.256-20.837-41.115-27.646h-1.418c-13.86 13.09-25.79 28.09-37.57 43.25zm-199.9-15.59c15.113-1.428 19.064-14.018 26.229-23.393-0.08-0.865-0.212-1.679-1.417-1.418-7.923 8.62-21.526 11.55-24.812 24.81zm45.368-3.55c-3.359 4.675-7.783 8.284-14.886 9.216-2.561 10.161-0.756 15.248-0.709 21.267 12.186-5.536 22.833-12.611 33.317-19.849-0.09-8.597 3.773-13.24 4.253-21.267-8.812 2.06-13.56 8.18-21.975 10.63zm19.849 10.64c0.153 3.402 3.062 9.27 4.962 14.177 8.978 23.191 18.26 47.849 28.355 67.344 1.45-6.336 8.049-11.531 7.798-18.431-0.168-4.596-5.803-13.619-8.507-20.558-2.854-7.325-6.345-13.811-9.215-20.558-6.733-15.825-13.634-33.583-17.722-43.241-0.822 7.18-5.996 13.9-5.665 21.27zm-2.836 4.25c-9.976 7.273-21.555 12.944-31.899 19.849 0.078 28.331 4.235 54.774 14.886 82.229 18.309-5.793 36.113-12.091 50.331-21.975-11.493-26.32-20.336-55.28-33.318-80.11zm37.568 82.94c0.137 3.468 4.78 10.979 7.797 17.722 4.128 9.225 8.711 17.408 12.052 24.103 3.935 7.886 5.97 16.403 9.924 22.684 6.283 9.979 17.172 21.458 26.938 29.773 10.888 9.271 22.707 18.875 35.443 21.975 21.075 5.129 43.053-0.201 56.711-7.089 17.665-8.908 33.222-24.148 38.988-41.823 1.333-4.086 1.528-9.461 2.126-14.887-10.047 11.43-20.118 32.415-37.57 42.532-7.872 4.563-19.709 10.744-29.772 11.343-20.693 1.231-37.585-9.938-51.748-19.14-23.03-32.972-42.605-69.397-61.673-106.33h-2.126c-0.32 6.4-7.35 12.4-7.09 19.15z"/>
	<path d="m172.26 29.32c-15.716 1.009-23.774-11.627-27.646-24.811 1.021-0.396 1.729-1.106 2.126-2.126 14.98 2.502 22.47 12.5 25.52 26.937z" fill="#B0B6BB"/>
	<path d="m139.65 5.218c8.051 11.325 14.862 23.89 28.355 29.773-18.1 1.089-28.46-10.423-28.35-29.773z" fill="#E4E5E6"/>
	<path d="m139.65 29.32c1.643 2.848 4.068 4.911 4.963 8.507-6.72 3.913-10.148 11.118-17.723 14.177-0.88-2.191-2.34-3.804-4.253-4.962 4.38-7.192 12.25-10.907 17.01-17.722z" fill="#E4E5E6"/>
	<path d="m105.62 56.257c-13.451 1.929-23.024-10.585-25.52-22.684 13.962-0.597 22.82 9.696 25.52 22.684z" fill="#B0B6BB"/>
	<path d="m75.85 37.118c7.752 9.025 12.729 20.825 26.938 23.393 0.581 4.675-3.531 3.583-5.671 3.544-9.792-0.178-19.266-16.155-22.687-24.102 0.369-1.049 1.049-1.786 1.418-2.835z" fill="#E4E5E6"/>
	<path d="m131.85 77.523c-17.016-0.148-22.839-16.081-21.267-30.481 17.03-0.004 24.27 19.198 21.27 30.481z" fill="#B0B6BB"/>
	<path d="m146.03 49.168c11.362 1.508 22.46 6.173 33.317 11.342 20.074 9.557 42.587 16.304 58.128 30.481-0.094 3.734 2.398 8.628 1.418 12.76-15.878-5.263-30.587-14.322-47.495-19.849-13.633-4.456-28.032-7.637-43.241-12.76-1.78-9.143-3.38-16.118-2.13-21.973z" fill="#B0B6BB"/>
	<path d="m141.07 53.422c3.263 3.715 4.614 13.067 3.545 17.722-0.667 2.904-3.48 3.803-5.671 6.38-6.042 7.104-13.058 20.929-20.558 23.393-0.876-6.086-1.999-8.24-2.127-15.595 14.147 3.708 20.734-2.831 20.558-14.886-0.033-2.264-1.862-5.19-1.418-7.798 0.76-4.498 5.29-5.861 5.67-9.219z" fill="#E4E5E6"/>
	<path d="m107.04 59.093h2.126c1.138 9.023 5.936 14.386 11.342 19.14 2.924 0.148 6.219-0.075 6.38 2.835-10.65 2.28-25.98-9.847-19.85-21.975z" fill="#E4E5E6"/>
	<path d="m48.913 113.68c-10.351 13.505-24.585 29.29-29.064 38.28-5.417 1.198-6.501 6.731-11.342 8.506 3.961-19.624 18.158-32.01 28.355-47.495 7.984-12.124 16.85-23.383 24.811-33.317 4.885-6.097 7.815-13.521 13.469-18.431 12.839 5.285-5.549 23.377-9.924 29.063-7.217 9.367-12.358 16.755-16.305 23.385z" fill="#E4E5E6"/>
	<path d="m102.79 74.688v3.544c-14.846 10.914-30.684 20.831-46.08 31.188 7.995-17.761 26.616-24.897 41.115-36.153 2.825-0.698 2.134 2.122 4.965 1.421z" fill="#E4E5E6"/>
	<path d="m239.6 108c-3.82 9.884-13.83 13.58-17.722 23.393-7.51 5.486-12.181 13.812-19.14 19.849-26.572-15.725-50.371-34.223-79.395-47.495 6.068-11.181 14.578-19.92 22.684-29.064 35.12 7.201 65.39 19.227 93.58 33.324z" fill="#E4E5E6"/>
	<path d="m45.816 124.76c6.622-9.897 34.86-23.64 43.502-31.645 1.206-0.261 1.338 0.553 1.418 1.417-12.13 9.609-41.262 36.399-54.732 44.667 0.288-3.82 7.975-11.69 9.812-14.44z" fill="#E4E5E6"/>
	<path d="m240.31 93.828h2.127c2.545 4.071 8.384 4.848 10.633 9.215 10.606 5.105 18.86 13.456 26.938 21.267 7.942 7.682 17.356 14.628 22.684 24.811-18.762-15.501-36.604-31.921-60.254-42.533-0.22-3.49-1.23-6.896-2.13-12.762z" fill="#B32317"/>
	<path d="m243.14 110.84h1.418c14.859 6.809 27.478 16.065 41.115 27.646 20.696 17.575 35.864 32.718 48.203 58.837 5.72 12.106 12.163 24.53 14.887 37.57 0.584 2.798 2.7 6.313 3.271 9.056 2.03 9.761 4.129 18.256 5.236 28.515 2.54 23.538-10.438 41.152-16.305 60.255-14.119 19.351-32.254 37.286-53.166 52.457-14.851 10.774-33.084 21.057-48.912 25.52-4.377 1.233-9.456 1.859-12.76 2.126-15.397 1.246-33.271 3.024-47.495-1.417-8.511-2.658-17.538-6.906-24.811-10.634-23.721-12.16-37.582-31.123-53.166-52.457-9.761-13.361-17.776-28.942-26.229-43.95-8.673-15.398-16.223-31.923-21.975-48.203 16.785-7.553 34.085-14.591 51.039-21.976 11.583 25.319 22.717 56.732 43.241 80.104 20.873 23.767 45.841 43.112 80.104 38.988 14.23-1.713 26.372-6.012 37.57-13.469 6.915-4.605 15.139-11.124 20.558-18.432 13.1-17.665 19.595-50.34 10.633-73.723-10.143-26.466-36.895-51.16-58.837-69.47-6.632-5.534-12.92-11.623-19.14-15.596-5.175-3.305-7.995-2.42-12.051-8.507 11.78-15.18 23.71-30.18 37.57-43.26z" fill="#EE3224"/>
	<path d="m30.482 113.68c1.206-0.261 1.337 0.553 1.417 1.418-7.164 9.375-11.115 21.965-26.229 23.393 3.287-13.26 16.89-16.19 24.812-24.81z" fill="#E4E5E6"/>
	<path d="m73.014 124.31c-0.479 8.026-4.343 12.67-4.253 21.267-10.484 7.237-21.131 14.312-33.317 19.849-0.047-6.019-1.852-11.105 0.709-21.267 7.103-0.932 11.527-4.541 14.886-9.216 8.415-2.45 13.163-8.57 21.975-10.63z" fill="#E4E5E6"/>
	<path d="m76.559 124.31c4.088 9.658 10.989 27.416 17.722 43.241 2.871 6.747 6.361 13.232 9.215 20.558 2.704 6.938 8.339 15.962 8.507 20.558 0.251 6.899-6.348 12.095-7.798 18.431-10.096-19.495-19.377-44.152-28.355-67.344-1.899-4.907-4.809-10.774-4.962-14.177-0.336-7.37 4.838-14.09 5.666-21.27z" fill="#B0B6BB"/>
	<path d="m101.37 229.93c-14.218 9.884-32.022 16.182-50.331 21.975-10.651-27.455-14.808-53.898-14.886-82.229 10.345-6.904 21.924-12.575 31.899-19.849 12.982 24.84 21.825 53.8 33.318 80.11z" fill="#E4E5E6"/>
	<path d="m112.71 213.63h2.126c19.067 36.935 38.643 73.36 61.673 106.33 14.163 9.202 31.055 20.371 51.748 19.14 10.063-0.599 21.9-6.779 29.772-11.343 17.452-10.117 27.523-31.103 37.57-42.532-0.598 5.426-0.793 10.801-2.126 14.887-5.767 17.675-21.323 32.915-38.988 41.823-13.658 6.888-35.636 12.218-56.711 7.089-12.736-3.1-24.556-12.703-35.443-21.975-9.766-8.315-20.654-19.794-26.938-29.773-3.954-6.28-5.989-14.798-9.924-22.684-3.341-6.694-7.924-14.878-12.052-24.103-3.018-6.743-7.661-14.254-7.797-17.722-0.26-6.77 6.77-12.77 7.09-19.16z" fill="#B32317"/>
</g>
<metadata><rdf:RDF><cc:Work><dc:format>image/svg+xml</dc:format><dc:type rdf:resource="http://purl.org/dc/dcmitype/StillImage"/><cc:license rdf:resource="http://creativecommons.org/licenses/publicdomain/"/><dc:publisher><cc:Agent rdf:about="http://openclipart.org/"><dc:title>Openclipart</dc:title></cc:Agent></dc:publisher><dc:title>magnet</dc:title><dc:date>2006-10-30T20:31:50</dc:date><dc:description>a magnet with nails attched</dc:description><dc:source>http://openclipart.org/detail/1039/magnet-by-johnny_automatic</dc:source><dc:creator><cc:Agent><dc:title>johnny_automatic</dc:title></cc:Agent></dc:creator><dc:subject><rdf:Bag><rdf:li>clip art</rdf:li><rdf:li>clipart</rdf:li><rdf:li>colour</rdf:li><rdf:li>contour</rdf:li><rdf:li>image</rdf:li><rdf:li>magnet</rdf:li><rdf:li>magnetism</rdf:li><rdf:li>media</rdf:li><rdf:li>nails</rdf:li><rdf:li>outline</rdf:li><rdf:li>physics</rdf:li><rdf:li>png</rdf:li><rdf:li>public domain</rdf:li><rdf:li>science</rdf:li><rdf:li>svg</rdf:li><rdf:li>tool</rdf:li></rdf:Bag></dc:subject></cc:Work><cc:License rdf:about="http://creativecommons.org/licenses/publicdomain/"><cc:permits rdf:resource="http://creativecommons.org/ns#Reproduction"/><cc:permits rdf:resource="http://creativecommons.org/ns#Distribution"/><cc:permits rdf:resource="http://creativecommons.org/ns#DerivativeWorks"/></cc:License></rdf:RDF></metadata></svg>
