<?xml version="1.0" encoding="UTF-8" standalone="no"?>
<!-- Created with Inkscape (http://www.inkscape.org/) -->

<svg
   width="240.10001mm"
   height="240.10001mm"
   viewBox="0 0 240.1 240.1"
   id="svg6350"
   version="1.1"
   inkscape:version="1.3.1 (91b66b0783, 2023-11-16)"
   sodipodi:docname="sc8pr.svg"
   xmlns:inkscape="http://www.inkscape.org/namespaces/inkscape"
   xmlns:sodipodi="http://sodipodi.sourceforge.net/DTD/sodipodi-0.dtd"
   xmlns="http://www.w3.org/2000/svg"
   xmlns:svg="http://www.w3.org/2000/svg"
   xmlns:rdf="http://www.w3.org/1999/02/22-rdf-syntax-ns#"
   xmlns:cc="http://creativecommons.org/ns#"
   xmlns:dc="http://purl.org/dc/elements/1.1/">
  <defs
     id="defs6352" />
  <sodipodi:namedview
     id="base"
     pagecolor="#ffffff"
     bordercolor="#666666"
     borderopacity="1.0"
     inkscape:pageopacity="0.0"
     inkscape:pageshadow="2"
     inkscape:zoom="0.49497475"
     inkscape:cx="119.198"
     inkscape:cy="489.92398"
     inkscape:document-units="px"
     inkscape:current-layer="layer1"
     showgrid="false"
     fit-margin-top="0"
     fit-margin-left="0"
     fit-margin-right="0"
     fit-margin-bottom="0"
     inkscape:window-width="1920"
     inkscape:window-height="1009"
     inkscape:window-x="-8"
     inkscape:window-y="-8"
     inkscape:window-maximized="1"
     inkscape:showpageshadow="2"
     inkscape:pagecheckerboard="0"
     inkscape:deskcolor="#d1d1d1" />
  <metadata
     id="metadata6355">
    <rdf:RDF>
      <cc:Work
         rdf:about="">
        <dc:format>image/svg+xml</dc:format>
        <dc:type
           rdf:resource="http://purl.org/dc/dcmitype/StillImage" />
      </cc:Work>
    </rdf:RDF>
  </metadata>
  <g
     inkscape:label="Calque 1"
     inkscape:groupmode="layer"
     id="layer1"
     transform="translate(-395.24319,-540.88593)">
    <g
       id="g1"
       transform="translate(1.3229167)">
      <path
         style="fill:#000000"
         d="m 395.24319,755.79725 c 0.10928,-4.24949 4.31406,-8.3369 6.46883,-10.37277 2.85174,-4.50283 6.4032,-9.40136 11.93704,-11.12419 3.91238,-2.20326 8.12957,-1.9639 11.71404,-3.67238 -2.75804,-7.0457 -7.32264,-13.63048 -6.78961,-21.65445 -0.9065,-15.85124 -2.25381,-32.60995 3.50799,-47.73045 2.68606,-7.71718 6.33876,-15.60489 11.05706,-22.46646 3.97005,-8.31561 9.70484,-15.22487 16.68174,-21.16904 5.02421,-4.99547 10.00699,-9.04526 15.27562,-13.61256 5.75757,-4.37709 12.42403,-8.30517 19.97197,-9.57703 3.9902,-0.0804 2.36678,-3.37211 0.57979,-5.76254 -2.24178,-5.56382 -7.05366,-11.49663 -3.99325,-17.64205 1.59991,-3.17384 6.26049,-5.47154 8.86032,-2.10359 4.53572,7.35777 3.4871,-1.07345 4.75415,-5.4226 1.65576,-6.84623 2.33263,-13.70454 7.17918,-18.8225 1.53108,-1.59328 2.3014,-2.30448 3.78098,-2.99695 2.73003,-1.36582 6.14011,-1.04895 7.85307,1.80389 3.33761,7.56649 -0.34681,17.41273 0.75921,24.25894 2.81729,-2.9522 7.79397,-6.0644 12.08599,-3.99286 3.99091,2.89228 1.92328,8.9912 -0.87902,11.92164 -1.90575,3.95481 -5.24544,7.02037 -6.40763,11.35835 -3.36255,4.65869 2.42146,2.87768 4.78512,3.27884 2.99139,-0.71516 1.50414,4.15913 4.58721,3.94277 2.88567,1.56975 5.10693,2.56969 8.32448,4.38096 5.8366,5.19245 13.35376,7.45198 19.25907,12.36973 8.79071,2.5403 14.76283,10.43433 21.91097,15.77454 5.12167,4.10921 7.3319,10.57787 12.09384,14.97796 9.39181,16.18958 17.41311,34.53088 15.31282,53.73572 -1.17875,8.60308 -5.06012,16.61831 -8.59032,24.43405 -3.76164,5.32327 -6.06271,11.69172 -10.57342,16.74825 -2.37139,3.07325 2.96574,0.41225 4.3426,0.097 9.29837,-2.15881 19.09413,-2.31962 28.10568,0.90368 8.47436,2.60177 15.98587,11.30534 13.72116,20.59407 -0.63863,11.07538 -11.11912,18.69854 -21.41747,20.38314 -7.92767,2.09225 -16.80436,3.31452 -24.71573,1.35721 -7.31002,-0.0308 -13.7672,-4.11248 -20.76645,-5.62028 -4.44097,-1.54406 -8.74077,-3.22866 -12.12825,-6.66456 -3.04645,-2.18201 -3.57281,-7.85866 -8.26813,-5.55376 -8.16026,0.76922 -15.49093,5.04844 -23.72217,5.4457 -6.16024,0.53226 -12.08489,1.21798 -18.37038,1.31613 -7.33995,-2.09615 -15.01503,-0.91632 -22.04882,-3.88855 -2.23848,0.19856 -5.92797,-3.13126 -6.72678,-0.83271 -4.6887,4.11392 -11.38509,5.23048 -16.77865,7.98159 -9.15311,4.75422 -20.37654,4.76965 -30.62514,4.55997 -2.83045,-0.27219 -4.86196,-0.19196 -6.758,-0.88394 -6.02908,-2.04832 -12.39306,-3.54677 -18.10224,-6.48454 -4.07189,-3.27015 -6.9663,-8.32637 -7.24847,-13.57341 z m 2.95739,0.70844 c -0.11404,5.84075 4.02736,11.12115 9.76702,12.27481 6.07485,2.08528 11.72794,4.83133 17.63995,4.70119 7.89019,0.72154 16.39063,0.48996 24.10494,-1.7195 4.47227,-0.76486 7.95066,-3.50346 12.70052,-4.91926 3.02113,-1.66493 7.34528,-1.98906 9.23097,-5.10706 -5.68972,-2.75269 -11.77047,-3.66162 -17.04611,-7.03347 -6.41464,-2.45044 -12.47373,-6.07117 -17.16301,-11.33415 -3.50414,-2.54512 -8.10706,-4.54529 -9.83608,-9.17438 -3.61021,0.406 -7.82576,1.87195 -11.70146,2.89619 -7.71577,2.59926 -11.04695,10.24895 -16.21894,15.77002 -0.90514,1.10624 -1.45436,2.14354 -1.4778,3.64561 z m 2.32608,-4.68623 c 0.43859,-0.15888 -0.006,0.3803 0,0 z m 20.8184,21.26509 c 0.43256,0.16291 -0.31146,0.26691 0,0 z m -7.76894,0.42951 c 0.31411,-0.10404 -0.30613,-0.21177 0,0 z m 7.19415,-91.19092 c 0.63732,14.65637 -1.9323,30.65594 5.86524,43.85955 2.70487,5.17485 5.49246,11.32848 10.56039,13.60026 5.0943,3.90593 9.32839,9.30149 15.81199,11.06819 4.38922,1.93211 8.24371,4.35024 12.32462,5.22709 6.11745,1.88329 11.42509,4.81464 17.23416,6.09445 4.91142,1.89222 11.26074,2.44027 16.54469,2.75044 4.987,1.22323 9.83524,1.29962 14.64822,0.19742 8.51072,-0.11905 16.90462,-2.18614 24.8658,-5.02686 5.29109,-1.30961 11.24755,-1.31348 15.84346,-4.04699 5.33622,-2.58849 9.52875,-4.28645 14.38771,-7.81116 9.67621,-6.18337 17.68155,-15.19244 22.37011,-25.57558 4.83772,-6.69353 7.44639,-14.72078 10.1742,-22.39796 3.56391,-15.69004 -0.44187,-32.23328 -7.69092,-46.28325 -3.26924,-6.45468 -6.66646,-12.80476 -11.53223,-18.23263 -4.2139,-7.1698 -11.61768,-11.56852 -17.68558,-17.0251 -4.82194,-3.88247 -10.94373,-5.73882 -15.65937,-9.58598 -4.91376,-2.15694 -9.35227,-5.30757 -13.70519,-8.46307 -3.28501,-1.35517 -6.47334,-4.17317 -9.97965,-4.26847 -0.33162,0.79558 -3.26541,-2.43016 -5.58473,-2.43381 -4.73843,-1.34016 -9.08863,-0.21501 -13.98732,-0.4459 -3.74851,0.46412 -8.71714,0.80358 -12.38819,1.64741 -6.86093,1.42271 -14.43816,2.88706 -20.67566,7.1899 -5.06291,3.15367 -9.16512,6.61439 -13.355,10.78277 -4.13493,3.31168 -8.89584,7.92272 -12.95993,11.93908 -6.3368,6.29925 -10.02398,14.73483 -14.71083,21.89804 -3.77696,7.14085 -6.52618,14.49129 -8.73929,22.17395 -1.10286,4.29789 -1.49852,8.66796 -1.9767,13.16821 z m 11.41911,-36.55976 c 0.12263,0.37654 -0.16501,0.0373 0,0 z m 2.00863,-3.2087 c 0.25671,0.20186 -0.37807,0.20982 0,0 z m 10.62403,49.58942 c 2.94775,-2.15005 5.46154,3.09004 7.3895,4.7969 3.62047,4.02934 7.04405,8.54825 10.75757,12.43128 4.34467,3.21819 8.48111,8.42298 13.82369,9.0288 7.13599,1.83616 15.79281,3.64897 23.58192,3.63215 6.09263,0.20332 11.00756,-0.86938 16.76169,-1.76225 6.62835,-0.71349 12.60897,-4.26938 19.11153,-5.60899 4.50156,-1.72252 8.82663,-3.39861 13.02851,-5.88225 2.05185,-0.54491 5.80576,-3.26655 8.48851,-2.20302 1.34667,3.43534 -4.15234,2.90311 -6.01959,4.54851 -4.90966,2.47366 -10.01043,4.79593 -15.2334,6.42835 0.17844,2.45162 -1.31356,4.17738 -2.84386,6.31012 -2.11399,3.7238 -3.83208,7.88997 -6.20562,11.24876 -4.05098,-1.11901 -5.16486,-6.53001 -7.80124,-9.67272 -2.0429,-4.03869 -5.99953,-1.08439 -9.25461,-1.25693 -10.95665,1.56331 -21.71948,-0.20307 -32.34893,-2.64445 -3.50098,-0.58647 -8.05468,-2.16108 -10.77022,-4.07391 -3.12463,3.61781 -6.36095,7.01294 -7.75236,11.66665 -6.66451,-0.95518 -2.69528,-14.93179 -3.27884,-20.68776 0.0104,-5.00356 -6.38237,-7.8047 -8.6215,-12.14667 -0.69375,-1.49253 -3.47248,-2.15165 -2.81275,-4.15257 z m 14.09239,24.24589 c -0.46227,6.22472 1.09063,6.40655 3.5893,2.11918 3.08391,-2.13108 2.32678,-4.98197 -0.90902,-6.93558 -4.00734,-3.7328 -1.65783,2.58798 -2.68028,4.8164 z m 26.40499,4.01012 c -0.037,-0.16544 -0.37649,0.12321 0,0 z m 36.07083,2.56905 c 1.71685,1.66436 4.48947,10.43043 6.61353,5.06469 1.26771,-3.16521 3.5206,-5.79623 4.15156,-9.09576 -3.5754,0.94748 -7.20463,2.81764 -11.00223,3.5428 l 0.23675,0.48807 z m 11.00282,-7.1218 c -0.037,-0.16546 -0.37643,0.12331 0,0 z m -80.50022,-96.18173 c 0.16421,0.2474 -0.29513,0.20043 0,0 z m 6.06776,48.76087 c -0.35421,-10.185 4.29507,-19.59913 9.96316,-27.70652 2.28107,-2.99122 6.0655,-7.08878 8.31767,-9.71405 4.22643,-4.20535 7.9793,-7.87504 13.01013,-11.25447 3.81852,-2.38389 7.7754,-4.22374 12.41482,-5.24206 1.65633,-0.32479 4.94356,0.64743 7.19904,0.78691 5.04233,1.36855 11.04211,3.33395 15.00387,7.46184 6.42821,4.4443 11.87028,11.3658 15.2736,18.77872 6.7775,7.04849 3.6767,17.81238 1.03206,25.91068 -1.56783,5.30299 -3.6517,11.22152 -6.89691,15.18513 -2.97112,3.53606 -6.86872,7.78679 -11.65774,9.78718 -3.62417,1.86803 -6.60146,4.45281 -10.95218,5.12382 -4.205,1.06932 -10.0029,2.67501 -14.73302,2.44309 -5.64193,-0.0445 -11.11321,-0.79503 -16.42034,-2.74407 -4.00812,-1.06902 -9.85453,-3.06646 -12.66098,-6.95746 -3.25755,-4.9593 -7.95975,-9.17084 -8.30325,-15.60003 -0.27565,-2.07746 -0.72577,-4.1509 -0.58993,-6.25871 z m 2.61425,1.98044 c 0.18285,6.1651 2.35522,12.02231 6.60795,16.44455 2.89937,4.79887 7.62554,6.25176 12.66572,7.80316 6.24627,2.33068 12.85273,2.83303 19.36575,2.43985 5.93595,-0.83218 11.56086,-2.5347 16.98513,-4.87729 5.32291,-2.85542 10.33634,-6.05108 13.94402,-11.21923 4.60694,-5.54903 6.75424,-12.67568 8.6072,-19.62385 1.32544,-6.23871 2.9399,-13.6833 -2.12795,-18.67642 -3.33742,-5.90449 -6.67412,-12.7542 -12.75,-16.05996 -4.00001,-4.73895 -10.18777,-7.66953 -16.18515,-8.65581 -2.29315,-0.0714 -4.73259,-1.64751 -6.80789,-0.74099 -7.45943,2.34638 -14.41186,6.83922 -19.67106,12.90475 -4.22137,4.32791 -8.45014,9.28691 -12.51365,14.0687 -4.2374,7.27768 -8.50312,14.90838 -8.14423,23.83585 l -0.0279,0.78972 0.0526,1.56719 v -2.2e-4 z m 18.51076,-0.94336 c 0.0617,-7.4497 4.86921,-13.71098 8.2791,-20.00394 2.95268,-3.66284 6.84502,-5.87062 11.01633,-8.41084 4.12662,-1.21582 8.84902,-2.15324 12.36312,0.97105 7.15379,1.50957 10.39088,10.88189 10.55218,17.76179 -1.44874,7.34056 -4.57467,14.70826 -11.37444,18.37383 -4.4922,1.79843 -8.87142,5.66033 -14.2805,4.29364 -6.12361,-0.21653 -13.07195,-1.27331 -15.68879,-7.75291 -0.24272,-1.7555 -0.92726,-3.42799 -0.867,-5.23262 z m 8.62494,-11.9077 c 2.6282,2.44622 7.28268,2.1646 10.09147,-0.0371 3.0819,-1.08212 6.39114,-7.13585 1.71348,-8.06091 -3.3882,-1.58033 -6.87334,1.56785 -10.0916,2.9771 -1.14317,0.97018 -2.24757,3.26807 -1.71335,5.12088 z m 3.1282,-11.43278 c 0.29506,-0.20042 -0.16422,-0.2474 0,0 z m 6.19328,21.68387 c 2.2512,3.4652 10.23868,-2.18592 5.10434,-5.00473 -2.76866,-2.52593 -5.92245,2.19798 -5.10434,5.00473 z m 0.67876,-3.7306 c 0.29512,-0.20042 -0.16422,-0.2474 0,0 z m 14.99477,12.11202 c 0.30811,-0.21948 -0.30818,-0.21948 0,0 z m -28.94859,-48.61988 c 0.31811,0.22018 -0.30792,0.33024 0,0 z m 4.81045,-4.08029 c 0.31817,0.22032 -0.30805,0.33009 0,0 z m 14.22374,72.89365 c 0.22851,0.1241 -0.37058,0.0383 0,0 z m 12.84007,-4.04412 c 0.16422,0.2474 -0.29506,0.20044 0,0 z m -17.61473,-76.70946 c 0.5981,-0.19606 -0.59792,-0.0608 0,0 z m 9.11057,-0.4295 c 0.42006,-0.0663 -0.27766,-0.24152 0,0 z m 12.53644,75.16325 c 0.3061,-0.21178 -0.31409,-0.10404 0,0 z m 8.16059,-64.25384 c 0.31402,-0.10393 -0.30597,-0.21185 0,0 z m -60.58877,130.54066 c 0.38883,-0.26455 -0.0727,0.37797 0,0 z m 14.4242,-34.32493 c 0.22857,0.1241 -0.37058,0.0382 0,0 z m 84.66049,-3.55377 c 0.53882,-0.57828 0.0874,0.85781 0,0 z m -141.8017,-63.36977 c 0.21342,-0.0856 -0.0846,-0.68651 0,0 z M 447.437,772.54193 c -0.037,-0.16547 -0.37642,0.1233 0,0 z m 5.30979,-21.66275 c 0.31409,-0.10403 -0.30616,-0.21176 0,0 z m 31.0311,-172.77703 c 2.23341,4.90654 3.91442,10.39291 7.32573,14.54344 6.48698,-0.66345 12.26404,-2.16238 18.94387,-1.99688 2.44704,-0.22534 6.4577,0.86771 5.4933,-3.363 1.99471,-5.28392 5.48712,-9.40967 8.33481,-14.04966 1.12472,-2.15017 3.62248,-7.21345 -0.53954,-7.24008 -4.89356,0.31977 -7.69177,5.46477 -9.03792,9.97664 -2.71554,1.50149 -3.89818,-2.15075 -2.8758,-4.82828 -1.06264,-9.02138 2.51919,-18.59959 -0.70616,-27.24717 -1.8975,-1.73141 -3.23566,0.82078 -5.04687,1.4639 -2.72353,2.26961 -3.86604,5.2605 -4.94765,8.84489 -2.5349,7.78503 -3.35229,16.50942 -4.19085,25.18581 -4.35513,0.92283 -4.42727,-5.66574 -7.08716,-7.83092 -3.46274,-5.65014 -7.18509,3.63157 -5.66576,6.54131 z m 13.61064,-6.82017 c 0.13311,-0.66535 -0.1376,-0.12779 0,0 z m 12.58968,-28.09711 c -0.0858,-0.15039 -0.47311,0.13946 0,0 z m 9.25583,44.05319 c 0.32695,-0.30823 -0.33863,-0.1067 0,0 z m 6.37277,-23.607 c -0.037,-0.16546 -0.37643,0.1233 0,0 z M 542.01383,759.485 c -0.037,-0.16547 -0.37642,0.1233 0,0 z m 10.02563,2.25736 c 4.84071,7.71781 14.2294,9.4658 22.11233,12.12735 6.65204,3.01239 14.57219,3.64747 21.68435,4.2677 5.21953,-0.6416 10.73439,-1.21801 15.27503,-2.56178 6.63308,-1.11872 12.66079,-4.65213 16.61566,-10.16324 3.7428,-7.10483 4.34877,-18.03321 -3.56741,-22.48222 -11.60782,-6.70095 -26.5196,-5.34233 -38.69254,-0.59876 -3.82605,-0.0454 -5.95932,1.98825 -8.67863,4.62065 -7.51762,5.73511 -16.01736,10.12335 -24.68658,13.67066 l -0.19039,0.58579 0.1287,0.53351 z m -130.99012,-30.001 c 0.59795,0.0609 -0.59809,0.19607 0,0 z m 7.98814,45.1662 c 0.5158,-0.21318 0.0612,0.39905 0,0 z m 8.67666,-146.37547 c 0.31411,0.10403 -0.30613,0.21176 0,0 z m 1.18113,-1.25652 c 0.14683,0.34418 -0.44725,0.30046 0,0 z m 82.6151,-39.12915 c 0.50331,0.44584 -0.50681,-0.0399 0,0 z"
         id="path3447"
         inkscape:connector-curvature="0" />
      <path
         style="opacity:1;fill:#ff6600;fill-opacity:1;fill-rule:nonzero;stroke:#000000;stroke-width:1.02071;stroke-linecap:round;stroke-linejoin:round;stroke-miterlimit:4;stroke-dasharray:none;stroke-dashoffset:0;stroke-opacity:1"
         d="m 504.40719,765.61552 c -0.19893,-0.20369 -3.73464,-0.7297 -7.85715,-1.16893 -8.98757,-0.95755 -12.05151,-1.76382 -26.30098,-6.92107 -15.40984,-5.57723 -21.7714,-8.72588 -28.33735,-14.02559 -8.78526,-7.09102 -10.59015,-9.1415 -14.20164,-16.13401 -5.43359,-10.52042 -6.25112,-14.83221 -6.38195,-33.65931 -0.12223,-17.58971 0.47026,-21.87511 4.55959,-32.97925 4.02205,-10.92141 13.40808,-27.28607 19.44885,-33.90927 6.187,-6.78353 20.5343,-19.53968 26.06996,-23.17874 6.39528,-4.20415 10.42493,-5.74803 20.52345,-7.86314 10.36477,-2.17088 27.53544,-2.43278 30.31924,-0.46246 0.97134,0.6875 2.31072,1.25 2.97639,1.25 1.31932,0 10.29836,4.5512 12.06936,6.11759 1.20505,1.06582 9.87378,6.24843 19.11115,11.42562 8.59403,4.81663 19.56198,14.19994 25.61398,21.91331 7.51557,9.57871 14.19653,22.49949 17.82449,34.47205 1.74036,5.74335 1.95094,7.57062 1.97554,17.14286 0.0266,10.36719 -0.0486,10.92255 -2.32127,17.14286 -4.30039,11.76994 -12.35126,25.81115 -18.95129,33.05223 -7.58795,8.32495 -23.91357,18.29625 -33.03203,20.17517 -4.94479,1.01891 -10.06468,2.27999 -17.38954,4.28323 -2.94643,0.8058 -8.41071,1.76584 -12.14285,2.13341 -3.73215,0.36757 -8.23215,0.86979 -10,1.11604 -1.76786,0.24626 -3.37704,0.28108 -3.57595,0.0774 z m 25.54044,-34.111 c 1.08024,-1.99687 2.9851,-5.37158 4.23301,-7.49936 1.24791,-2.12778 2.37291,-4.3995 2.5,-5.04827 0.12709,-0.64877 1.51678,-1.62025 3.08821,-2.15887 2.39019,-0.81923 13.01491,-5.47507 16.78571,-7.35563 0.58929,-0.29388 1.07143,-1.14216 1.07143,-1.88506 0,-2.11743 -3.12614,-1.49333 -11.03261,2.20256 -10.05568,4.70054 -24.61774,9.39419 -33.46447,10.78629 -9.86562,1.55243 -21.15602,1.04419 -31.84442,-1.4335 -10.4153,-2.41438 -13.85453,-4.97234 -26.71598,-19.87036 -5.09303,-5.8995 -7.0376,-7.67857 -8.39285,-7.67857 -0.97018,0 -1.76395,0.41072 -1.76395,0.91269 0,0.50199 2.40508,3.55753 5.34463,6.79009 2.93955,3.23256 5.55099,6.69961 5.80321,7.70453 0.25222,1.00492 0.24625,5.26188 -0.0133,9.45991 -0.40407,6.5363 -0.28858,7.99162 0.80393,10.13068 1.73326,3.39364 3.1518,3.43429 4.66275,0.13362 0.68427,-1.49478 2.36662,-4.02916 3.73855,-5.63196 l 2.49443,-2.91418 4.11859,1.65723 c 7.91959,3.18666 19.41924,4.96358 30.90431,4.7753 5.69643,-0.0934 11.63408,-0.24812 13.19477,-0.34385 2.69119,-0.16507 2.95519,0.0102 5.11549,3.39737 3.38793,5.3119 5.25135,7.5 6.38713,7.5 0.55952,0 1.90115,-1.6338 2.98139,-3.63066 z m -22.41006,-32.88429 c 13.21376,-3.07169 24.78817,-11.61061 29.4132,-21.69934 3.71437,-8.10225 6.29479,-17.83336 6.3452,-23.92857 0.0379,-4.57587 -0.23416,-5.8259 -1.86516,-8.57143 -1.0502,-1.76785 -2.97711,-5.14285 -4.28202,-7.5 -2.58693,-4.67297 -10.49722,-13.05737 -15.59423,-16.52889 -5.4016,-3.67899 -11.0565,-5.46807 -17.52766,-5.54537 -8.38161,-0.10012 -14.08053,2.84732 -24.21627,12.52449 -11.37888,10.86407 -17.94825,20.41065 -20.77171,30.18535 -1.41596,4.90199 -1.63167,15.07494 -0.41373,19.51173 1.04145,3.79389 7.21895,13.09167 10.48911,15.78721 2.54965,2.10164 11.01219,5.38993 16.72598,6.49922 5.95789,1.15668 14.85821,0.85543 21.69729,-0.7344 z"
         id="path4300"
         inkscape:connector-curvature="0" />
      <path
         style="opacity:1;fill:#ff0000;fill-opacity:1;fill-rule:nonzero;stroke:#000000;stroke-width:1.02071;stroke-linecap:round;stroke-linejoin:round;stroke-miterlimit:4;stroke-dasharray:none;stroke-dashoffset:0;stroke-opacity:1"
         d="m 591.91171,777.51638 c -9.43258,-1.15282 -25.0515,-5.70277 -32.178,-9.37378 -2.77549,-1.4297 -8.01932,-6.27511 -7.41604,-6.85256 0.16958,-0.16231 4.48689,-2.4093 9.59404,-4.99329 5.10714,-2.584 11.52786,-6.48594 14.26826,-8.67099 2.7404,-2.18505 5.79397,-4.15503 6.78571,-4.37774 0.99174,-0.22271 4.3746,-1.19817 7.51746,-2.16769 17.11088,-5.27839 35.4857,-1.02774 38.83138,8.98287 3.39186,10.14879 -4.1085,21.41795 -16.49996,24.79091 -3.84406,1.04635 -16.75735,3.21242 -18.04571,3.02698 -0.39286,-0.0565 -1.67857,-0.22067 -2.85714,-0.36471 z"
         id="path4302"
         inkscape:connector-curvature="0" />
      <path
         style="opacity:1;fill:#ff0000;fill-opacity:1;fill-rule:nonzero;stroke:#000000;stroke-width:1.02071;stroke-linecap:round;stroke-linejoin:round;stroke-miterlimit:4;stroke-dasharray:none;stroke-dashoffset:0;stroke-opacity:1"
         d="m 424.05457,773.01329 c -4.91265,-0.5824 -17.73446,-4.78854 -20.88007,-6.84962 -2.13926,-1.4017 -4.47803,-6.12606 -4.4731,-9.03575 0.004,-2.39638 4.37592,-8.62901 10.58135,-15.085 3.40684,-3.54441 4.32275,-4.0137 11.4672,-5.87552 l 5.98111,-1.55866 3.32151,3.29893 c 9.35947,9.29586 20.85623,16.5179 33.56752,21.0865 7.26845,2.61236 7.5792,2.81099 6.19505,3.95974 -1.73976,1.44387 -15.93639,7.21721 -21.34764,8.68144 -5.75031,1.55598 -17.376,2.21217 -24.41293,1.37794 z"
         id="path4304"
         inkscape:connector-curvature="0" />
      <path
         style="opacity:1;fill:#ffff00;fill-opacity:1;fill-rule:nonzero;stroke:#000000;stroke-width:1.02071;stroke-linecap:round;stroke-linejoin:round;stroke-miterlimit:4;stroke-dasharray:none;stroke-dashoffset:0;stroke-opacity:1"
         d="m 487.20214,584.77749 c -3.85841,-7.89959 -4.17505,-10.36243 -1.75175,-13.62536 1.40553,-1.89252 3.07811,-0.78351 5.51382,3.65596 3.90763,7.12227 5.88515,6.59283 6.61473,-1.77094 0.70645,-8.09861 2.8646,-17.97841 4.8969,-22.41753 1.61934,-3.53712 4.98168,-6.91301 6.88524,-6.91301 1.89268,0 2.33069,4.02116 1.84227,16.91294 -0.27056,7.14141 -0.28056,13.65033 -0.0222,14.46429 0.87076,2.74353 2.94503,1.72091 4.99079,-2.46047 1.96511,-4.01655 4.52197,-6.05962 7.58349,-6.05962 1.39154,0 1.51269,0.27612 1.13698,2.59135 -0.23128,1.42524 -2.01772,5.04131 -3.96986,8.03571 -3.27537,5.02411 -5.10258,8.53912 -6.07912,11.69437 -0.30322,0.97972 -1.20255,1.25489 -4.15928,1.27263 -2.07483,0.0125 -7.14742,0.48441 -11.27242,1.0488 -4.125,0.56439 -7.73537,1.03635 -8.02304,1.0488 -0.28767,0.0124 -2.17161,-3.35262 -4.18653,-7.47792 z"
         id="path4306"
         inkscape:connector-curvature="0" />
    </g>
  </g>
</svg>
