<?xml version="1.0" encoding="UTF-8" standalone="no"?><svg id="svg11300" sodipodi:docname="1270295409.svg" inkscape:export-filename="/home/jimmac/Desktop/wi-fi.png" viewBox="0 0 44.999071 44.999027" sodipodi:version="0.32" inkscape:export-xdpi="90.000000" inkscape:output_extension="org.inkscape.output.svg.inkscape" inkscape:export-ydpi="90.000000" inkscape:version="1.3.1 (91b66b0783, 2023-11-16)" version="1.1" width="44.999073" height="44.999027" xmlns:inkscape="http://www.inkscape.org/namespaces/inkscape" xmlns:sodipodi="http://sodipodi.sourceforge.net/DTD/sodipodi-0.dtd" xmlns="http://www.w3.org/2000/svg" xmlns:svg="http://www.w3.org/2000/svg" xmlns:rdf="http://www.w3.org/1999/02/22-rdf-syntax-ns#" xmlns:cc="http://creativecommons.org/ns#" xmlns:dc="http://purl.org/dc/elements/1.1/"><defs id="defs3"><radialGradient id="radialGradient2462" gradientUnits="userSpaceOnUse" cy="47.401001" cx="28.284" gradientTransform="scale(1.1642,0.85894)" r="13.804" inkscape:collect="always"><stop id="stop2458" style="stop-color:#000000" offset="0" /><stop id="stop2460" style="stop-color:#000000;stop-opacity:0" offset="1" /></radialGradient><linearGradient id="linearGradient1553" y2="11.004" gradientUnits="userSpaceOnUse" x2="20.945" gradientTransform="matrix(1.8689,0,0,1.5088,-20.391,-10.017)" y1="25.473" x1="27.295" inkscape:collect="always"><stop id="stop13012" style="stop-color:#f5f5f5" offset="0" /><stop id="stop13014" style="stop-color:#e1e1e1" offset="1" /></linearGradient><radialGradient id="radialGradient1537" gradientUnits="userSpaceOnUse" cy="30.990999" cx="24.774" gradientTransform="matrix(3.5025,0,0,3.5025,-61.93,-72.877)" r="0.59020001" inkscape:collect="always"><stop id="stop13046" style="stop-color:#F0F0F0" offset="0" /><stop id="stop13048" style="stop-color:#848484" offset="1" /></radialGradient><linearGradient id="linearGradient9224" y2="7.46" gradientUnits="userSpaceOnUse" x2="24.919001" gradientTransform="matrix(1.9053,0,0,2.5218,-22.821,-13.246)" y1="6.1479001" x1="24.919001" inkscape:collect="always"><stop id="stop13035" style="stop-color:#F0F0F0" offset="0" /><stop id="stop13037" style="stop-color:#686868" offset="1" /></linearGradient><linearGradient id="linearGradient10002" y2="18.75" gradientUnits="userSpaceOnUse" x2="-19.5" y1="29" x1="-20.75" inkscape:collect="always"><stop id="stop6689" style="stop-color:#ffffff" offset="0" /><stop id="stop6691" style="stop-color:#ffffff;stop-opacity:0" offset="1" /></linearGradient><linearGradient id="linearGradient10012" y2="33.015999" gradientUnits="userSpaceOnUse" x2="-14.36" y1="18.516001" x1="-22.976" inkscape:collect="always"><stop id="stop6701" style="stop-color:#ff7171" offset="0" /><stop id="stop6703" style="stop-color:#cc0000" offset="1" /></linearGradient><linearGradient id="linearGradient10014" y2="28.195999" gradientUnits="userSpaceOnUse" x2="-9.7353001" y1="24.454" x1="-16.386999" inkscape:collect="always"><stop id="stop6713" style="stop-color:#5b8ccb" offset="0" /><stop id="stop6715" style="stop-color:#3465a4" offset="1" /></linearGradient><linearGradient id="linearGradient10016" y2="25.014999" gradientUnits="userSpaceOnUse" x2="-20.822001" y1="30.827999" x1="-17.863001" inkscape:collect="always"><stop id="stop6721" style="stop-color:#73d216" offset="0" /><stop id="stop6723" style="stop-color:#d5f7b3" offset="1" /></linearGradient><linearGradient id="linearGradient10026" y2="6" gradientUnits="userSpaceOnUse" x2="24.245001" y1="28.368999" x1="23.379999" inkscape:collect="always"><stop id="stop10022" style="stop-color:#ffffff" offset="0" /><stop id="stop10024" style="stop-color:#ffffff;stop-opacity:0" offset="1" /></linearGradient></defs><sodipodi:namedview id="base" bordercolor="#666666" inkscape:pageshadow="2" inkscape:window-y="-8" pagecolor="#ffffff" inkscape:showpageshadow="false" inkscape:grid-bbox="true" inkscape:zoom="11.313708" inkscape:cx="18.208" inkscape:window-height="1009" showgrid="false" borderopacity="0.25490196" inkscape:current-layer="layer1" stroke="#ef2929" inkscape:cy="18.605747" inkscape:window-x="-8" inkscape:window-width="1920" inkscape:pageopacity="0.0" inkscape:document-units="px" fill="#eeeeec" inkscape:pagecheckerboard="0" inkscape:deskcolor="#d1d1d1" inkscape:window-maximized="1" /><g id="layer1" inkscape:label="Layer 1" inkscape:groupmode="layer" transform="translate(-4.6259688,-1.013963)"><g id="g1" transform="matrix(1.077074,0,0,1.021318,-0.3719775,-0.00735495)"><path id="path10010" d="M 26.482,37.622 H 24.5 V 6 h 1.982 v 31.62 z" style="fill:#a4a4a4;stroke:#555753" inkscape:r_cy="true" inkscape:r_cx="true" /><path id="path13009" style="fill:#a4a4a4" inkscape:r_cx="true" inkscape:r_cy="true" d="M 26,37.622 H 24.982 V 6 H 26 v 31.62 z" /><path id="path13016" style="fill:url(#linearGradient1553);stroke:#888a85;stroke-linejoin:round" inkscape:r_cx="true" inkscape:r_cy="true" d="m 43.5,32.5 h -36 v -27 h 36 z" /><g id="g13020" style="fill:#a4a4a4;stroke:#555753" inkscape:r_cx="true" inkscape:r_cy="true" transform="matrix(1.539,0,0,1.539,-12.899,-11.057)"><path id="path13022" style="stroke:#555753" inkscape:r_cy="true" inkscape:r_cx="true" sodipodi:nodetypes="ccccc" d="m 31.492,35.959 -6.275,-4.638 -0.066,0.345 4.865,4.289 z" /><path id="path13024" style="stroke:#555753" inkscape:r_cy="true" inkscape:r_cx="true" sodipodi:nodetypes="ccccc" d="m 18.408,35.959 6.275,-4.638 -0.05,0.402 -4.75,4.232 z" /></g><path id="path10018" d="M 42.484,31.5 H 8.5 v -25 h 33.984 z" style="fill:none;stroke:url(#linearGradient10026)" inkscape:r_cy="true" inkscape:r_cx="true" /><path id="path13041" style="opacity:0.16;fill:#000000" inkscape:r_cx="true" inkscape:r_cy="true" d="M 37.646,5.8377 H 8 V 8 C 9.6714,5.6515 37.646,5.8377 37.646,5.8377 Z" /><rect id="rect13420" style="color:#000000;fill:#000000;fill-opacity:0.22807" inkscape:r_cy="true" inkscape:r_cx="true" height="1" width="9" y="9" x="31" /><rect id="rect9222" style="color:#000000;fill:url(#linearGradient9224);stroke:#555753" inkscape:r_cy="true" inkscape:r_cx="true" rx="1.9414999" ry="1.9414999" height="4" width="40.778999" y="1.5" x="5.1402998" /><rect id="rect9226" style="color:#000000;fill:#000000;fill-opacity:0.22807" inkscape:r_cy="true" inkscape:r_cx="true" height="1" width="9" y="11" x="31" /><rect id="rect9228" style="color:#000000;fill:#000000;fill-opacity:0.22807" inkscape:r_cy="true" inkscape:r_cx="true" height="1" width="9" y="13" x="31" /><rect id="rect9230" style="color:#000000;fill:#000000;fill-opacity:0.22807" inkscape:r_cy="true" inkscape:r_cx="true" height="1" width="9" y="15" x="31" /><rect id="rect9232" style="color:#000000;fill:#000000;fill-opacity:0.22807" inkscape:r_cy="true" inkscape:r_cx="true" height="1" width="6" y="17" x="31" /><rect id="rect9234" style="color:#000000;fill:#000000;fill-opacity:0.22807" inkscape:r_cy="true" inkscape:r_cx="true" height="1" width="23" y="22" x="11" /><rect id="rect9236" style="color:#000000;fill:#000000;fill-opacity:0.22807" inkscape:r_cy="true" inkscape:r_cx="true" height="1" width="23" y="24" x="11" /><rect id="rect9238" style="color:#000000;fill:#000000;fill-opacity:0.22807" inkscape:r_cy="true" inkscape:r_cx="true" height="1" width="23" y="26" x="11" /><rect id="rect9240" style="color:#000000;fill:#000000;fill-opacity:0.22807" inkscape:r_cy="true" inkscape:r_cx="true" height="1" width="16" y="28" x="11" /><ellipse id="path1693" style="fill:url(#radialGradient2462);fill-rule:evenodd" transform="matrix(0.51214,0,0,0.51214,2.9975,-5.7789)" inkscape:r_cy="true" inkscape:r_cx="true" cx="32.92857" cy="40.714287" rx="16.071428" ry="11.857142" /><g id="g6727" inkscape:r_cx="true" inkscape:r_cy="true" transform="matrix(0.58737,0,0,0.58737,30.846,-1.3012)"><path id="path3931" style="fill:#670000" inkscape:r_cx="true" inkscape:r_cy="true" d="m -27.529,18.093 c -2.569,1.698 -3.982,4.005 -3.982,6.498 v 2.069 c 0,2.491 1.413,4.798 3.982,6.497 2.427,1.603 5.634,2.487 9.03,2.487 3.394,0 6.601,-0.884 9.0288,-2.487 2.5678,-1.699 3.9817,-4.005 3.9817,-6.497 v -2.069 c 0,-2.493 -1.4146,-4.801 -3.9817,-6.498 -2.4268,-1.603 -5.6338,-2.487 -9.0288,-2.487 -3.396,0 -6.603,0.884 -9.03,2.487 z" /><path id="path3933" style="fill:#a40000" inkscape:r_cx="true" inkscape:r_cy="true" d="m -7.0244,24.454 c -1.3786,-3.387 -6.0526,-5.881 -11.613,-5.881 -5.559,0 -10.234,2.494 -11.612,5.881 h -0.415 v 2.07 c 0,4.39 5.385,7.948 12.027,7.948 6.643,0 12.027,-3.558 12.027,-7.948 l -3e-4,-2.07 h -0.4141 z" /><path id="path3935" style="fill:url(#linearGradient10012)" inkscape:r_cx="true" inkscape:r_cy="true" d="m -6.6103,24.454 c 0,4.39 -5.3837,7.949 -12.027,7.949 -6.642,0 -12.027,-3.559 -12.027,-7.949 0,-4.391 5.385,-7.95 12.027,-7.95 6.643,0 12.027,3.559 12.027,7.95 h -3e-4 z" /><path id="path3937" style="fill:#204a87" inkscape:r_cx="true" inkscape:r_cy="true" d="m -6.6103,26.833 -0.0154,-2.166 c -1.3041,4.5 -4.2363,6.407 -7.9233,7.341 v 1.994 c 3.99,-1.004 7.5618,-3.289 7.9387,-7.169 z" /><path id="path3939" style="fill:url(#linearGradient10014)" inkscape:r_cx="true" inkscape:r_cy="true" d="m -6.6103,24.454 c -0.2754,5.079 -6.5577,7.395 -7.9617,7.484 l -4.065,-7.484 h 12.026 z" /><path id="path3941" style="fill:#4e9a06" inkscape:r_cx="true" inkscape:r_cy="true" d="m -21.154,34.298 v -2.069 c 2.263,0.295 4.34,0.347 6.582,-0.214 l 0.023,1.988 c -1.88,0.616 -4.82,0.645 -6.605,0.296 z" /><path id="path3943" style="fill:url(#linearGradient10016)" inkscape:r_cx="true" inkscape:r_cy="true" d="m -18.637,24.454 4.065,7.484 c -2.489,0.949 -6.582,0.291 -6.582,0.291 z" /><ellipse id="path5959" style="color:#000000;display:block;opacity:0.31111;fill:none;stroke:url(#linearGradient10002);stroke-width:1.8548" transform="matrix(0.94698,0,0,0.8897,-0.98746,2.6885)" inkscape:r_cy="true" inkscape:r_cx="true" cx="-18.625" cy="24.375" rx="11.75" ry="7.75" /></g><g id="g10004" style="fill:#a4a4a4" transform="matrix(1.539,0,0,1.539,-12.899,-11.057)" inkscape:r_cy="true" inkscape:r_cx="true"><path id="path10006" d="m 30.015,35.956 1.477,0.003 -6.275,-4.638 -0.439,-0.014 5.238,4.648 z" inkscape:r_cy="true" inkscape:r_cx="true" /><path id="path10008" d="m 19.884,35.956 -1.476,0.003 6.275,-4.638 0.438,-0.014 -5.238,4.648 z" inkscape:r_cy="true" inkscape:r_cx="true" /></g><path id="path13050" style="fill:url(#radialGradient1537);stroke:#555753" inkscape:r_cx="true" inkscape:r_cy="true" d="m 27.84,36.5 c 0,1.292 -1.048,2.34 -2.34,2.34 -1.292,0 -2.34,-1.048 -2.34,-2.34 0,-1.289 1.048,-2.34 2.34,-2.34 1.292,0 2.34,1.051 2.34,2.34 z" /></g></g><metadata id="metadata1"><rdf:RDF><cc:Work><dc:format>image/svg+xml</dc:format><dc:type rdf:resource="http://purl.org/dc/dcmitype/StillImage" /><cc:license rdf:resource="http://creativecommons.org/publicdomain/zero/1.0/" /><dc:publisher><cc:Agent rdf:about="http://openclipart.org/"><dc:title>Openclipart</dc:title></cc:Agent></dc:publisher><dc:title>tango x office presentation</dc:title><dc:date>2010-04-03T11:50:09</dc:date><dc:description>An icon from Tango Project. Since version 0.8.90 Tango Project icons are Public Domain.</dc:description><dc:source>https://openclipart.org/detail/36505/tango-x-office-presentation-by-warszawianka</dc:source><dc:creator><cc:Agent><dc:title>warszawianka</dc:title></cc:Agent></dc:creator><dc:subject><rdf:Bag><rdf:li>externalsource</rdf:li><rdf:li>icon</rdf:li><rdf:li>tango</rdf:li></rdf:Bag></dc:subject></cc:Work><cc:License rdf:about="http://creativecommons.org/publicdomain/zero/1.0/"><cc:permits rdf:resource="http://creativecommons.org/ns#Reproduction" /><cc:permits rdf:resource="http://creativecommons.org/ns#Distribution" /><cc:permits rdf:resource="http://creativecommons.org/ns#DerivativeWorks" /></cc:License></rdf:RDF></metadata></svg>