<?xml version="1.0" encoding="UTF-8" standalone="no"?>
<svg
   id="Layer_1"
   xml:space="preserve"
   overflow="visible"
   viewBox="0 0 435.00001 434.99999"
   version="1.1"
   enable-background="new 0 0 429.499 448.256"
   sodipodi:docname="soccer.svg"
   width="435"
   height="435"
   inkscape:version="1.3.1 (91b66b0783, 2023-11-16)"
   xmlns:inkscape="http://www.inkscape.org/namespaces/inkscape"
   xmlns:sodipodi="http://sodipodi.sourceforge.net/DTD/sodipodi-0.dtd"
   xmlns:xlink="http://www.w3.org/1999/xlink"
   xmlns="http://www.w3.org/2000/svg"
   xmlns:svg="http://www.w3.org/2000/svg"
   xmlns:rdf="http://www.w3.org/1999/02/22-rdf-syntax-ns#"
   xmlns:cc="http://creativecommons.org/ns#"
   xmlns:dc="http://purl.org/dc/elements/1.1/"><sodipodi:namedview
   id="namedview129"
   pagecolor="#ffffff"
   bordercolor="#666666"
   borderopacity="1.0"
   inkscape:showpageshadow="2"
   inkscape:pageopacity="0.0"
   inkscape:pagecheckerboard="0"
   inkscape:deskcolor="#d1d1d1"
   inkscape:zoom="1.0105832"
   inkscape:cx="214.72749"
   inkscape:cy="224.12801"
   inkscape:window-width="1920"
   inkscape:window-height="1009"
   inkscape:window-x="-8"
   inkscape:window-y="-8"
   inkscape:window-maximized="1"
   inkscape:current-layer="Layer_1" />



















































	<defs
   id="defs47">
		<polyline
   id="XMLID_1_"
   points="21.426 123.72 36.625 137.12 37.414 133.02 39.738 128.66 42.555 129.1 40.03 136.8 40.611 137.67 42.063 141.45 44.39 147.26 46.741 154.91 43.807 155.98 36.25 163.54 28.693 164.12 21.135 159.18 12.997 154.82 7.474 154.82 2.822 152.79 4.276 150.17 7.765 148.42 6.31 146.1 4.857 142.9 4.857 139.42 11.252 140 12.706 139.42 9.217 130.98 10.813 129.79 15.613 130.11 17.357 130.98 16.774 124.88 20.262 123.72 21.426 123.72" />
	</defs>
	<clipPath
   id="XMLID_3_">
		<use
   xlink:href="#XMLID_1_"
   id="use47" />
	</clipPath>

















































































<g
   id="g129"
   transform="translate(3.1,-0.00254519)"><path
     d="m 387.38,231.56 c 8.174,0 14.8,-6.625 14.8,-14.797 0,-8.174 -6.626,-14.799 -14.8,-14.799 -8.173,0 -14.798,6.625 -14.798,14.799 0.01,8.17 6.63,14.8 14.8,14.8"
     fill="#ffffff"
     id="path1" /><path
     d="m 344.22,155.69 2.616,3.488 c 0,0 -4.359,23.108 6.105,31.393 l 8.72,114.67 0.872,9.157 c 0,0 -6.54,-5.232 -8.284,-0.873 -1.745,4.36 -4.736,18.779 -2.181,39.241 0.436,3.488 0,1.308 0,1.308 l -6.976,2.181 c 0,0 -1.744,-53.63 -9.593,-50.141 -7.849,3.489 -11.336,-3.054 -20.056,38.368 l -9.886,-0.173 c 0,0 19.478,-36.452 10.757,-51.276 -8.721,-14.824 -15.261,-8.284 -19.184,17.44 l 5.231,-26.16 c 0,0 12.644,-16.133 6.104,-20.057 -6.54,-3.925 -1.308,-4.797 -1.308,-4.797 l -9.157,9.156 -4.796,-4.359 12.645,-17.877 c 0,0 -2.616,-13.517 -31.829,-4.36 -29.213,9.157 -16.568,4.36 -16.568,4.36 0,0 43.36,-14.475 42.173,-22.061 -1.188,-7.587 -17.756,-25.028 -22.988,-25.464 -5.232,-0.436 34.445,22.237 36.625,20.493 2.181,-1.744 9.799,-11.597 7.849,-32.265 0,0 9.592,19.62 12.208,13.516 2.616,-6.104 12.003,-43.95 12.003,-43.95"
     fill="#ffffff"
     id="path2" /><polyline
     points="197.78 340.12 210.33 343.61 212.98 379.8 194.64 381.98 197.28 364.1 195.54 355.38 194.64 340.82"
     fill="#ffffff"
     id="polyline2" /><path
     d="m 372.12,305.24 c 27.851,0 57.118,-31.883 57.118,-56.245 0,-34.826 -34.832,-60.756 -57.157,-60.756 -33.373,0 -60.429,27.055 -60.429,60.431 0.01,33.37 27.1,56.57 60.47,56.57"
     fill="#d1eefc"
     id="path3" /><path
     d="m 313.69,246.88 c 0.197,32.571 26.762,58.817 59.335,58.622 32.568,-0.195 55.979,-26.981 55.784,-59.553 -0.176,-29.436 -34.409,-58.533 -56.496,-58.4 -32.56,0.19 -58.81,26.76 -58.61,59.33"
     fill="#d2eefc"
     id="path4" /><path
     d="m 312,246.5 c 0.39,31.776 26.467,57.22 58.244,56.829 31.778,-0.39 57.223,-26.467 56.831,-58.246 -0.391,-31.776 -26.469,-57.22 -58.245,-56.83 -31.77,0.4 -57.22,26.48 -56.82,58.25"
     fill="#d3eefc"
     id="path5" /><path
     d="m 319.08,245.76 c 0.78,30.188 25.885,54.029 56.075,53.249 30.188,-0.779 54.029,-25.885 53.252,-56.073 -0.784,-30.189 -25.889,-54.032 -56.076,-53.25 -30.19,0.77 -54.03,25.88 -53.25,56.07"
     fill="#d5effc"
     id="path6" /><path
     d="m 320.88,245.38 c 0.974,29.396 25.595,52.436 54.988,51.462 29.395,-0.977 52.433,-25.596 51.461,-54.988 -0.977,-29.396 -25.596,-52.437 -54.989,-51.46 -29.4,0.98 -52.44,25.6 -51.46,54.99"
     fill="#d6f0fc"
     id="path7" /><path
     d="m 322.67,245.01 c 1.169,28.601 25.303,50.837 53.903,49.669 28.598,-1.169 50.838,-25.301 49.669,-53.902 -1.167,-28.599 -25.301,-50.839 -53.903,-49.667 -28.6,1.17 -50.84,25.3 -49.67,53.9"
     fill="#d7f0fc"
     id="path8" /><path
     d="m 324.47,244.64 c 1.363,27.807 25.011,49.244 52.816,47.88 27.807,-1.363 49.243,-25.011 47.879,-52.817 -1.361,-27.804 -25.009,-49.242 -52.815,-47.879 -27.82,1.36 -49.26,25.01 -47.89,52.82"
     fill="#d8f0fc"
     id="path9" /><path
     d="m 326.27,244.26 c 1.56,27.013 24.719,47.646 51.73,46.089 27.013,-1.558 47.648,-24.719 46.089,-51.73 -1.557,-27.011 -24.719,-47.646 -51.73,-46.088 -27.02,1.56 -47.65,24.72 -46.09,51.73"
     fill="#d9f1fd"
     id="path10" /><path
     d="m 328.06,243.89 c 1.751,26.219 24.428,46.053 50.646,44.298 26.216,-1.753 46.049,-24.428 44.298,-50.643 -1.752,-26.218 -24.427,-46.052 -50.646,-44.299 -26.21,1.75 -46.05,24.42 -44.3,50.64"
     fill="#daf1fd"
     id="path11" /><path
     d="m 329.86,243.52 c 1.949,25.425 24.138,44.456 49.56,42.51 25.425,-1.947 44.456,-24.136 42.511,-49.56 -1.948,-25.423 -24.137,-44.456 -49.559,-42.509 -25.42,1.95 -44.46,24.13 -42.51,49.56"
     fill="#dbf2fd"
     id="path12" /><path
     d="m 331.66,243.14 c 2.142,24.63 23.842,42.858 48.472,40.718 24.629,-2.143 42.86,-23.845 40.719,-48.472 -2.142,-24.63 -23.843,-42.861 -48.472,-40.719 -24.63,2.14 -42.86,23.84 -40.72,48.47"
     fill="#ddf2fd"
     id="path13" /><path
     d="m 333.46,242.77 c 2.336,23.833 23.553,41.261 47.386,38.926 23.836,-2.334 41.266,-23.552 38.928,-47.386 -2.336,-23.835 -23.551,-41.264 -47.385,-38.929 -23.85,2.34 -41.28,23.56 -38.94,47.39"
     fill="#def2fd"
     id="path14" /><path
     d="m 335.25,242.4 c 2.531,23.041 23.263,39.669 46.303,37.138 23.041,-2.528 39.667,-23.26 37.137,-46.301 -2.53,-23.041 -23.26,-39.668 -46.3,-37.137 -23.04,2.52 -39.67,23.26 -37.14,46.3"
     fill="#dff3fd"
     id="path15" /><path
     d="m 337.05,242.02 c 2.726,22.245 22.969,38.071 45.213,35.348 22.246,-2.727 38.072,-22.97 35.349,-45.218 -2.727,-22.245 -22.97,-38.069 -45.218,-35.346 -22.24,2.73 -38.07,22.98 -35.34,45.22"
     fill="#e0f3fd"
     id="path16" /><path
     d="m 338.85,241.65 c 2.92,21.452 22.677,36.478 44.127,33.558 21.453,-2.919 36.478,-22.678 33.559,-44.128 -2.92,-21.454 -22.678,-36.476 -44.131,-33.556 -21.46,2.92 -36.48,22.68 -33.56,44.13"
     fill="#e1f3fd"
     id="path17" /><path
     d="m 340.65,241.28 c 3.112,20.657 22.383,34.881 43.042,31.768 20.658,-3.115 34.881,-22.387 31.766,-43.043 -3.112,-20.66 -22.386,-34.881 -43.043,-31.768 -20.67,3.1 -34.89,22.38 -31.77,43.04"
     fill="#e2f4fd"
     id="path18" /><path
     d="m 342.44,240.9 c 3.31,19.862 22.094,33.285 41.96,29.976 19.861,-3.308 33.283,-22.094 29.975,-41.958 -3.308,-19.862 -22.093,-33.283 -41.956,-29.975 -19.87,3.31 -33.29,22.1 -29.98,41.96"
     fill="#e3f4fd"
     id="path19" /><path
     d="m 344.24,240.53 c 3.502,19.068 21.802,31.688 40.873,28.184 19.066,-3.503 31.686,-21.801 28.184,-40.871 -3.502,-19.068 -21.801,-31.688 -40.871,-28.186 -19.07,3.51 -31.68,21.81 -28.18,40.88"
     fill="#e4f5fd"
     id="path20" /><path
     d="m 346.04,240.15 c 3.697,18.275 21.512,30.094 39.784,26.396 18.277,-3.698 30.096,-21.512 26.396,-39.787 -3.696,-18.273 -21.512,-30.091 -39.784,-26.394 -18.29,3.7 -30.1,21.51 -26.4,39.78"
     fill="#e5f5fd"
     id="path21" /><path
     d="m 347.83,239.78 c 3.892,17.482 21.219,28.497 38.701,24.606 17.48,-3.894 28.497,-21.22 24.603,-38.701 -3.889,-17.479 -21.218,-28.498 -38.696,-24.604 -17.47,3.88 -28.49,21.21 -24.6,38.69"
     fill="#e6f5fd"
     id="path22" /><path
     d="m 349.63,239.41 c 4.084,16.688 20.927,26.902 37.614,22.816 16.687,-4.086 26.899,-20.927 22.813,-37.613 -4.087,-16.688 -20.928,-26.903 -37.611,-22.814 -16.68,4.07 -26.9,20.91 -22.81,37.6"
     fill="#e7f6fd"
     id="path23" /><path
     d="m 351.43,239.03 c 4.28,15.892 20.637,25.304 36.528,21.023 15.891,-4.281 25.305,-20.636 21.022,-36.526 -4.279,-15.893 -20.634,-25.306 -36.527,-21.026 -15.89,4.3 -25.3,20.65 -21.02,36.54"
     fill="#e8f6fd"
     id="path24" /><path
     d="m 353.22,238.66 c 4.475,15.098 20.343,23.709 35.438,19.235 15.101,-4.478 23.712,-20.345 19.236,-35.443 -4.476,-15.098 -20.343,-23.709 -35.443,-19.235 -15.1,4.47 -23.71,20.34 -19.24,35.44"
     fill="#e9f7fe"
     id="path25" /><path
     d="m 355.02,238.29 c 4.671,14.304 20.053,22.112 34.356,17.444 14.304,-4.67 22.113,-20.053 17.443,-34.356 -4.669,-14.305 -20.05,-22.113 -34.356,-17.444 -14.3,4.67 -22.11,20.05 -17.44,34.36"
     fill="#e9f7fe"
     id="path26" /><path
     d="m 356.82,237.91 c 4.865,13.51 19.761,20.518 33.271,15.654 13.51,-4.866 20.516,-19.761 15.651,-33.271 -4.863,-13.511 -19.76,-20.518 -33.269,-15.653 -13.51,4.87 -20.52,19.76 -15.65,33.27"
     fill="#eaf7fe"
     id="path27" /><path
     d="m 358.62,237.54 c 5.06,12.715 19.468,18.923 32.184,13.863 12.715,-5.057 18.923,-19.468 13.864,-32.183 -5.06,-12.716 -19.471,-18.923 -32.187,-13.862 -12.71,5.05 -18.91,19.46 -13.85,32.18"
     fill="#ebf7fe"
     id="path28" /><path
     d="m 360.41,237.16 c 5.254,11.921 19.178,17.328 31.096,12.074 11.923,-5.254 17.328,-19.176 12.075,-31.097 -5.255,-11.922 -19.178,-17.328 -31.099,-12.075 -11.92,5.26 -17.32,19.18 -12.07,31.1"
     fill="#ecf8fe"
     id="path29" /><path
     d="m 362.21,236.79 c 5.447,11.127 18.885,15.731 30.011,10.284 11.128,-5.449 15.731,-18.887 10.283,-30.014 -5.448,-11.125 -18.887,-15.73 -30.012,-10.282 -11.12,5.45 -15.73,18.88 -10.28,30.01"
     fill="#edf8fe"
     id="path30" /><path
     d="m 364.01,236.42 c 5.642,10.331 18.593,14.134 28.924,8.489 10.332,-5.643 14.133,-18.594 8.492,-28.924 -5.641,-10.332 -18.592,-14.135 -28.925,-8.492 -10.34,5.64 -14.14,18.58 -8.49,28.92"
     fill="#eef9fe"
     id="path31" /><path
     d="m 365.8,236.04 c 5.835,9.539 18.303,12.54 27.84,6.701 9.538,-5.836 12.539,-18.302 6.7,-27.839 -5.835,-9.538 -18.299,-12.539 -27.839,-6.702 -9.53,5.84 -12.53,18.31 -6.7,27.84"
     fill="#eff9fe"
     id="path32" /><path
     d="m 367.6,235.67 c 6.031,8.744 18.012,10.942 26.755,4.91 8.743,-6.031 10.942,-18.008 4.909,-26.754 -6.028,-8.742 -18.009,-10.941 -26.752,-4.91 -8.75,6.03 -10.95,18.01 -4.92,26.75"
     fill="#f0f9fe"
     id="path33" /><path
     d="m 369.4,235.3 c 6.228,7.948 17.719,9.345 25.668,3.12 7.949,-6.227 9.351,-17.718 3.123,-25.668 -6.227,-7.949 -17.72,-9.346 -25.67,-3.12 -7.95,6.23 -9.35,17.72 -3.12,25.67"
     fill="#f1fafe"
     id="path34" /><path
     d="m 371.19,234.92 c 6.42,7.155 17.427,7.751 24.582,1.33 7.156,-6.42 7.751,-17.427 1.332,-24.582 -6.422,-7.157 -17.427,-7.753 -24.584,-1.333 -7.15,6.42 -7.75,17.43 -1.33,24.58"
     fill="#f3fafe"
     id="path35" /><path
     d="m 372.99,234.55 c 6.615,6.361 17.134,6.155 23.497,-0.46 6.359,-6.615 6.155,-17.135 -0.46,-23.495 -6.615,-6.361 -17.136,-6.157 -23.497,0.458 -6.361,6.615 -6.15,17.13 0.46,23.49"
     fill="#f4fbfe"
     id="path36" /><path
     d="m 374.79,234.18 c 6.81,5.568 16.844,4.562 22.409,-2.249 5.566,-6.808 4.559,-16.843 -2.251,-22.409 -6.81,-5.567 -16.842,-4.559 -22.41,2.25 -5.57,6.81 -4.56,16.84 2.25,22.41"
     fill="#f5fbfe"
     id="path37" /><path
     d="m 376.58,233.8 c 7.004,4.773 16.552,2.965 21.325,-4.039 4.774,-7.005 2.967,-16.551 -4.039,-21.325 -7.005,-4.774 -16.553,-2.965 -21.325,4.04 -4.77,7 -2.96,16.55 4.04,21.32"
     fill="#f6fbfe"
     id="path38" /><path
     d="m 378.38,233.43 c 7.198,3.979 16.26,1.37 20.237,-5.829 3.979,-7.198 1.37,-16.261 -5.828,-20.239 -7.201,-3.98 -16.262,-1.369 -20.239,5.83 -3.98,7.2 -1.37,16.26 5.83,20.24"
     fill="#f7fcfe"
     id="path39" /><path
     d="m 380.18,233.06 c 7.395,3.185 15.969,-0.229 19.153,-7.622 3.186,-7.394 -0.228,-15.969 -7.619,-19.152 -7.396,-3.183 -15.97,0.227 -19.152,7.62 -3.18,7.39 0.23,15.96 7.62,19.15"
     fill="#f8fcff"
     id="path40" /><path
     d="m 381.98,232.68 c 7.587,2.389 15.676,-1.824 18.066,-9.414 2.39,-7.585 -1.823,-15.676 -9.411,-18.065 -7.588,-2.39 -15.676,1.824 -18.067,9.411 -2.39,7.6 1.82,15.68 9.41,18.07"
     fill="#fafdff"
     id="path41" /><path
     d="m 383.77,232.31 c 7.781,1.597 15.384,-3.421 16.979,-11.203 1.597,-7.782 -3.418,-15.383 -11.201,-16.979 -7.78,-1.598 -15.384,3.418 -16.98,11.2 -1.59,7.78 3.42,15.38 11.2,16.98"
     fill="#fbfeff"
     id="path42" /><path
     d="m 385.57,231.93 c 7.979,0.803 15.094,-5.014 15.895,-12.99 0.804,-7.978 -5.014,-15.094 -12.99,-15.896 -7.978,-0.8 -15.094,5.016 -15.895,12.994 -0.8,7.99 5.02,15.1 12.99,15.9"
     fill="#fdfeff"
     id="path43" /><polyline
     points="208.91 279.23 214.14 272.83 217.66 274.55 214.14 285.62 209.98 286.76 208.91 279.23"
     fill="#404040"
     id="polyline43" /><polyline
     points="236.24 328.64 228.1 327.48 220.54 333.3 214.72 347.25 211.73 367.68 210.66 383.87 212.4 390.27 217.66 399.07 224.61 394.34 221.14 382.33 226.35 371.66 232.16 354.22 236.49 344.31 238.56 336.78 236.24 328.64"
     fill="#bfbfbf"
     id="polyline44" /><polyline
     points="216.18 233.59 205.13 245.22 202.52 254.81 206.59 265.28 214.14 272.83 223.44 278.65 237.4 288.53 247.28 296.67 256.58 300.74 263.56 299.58 266.46 292.6 266.46 284.46 260.91 284.66 258.32 285.62 250.19 282.14 249.02 274 245.54 269.93 242.63 262.37 235.65 260.04 235.65 253.65 229.84 252.49 229.26 243.77 222.28 240.86 221.12 235.63 214.72 236.21"
     fill="#bfbfbf"
     id="polyline45" /><polyline
     points="272.86 315.27 276.35 301.32 276.35 285.62 283.9 267.6 289.72 264.11 295.53 265.28 303.09 273.42 301.37 286.06 295.53 296.67 293.21 312.37 290.3 323.41 286.81 329.22 279.25 331.55 272.86 328.64 270.53 322.83 271.7 317.6"
     fill="#808080"
     id="polyline46" /><path
     d="m 146.5,253.27 c 0,0 -4.443,24.796 -2.7,25.957 1.745,1.163 -3.579,5.088 -3.579,5.088 l -8.629,-2.762 -4.651,-2.907 -3.488,-5.232 -1.164,-4.068 -4.649,2.325 11.045,15.696 6.396,3.488 5.232,0.582 2.325,1.162 7.556,7.557 -4.068,6.396 4.068,6.396 5.232,2.324 9.883,-1.744 6.976,-6.394 2.12,-8.866 -12.003,4.795 -4.649,1.745 -2.327,-1.745 -2.325,-9.301 -6.396,-5.814 4.651,-4.648 -0.581,-6.396 -3.488,-9.301 2.325,-9.303 -2.325,-2.324"
     fill="#ed1c24"
     id="path46" /><path
     d="m 150.48,259.75 31.974,-22.384 c 0,0 18.896,-8.429 22.091,-6.685 3.197,1.744 11.046,0.872 11.627,2.907 0.581,2.034 -11.046,11.626 -11.046,11.626 0,0 -4.649,16.279 -0.289,18.604 4.36,2.325 -3.488,7.268 -3.488,7.268 l 6.393,10.464 4.943,4.94 18.601,7.849 -0.38,27.645 0.38,3.46 c 0,0 -12.507,2.556 -16.425,15.375 -3.918,12.819 -12.352,4.099 -17.001,-2.587 -4.651,-6.687 -1.163,0.292 -1.163,0.292 0,0 2.325,-14.535 5.812,-15.407 3.487,-0.872 -9.301,-37.205 -14.824,-36.915 -5.523,0.29 -26.161,18.894 -29.938,18.603 l -8.72,-16.86 3.197,-6.685 -4.36,-18.312 2.63,-3.2"
     fill="#9b6f41"
     id="path47" /><polyline
     points="40.611 127.79 46.134 130.4 44.68 136.8 46.423 145.23 48.75 153.66 53.69 161.22 65.318 173.42 74.911 178.07 83.631 180.11 95.839 198.71 92.932 202.78 88.572 206.27 83.631 207.43 75.491 205.69 62.12 196.97 49.04 184.76 35.669 168.77 33.925 165.58 27.821 165.28 18.81 157.14 10.09 155.98 4.566 154.53 1.95 151.04 6.893 149.59 10.09 148.42 7.183 145.23 5.232 140.61 6.602 138.25 12.415 140.29 13.869 141.45 9.217 130.98 10.381 128.95 15.613 128.66 17.066 126.92 17.647 123.43 22.298 123.72 34.533 138.51 38.575 134.47 40.611 127.79"
     fill="#9b6f41"
     id="polyline47" /><polyline
     points="236.82 146.68 252.22 148.72 284.78 152.79 298.73 149.3 311.23 151.04 324.02 154.53 328.96 154.24 330.41 157.73 326.34 161.22 321.4 161.5 328.38 164.41 327.8 169.94 323.15 169.94 314.14 164.12 308.61 166.45 310.65 171.97 309.19 178.36 306.58 179.24 301.93 174.3 295.82 173.42 289.72 170.81 273.73 170.22 258.91 171.68 247.57 171.97 237.69 170.52 238.56 156.56 236.82 146.68"
     fill="#9b6f41"
     id="polyline48" /><path
     d="m 83.048,174.51 c 0,0 4.438,-5.951 9.547,-14.131 5.106,-8.181 10.884,-18.591 13.562,-27.508 l 16.132,-4.796 6.977,3.488 1.744,-5.232 6.104,-3.706 c 0,0 1.595,7.661 6.318,11.955 4.721,4.292 12.569,5.22 25.074,-8.249 l 4.795,5.669 9.811,-3.489 2.833,1.308 c 0,0 9.315,4.666 19.57,8.493 10.257,3.825 23.463,8.236 27.23,4.877 0,0 3.476,5.181 5.388,14.022 1.917,8.841 0.259,19.916 -14.025,28.854 0,0 -1.709,-2.289 -4.613,-4.306 -2.902,-2.017 -7.002,-3.76 -11.78,-2.67 -4.781,1.09 -5.426,0.981 -4.878,0.599 0.55,-0.381 2.293,-1.035 2.293,-1.035 0,0 0.021,12.913 1.269,25.837 1.245,12.926 6.622,29.93 11.522,29.973 0,0 -5.446,-5.307 -14.534,-3.488 -22.22,4.447 -36.029,17.398 -52.321,27.033 l -1.598,-3.779 -2.18,0.582 -29.649,15.114 12.208,26.16 -8.14,0.583 -8.139,0.581 c 0,0 -5.4,-2.668 -10.208,-7.308 -4.807,-4.64 -9.022,-11.252 -6.65,-19.146 -10e-4,0 3.912,-6.584 8.377,-18.125 4.463,-11.542 9.477,-28.037 11.68,-47.857 h -3.488 l -5.959,-0.436 -5.959,-0.437 c 0,0 -5.457,-5.374 -10.477,-11.738 -5.007,-6.32 -9.585,-13.68 -7.825,-17.65"
     fill="#ed1c24"
     id="path48" /><path
     d="m 148.94,163.28 c 0,0 25.669,0.841 30.029,-2.356 4.361,-3.197 0.873,0 0.873,0 l 6.104,19.766 -9.009,18.023 -1.455,23.834 -20.346,5.814 v -12.789 l 6.976,-32.556 v -1.453 l -15.407,3.486 0.872,-8.719 0.582,-13.371"
     fill="#fff200"
     id="path49" /><path
     d="m 144.96,23.145 h 16.569 l 10.463,1.744 14.825,18.313 5.232,13.081 0.491,17.353 2.997,13.167 -1.962,16.568 -10.452,13.866 -9.386,7.063 -5.961,0.262 2.092,3.139 -5.069,4.229 -12.72,3.792 -9.735,-0.086 -3.868,-4.447 1.688,-11.686 -5.668,-5.668 -6.977,-12.208 -6.104,-1.744 c 0,0 -19.185,-7.848 2.616,-28.777 21.8,-20.928 18.312,-44.473 18.312,-44.473"
     fill="#9b6f41"
     id="path50" /><path
     d="m 199.17,1.43 c 1.744,1.048 3.14,-0.347 4.883,1.048 2.093,3.488 7.325,6.278 5.93,11.51 0.696,1.395 2.441,2.792 2.441,4.536 -2.092,4.883 -2.092,10.812 -6.627,14.649 -3.838,4.187 -9.07,4.536 -14.303,3.488 -1.044,1.395 -2.09,3.139 -1.044,4.883 4.185,3.488 1.744,9.768 3.487,14.302 -5.581,5.232 2.093,12.208 -1.396,17.79 5.93,9.069 6.279,22.672 1.046,32.091 -3.138,3.835 -5.93,9.067 -10.464,11.51 -0.35,3.139 -3.838,6.278 -6.627,8.371 -2.093,0.349 -3.838,1.395 -5.582,2.094 3.138,-1.046 1.046,4.534 4.882,3.139 2.792,-3.837 7.676,-3.837 11.861,-3.139 2.092,5.93 -5.581,0.698 -8.372,3.139 -5.232,1.744 -4.533,7.325 -6.976,11.163 -3.835,4.883 -9.068,9.766 -15.347,8.371 -0.697,-0.349 -0.697,-0.698 -0.697,-1.395 1.744,-2.093 4.882,-0.698 6.976,-2.093 4.883,-3.139 9.417,-8.371 8.72,-14.65 l -3.141,-3.489 1.048,-1.045 c -2.441,-0.699 -6.976,0.349 -7.325,-3.139 1.744,-2.093 3.488,0 5.233,0 5.581,0 10.812,-2.443 13.252,-7.674 0.351,0 1.048,0 1.397,0.349 3.835,-6.627 10.464,-12.907 11.51,-21.278 1.745,-7.673 -0.349,-14.998 -2.79,-21.278 l 0.347,-0.347 c -3.137,-2.792 1.048,-10.465 -3.137,-13.605 0.697,-2.091 -1.396,-2.79 -1.745,-4.534 -4.882,-1.395 -3.838,-7.325 -9.767,-6.627 -3.139,0.349 -6.976,0 -9.417,-1.744 -2.095,-2.442 -2.095,-5.93 -1.745,-8.372 -3.488,-4.186 -0.35,-14.999 -9.417,-13.255 2.79,1.744 2.79,5.582 5.232,7.674 0.698,5.581 6.279,12.905 -0.35,16.742 -3.836,1.048 -6.627,3.488 -9.768,5.582 -6.277,-2.093 -4.533,6.627 -10.114,5.93 -4.535,4.185 2.441,10.464 -3.838,14.3 0.699,2.094 -0.348,4.536 -2.789,5.581 -1.396,1.048 -3.837,0 -4.884,1.396 -0.697,-2.091 -2.441,-4.185 -4.186,-5.58 -3.838,0.348 -8.371,2.091 -9.07,6.278 -1.044,4.534 -0.347,9.418 3.141,12.557 2.091,2.441 4.883,2.791 8.023,2.791 1.045,1.395 -0.699,2.791 -2.093,2.791 -5.582,-0.349 -9.767,-4.885 -11.859,-9.768 -8.372,-2.441 -7.325,-12.208 -12.208,-17.79 0,-4.185 -4.535,-7.324 -1.744,-11.859 1.045,-1.395 2.092,-3.488 0.697,-4.883 -2.79,0 -4.884,-4.187 -7.673,-1.395 -4.187,1.395 -7.675,4.883 -12.208,3.488 -5.232,-3.488 -12.905,-7.325 -13.254,-14.651 1.394,-4.534 -1.396,-10.464 4.185,-13.603 0.349,-2.443 1.745,-4.883 4.186,-6.278 3.14,0 4.535,-3.488 6.279,-5.581 7.325,0.697 14.649,-2.442 18.834,5.581 1.744,2.79 1.744,6.278 2.443,9.417 1.395,1.047 3.488,1.395 4.883,1.047 4.882,-3.141 5.581,-8.373 11.162,-9.768 5.929,0.698 9.07,-6.627 15.348,-3.837 4.533,-3.139 10.464,-0.697 15.348,-2.091 2.791,0.348 4.882,4.534 8.022,2.44 0.698,-2.79 3.488,-3.139 5.93,-3.488 4.535,2.093 9.418,0 13.952,3.139 1.744,-3.139 -3.838,-6.976 0,-10.464 4.186,-1.744 1.047,-9.067 7.326,-8.022 2.093,-5.581 9.765,-3.488 13.952,-3.488 v 1.044"
     id="path51" /><path
     d="m 189.06,28.289 c 1.047,2.094 0,4.187 -0.697,6.278 -2.792,-1.744 -1.396,-6.627 -5.583,-6.976 -1.044,-0.697 -1.394,-2.092 -2.44,-2.79 2.09,-4.186 7.32,0.349 8.72,3.488"
     fill="#00adef"
     id="path52" /><path
     d="m 106.74,39.799 c 0.349,3.488 -4.187,3.488 -4.187,6.28 -0.697,2.44 0.699,6.277 -2.789,7.672 -1.396,0.35 -2.093,-0.347 -2.443,-1.744 -1.394,-5.928 5.932,-6.976 4.536,-12.905 1.75,0.35 2.79,1.046 4.89,0.697"
     fill="#00adef"
     id="path53" /><path
     d="m 184.17,65.264 c -3.141,3.488 -7.674,-3.139 -11.512,1.046 l -1.744,-1.745 c 1.395,-1.395 2.791,-2.093 4.882,-2.44 2.79,0.347 7.32,0.347 8.37,3.139"
     id="path54" /><path
     d="m 161.85,64.565 c 0.699,3.488 -3.488,1.396 -4.882,2.443 -2.791,1.395 -4.883,2.79 -7.673,3.488 0,-4.187 5.579,-5.232 8.371,-7.326 1.39,0.699 2.78,0 4.18,1.395"
     id="path55" /><path
     d="m 185.22,74.681 c -1.396,1.396 -0.35,4.186 -2.791,4.535 -1.397,-0.349 -2.442,-1.047 -3.488,-2.093 0,-0.699 0.348,-1.745 -0.35,-2.094 -1.395,0 -2.792,2.792 -3.835,0 1.044,-1.744 2.788,-3.139 4.533,-3.836 2.79,0 4.88,1.396 5.93,3.488"
     id="path56" /><path
     d="m 165.68,76.774 c 0,1.395 -1.395,2.442 -2.441,3.837 -2.441,0.35 -4.885,-1.744 -5.232,-3.837 l -4.186,3.139 c -1.744,-0.697 0,-2.091 0,-3.139 2.79,-2.79 9.77,-6.278 11.86,0"
     id="path57" /><path
     d="m 126.27,91.424 c 0,0.697 0,1.396 -0.697,2.093 -2.094,0.347 -2.791,-2.093 -3.139,-3.488 0.348,-1.744 1.045,-3.837 3.139,-4.535 1.39,1.395 -0.7,4.535 0.7,5.93"
     id="path58" /><path
     d="m 179.99,87.937 c -0.35,2.79 -3.837,4.185 -5.581,5.928 -3.839,-0.347 -8.721,3.141 -11.162,-1.744 v -0.697 c 3.835,-1.395 9.767,3.139 12.906,-2.093 0.69,-1.045 2.43,-4.186 3.83,-1.394"
     id="path59" /><path
     d="m 184.52,100.84 c -1.044,1.396 -2.091,0 -3.137,-0.348 -1.046,5.58 -5.583,10.115 -11.162,11.859 -3.141,-0.349 -6.628,-0.349 -9.07,-2.442 -3.139,-2.093 -1.395,-8.022 -4.882,-8.022 -0.698,0.697 -1.745,2.093 -2.791,0.697 1.745,-2.441 3.138,-6.627 6.279,-6.976 0.697,0.349 1.047,1.047 0.697,2.093 l -1.046,1.048 c 3.488,4.533 10.116,2.091 15,1.395 2.441,-1.744 6.625,-2.442 6.625,-6.28 2.44,0.693 2.08,4.88 3.48,6.97"
     id="path60" /><path
     d="m 176.85,102.58 c -0.697,3.837 -4.186,5.93 -7.324,6.629 -3.14,-0.35 -7.325,0 -7.676,-4.187 2.094,0 4.536,-1.046 6.976,-0.699 0,1.397 0.351,2.094 1.397,2.792 1.046,0.697 1.744,-0.349 2.441,-1.047 -1.4,-3.48 2.78,-2.78 4.18,-3.48"
     fill="#ffffff"
     id="path61" /><path
     d="m 156.96,122.82 c 1.046,-0.699 2.441,-0.699 3.138,0.697 -1.045,3.837 -5.929,1.744 -8.721,1.744 -10.812,0 -18.137,-10.116 -21.625,-18.835 0,-1.046 -1.395,-2.441 0.349,-2.791 4.88,9.77 13.25,20.58 26.85,19.19"
     id="path62" /><path
     d="m 29.649,129.79 6.976,7.325 c -1.395,-2.791 0,-5.93 1.396,-8.373 1.395,-2.44 4.534,-2.44 6.627,-1.744 7.673,4.187 -2.442,11.512 3.837,15.697 0.348,9.418 4.534,17.44 11.51,23.021 0.349,0.698 2.093,1.395 1.046,2.093 l -1.395,1.395 c -5.232,-3.139 -8.372,-10.464 -12.906,-14.301 2.092,-3.139 0,-8.022 -1.744,-11.161 1.046,-2.792 -3.14,-7.325 -0.349,-10.813 -0.697,-1.395 -0.697,-3.139 -2.093,-3.837 -3.139,-0.696 -2.79,2.791 -3.488,4.536 0.698,5.58 -5.581,8.022 -4.534,13.952 -1.046,1.395 -2.442,0.348 -2.791,-1.047 0.349,-2.791 0.697,-5.929 2.791,-8.022 -4.187,-5.232 -9.418,-8.721 -13.604,-13.953 H 17.79 c -1.046,4.883 4.535,8.72 7.325,12.905 -0.349,0.698 -1.395,2.442 -2.093,1.048 -4.884,-3.139 -5.929,-9.419 -12.208,-8.721 -0.349,5.232 4.185,8.022 7.324,12.208 -0.697,1.045 1.744,2.79 -0.348,3.837 -3.837,-2.094 -7.673,-7.325 -12.557,-5.232 0.349,6.278 8.372,4.185 10.116,9.417 -3.837,2.443 -8.372,-0.349 -12.208,1.744 5.581,4.536 15.347,0.699 19.184,7.675 3.139,3.488 7.325,4.185 11.859,4.185 0.349,1.047 1.744,1.047 1.395,2.093 -3.14,3.139 -6.977,0 -10.116,-0.697 -2.441,-2.442 -5.581,-3.141 -7.325,-6.279 -6.278,-1.75 -15.697,-0.35 -18.138,-8.03 1.396,-2.442 4.186,-2.093 6.279,-3.139 -2.791,-2.093 -5.232,-5.232 -3.139,-8.373 1.395,-2.441 4.533,-1.744 6.627,-1.395 0.697,-3.139 -4.186,-5.581 -2.094,-9.07 2.094,-3.835 9.07,1.397 7.675,-5.231 0.697,-2.79 4.534,-1.396 6.627,-1.046 3.488,1.39 4.186,5.93 7.674,7.32"
     id="path63" /><path
     d="m 141.62,131.54 c 3.139,2.79 6.976,3.488 10.464,4.184 4.533,-1.744 11.51,-1.045 12.208,-6.976 h 2.092 c 1.396,1.745 0,4.187 -2.092,4.885 -0.699,0 -1.744,0.347 -2.443,-0.349 -0.697,4.534 -5.928,4.185 -9.067,5.232 -5.232,-1.048 -11.511,-1.745 -14.301,-7.326 -1.048,-2.443 -1.396,-6.278 0,-8.72 4.18,1.06 0.35,6.3 3.14,9.09"
     id="path64" /><path
     d="m 132.9,128.75 c -1.396,3.489 -1.046,8.721 0.348,12.558 4.534,6.976 12.208,6.279 18.836,8.72 0.349,3.489 -4.535,1.744 -6.627,1.744 -5.93,-1.395 -11.859,-5.231 -14.65,-10.115 -2.441,-3.139 0.349,-9.418 -5.232,-10.464 -6.627,-2.79 -12.906,0.698 -17.791,4.883 -1.045,2.443 -2.789,5.232 -4.533,7.325 -3.14,-2.79 2.092,-6.278 2.789,-9.418 6.628,-5.928 15.349,-8.022 23.72,-3.835 1.396,-2.093 2.094,-5.93 5.232,-6.628 4.17,2.1 -2.1,2.79 -2.1,5.24"
     id="path65" /><path
     d="m 231.61,142.35 c 3.84,-0.349 5.231,4.883 9.07,1.744 3.138,1.744 8.37,-0.35 10.465,3.488 7.675,0.348 16.046,1.745 23.719,3.488 9.067,0 18.139,0.696 25.813,-3.488 5.232,-0.698 8.37,2.79 13.254,2.79 2.442,2.443 7.325,0 9.767,2.443 1.396,-1.397 3.835,-0.698 5.579,-0.349 2.444,1.395 2.444,3.837 1.743,5.928 l -3.137,3.141 c 2.093,1.396 3.838,3.488 3.137,5.929 -2.09,6.28 -10.113,1.047 -12.207,7.674 -2.439,0.696 -3.837,-1.047 -5.928,-1.744 -1.396,2.44 -0.349,6.977 -4.187,7.673 -5.231,-1.046 -8.72,-8.72 -15.696,-6.277 -4.883,-4.534 -12.559,-3.489 -18.139,-4.187 -6.629,0.349 -14.3,2.442 -20.93,1.047 l 2.443,-1.744 c 10.464,-2.093 23.021,-2.442 33.137,-1.048 4.187,6.629 14.65,0 17.09,9.07 2.095,1.047 2.793,-1.046 3.141,-2.79 1.396,-4.186 -6.277,-5.931 -3.835,-9.418 4.882,1.395 9.415,-6.278 13.254,0.698 0.349,-0.698 1.045,-0.349 1.743,-0.698 0.35,2.093 2.442,3.139 4.534,2.792 1.048,0.347 1.744,-0.698 2.442,-1.396 0.698,-1.395 -0.351,-2.441 -1.395,-2.79 -4.188,-2.093 -10.115,-0.698 -11.859,-6.278 3.487,-1.396 7.323,3.488 11.859,1.046 0.696,-0.349 1.395,-1.046 2.093,-1.745 0,-1.045 0,-2.79 -1.743,-2.79 -10.117,3.488 -17.441,-6.628 -27.21,-3.837 -14.997,8.721 -32.787,0.35 -48.134,-0.698 l -1.048,-2.093 c -4.185,2.442 -8.021,-3.139 -12.556,0 2.789,6.976 1.744,14.65 1.046,21.976 3.837,1.744 8.72,-1.048 12.907,1.046 0,3.837 -5.232,1.395 -6.977,2.093 l -6.24,-1.04 c -1.394,4.185 -3.487,8.721 -7.672,10.464 -2.792,-2.792 3.139,-4.187 3.487,-6.976 2.791,-9.418 5.233,-23.021 -2.092,-31.045 -16.046,2.442 -30.348,-4.534 -42.903,-13.254 1.744,-1.744 3.835,-0.349 5.579,0.349 10.46,7.32 23.02,11.51 36.62,10.81"
     id="path66" /><path
     d="m 101.68,147.39 c -2.789,10.464 -9.068,19.881 -17.788,27.556 -0.698,0 -1.047,-0.698 -1.745,-1.395 v -1.06 c 10.812,-6.627 12.906,-17.44 18.138,-26.857 l 1.4,1.75"
     id="path67" /><path
     d="m 345.32,156.65 c -2.442,13.953 -3.489,28.603 -10.465,40.462 -2.095,1.048 -4.884,2.094 -7.327,1.048 -2.438,-1.397 -4.184,-4.187 -5.232,-6.28 -0.348,6.627 0.7,15.348 -1.044,21.278 9.069,-12.558 21.973,-20.23 35.578,-23.719 0.698,0.348 1.047,1.046 1.047,2.092 -2.094,2.093 -5.231,1.047 -7.326,2.442 -2.094,1.046 -4.533,1.744 -6.627,3.139 1.396,0.349 3.14,1.048 2.441,2.792 -2.441,3.14 -2.092,6.976 -3.141,10.812 5.232,2.792 11.164,4.536 16.746,6.977 0.347,1.396 -0.698,1.744 -1.396,2.442 l 5.579,0.699 3.141,18.835 c -0.696,0.696 -3.141,-0.35 -2.441,1.395 1.044,1.046 2.789,-1.744 3.489,0.699 -1.048,2.44 -3.838,4.185 -5.582,6.277 l -10.114,9.418 -2.095,-2.441 c -2.094,1.046 -1.045,3.139 -2.441,4.187 -5.58,-1.745 -11.511,-2.792 -16.393,-6.977 -1.745,4.534 -4.536,9.766 -9.421,11.859 l -1.394,-1.048 c 4.534,-2.789 6.278,-8.021 9.767,-11.51 -3.488,-4.187 -2.092,-10.813 -4.886,-15.348 0.701,-2.791 0,-6.279 -3.137,-6.279 -1.395,-0.348 -3.487,0.698 -4.186,-1.395 -0.349,-0.697 0.348,-1.046 0.698,-1.396 9.767,2.79 14.997,-8.022 20.577,-13.952 0.352,-5.582 2.444,-10.464 4.537,-15.347 l -0.35,-0.699 c -3.836,2.094 -7.325,4.187 -10.463,7.325 1.044,2.094 7.325,1.745 4.531,5.232 -2.438,0.35 -4.183,-2.442 -6.275,-3.488 -17.441,14.998 -22.674,40.461 -15,61.39 3.141,1.046 7.675,-2.093 10.117,0.697 -1.051,7.674 8.021,12.208 9.066,19.533 5.58,1.396 10.812,2.094 16.745,1.048 2.788,-4.187 7.672,-6.629 10.464,-10.813 3.488,2.789 -3.139,4.185 -3.837,6.977 l -4.534,5.58 c 8.371,3.837 17.091,10.116 26.508,4.187 6.28,0.697 9.418,-3.838 12.907,-8.372 1.045,-3.487 4.186,-6.977 6.976,-8.72 l 1.046,0.698 c -6.278,4.534 -6.629,12.207 -11.511,17.788 4.188,4.884 8.722,1.047 12.559,-1.395 7.325,-5.582 13.252,-12.209 17.44,-19.534 -3.14,-0.697 -2.791,-7.674 -6.976,-3.836 -2.793,2.44 -6.28,6.278 -9.768,4.883 -0.349,-0.698 0.347,-0.698 0.697,-1.047 -6.627,-0.349 -14.304,-3.836 -20.929,-2.79 0.698,-7.675 3.838,-15.696 3.838,-24.417 1.044,-1.744 3.487,-1.744 3.837,-3.837 l -2.094,-1.046 12.559,-11.163 c -0.699,-4.533 -2.794,-9.417 -1.397,-13.952 1.397,0.349 1.048,2.093 1.744,2.792 0.698,4.184 1.745,8.72 2.092,12.904 4.537,2.094 12.208,1.048 13.257,8.024 0,1.046 -0.349,2.44 0.349,3.139 0.697,-3.838 2.09,-6.977 4.884,-10.115 0.695,-0.698 1.744,0 2.091,1.046 0,2.093 -2.439,3.139 -3.487,4.533 -1.045,7.325 -2.79,14.651 -3.487,22.325 -1.397,1.046 -2.441,2.79 -2.092,4.883 3.487,-0.697 3.138,3.838 6.277,3.838 6.626,-12.558 5.232,-27.558 3.137,-41.161 1.049,-0.349 1.397,1.048 2.096,1.396 5.93,21.626 -0.352,43.253 -15.697,58.602 -14.997,14.302 -37.323,20.929 -56.854,14.302 -17.441,-2.793 -34.186,-19.186 -40.113,-35.58 -6.281,-13.952 -4.537,-33.486 1.744,-47.09 -1.744,-1.045 -4.187,-0.698 -6.281,-1.744 -10.464,-5.582 -19.186,-16.046 -29.299,-23.022 -0.698,-1.395 1.047,-0.697 1.744,-1.395 9.767,7.326 17.79,17.091 28.604,22.323 4.883,1.395 6.278,-3.139 7.324,-6.278 0.698,-7.675 2.092,-16.395 -1.397,-23.72 l 1.745,-1.745 c 1.396,1.745 2.094,-1.045 3.487,-0.697 1.744,3.489 2.443,8.372 6.977,10.116 3.839,1.045 5.932,-3.488 6.628,-5.931 3.836,-10.812 4.886,-23.02 7.324,-34.532 1.02,-0.33 1.02,1.06 2.06,1.41"
     id="path68" /><path
     d="m 181.38,159.09 c 1.744,6.627 3.487,13.952 5.231,19.882 -0.35,0.697 -1.744,1.046 -2.094,0.348 -3.488,-4.883 -3.488,-10.812 -5.231,-16.393 -9.417,0 -20.929,5.231 -30.346,0.349 0.697,-3.837 4.185,0.347 6.628,-0.349 8.37,-0.7 17.44,-1.74 25.81,-3.84"
     id="path69" /><path
     d="m 207.89,177.23 v 19.881 c -0.698,0.699 -1.046,1.744 -2.093,1.395 l -1.395,-1.395 c 0.348,-10.813 1.744,-23.021 -2.79,-32.438 0.347,-0.698 1.395,-1.395 2.09,-0.349 3.14,3.5 3.14,8.39 4.19,12.92"
     id="path70" /><path
     d="m 348.11,170.95 c -0.696,6.279 2.441,11.511 3.835,17.091 -0.347,1.047 -2.092,1.047 -2.438,0.349 -3.488,-6.976 -6.628,-16.743 -2.093,-24.766 4.54,0.7 -0.35,4.54 0.7,7.33"
     id="path71" /><path
     d="m 148.59,166.42 c 0.698,5.232 0,10.813 -1.046,16.045 5.58,1.046 10.812,-4.884 16.394,-1.396 -3.838,11.163 -8.022,22.672 -8.022,35.58 -0.349,0.698 -1.048,0.698 -2.093,0.698 l -0.699,-0.698 c 0.699,-11.859 3.141,-23.022 7.326,-33.137 -4.883,-0.699 -9.767,2.442 -14.649,2.442 -3.141,-5.931 2.79,-12.558 0,-18.837 0.35,-0.68 1.75,-2.78 2.79,-0.68"
     id="path72" /><path
     d="m 318.46,171.65 c -3.141,0.697 -4.186,-2.093 -4.186,-4.535 1.4,1.04 4.54,1.74 4.19,4.53"
     fill="#9b6f41"
     id="path73" /><path
     d="m 58.6,190.84 c 0,1.046 -0.349,1.744 -1.046,2.093 h -1.046 c -8.721,-7.326 -14.65,-15.696 -21.975,-24.417 1.046,-2.093 2.441,0 3.488,0.347 5.93,7.67 12.557,16.04 20.579,21.98"
     id="path74" /><path
     d="m 115.8,168.86 c -2.093,8.024 0.349,18.139 1.396,25.813 1.045,20.23 -3.14,39.764 -9.419,57.901 -2.091,9.768 -15.346,17.093 -9.067,28.253 2.441,4.884 8.022,7.675 10.812,11.163 -1.044,2.441 -3.488,0.35 -4.533,0 -5.932,-5.581 -12.558,-11.512 -10.116,-20.232 0.697,-3.139 4.535,-4.533 3.837,-8.021 12.555,-15.696 12.906,-37.323 16.394,-57.204 -4.883,1.045 -11.512,0.349 -14.303,-4.187 2.791,-0.697 6.28,1.048 9.419,1.744 8.72,-0.349 2.789,-11.161 3.488,-16.393 -1.396,-6.279 -2.791,-13.605 1.396,-18.837 h 0.69"
     id="path75" /><path
     d="m 69.414,174.79 12.557,4.186 c 0.349,-0.698 0.349,-1.396 1.046,-1.744 3.139,3.139 3.835,8.022 6.279,11.51 3.488,3.837 7.673,8.371 10.464,12.208 -1.046,2.094 -2.093,-0.698 -3.488,-0.349 -1.396,4.536 -5.931,7.325 -10.464,8.371 -9.767,-1.744 -19.882,-5.232 -25.115,-14.3 3.488,0 6.278,4.534 9.418,6.278 6.627,2.094 14.65,9.07 21.277,2.094 1.047,-1.048 2.093,-3.14 3.837,-3.14 -4.885,-5.93 -10.464,-11.86 -12.558,-18.837 -1.395,1.744 -3.139,0 -4.883,0 -4.883,-3.488 -13.255,-3.488 -14.65,-10.464 2.442,-0.01 4.187,2.09 6.28,4.18"
     id="path76" /><path
     d="m 222.89,183.16 c -2.789,2.442 -4.185,-2.79 -6.976,-2.79 -2.441,0 -5.233,-1.048 -7.323,-0.699 1.395,-4.882 6.976,-1.395 9.767,-1.395 1.74,1.04 4.53,2.09 4.53,4.88"
     id="path77" /><path
     d="m 186.26,183.51 c -7.324,8.022 -7.324,18.835 -9.765,28.951 0.348,1.744 1.044,4.885 -0.349,6.628 -1.046,1.046 -2.094,0 -2.442,-1.047 0.698,-12.905 2.091,-25.462 9.768,-35.578 1.04,0 2.09,0 2.78,1.05"
     id="path78" /><path
     d="m 229.17,183.86 c 0,2.093 -2.442,2.44 -4.186,2.79 -1.047,0.699 -1.395,-1.046 -2.441,-1.046 1.05,-1.74 4.88,-4.18 6.63,-1.74"
     id="path79" /><path
     d="m 423.45,222.23 c -0.349,1.046 -1.044,0.349 -1.744,0.696 -3.138,-4.883 -4.882,-10.812 -10.114,-14.299 -2.094,3.139 -5.231,5.58 -8.72,7.323 l -1.045,-1.395 c 0,1.744 -2.095,1.744 -3.141,2.792 -5.929,-5.582 -13.254,-7.675 -19.533,-12.558 -6.281,3.837 -9.418,10.813 -16.395,12.905 l -0.351,-0.348 c 5.232,-3.837 9.42,-8.72 13.604,-13.256 -4.185,-2.79 -6.628,-8.021 -10.812,-11.858 0.348,-1.046 2.092,-1.046 2.439,-0.35 l 9.769,10.813 c 3.489,0.699 2.438,-3.488 4.884,-3.837 l 6.976,-5.232 c -7.325,-3.837 -16.743,-2.79 -24.766,-4.185 l 1.046,-1.744 c 24.75,-1.4 47.77,12.2 57.88,34.53"
     id="path80" /><path
     d="m 207.89,202.69 c 2.093,9.766 3.489,19.534 8.372,27.905 l -2.094,1.744 c 3.141,2.093 7.675,0.349 9.07,5.232 -0.351,3.487 3.487,2.789 5.232,4.187 3.837,2.789 2.093,9.067 7.324,10.464 5.232,2.091 -0.698,8.371 5.93,8.371 5.93,2.093 0.698,9.417 7.323,10.813 1.743,1.744 1.743,4.185 1.396,6.627 2.442,3.139 4.885,5.582 8.373,6.278 0.347,-1.395 1.395,-2.441 2.789,-2.441 2.443,-0.698 4.534,0.697 6.279,1.745 2.091,-8.722 8.022,-18.489 16.743,-23.022 3.488,0 5.581,-0.349 9.069,0.349 3.487,-4.884 9.415,-8.372 9.767,-14.65 -2.443,-3.487 -6.628,-4.883 -10.115,-5.931 -6.977,1.048 -14.652,1.048 -20.58,4.187 -0.349,-0.349 -1.049,-1.046 -0.698,-1.743 8.37,-4.187 21.278,-8.022 29.998,-1.745 2.093,2.442 5.581,4.884 4.185,8.022 -2.789,4.885 -7.323,9.418 -10.812,13.952 2.79,1.396 5.927,3.838 8.022,6.629 1.744,5.58 1.393,11.858 -2.096,16.393 -3.137,-1.045 -4.184,3.838 -7.671,2.093 -1.743,-0.697 -1.743,-2.789 -2.794,-3.836 -1.044,1.395 -1.743,3.487 -3.487,4.186 -2.092,1.047 -4.882,0 -5.927,-2.093 -0.35,-2.442 0.694,-4.187 1.743,-5.931 1.745,-1.744 4.534,-2.091 6.627,-1.046 l 1.396,2.093 c 1.744,-1.743 4.187,-1.743 6.625,-1.743 l 2.444,2.093 c 2.093,-2.791 1.744,-7.674 0.35,-10.812 -2.093,-3.838 -5.582,-5.232 -9.069,-6.977 -21.629,9.069 -5.932,38.02 -20.232,52.32 -0.347,1.047 0.698,1.745 1.048,2.791 1.395,-2.791 4.883,-3.139 6.976,-3.488 -0.699,-1.396 -0.349,-3.139 -0.349,-4.533 1.394,-2.095 3.487,-2.095 5.581,-2.442 1.395,0 3.139,0.697 3.139,2.442 0.35,2.439 -0.351,4.533 -2.442,6.277 h -3.835 c -0.699,2.093 -0.699,3.138 0,5.232 0.694,-3.838 5.232,-3.14 7.671,-3.488 2.095,-0.696 2.444,-4.186 2.794,-6.278 l 0.347,-12.558 c 3.141,-1.744 -0.347,-3.837 1.396,-5.93 1.395,-2.092 1.744,-4.185 4.183,-5.93 l 2.444,1.745 c 5.582,-7.675 10.464,-18.14 6.627,-27.557 -2.79,-1.744 -3.839,4.534 -5.583,0 1.397,-3.141 4.885,-2.791 6.977,-2.791 5.932,6.279 0.699,14.302 1.396,21.626 -5.232,6.278 -8.022,13.604 -13.952,19.534 0,11.511 -1.396,26.508 -13.255,31.044 -6.977,2.094 -10.464,-4.536 -16.741,-2.093 -3.838,-2.79 -9.419,-4.534 -10.117,-9.767 -4.185,-0.698 -10.812,0.696 -12.557,-5.232 0,-2.791 1.047,-5.232 3.836,-5.931 0.348,0 0.348,-0.348 0.698,-0.348 -2.094,-3.838 -6.977,-5.93 -10.464,-8.022 -11.162,-0.699 -1.743,11.16 -4.535,17.44 0,1.744 0,3.487 -1.743,3.837 -0.697,0 -1.048,-0.698 -1.744,-1.397 1.047,-7.672 0,-17.787 -0.697,-25.462 -5.93,-3.139 -11.512,-7.325 -18.487,-8.371 -2.792,-3.138 -2.792,-6.627 -6.976,-8.72 -2.093,-2.094 -2.093,-4.883 -2.792,-7.675 2.443,0 2.443,-2.44 4.187,-3.487 -0.349,-3.838 -3.838,-5.582 -3.489,-9.767 0,-7.674 5.232,-15.347 11.51,-18.835 0.698,0.696 1.046,1.395 1.046,2.091 -6.627,3.838 -10.114,11.163 -9.068,18.838 1.395,5.928 8.371,10.114 12.556,13.254 -0.348,3.139 -5.232,2.441 -5.58,5.931 -0.7,1.743 -1.046,4.534 0.348,5.929 h 1.046 l 4.882,-9.767 c 5.232,0 9.07,6.976 14.652,8.372 3.837,2.093 8.72,5.58 10.464,9.765 -2.094,-0.347 -3.837,1.745 -4.883,3.489 1.395,4.535 7.323,4.884 10.464,8.72 1.744,2.093 5.232,4.535 7.671,1.743 2.096,-1.045 1.049,-3.138 2.445,-4.185 -5.933,-0.698 -11.165,-4.535 -15.349,-8.37 6.628,-1.397 12.557,8.021 18.836,2.79 5.93,-3.14 -1.047,-7.325 2.44,-10.814 -1.045,-1.045 -2.092,-2.439 -3.487,-1.395 h -0.697 c 0,2.093 0.697,4.534 -1.743,6.278 -1.048,0.349 -1.744,-0.696 -2.445,-1.046 4.538,-4.187 -3.137,-3.488 -3.487,-6.277 -8.369,0 -2.092,-18.489 -10.812,-9.07 -0.697,0 -1.047,1.046 -1.745,0.697 l -1.045,-1.396 c 2.442,-2.44 4.186,-5.581 3.137,-8.721 -1.044,-3.139 -4.183,-2.789 -6.624,-3.487 -1.396,1.744 -2.095,4.187 -4.884,3.837 -2.093,-3.837 6.627,-5.581 4.533,-10.115 -2.092,-2.791 -6.278,-3.488 -9.068,-2.094 -3.487,0.699 -3.837,8.022 -7.325,4.187 1.744,-4.187 6.279,-6.628 10.115,-8.022 1.396,-2.094 -0.698,-3.838 -1.743,-5.232 -3.837,-4.534 -8.022,5.581 -10.116,0 2.441,-1.395 4.884,-3.14 3.837,-6.278 -1.396,-3.139 -4.884,-1.048 -7.325,-1.395 0,-1.048 -1.046,-3.838 1.046,-4.536 -5.582,-7.325 -6.976,-17.44 -9.069,-26.857 l 0.698,-5.232 c 1.69,0.01 0.99,2.11 1.69,2.8"
     id="path81" /><path
     d="m 302.77,224.32 c -11.862,12.905 -34.184,9.766 -49.182,5.928 l -1.743,-1.743 c 1.395,-3.14 2.438,1.047 4.182,0.697 14.305,2.79 31.744,4.534 43.603,-4.882 -2.789,-9.07 -11.16,-16.744 -19.88,-20.232 1.744,-2.093 5.232,0 7.671,1.048 8.02,4.17 11.16,12.54 15.35,19.17"
     id="path82" /><path
     d="m 156.96,226.41 c 5.581,-1.046 11.162,-3.139 17.09,-4.883 0.7,1.047 2.094,1.395 1.744,2.792 -2.091,2.441 -5.579,0.696 -8.02,1.744 l -12.908,4.185 c -2.091,-2.44 -2.091,-6.626 -1.394,-10.115 l 1.394,-1.046 c 2.45,1.76 0.01,5.6 2.1,7.34"
     id="path83" /><path
     d="m 211.73,231.99 c -4.186,2.094 -8.72,-2.093 -12.906,0.35 -0.697,-0.35 -1.395,-0.698 -1.046,-1.744 3.838,-2.79 8.72,-1.744 12.904,-0.698 0.36,0.7 1.41,1.05 1.06,2.09"
     id="path84" /><path
     d="m 195.33,231.99 c -0.699,4.187 -5.232,2.094 -7.675,4.187 -11.861,3.488 -21.277,13.952 -31.741,20.929 l -3.837,4.534 c 0,-0.35 -0.699,-0.35 -1.046,-0.35 -5.232,9.769 8.371,18.139 -0.349,26.51 3.837,3.14 4.535,8.372 5.582,13.256 16.743,0 28.951,-14.65 40.46,-25.812 1.048,0.349 0.7,2.093 0.351,2.791 l -8.023,8.371 c 6.977,5.581 8.023,14.302 10.813,22.324 1.396,5.231 1.046,11.511 5.232,15.696 -1.397,2.441 -4.535,0 -4.884,3.487 0.349,3.838 -4.185,10.813 2.792,12.208 3.139,2.093 8.372,1.048 11.859,0.698 1.745,-6.626 6.626,-14.65 13.952,-16.045 0.35,-1.046 1.745,-2.093 2.442,-1.046 1.047,1.046 1.395,2.44 1.395,4.185 -1.743,1.396 -4.535,-0.35 -6.278,0.698 -10.115,2.44 -4.186,19.881 -16.044,14.999 -4.186,0.698 -9.069,-0.35 -12.558,-3.489 -1.395,1.395 -1.048,4.188 -0.348,5.582 3.487,3.837 9.068,5.232 14.3,3.837 1.396,-1.048 1.396,-4.187 4.185,-3.139 1.047,2.439 -2.092,4.883 -2.441,7.672 -0.697,4.537 -0.697,9.419 -1.744,13.604 -1.744,0.35 -2.792,-1.395 -3.138,-2.439 1.744,-1.396 0.347,-3.14 0.697,-4.884 -4.186,-1.048 -7.673,-1.396 -11.859,-1.048 1.045,6.977 -3.14,17.092 5.581,18.836 2.093,-0.348 5.928,1.048 5.582,-2.441 0,-2.791 0.347,-4.883 1.395,-6.976 0.696,0 1.046,0.697 1.744,1.045 -1.048,7.675 -0.348,15 0.697,23.022 5.582,0 -0.348,5.93 5.231,6.278 2.095,0.349 3.489,-0.349 4.886,-2.092 1.744,-2.093 -1.745,-4.885 1.395,-6.279 4.535,0.349 3.487,6.627 8.372,6.977 1.395,2.093 5.232,3.138 7.325,5.231 4.183,-0.696 6.977,3.838 9.415,6.279 1.396,3.488 2.444,8.721 0.352,12.556 -0.698,1.397 -2.443,2.442 -3.489,3.489 1.046,2.791 0.35,6.278 -2.441,7.674 -5.232,1.744 -8.372,-9.419 -10.813,0 -1.395,1.046 -2.791,2.094 -4.535,1.744 -2.789,-1.045 -3.138,-3.488 -3.138,-5.931 -1.395,0.698 -6.977,2.442 -8.023,-1.395 -1.394,-2.441 1.744,-3.489 1.396,-6.278 -4.188,-3.139 -8.023,-9.068 -14.302,-9.068 0,3.138 -2.79,5.93 -5.232,6.976 -2.441,0.697 -3.838,-0.698 -4.883,-2.443 0.349,-1.395 -0.349,-2.789 0.697,-4.185 l -0.697,-0.348 c -1.396,1.395 -1.744,4.532 -4.534,4.882 -1.745,0 -3.838,-1.046 -4.536,-2.789 -0.697,-1.396 -1.046,-4.188 0.35,-5.582 -2.093,-1.743 -2.791,-5.232 -2.443,-7.675 5.932,-5.579 -3.488,-12.904 3.838,-18.486 6.976,1.047 1.046,-8.37 8.022,-7.674 -1.046,-6.977 2.092,-16.043 -3.141,-21.975 -2.788,-5.581 5.232,-6.277 3.141,-11.859 2.092,-2.791 0.348,-5.581 1.396,-8.72 1.046,-3.488 1.744,-6.976 3.836,-9.768 -3.487,-11.51 -3.836,-25.113 -12.557,-34.184 -4.186,3.838 -8.372,7.326 -12.906,10.116 1.744,2.093 0.349,5.232 -0.351,7.325 -1.045,1.395 -2.092,3.14 -3.835,3.487 -2.441,-2.442 3.488,-5.93 0.697,-8.72 -4.535,1.395 -7.326,8.72 -13.255,6.627 -8.023,-4.185 -2.792,-16.045 -12.208,-19.185 1.744,-1.395 3.837,-2.789 4.535,-5.231 -0.697,-7.674 -5.93,-17.79 -0.35,-25.463 4.187,1.744 4.884,-3.488 8.373,-4.535 l 18.835,-14.3 c 5.929,-2.094 11.511,-5.582 17.789,-6.977 l 0.66,0.67"
     id="path85" /><path
     d="m 386.13,244.9 c 0.348,1.046 -0.697,1.395 -1.05,2.093 -4.88,-3.837 -11.856,-3.141 -16.044,-7.325 5.581,-1.395 10.812,3.488 16.396,4.883 0,0.36 0.34,0.71 0.69,0.36"
     id="path86" /><path
     d="m 140.57,243.85 c 2.092,1.048 4.535,1.744 6.976,2.094 1.046,1.047 0,2.442 -0.697,3.139 -7.675,-5.929 -20.231,2.442 -26.161,-6.977 2.789,-1.744 4.883,1.048 7.325,1.744 h 12.55"
     id="path87" /><path
     d="m 152.78,248.04 c 0,0.698 -1.047,1.046 -1.397,1.396 -0.696,0.349 -1.044,-0.35 -1.744,-0.697 0.35,-0.698 -0.697,-2.442 1.047,-2.442 0.69,0 1.04,1.04 2.09,1.74"
     id="path88" /><path
     d="m 160.45,248.74 c -0.35,1.046 -2.094,1.744 -3.139,0.697 -0.699,-0.697 -1.046,-2.094 0.348,-2.791 1.05,0.34 2.44,0.69 2.79,2.09"
     id="path89" /><path
     d="m 216.61,248.74 c -2.094,2.79 -5.232,5.579 -3.141,9.067 -0.348,4.536 11.161,6.629 4.185,9.419 -4.533,-3.488 -9.066,-8.021 -7.672,-13.604 0.69,-2.45 4.18,-6.64 6.62,-4.89"
     id="path90" /><path
     d="m 148.94,255.02 c -1.744,3.139 -4.536,5.93 -4.536,10.114 -0.347,6.28 4.536,15.696 -4.185,19.186 -4.883,1.047 -9.069,-1.395 -13.256,-2.791 -3.488,-3.487 -3.835,-8.022 -6.626,-11.511 l -1.046,0.349 c 1.046,7.326 6.279,15.696 13.953,18.836 l 9.069,1.048 c 3.139,3.837 8.023,5.929 7.674,11.161 0.697,3.141 -3.139,4.535 -1.396,7.325 3.139,4.882 9.418,4.535 14.65,3.138 2.091,-0.347 3.835,-3.835 5.579,-2.092 0,3.836 -3.835,4.186 -6.625,5.581 -5.93,0.349 -13.255,0 -16.743,-6.279 -0.698,-3.837 -5.581,-3.837 -8.372,-6.277 -5.93,-9.069 -17.44,0.348 -24.766,-6.628 l -2.092,-1.744 c 3.836,-2.441 6.976,2.442 11.509,1.744 2.094,-0.349 4.885,0.349 6.28,-1.744 -4.186,-4.883 -4.186,-11.161 -9.418,-15.697 -1.395,-3.139 -2.441,-10.115 -7.674,-6.277 -3.141,-0.35 -4.535,2.79 -5.929,4.187 -0.349,2.091 1.744,4.184 2.441,5.929 -2.79,1.395 -3.837,-1.745 -4.884,-3.838 -1.045,-3.836 2.792,-6.277 5.232,-8.72 3.488,-0.348 7.676,-2.441 10.465,-1.744 10.117,-3.14 18.836,-10.115 28.254,-14.999 1.06,-0.36 1.4,1.39 2.45,1.74"
     id="path91" /><path
     d="m 142.66,258.85 c -6.626,7.325 6.976,25.812 -9.765,21.625 -5.232,-0.696 -6.976,-6.627 -8.372,-10.812 5.58,-3.49 12.55,-5.93 18.13,-10.82"
     fill="#fff200"
     id="path92" /><path
     d="m 361.37,270.01 c 2.093,0.349 1.744,2.442 2.788,3.837 l -1.744,1.396 c 5.933,0.349 12.209,-0.697 17.439,-2.79 l 1.397,1.744 c -5.929,1.743 -11.51,3.837 -18.486,3.139 -2.442,-5.232 -6.627,-11.161 -10.815,-16.394 v -1.743 c 4.18,2.08 6.27,7.32 9.41,10.8"
     id="path93" /><path
     d="m 242.77,282.22 c 0.349,0.699 0,2.442 -1.047,2.792 -6.628,-5.232 -13.254,-10.465 -18.837,-16.744 2.095,-1.395 4.535,1.396 6.28,2.792 l 13.61,11.16"
     id="path94" /><path
     d="m 295.09,269.67 c 0.697,1.744 0,4.185 -1.395,5.58 -1.396,2.442 -4.187,0.349 -5.931,0 -1.395,-1.396 -1.045,-3.836 -0.351,-5.58 1.39,-3.84 5.58,-1.75 7.67,0"
     id="path95" /><path
     d="m 207.89,278.04 c -1.744,-1.395 -3.139,-2.094 -3.836,-4.187 0.349,-1.744 1.046,-3.488 2.441,-4.534 l 5.582,2.79 -4.18,5.93"
     fill="#ffffff"
     id="path96" /><path
     d="m 291.96,271.41 c 0,1.046 -0.35,2.092 -1.745,1.744 -0.36,-1.39 0.68,-1.74 1.74,-1.74"
     fill="#ffffff"
     id="path97" /><path
     d="m 232.66,286.76 -3.138,5.582 c -3.489,-3.141 -9.07,-3.838 -12.906,-7.675 0.348,-2.093 1.044,-4.187 2.441,-5.931 5.23,1.05 8.37,6.63 13.61,8.03"
     fill="#ffffff"
     id="path98" /><path
     d="m 287.42,282.92 c -0.694,0.698 0,2.093 -1.394,2.789 h -1.045 l 0.347,-3.139 c 0.69,0.35 1.39,0.7 2.09,0.35"
     fill="#ffffff"
     id="path99" /><path
     d="m 296.49,282.92 c 0.35,1.045 -0.351,1.395 -0.697,1.743 h -0.697 v -2.093 c 0.35,0.35 1.05,-0.35 1.4,0.35"
     fill="#ffffff"
     id="path100" /><path
     d="m 253.93,290.94 c 0.349,1.396 -0.695,1.743 -1.396,2.441 -3.488,-0.349 -6.276,-3.836 -9.067,-6.627 l 0.347,-1.047 c 3.49,1.41 7.33,2.1 10.12,5.24"
     id="path101" /><path
     d="m 237.19,290.59 c -1.396,2.441 -2.442,5.93 -3.838,7.674 -0.697,-3.14 0,-6.627 1.744,-9.069 0.71,0.71 1.4,0.71 2.1,1.4"
     fill="#404040"
     id="path102" /><path
     d="m 317.42,294.08 c 1.744,17.787 -2.095,35.927 -11.859,50.229 5.581,-15.348 12.557,-32.441 8.72,-50.928 -3.139,0 -6.627,1.047 -8.72,4.188 -3.14,1.744 -1.745,7.672 -5.581,6.277 -0.351,-4.883 4.533,-10.115 9.068,-12.558 2.78,-1.04 7.67,-1.39 8.37,2.79"
     id="path103" /><path
     d="m 351.95,291.99 c 4.538,3.139 9.771,5.232 15.003,7.326 -5.232,2.439 -11.514,4.533 -17.441,1.743 -4.885,-1.743 -9.418,-4.884 -13.605,-8.023 v -2.441 c 4.89,0.34 11.52,1.04 16.05,1.39"
     fill="#b9e5fa"
     id="path104" /><path
     d="m 145.8,298.27 v 4.535 c -6.279,-1.048 -12.906,-5.231 -15.349,-11.512 4.89,4.19 12.21,-1.04 15.35,6.98"
     fill="#fff200"
     id="path105" /><path
     d="m 341.14,312.92 c 5.232,12.209 7.324,25.812 6.28,40.81 -0.7,0.698 -1.744,2.093 -2.792,1.048 -1.046,-2.094 0.699,-4.884 0,-7.675 0.699,-14.998 -2.79,-28.601 -11.16,-40.113 -3.838,-0.35 -5.933,3.488 -8.024,5.931 -3.835,8.72 -6.277,18.836 -7.324,28.254 -1.049,0.347 -1.049,1.744 -2.093,1.395 l -1.395,-2.442 c 5.579,-12.208 2.79,-30.346 18.486,-36.275 4.86,0.36 5.57,5.94 8.01,9.08"
     id="path106" /><path
     d="m 363.46,313.62 c 0.349,0.698 0,1.745 -0.698,2.094 -2.442,0.35 -3.839,-2.094 -6.277,-1.396 -10.813,9.069 -2.094,24.417 -4.187,35.23 -0.698,0 -1.046,-0.699 -1.745,-1.048 -0.35,-11.858 -7.326,-29.648 5.932,-36.972 2.8,0 5.59,-0.34 6.99,2.1"
     id="path107" /><path
     d="m 284.63,311.87 c 0,1.048 0,2.094 -1.047,2.442 -0.697,-0.349 -1.397,-0.349 -1.047,-1.395 0.7,-0.35 1.05,-1.4 2.1,-1.05"
     fill="#ffffff"
     id="path108" /><path
     d="m 265.79,323.38 c 2.092,0 1.743,1.047 2.438,2.79 -3.836,-0.35 -7.671,-2.093 -9.415,-5.929 0,-1.396 0.695,-2.791 1.744,-3.838 -1.4,3.14 3.14,5.59 5.23,6.98"
     fill="#ffffff"
     id="path109" /><path
     d="m 277.65,322.34 h -2.095 c -0.697,-1.046 0,-2.79 1.394,-3.139 h 1.397 l -0.7,3.14"
     fill="#ffffff"
     id="path110" /><path
     d="m 286.72,324.08 h -1.397 l 2.442,-2.092 c 0.36,0 0.36,2.79 -1.04,2.09"
     fill="#ffffff"
     id="path111" /><path
     d="m 275.21,326.17 c 2.793,0.698 4.884,-0.696 5.932,-2.79 -0.35,0.697 1.744,3.14 3.488,4.534 -4.188,1.048 -8.371,1.745 -11.859,-1.395 l -0.698,-3.837 c 0,2.1 2.09,2.8 3.14,3.49"
     fill="#808080"
     id="path112" /><path
     d="m 239.98,331.75 c 0.698,4.533 -0.696,8.72 -4.185,10.812 -0.348,-2.093 0.698,-4.883 1.396,-7.325 -3.838,3.838 -11.162,-1.744 -14.303,5.931 -0.696,0.347 -1.045,-0.35 -1.743,-0.698 0,-3.139 3.838,-4.534 5.931,-6.277 3.14,0 6.277,0 8.372,-1.744 1.392,-1.397 -0.351,-2.442 -1.048,-3.488 1.73,-3.83 5.22,0 5.57,2.79"
     id="path113" /><path
     d="m 222.19,344.31 c 0,0.348 -0.698,0.696 -1.047,1.045 2.443,0.698 7.674,-1.743 9.07,2.093 -1.396,2.094 -5.232,0.35 -6.977,1.046 l -2.442,-1.046 c -1.046,4.187 -2.79,8.023 -2.44,12.559 -0.7,0.349 -1.047,1.743 -2.094,1.395 l -1.395,-2.094 c 1.745,-5.232 2.092,-11.16 4.883,-16.045 0.71,0 1.75,0 2.45,1.05"
     id="path114" /><path
     d="m 236.49,344.31 c -3.141,7.672 -6.629,14.997 -9.418,23.021 l -0.698,0.696 c -2.789,-2.44 0.698,-5.929 0.698,-9.069 l -5.931,-0.696 c 0.349,-0.35 -0.349,-0.698 -0.697,-1.048 1.396,-2.092 4.535,-1.046 6.278,-1.396 l 0.697,1.048 c 3.838,-3.837 2.792,-11.162 8.024,-13.604 l 1.05,1.05"
     id="path115" /><path
     d="m 210.33,353.38 -0.697,3.487 c -5.232,-1.396 -13.604,1.745 -15,-5.581 0,-0.698 -1.046,-2.443 0.699,-2.443 4.54,4.18 9.42,4.18 15,4.53"
     fill="#404040"
     id="path116" /><path
     d="m 216.61,368.03 c 0,4.187 -0.35,9.068 0.348,12.906 4.884,-0.698 5.232,-4.186 5.929,-8.37 0.7,-0.698 1.397,-0.698 2.095,-0.698 1.395,4.533 -2.441,10.114 0,14.997 0,0.698 -0.351,1.397 -0.697,1.744 -3.141,-1.046 -2.442,-4.185 -3.141,-6.278 -1.046,-0.698 -3.489,1.744 -4.186,-1.395 -2.092,3.139 2.791,7.673 -2.442,8.021 -1.395,-6.627 -1.046,-14.301 -0.349,-20.928 0.71,-0.35 1.75,-1.39 2.45,0"
     id="path117" /><path
     d="m 224.98,369.42 c -1.047,2.093 -4.187,0.697 -6.279,1.046 -1.048,-0.349 -1.048,-2.441 0,-2.791 2.1,0.35 5.58,-1.04 6.28,1.74"
     id="path118" /><path
     d="m 205.8,381.98 c 0.697,-0.35 1.744,0.349 2.093,-0.696 0.699,1.045 0.35,2.789 0.35,3.836 -5.581,1.396 -9.069,-2.092 -13.604,-3.14 -0.697,-1.395 -1.396,-2.789 -0.697,-4.185 3.84,1.39 7.32,3.83 11.86,4.18"
     fill="#404040"
     id="path119" /><path
     d="m 209.64,394.54 c -2.792,1.045 -6.279,-0.698 -9.419,-1.395 -1.395,-2.442 -3.835,-3.14 -2.789,-6.28 3.48,4.19 14.65,-2.44 12.21,7.68"
     fill="#ffffff"
     id="path120" /><path
     d="m 226.73,398.03 c -1.743,2.094 -2.44,5.581 -4.883,6.278 -0.01,-2.79 2.78,-4.89 4.88,-6.28"
     fill="#ffffff"
     id="path121" /><path
     d="m 232.66,402.21 c -1.048,2.44 -3.487,4.185 -5.232,5.929 -1.05,-2.09 1.74,-7.67 5.23,-5.93"
     fill="#ffffff"
     id="path122" /><path
     d="m 189.75,411.28 c 0.351,1.047 -0.347,1.396 -0.696,2.442 h -0.697 l -0.698,-3.14 2.1,0.7"
     fill="#ffffff"
     id="path123" /><path
     d="m 241.03,411.98 c -1.395,2.093 -3.487,5.23 -5.931,6.627 h -0.697 c -0.697,-2.791 0.697,-6.279 3.141,-8.023 1.04,0.69 3.84,-1.05 3.49,1.39"
     fill="#ffffff"
     id="path124" /><path
     d="m 199.87,411.98 c 0,0.697 0.697,3.138 -1.046,3.836 h -1.395 c 0.01,-1.75 0.01,-4.89 2.45,-3.84"
     fill="#ffffff"
     id="path125" /><path
     d="m 221.14,425.93 v 0.349 h -1.046 l 0.349,-1.047 c 0.36,0.35 0.36,0.7 0.7,0.7"
     fill="#ffffff"
     id="path126" /><path
     d="m 241.38,429.42 c -0.699,-1.395 1.046,0 1.395,-1.045 v 1.045 h -1.4"
     fill="#ffffff"
     id="path127" /><path
     d="m 230.91,429.42 c -0.349,0.698 -0.349,1.395 -0.697,1.744 h -1.396 v -2.442 l 2.1,0.7"
     fill="#ffffff"
     id="path128" /></g>

<metadata
   id="metadata129"><rdf:RDF><cc:Work><dc:format>image/svg+xml</dc:format><dc:type
         rdf:resource="http://purl.org/dc/dcmitype/StillImage" /><cc:license
         rdf:resource="http://creativecommons.org/publicdomain/zero/1.0/" /><dc:publisher><cc:Agent
           rdf:about="http://openclipart.org/"><dc:title>Openclipart</dc:title></cc:Agent></dc:publisher><dc:title>girl playing soccer</dc:title><dc:date>2006-10-17T21:59:04</dc:date><dc:description>cartoon of a girl playing soccer from http://www.usda.gov/cnpp/KidsPyra/\n\nNational Agricultural Library, Agricultural Research Service, U. S. Department of Agriculture</dc:description><dc:source>http://openclipart.org/detail/723/girl-playing-soccer-by-johnny_automatic</dc:source><dc:creator><cc:Agent><dc:title>johnny_automatic</dc:title></cc:Agent></dc:creator><dc:subject><rdf:Bag><rdf:li>activity</rdf:li><rdf:li>cartoon</rdf:li><rdf:li>child</rdf:li><rdf:li>clip art</rdf:li><rdf:li>clipart</rdf:li><rdf:li>exercise</rdf:li><rdf:li>girl</rdf:li><rdf:li>image</rdf:li><rdf:li>media</rdf:li><rdf:li>png</rdf:li><rdf:li>public domain</rdf:li><rdf:li>soccer</rdf:li><rdf:li>soccer ball</rdf:li><rdf:li>sport</rdf:li><rdf:li>svg</rdf:li><rdf:li>usda</rdf:li></rdf:Bag></dc:subject></cc:Work><cc:License
       rdf:about="http://creativecommons.org/publicdomain/zero/1.0/"><cc:permits
         rdf:resource="http://creativecommons.org/ns#Reproduction" /><cc:permits
         rdf:resource="http://creativecommons.org/ns#Distribution" /><cc:permits
         rdf:resource="http://creativecommons.org/ns#DerivativeWorks" /></cc:License></rdf:RDF></metadata></svg>
