<?xml version="1.0" encoding="UTF-8" standalone="no"?>
<!-- Created with Inkscape (http://www.inkscape.org/) -->

<svg
   width="400"
   height="400"
   id="svg4271"
   version="1.1"
   inkscape:version="1.3.2 (091e20e, 2023-11-25, custom)"
   sodipodi:docname="teacher.svg"
   xmlns:inkscape="http://www.inkscape.org/namespaces/inkscape"
   xmlns:sodipodi="http://sodipodi.sourceforge.net/DTD/sodipodi-0.dtd"
   xmlns="http://www.w3.org/2000/svg"
   xmlns:svg="http://www.w3.org/2000/svg"
   xmlns:rdf="http://www.w3.org/1999/02/22-rdf-syntax-ns#"
   xmlns:cc="http://creativecommons.org/ns#"
   xmlns:dc="http://purl.org/dc/elements/1.1/">
  <defs
     id="defs4273" />
  <sodipodi:namedview
     id="base"
     pagecolor="#ffffff"
     bordercolor="#666666"
     borderopacity="1.0"
     inkscape:pageopacity="0.0"
     inkscape:pageshadow="2"
     inkscape:zoom="0.74096997"
     inkscape:cx="51.28413"
     inkscape:cy="406.89908"
     inkscape:document-units="px"
     inkscape:current-layer="layer1"
     showgrid="false"
     inkscape:window-width="2560"
     inkscape:window-height="1009"
     inkscape:window-x="-8"
     inkscape:window-y="-2"
     inkscape:window-maximized="1"
     fit-margin-top="0"
     fit-margin-left="0"
     fit-margin-right="0"
     fit-margin-bottom="0"
     showguides="false"
     inkscape:showpageshadow="2"
     inkscape:pagecheckerboard="0"
     inkscape:deskcolor="#d1d1d1" />
  <metadata
     id="metadata4276">
    <rdf:RDF>
      <cc:Work
         rdf:about="">
        <dc:format>image/svg+xml</dc:format>
        <dc:type
           rdf:resource="http://purl.org/dc/dcmitype/StillImage" />
      </cc:Work>
    </rdf:RDF>
  </metadata>
  <g
     inkscape:label="Laag 1"
     inkscape:groupmode="layer"
     id="layer1"
     transform="translate(317.715,-675.76754)">
    <g
       id="g4357"
       transform="matrix(0.58498236,0,0,0.49152237,-77.85733,509.61974)">
      <path
         style="fill:#000000;stroke:none;stroke-width:7.69095;stroke-linecap:round;stroke-linejoin:round"
         d="m -173.37594,338.02694 -12.82618,79.23828 -39.65625,-30.74609 22.51563,66.14843 35.20312,23.0586 c 2.09676,16.2601 4.07429,32.58401 11.71094,47.40039 8.5449,20.61307 15.46147,42.08188 25.75195,61.85937 25.43052,16.03997 50.03897,33.67227 76.00196,48.68946 9.35542,-0.55431 12.6986,-10.98838 19.36914,-15.99414 19.38907,-21.51459 42.22619,-40.80357 56.83984,-66.30664 l 10.28452,-15.65285 c 4.97023,-7.56459 9.7574,-21.88349 13.74673,-29.95836 -0.59137,-17.95869 0.38905,-29.4163 -0.0254,-47.39465 l 14.26563,0.54492 6.8125,-32.71289 -27.04883,-31.81641 -1.63086,-0.26953 -51.6582,-8.5332 -24.21094,-7.72852 -69.41406,-7.01367 -23.21875,15.11328 -16.70313,20.49805 z"
         id="path4230"
         inkscape:connector-curvature="0"
         sodipodi:nodetypes="ccccccccccscccccccccccc" />
      <path
         sodipodi:nodetypes="cccccccccccc"
         inkscape:connector-curvature="0"
         id="path4182"
         d="m -70.070312,498.9043 c -37.034728,37.27452 -74.072628,74.55291 -111.109378,111.82812 3.80818,25.78853 4.40159,53.42384 17.53886,76.65654 19.54786,24.69366 37.68595,50.45283 56.7756,75.49385 L -1.0028157,755.1741 13.266108,718.84181 64.499954,687.36848 c 0.988618,-56.15946 6.327752,-49.59961 7.314499,-105.7591 -35.482266,-18.94729 -72.8238401,-34.98556 -105.018489,-59.49623 -11.898139,-8.12951 -23.79624,-16.25907 -35.694402,-24.38854 l -0.704753,0.70945 z"
         style="fill:#000000" />
      <path
         sodipodi:nodetypes="cccccc"
         inkscape:connector-curvature="0"
         id="path4170"
         d="m -264.5953,1132.1266 350.993115,19.6985 50.141875,-80.5852 -1.79078,-270.40789 -415.46124,19.69859 z"
         style="fill:#000000;fill-opacity:1;fill-rule:evenodd;stroke:none;stroke-width:1px;stroke-linecap:butt;stroke-linejoin:miter;stroke-opacity:1" />
      <path
         id="path4172"
         d="m -216.81706,1101.4564 c -10.80211,30.7893 -28.20725,19.7871 -39.12225,18.5277 l 0.60849,-125.29826 -11.58456,-158.58536 53.25712,-31.74345 -1.43444,63.0936 -30.26395,72.80887 32.50993,-49.69676 -3.61733,101.87505 -38.47615,112.99391 37.51905,-86.039 z"
         inkscape:connector-curvature="0"
         style="fill:#ff9955"
         sodipodi:nodetypes="cccccccccccc" />
      <path
         sodipodi:nodetypes="cccccccc"
         style="fill:#ff9955"
         inkscape:connector-curvature="0"
         d="m 47.509926,1094.456 c 10.802113,38.7066 20.625693,33.1137 31.540693,39.8544 l -0.60849,-125.7443 -2.74169,-153.22251 -34.930873,-64.718 31.698393,159.13547 -32.509933,-73.52457 z"
         id="path4168" />
      <path
         id="path4166"
         d="m 94.070237,830.48001 c 10.802113,-38.70663 20.625693,-33.11374 31.540693,-39.85442 l -0.60849,125.74428 -2.74169,153.22253 -34.930873,64.718 31.698393,-159.13547 -32.509933,73.52457 z"
         inkscape:connector-curvature="0"
         style="fill:#ff9955"
         sodipodi:nodetypes="cccccccc" />
      <path
         sodipodi:nodetypes="cccccccccc"
         style="fill:#ff1603"
         inkscape:connector-curvature="0"
         d="m 17.28888,562.4923 46.440084,23.89343 -8.65482,91.18858 -49.3893033,28.16689 -9.1588937,33.41669 -99.612047,15.42756 -51.13479,-68.48118 c -12.38652,-7.29918 -18.54791,-72.4845 -18.54791,-72.4845 l 24.21935,-31.69128 z"
         id="path4136" />
      <path
         sodipodi:nodetypes="ccccccccccc"
         inkscape:connector-curvature="0"
         id="path4246"
         d="m -9.6015447,606.01591 9.58212997,17.42206 -6.09772177,109.75897 12.1954409,-1.7422 3.4844109,-90.59471 23.5531767,7.80374 -18.077057,-18.43008 15.43035,-12.02234 -15.67985,-6.96882 -6.9688197,13.93765 z"
         style="fill:#000000;fill-opacity:1;fill-rule:evenodd;stroke:none;stroke-width:1px;stroke-linecap:butt;stroke-linejoin:miter;stroke-opacity:1" />
      <path
         sodipodi:nodetypes="ccccccc"
         inkscape:connector-curvature="0"
         id="path4140"
         d="m -307.5093,834.0059 -10.2057,-42.04134 96.95407,-67.51752 415.88191,-9.02519 -2.55142,40.51813 -38.27134,61.7673 z"
         style="fill:#000000;fill-opacity:1;fill-rule:evenodd;stroke:none;stroke-width:1px;stroke-linecap:butt;stroke-linejoin:miter;stroke-opacity:1" />
      <path
         sodipodi:nodetypes="ccscccc"
         inkscape:connector-curvature="0"
         id="path4208"
         d="m -139.85142,576.3438 71.29808,57.71749 c 0,0 8.48786,90.82018 11.88301,89.97139 3.39515,-0.84879 10.18544,-3.39515 10.18544,-3.39515 l 2.705451,-88.00894 65.833861,-71.56295 z"
         style="fill:#000000;fill-opacity:1;fill-rule:evenodd;stroke:none;stroke-width:1px;stroke-linecap:butt;stroke-linejoin:miter;stroke-opacity:1" />
      <path
         sodipodi:nodetypes="cccccccccccc"
         id="path14123"
         d="m -127.40967,579.95292 -30.66306,-76.98664 -8.54492,-57.63115 34.70592,16.03367 60.20304,-21.92962 70.4775703,17.20795 40.6159707,-17.3881 1.129708,64.19913 -12.932715,27.56697 -23.2970424,36.06632 -57.6730136,61.08742 z"
         inkscape:connector-curvature="0"
         style="fill:#ffb380;stroke:none;stroke-width:7.69095;stroke-linecap:round;stroke-linejoin:round" />
      <path
         sodipodi:nodetypes="cccccccccccc"
         id="path14117"
         d="m -90.512854,477.30739 7.6175,7.99193 -0.74942,7.11784 -13.11176,-0.49949 -13.111756,0.49949 -18.98106,0.74925 -14.36057,4.74525 -10.98885,-6.74324 12.86206,-9.11582 29.34553,-9.24067 6.86808,2.12283 z"
         inkscape:connector-curvature="0"
         style="fill:#000000;fill-opacity:1" />
      <path
         sodipodi:nodetypes="ccccccccccc"
         style="fill:#a05a2c"
         inkscape:connector-curvature="0"
         d="m -219.31747,736.81275 405.60306,-10.64133 -44.7327,62.42577 44.77162,-45.18243 -0.63115,15.31857 -35.89827,54.24084 -450.45909,11.53114 -4.98037,-9.75425 410.35161,-24.45443 -415.99715,8.37228 z"
         id="path4138" />
      <path
         style="fill:#000000;fill-opacity:1"
         inkscape:connector-curvature="0"
         d="m -66.669622,477.30739 -7.6175,7.99193 0.74942,7.11784 13.11176,-0.49949 13.111756,0.49949 18.98106,0.74925 14.36057,4.74525 10.9888499,-6.74324 -12.8620599,-9.11582 -29.34553,-9.24067 -6.86808,2.12283 z"
         id="path4152"
         sodipodi:nodetypes="cccccccccccc" />
      <path
         inkscape:connector-curvature="0"
         id="path4202"
         d="m -94.65625,499.01172 c -10.14671,2.13215 -20.91942,2.47411 -30.67383,5.79492 -4.72848,4.7559 -9.45726,9.51149 -14.18554,14.26758 3.63559,7.94322 7.27366,15.88531 10.91015,23.82812 14.49067,-3.32704 29.95005,-4.05189 43.863282,-8.89062 4.795148,-6.04605 9.588516,-12.0935 14.384766,-18.13867 -8.324439,-5.12632 -15.149177,-13.57041 -24.298828,-16.86133 z"
         style="fill:#000000;fill-rule:evenodd;stroke:none;stroke-width:1px;stroke-linecap:butt;stroke-linejoin:miter;stroke-opacity:1" />
      <path
         sodipodi:nodetypes="ccccccc"
         inkscape:connector-curvature="0"
         id="path4154"
         d="m -93.96906,502.95321 -28.52545,4.67405 -12.23267,12.30239 8.45495,18.46144 38.39665,-6.86471 11.805506,-14.88769 z"
         style="fill:#ffffff;fill-rule:evenodd;stroke:none;stroke-width:1px;stroke-linecap:butt;stroke-linejoin:miter;stroke-opacity:1" />
      <path
         inkscape:connector-curvature="0"
         id="path4192"
         d="m -33.035156,499.41992 c -9.89953,2.19436 -20.796969,1.5998 -29.726507,6.38887 -4.395852,4.42181 -8.791704,8.84362 -13.187556,13.26543 3.63086,7.93099 7.261719,15.86198 10.892578,23.79297 14.643932,-3.51335 30.116295,-3.57722 44.210938,-9.27149 4.669922,-5.88867 9.339844,-11.77734 14.0097655,-17.66601 -8.8164685,-5.18791 -15.2590525,-15.06107 -25.6895965,-16.61678 z"
         style="fill:#000000;fill-rule:evenodd;stroke:none;stroke-width:1px;stroke-linecap:butt;stroke-linejoin:miter;stroke-opacity:1" />
      <path
         style="fill:#ffffff;fill-rule:evenodd;stroke:none;stroke-width:1px;stroke-linecap:butt;stroke-linejoin:miter;stroke-opacity:1"
         d="m -30.402976,502.95321 -28.52545,4.67405 -12.23267,12.30239 8.45495,18.46144 38.39665,-6.86471 11.805506,-14.88769 z"
         id="path4156"
         inkscape:connector-curvature="0"
         sodipodi:nodetypes="ccccccc" />
      <path
         inkscape:connector-curvature="0"
         id="path4238"
         d="m -54.679688,555.02148 c -14.287037,2.9253 -29.049699,5.25589 -41.741237,12.919 -5.697585,2.64547 -11.394915,7.29152 -17.092745,9.93647 10.28533,4.95559 19.651828,14.32746 30.341795,18.06055 13.072313,-2.44588 26.864262,-2.85721 39.496094,-6.62109 9.765127,-10.70686 22.901794,-23.17534 34.9394868,-31.20574 -14.7041768,-0.72404 -31.2444528,-2.6034 -45.9433938,-3.08919 z"
         style="fill:#000000;fill-opacity:1;fill-rule:evenodd;stroke:none;stroke-width:1px;stroke-linecap:butt;stroke-linejoin:miter;stroke-opacity:1"
         sodipodi:nodetypes="ccccccc" />
      <path
         inkscape:connector-curvature="0"
         id="path4158"
         d="m -104.66803,578.18022 20.886,11.80513 37.23157,-5.44853 13.6213,-13.6213 10.89704,-8.17278 -31.78304,-1.81617 -25.42643,5.44852 z"
         style="fill:#ff1603;fill-opacity:1;fill-rule:evenodd;stroke:none;stroke-width:1px;stroke-linecap:butt;stroke-linejoin:miter;stroke-opacity:1" />
      <path
         inkscape:connector-curvature="0"
         id="path4160"
         d="m -115.56507,514.61413 -4.54043,11.80513 8.17278,5.44852 19.06982,-4.54043 -8.17278,-9.08087 z"
         style="fill:#000000;fill-opacity:1;fill-rule:evenodd;stroke:none;stroke-width:1px;stroke-linecap:butt;stroke-linejoin:miter;stroke-opacity:1" />
      <path
         style="fill:#000000;fill-opacity:1;fill-rule:evenodd;stroke:none;stroke-width:1px;stroke-linecap:butt;stroke-linejoin:miter;stroke-opacity:1"
         d="m -55.631334,514.61413 -4.54043,11.80513 8.17278,5.44852 19.06982,-4.54043 -8.17278,-9.08087 z"
         id="path4162"
         inkscape:connector-curvature="0" />
      <path
         style="fill:#000000;fill-opacity:1;fill-rule:evenodd;stroke:none;stroke-width:1px;stroke-linecap:butt;stroke-linejoin:miter;stroke-opacity:1"
         d="m -101.80173,577.89217 22.719019,-8.82821 31.866763,-1.09886 18.476762,-1.53034 -8.587079,14.12693 -31.704147,2.0973 -19.870179,5.19556 z"
         id="path4173"
         inkscape:connector-curvature="0"
         sodipodi:nodetypes="cccccccc" />
      <path
         sodipodi:nodetypes="cccccccccccc"
         inkscape:connector-curvature="0"
         id="path4164"
         d="m -95.292207,577.79031 18.774877,-3.9667 26.33452,-2.90809 16.863752,-1.26466 -8.690972,8.34553 -25.668583,1.87277 -20.9388,3.0909 -4.254433,-3.48321 30.960385,-1.92672 21.312286,-5.28938 -26.504969,3.38795 z"
         style="fill:#7a0b01;fill-opacity:1;fill-rule:evenodd;stroke:none;stroke-width:1px;stroke-linecap:butt;stroke-linejoin:miter;stroke-opacity:1" />
      <path
         sodipodi:nodetypes="cscccccc"
         inkscape:connector-curvature="0"
         id="path4174"
         d="m -198.33639,834.85685 c 0,0 222.05687,-10 223.84765,-13.58156 1.79078,-3.58156 5.37234,314.43281 5.37234,314.43281 l -234.59234,-12.5355 0.93275,-28.0577 204.4498952,-22.028 -203.8167252,6.0481 z"
         style="fill:#ff9955;fill-opacity:1;fill-rule:evenodd;stroke:#000000;stroke-width:1px;stroke-linecap:butt;stroke-linejoin:miter;stroke-opacity:1" />
      <path
         sodipodi:nodetypes="cccccc"
         inkscape:connector-curvature="0"
         id="path4178"
         d="m -133.06113,757.98415 61.11264,-28.00996 -16.636541,-45.49368 -35.988229,-5.43352 -58.56628,52.62477 c 8.25134,3.88932 52.19824,25.60578 50.07841,26.31239 z"
         style="fill:#000000;fill-opacity:1;fill-rule:evenodd;stroke:none;stroke-width:1px;stroke-linecap:butt;stroke-linejoin:miter;stroke-opacity:1" />
      <path
         sodipodi:nodetypes="ccccccc"
         inkscape:connector-curvature="0"
         id="path4176"
         d="m -117.75124,686.22201 c -8.9539,1.79078 -53.72343,44.76953 -53.72343,44.76953 l 37.58603,19.94361 22.53021,-40.87378 29.422811,17.34861 -12.535468,-37.60641 z"
         style="fill:#ffb380;fill-opacity:1;fill-rule:evenodd;stroke:none;stroke-width:1px;stroke-linecap:butt;stroke-linejoin:miter;stroke-opacity:1" />
      <path
         sodipodi:nodetypes="ccccc"
         inkscape:connector-curvature="0"
         id="path4214"
         d="m 31.074734,723.99928 c -45.974622,0.94404 -88.554076,1.88914 -134.528674,2.83398 -35.3867,27.30628 -71.62102,47.82379 -107.00504,75.13354 75.62621,-4.10967 148.706259,-12.45973 224.332542,-16.56815 z"
         style="fill:#000000;fill-rule:evenodd;stroke:none;stroke-width:1px;stroke-linecap:butt;stroke-linejoin:miter;stroke-opacity:1" />
      <path
         sodipodi:nodetypes="ccccc"
         inkscape:connector-curvature="0"
         id="path4180"
         d="M -100.80723,729.97419 -178.89561,790.23804 8.68624,780.0526 23.11562,727.42783 Z"
         style="fill:#ffd5d5;fill-rule:evenodd;stroke:none;stroke-width:1px;stroke-linecap:butt;stroke-linejoin:miter;stroke-opacity:1" />
      <path
         sodipodi:nodetypes="cccc"
         inkscape:connector-curvature="0"
         id="path4210"
         d="m -99.95845,735.91569 96.7362441,6.70457 5.1181559,-3.30942 z"
         style="fill:#000000;fill-opacity:1;fill-rule:evenodd;stroke:none;stroke-width:1px;stroke-linecap:butt;stroke-linejoin:miter;stroke-opacity:1" />
      <path
         style="fill:#000000;fill-opacity:1;fill-rule:evenodd;stroke:none;stroke-width:1px;stroke-linecap:butt;stroke-linejoin:miter;stroke-opacity:1"
         d="M -105.05117,744.40356 -3.2222059,742.62026 1.89595,739.31084 Z"
         id="path4212"
         inkscape:connector-curvature="0"
         sodipodi:nodetypes="cccc" />
      <path
         sodipodi:nodetypes="cccc"
         inkscape:connector-curvature="0"
         id="path4226"
         d="m -105.05117,744.40356 96.7362443,8.40214 5.1181558,-3.30942 z"
         style="fill:#000000;fill-opacity:1;fill-rule:evenodd;stroke:none;stroke-width:1px;stroke-linecap:butt;stroke-linejoin:miter;stroke-opacity:1" />
      <path
         style="fill:#000000;fill-opacity:1;fill-rule:evenodd;stroke:none;stroke-width:1px;stroke-linecap:butt;stroke-linejoin:miter;stroke-opacity:1"
         d="m -118.63176,759.68172 107.770475,-4.32966 5.1181555,-3.30942 z"
         id="path4228"
         inkscape:connector-curvature="0"
         sodipodi:nodetypes="cccc" />
      <path
         sodipodi:nodetypes="cccccccc"
         inkscape:connector-curvature="0"
         id="path4244"
         d="m -141.13809,612.98474 7.83993,12.19544 4.35551,63.59051 16.55096,-3.48441 -13.93765,-61.8483 16.55096,-13.93765 -21.77758,7.83993 z"
         style="fill:#000000;fill-opacity:1;fill-rule:evenodd;stroke:none;stroke-width:1px;stroke-linecap:butt;stroke-linejoin:miter;stroke-opacity:1" />
      <path
         sodipodi:nodetypes="cccccccc"
         inkscape:connector-curvature="0"
         id="path4171"
         d="M -30.324478,650.82285 -44.698312,685.50167 -26.95606,691.637 -48.570856,708.65974 1.6869517,734.14725 16.048532,694.62499 3.2013758,672.51795 Z"
         style="fill:#000000;fill-opacity:1;fill-rule:evenodd;stroke:none;stroke-width:1px;stroke-linecap:butt;stroke-linejoin:miter;stroke-opacity:1" />
      <path
         style="fill:#ffb380;fill-opacity:1;fill-rule:evenodd;stroke:none;stroke-width:1px;stroke-linecap:butt;stroke-linejoin:miter;stroke-opacity:1"
         d="m -27.156534,658.34672 -10.01791,25.57098 20.11821,5.73933 -22.010789,17.81473 37.5860303,19.94361 11.2058721,-30.42054 -8.1074758,-18.53698 z"
         id="path4248"
         inkscape:connector-curvature="0"
         sodipodi:nodetypes="cccccccc" />
      <path
         id="path4179"
         d="m 28.942625,499.91238 -7.534753,4.94641"
         style="fill:#000000;fill-opacity:1"
         inkscape:connector-curvature="0" />
      <path
         sodipodi:nodetypes="ccccccccc"
         inkscape:connector-curvature="0"
         id="path4177"
         d="m 21.407872,504.85879 8.731062,3.72412 0.563832,7.65082 -6.091099,5.32716 4.490744,10.60002 -3.947664,3.81552 -5.778386,-14.54332 -3.972563,-16.37774 4.214046,-5.93365"
         style="fill:#000000;fill-opacity:1" />
      <path
         id="path14083"
         d="m 26.734764,494.37711 9.344612,-5.8303 3.701947,-10.5661 -16.387154,8.01113 -8.848081,15.06591 1.1737,-14.80536 12.459547,-11.59391 c 0,0 18.463533,-0.72061 18.237808,-0.72061 -0.225728,0 -7.945186,19.7187 -7.945186,19.7187 l -9.529332,6.25581"
         style="fill:#000000;fill-opacity:1"
         inkscape:connector-curvature="0" />
    </g>
  </g>
</svg>
