<?xml version="1.0" encoding="UTF-8" standalone="no"?>
<!-- Created with Inkscape (http://www.inkscape.org/) -->

<svg
   xmlns:osb="http://www.openswatchbook.org/uri/2009/osb"
   xmlns:dc="http://purl.org/dc/elements/1.1/"
   xmlns:cc="http://creativecommons.org/ns#"
   xmlns:rdf="http://www.w3.org/1999/02/22-rdf-syntax-ns#"
   xmlns:svg="http://www.w3.org/2000/svg"
   xmlns="http://www.w3.org/2000/svg"
   xmlns:xlink="http://www.w3.org/1999/xlink"
   xmlns:sodipodi="http://sodipodi.sourceforge.net/DTD/sodipodi-0.dtd"
   xmlns:inkscape="http://www.inkscape.org/namespaces/inkscape"
   width="158.05449mm"
   height="177.27917mm"
   viewBox="0 0 560.0356 628.15455"
   id="svg10472"
   version="1.1"
   inkscape:version="0.91 r13725"
   sodipodi:docname="x-ray_worker.svg"
   inkscape:export-filename="/media/sdb1/_GRAFIKA/2016_05_citizen_monitoring/first_responders/x-ray_worker.png"
   inkscape:export-xdpi="90"
   inkscape:export-ydpi="90">
  <title
     id="title7138">x-ray worker</title>
  <defs
     id="defs10474">
    <linearGradient
       id="linearGradient3570"
       y2="460.09"
       gradientUnits="userSpaceOnUse"
       x2="-268.41"
       gradientTransform="matrix(201.1,227.43,227.43,-201.1,-50555,153920)"
       y1="460.09"
       x1="-270.07999"
       inkscape:collect="always">
      <stop
         id="stop142-1"
         style="stop-color:#FFD8BF"
         offset="0" />
      <stop
         id="stop144-2"
         style="stop-color:#BF7400"
         offset=".5393" />
      <stop
         id="stop146-7"
         style="stop-color:#000000"
         offset="1" />
    </linearGradient>
    <linearGradient
       id="linearGradient3558"
       y2="460.10001"
       gradientUnits="userSpaceOnUse"
       x2="-268.39999"
       gradientTransform="matrix(201.1,227.43,227.43,-201.1,-50555,153920)"
       y1="460.10001"
       x1="-270.09"
       inkscape:collect="always">
      <stop
         id="stop172-8"
         style="stop-color:#F3C192"
         offset="0" />
      <stop
         id="stop174-8"
         style="stop-color:#D49035"
         offset=".5393" />
      <stop
         id="stop176-8"
         style="stop-color:#765735"
         offset="1" />
    </linearGradient>
    <linearGradient
       y2="460.09"
       x2="-268.41"
       y1="460.09"
       x1="-270.07999"
       gradientTransform="matrix(1547.9636,1118.5561,1118.5561,-1547.9636,-98144.781,1013621.5)"
       gradientUnits="userSpaceOnUse"
       id="linearGradient12073"
       xlink:href="#linearGradient3570"
       inkscape:collect="always" />
    <linearGradient
       y2="460.10001"
       x2="-268.39999"
       y1="460.10001"
       x1="-270.09"
       gradientTransform="matrix(1547.9636,1118.5561,1118.5561,-1547.9636,-98144.781,1013621.5)"
       gradientUnits="userSpaceOnUse"
       id="linearGradient12075"
       xlink:href="#linearGradient3558"
       inkscape:collect="always" />
    <linearGradient
       id="linearGradient4299"
       osb:paint="gradient">
      <stop
         style="stop-color:#6a758d;stop-opacity:1"
         offset="0"
         id="stop4301" />
      <stop
         style="stop-color:#d0d7e3;stop-opacity:1"
         offset="1"
         id="stop4303" />
    </linearGradient>
    <filter
       inkscape:collect="always"
       style="color-interpolation-filters:sRGB"
       id="filter8599"
       x="-0.0085039595"
       width="1.0170079"
       y="-0.0062427628"
       height="1.0124855">
      <feGaussianBlur
         inkscape:collect="always"
         stdDeviation="2.3148274"
         id="feGaussianBlur8601" />
    </filter>
    <filter
       inkscape:collect="always"
       style="color-interpolation-filters:sRGB"
       id="filter8803"
       x="-0.056064159"
       width="1.1121283"
       y="-0.046380334"
       height="1.0927607">
      <feGaussianBlur
         inkscape:collect="always"
         stdDeviation="0.71233506"
         id="feGaussianBlur8805" />
    </filter>
  </defs>
  <sodipodi:namedview
     id="base"
     pagecolor="#ffffff"
     bordercolor="#666666"
     borderopacity="1.0"
     inkscape:pageopacity="0.0"
     inkscape:pageshadow="2"
     inkscape:zoom="0.49497475"
     inkscape:cx="-444.02647"
     inkscape:cy="454.50548"
     inkscape:document-units="px"
     inkscape:current-layer="g8868"
     showgrid="false"
     fit-margin-top="5"
     fit-margin-left="5"
     fit-margin-right="5"
     fit-margin-bottom="5"
     inkscape:window-width="1920"
     inkscape:window-height="1125"
     inkscape:window-x="0"
     inkscape:window-y="0"
     inkscape:window-maximized="1" />
  <metadata
     id="metadata10477">
    <rdf:RDF>
      <cc:Work
         rdf:about="">
        <dc:format>image/svg+xml</dc:format>
        <dc:type
           rdf:resource="http://purl.org/dc/dcmitype/StillImage" />
        <dc:title>x-ray worker</dc:title>
        <dc:creator>
          <cc:Agent>
            <dc:title>Jan Helebrant</dc:title>
          </cc:Agent>
        </dc:creator>
        <dc:rights>
          <cc:Agent>
            <dc:title>Jan Helebrant</dc:title>
          </cc:Agent>
        </dc:rights>
        <dc:publisher>
          <cc:Agent>
            <dc:title>Jan Helebrant</dc:title>
          </cc:Agent>
        </dc:publisher>
        <cc:license
           rdf:resource="http://creativecommons.org/publicdomain/zero/1.0/" />
        <dc:subject>
          <rdf:Bag>
            <rdf:li>radiation</rdf:li>
            <rdf:li>x-ray</rdf:li>
            <rdf:li>Röntgen</rdf:li>
            <rdf:li>hand</rdf:li>
            <rdf:li>bone</rdf:li>
            <rdf:li>medicine</rdf:li>
            <rdf:li>hospital</rdf:li>
            <rdf:li>injury</rdf:li>
          </rdf:Bag>
        </dc:subject>
      </cc:Work>
      <cc:License
         rdf:about="http://creativecommons.org/publicdomain/zero/1.0/">
        <cc:permits
           rdf:resource="http://creativecommons.org/ns#Reproduction" />
        <cc:permits
           rdf:resource="http://creativecommons.org/ns#Distribution" />
        <cc:permits
           rdf:resource="http://creativecommons.org/ns#DerivativeWorks" />
      </cc:License>
    </rdf:RDF>
  </metadata>
  <g
     inkscape:label="Vrstva 1"
     inkscape:groupmode="layer"
     id="layer1"
     transform="translate(-124.68616,-53.992065)">
    <g
       transform="matrix(0.33737928,0.07581,-0.07581,0.33737928,443.45476,241.21601)"
       id="layer2">
      <g
         id="g6854"
         transform="matrix(-0.90387115,0.42780479,0.42780479,0.90387115,-368.59738,82.824788)">
        <g
           transform="matrix(2.3486582,-3.1186989,-3.6514815,-2.490062,477.83045,4716.9074)"
           id="layer1-4"
           inkscape:label="Vrstva 1">
          <g
             id="g26629"
             transform="matrix(4.3398863,0,0,4.3398863,-3128.582,-3171.8814)">
            <g
               style="overflow:visible"
               id="g22382"
               transform="matrix(-0.17953121,0,0,0.17953121,816.13974,761.18739)">
              <g
                 id="g26812"
                 transform="matrix(-5.5590437,0,0,5.5590437,4379.8616,-3812.0747)">
                <g
                   id="g9297">
                  <g
                     id="g9172">
                    <g
                       id="g8868">
                      <g
                         id="g8906">
                        <path
                           transform="matrix(0.03335422,-0.04177478,-0.04891137,-0.03146013,907.21491,823.71858)"
                           d="m 176.70908,803.50534 c 63.35617,281.95536 -184.6479218,442.05686 -428.31219,490.28396 -270.60772,53.5461 -537.3896,-33.3588 -568.58822,-338.16911 -26.88587,-262.49013 108.47407,-600.80657 398.27716,-648.11778 295.5221,-48.26084 539.42117,232.53432 598.62325,496.00293"
                           inkscape:connector-curvature="0"
                           style="fill:#ffffff;fill-opacity:1"
                           id="path11977" />
                        <path
                           transform="matrix(0.03335422,-0.04177478,-0.04891137,-0.03146013,907.21491,823.71858)"
                           d="m -442.37554,322.6744 c -278.26088,62.52595 -399.94258,398.0654 -364.30256,653.54641 41.27251,295.58319 321.30273,358.86589 576.73196,301.47029 -231.72483,52.0691 -504.17251,4.1688 -552.67952,-266.1646 -46.46323,-258.94197 108.88661,-506.28654 367.99668,-564.50924 246.78687,-55.45365 477.202504,82.97694 552.47537,322.8725 C 224.28456,1045.472 22.584273,1220.9468 -229.56667,1277.6058 17.084716,1222.1826 232.25282,1053.3918 158.80079,777.52214 91.127234,523.29436 -155.97647,258.31979 -442.37554,322.6744"
                           inkscape:connector-curvature="0"
                           style="fill:#f9f9f9;fill-opacity:1"
                           id="path11979" />
                        <path
                           transform="matrix(0.03335422,-0.04177478,-0.04891137,-0.03146013,907.21491,823.71858)"
                           d="m -762.98669,575.31494 c -111.79945,229.79572 -117.25247,604.77766 162.69943,712.52796 227.68221,87.5926 590.195039,8.972 735.10951,-196.4908 C 287.7122,874.55521 132.5175,561.10043 -48.176486,412.78682 -296.49468,209.02816 -622.83828,288.09691 -762.99888,575.31768 m -35.22086,456.45072 c -61.57975,-274.04973 63.98809,-663.46223 377.22984,-714.98267 282.14166,-46.40201 515.876302,212.16323 582.08046,462.25931 70.27494,265.51936 -123.150778,433.16436 -363.6693,493.90206 -229.77384,58.0527 -533.51783,35.2897 -595.641,-241.1787"
                           inkscape:connector-curvature="0"
                           style="fill:#282828;fill-opacity:1"
                           id="path11981" />
                        <path
                           transform="matrix(0.03335422,-0.04177478,-0.04891137,-0.03146013,907.21491,823.71858)"
                           d="m -258.48984,1144.6939 c -164.33308,36.9261 -368.24016,56.8638 -516.31075,-41.8735 89.17029,199.9955 328.60108,219.4659 517.97172,182.2911 203.019386,-39.8419 437.64263,-155.1045 434.77553,-393.4613 -88.535066,149.801 -275.934682,216.9785 -436.4365,253.0437"
                           inkscape:connector-curvature="0"
                           style="fill:#cccccc;fill-opacity:1"
                           id="path11983" />
                        <path
                           transform="matrix(0.03335422,-0.04177478,-0.04891137,-0.03146013,907.21491,823.71858)"
                           d="m -443.57543,317.33449 c 261.23507,-58.7002 492.76311,166.69127 573.03591,395.72735 92.837,264.86021 -63.773466,455.34856 -316.90156,526.82466 -227.22303,64.1206 -540.89644,46.1807 -603.32853,-231.6623 -57.17197,-254.43384 48.38621,-602.67587 322.79463,-684.64626 -274.96174,81.63047 -386.5458,424.40492 -339.43048,682.11736 53.59557,293.2654 356.85779,333.8547 603.36367,271.7586 255.758538,-64.4201 446.36248,-247.55 361.69333,-524.49706 C 81.897908,505.23861 -163.17869,254.32862 -443.57543,317.33449"
                           inkscape:connector-curvature="0"
                           style="fill:#282828;fill-opacity:1"
                           id="path11985" />
                        <ellipse
                           style="opacity:1;fill:#fcd095;fill-opacity:1;stroke:#000000;stroke-width:17.10151482;stroke-linecap:butt;stroke-linejoin:round;stroke-miterlimit:4;stroke-dasharray:none;stroke-dashoffset:0;stroke-opacity:1"
                           id="ellipse11987"
                           cx="-495.38382"
                           cy="331.92508"
                           rx="215.4299"
                           ry="107.53224"
                           transform="matrix(0.04326591,-0.03386128,-0.040409,-0.0398533,907.21491,823.71858)" />
                        <path
                           transform="matrix(0.03335422,-0.04177478,-0.04891137,-0.03146013,907.21491,823.71858)"
                           d="m -117.22555,-16.739878 c 46.392407,206.461318 -97.90002,408.147818 -299.90455,453.538758 -202.00588,45.39125 -418.69579,-75.16864 -465.09096,-281.64232 -46.40617,-206.522574 97.74546,-408.31928 299.85027,-453.73275 202.12786,-45.41866 418.73352,75.28901 465.14524,281.836312"
                           inkscape:connector-curvature="0"
                           style="fill:#fcd095"
                           id="path11989" />
                        <path
                           transform="matrix(0.03335422,-0.04177478,-0.04891137,-0.03146013,907.21491,823.71858)"
                           d="m -787.29177,-11.181659 c 64.27369,-121.705491 210.72893,-181.140061 343.50847,-174.727241 145.5818,7.03065 240.09562,102.198909 291.12572,232.425726 -14.60133,-207.415096 -221.1437,-343.704956 -419.40507,-299.155106 -198.48226,44.59948 -326.51434,256.2109163 -251.04381,449.98721 -4.75603,-69.54581 2.92311,-146.012431 35.81469,-208.530589"
                           inkscape:connector-curvature="0"
                           style="fill:#ffe2ae"
                           id="path11991" />
                        <path
                           transform="matrix(0.03335422,-0.04177478,-0.04891137,-0.03146013,907.21491,823.71858)"
                           d="M -140.94122,-57.898322 C -125.47143,110.1716 -187.03535,255.18881 -350.95679,323.3193 -551.5627,406.73365 -800.60115,322.35386 -878.38068,107.85776 -858.22709,341.36324 -612.97401,484.01644 -395.1523,420.52548 -193.84818,361.855 -67.842597,143.28413 -140.94122,-57.898322"
                           inkscape:connector-curvature="0"
                           style="fill:#fabb78"
                           id="path11993" />
                        <path
                           transform="matrix(0.03335422,-0.04177478,-0.04891137,-0.03146013,907.21491,823.71858)"
                           d="m -878.63911,108.83139 c -5.30734,23.03722 6.35048,50.52813 14.31602,71.34373 -7.18512,-23.19605 -11.99463,-47.18377 -14.31602,-71.34373 m 724.5787,-198.599183 C -59.51615,107.06018 -171.17277,340.5891 -371.69795,412.88244 -481.40027,452.46561 -605.784,441.63881 -705.8197,381.12299 c -90.18008,-54.59345 -131.69601,-143.39777 -187.39053,-225.1735 48.1605,214.32997 269.69218,338.01864 478.33871,291.13522 233.70074,-52.51316 385.676741,-307.5846 285.62503,-534.88439 2.97052,4.039299 3.5154,7.953068 1.61455,11.810368 -9.70413,-2.73265 -18.50098,-7.33258 -26.42305,-13.779691 m 9.27612,-24.483437 c 2.47233,9.03853 2.47233,9.03853 0,0 m -1.81101,-6.2857 c 1.95923,6.75522 1.95923,6.75522 0,0 m -1.14749,-3.64939 c 1.06519,3.40992 0.3422,0.88976 0,0"
                           inkscape:connector-curvature="0"
                           style="fill:url(#linearGradient12073)"
                           id="path11995" />
                        <path
                           transform="matrix(0.03335422,-0.04177478,-0.04891137,-0.03146013,907.21491,823.71858)"
                           d="m -298.24829,-306.49238 c 80.20957,51.71439 129.40944,101.48614 155.33911,198.97672 -1.49706,-5.77599 -89.15755,-52.45057 -102.40257,-59.05547 -32.55213,-16.25803 -53.50291,38.79277 -77.27845,58.5522 -60.09123,49.983477 -157.34267,99.6512026 -237.70972,91.712973 -42.94872,-4.224615 -95.37204,-20.595323 -135.72299,2.295399 -23.35076,13.26774442 -34.46648,38.744951 -39.20095,64.103473 -4.81991,25.725906 14.86452,120.157995 1.86596,133.524085 -4.95369,5.04613 -79.15794,-95.407799 -87.93249,-103.86843 -106.78952,-102.738961 -57.48381,107.61972 -48.53276,103.09378 -48.35966,24.26479 -57.00962,-201.315941 -53.25592,-220.019396 17.82739,-88.869854 69.35841,-165.931214 140.07989,-221.643204 127.92022,-100.77705 341.07418,-141.02638 484.75089,-47.67213"
                           inkscape:connector-curvature="0"
                           style="fill:#c48e53;fill-opacity:1"
                           id="path11997" />
                        <path
                           transform="matrix(0.03335422,-0.04177478,-0.04891137,-0.03146013,907.21491,823.71858)"
                           d="m -920.38299,94.935337 c 5.87099,21.711753 24.33285,43.095993 28.90617,63.448773 -4.23623,-5.88268 19.17544,27.37497 21.76384,24.31747 -2.48193,-34.51751 -36.65928,-56.69041 -50.67001,-87.766243 m 642.32463,-299.810477 c -8.85106,1.98886 -31.52175,42.04216 -39.41416,49.78618 -23.09357,22.62349 -50.32115,40.90194 -78.76455,56.126513 -75.374,40.341645 -141.2141,45.980516 -223.69472,50.728928 -47.84907,2.782441 -94.15414,-15.865806 -117.87968,36.71375 -9.14401,20.2499656 -11.73859,164.512209 -8.1174,163.698519 -17.32127,3.89213 -71.65965,-89.123317 -84.23603,-101.93944 -14.88017,-15.199731 -54.15903,-34.137347 -71.4612,-12.660311 -17.89298,22.177138 3.63916,66.237771 12.16237,87.985361 -20.23287,-46.944446 5.34313,-73.723614 51.81299,-57.446503 19.407,11.70678 89.39477,121.051743 103.66778,115.935993 4.78334,-2.3006 -3.64876,-129.293546 2.58481,-149.817887 8.6222,-28.540395 27.93341,-49.914362 57.48159,-56.553916 50.98796,-9.638964 102.8357,16.4552672 152.87097,5.212211 63.52526,-14.27429 126.47502,-38.516298 179.72994,-76.51834 17.75655,-12.681428 59.4001,-75.734818 74.70749,-79.174428 38.34038,-16.80368 86.83326,75.964959 122.81204,67.88043 5.63506,-1.26621 -15.79081,-52.94596 -17.23457,-56.38698 7.17455,8.22694 9.07924,16.36142 5.75498,24.40721 -38.09413,8.54799 -80.02763,-77.5846 -122.78257,-67.97746"
                           inkscape:connector-curvature="0"
                           style="fill:#2e3436"
                           id="path11999" />
                        <path
                           transform="matrix(0.03335422,-0.04177478,-0.04891137,-0.03146013,907.21491,823.71858)"
                           d="m -326.72906,-188.13586 c 26.33381,117.194086 -405.97853,203.232946 -428.18034,104.427649 82.88574,-0.48106 173.52422,-5.773192 252.43411,-32.273249 20.48531,-6.91127 169.22002,-101.19818 175.74623,-72.1544"
                           inkscape:connector-curvature="0"
                           style="fill:#d5a872;fill-opacity:1"
                           id="path12001" />
                        <path
                           transform="matrix(0.03335422,-0.04177478,-0.04891137,-0.03146013,907.21491,823.71858)"
                           d="m -169.62371,-180.78024 c 14.61405,30.08925 26.87992,62.2921 40.42601,92.96959 -9.44027,-32.4897 -22.24057,-64.3148 -40.42601,-92.96959"
                           inkscape:connector-curvature="0"
                           style="fill:#f3d4b2"
                           id="path12003" />
                        <path
                           transform="matrix(0.03335422,-0.04177478,-0.04891137,-0.03146013,907.21491,823.71858)"
                           d="m -877.65065,62.444193 c -6.48073,1.456236 -1.42691,41.624197 -0.99397,46.362677 -0.5777,2.59273 0.18416,-1.18887 0.23106,-0.98016 4.03313,-15.452095 18.67388,-18.70317 32.69589,-16.902165 -0.97852,-26.447589 -2.53247,-35.086427 -31.93292,-28.48007 m 587.30584,-202.454845 c -37.00919,44.706572 -90.69721,74.926977 -143.86522,96.158533 -77.8387,31.146761 -126.19683,20.29725 -206.95254,18.726409 -107.28278,-2.096492 -103.29663,114.690141 -91.56592,194.158488 3.51769,7.10151 2.94217,12.14388 -1.72181,15.17775 -34.16101,-26.17405 -53.06419,-69.49713 -83.09615,-100.71252 -1.85593,10.849208 83.78848,133.00151 99.32898,129.50952 28.39351,-6.3801 -44.33685,-207.013456 86.18838,-209.3658167 80.18416,-1.4858982 133.39047,13.1486677 211.9689,-17.8676163 57.71407,-22.807693 118.04756,-56.507191 154.72426,-108.205717 -8.00173,-6.33895 -16.31899,-12.19426 -25.00888,-17.57903 m 31.77761,-31.9511 c 34.31613,31.05239 65.48771,56.49261 104.51347,82.166707 -17.74843,-36.980227 -64.2532,-70.683937 -104.51347,-82.166707"
                           inkscape:connector-curvature="0"
                           style="fill:#f2bd7e"
                           id="path12005" />
                        <path
                           transform="matrix(0.03335422,-0.04177478,-0.04891137,-0.03146013,907.21491,823.71858)"
                           d="m -845.60015,65.622994 c -1.69882,39.609316 -5.00326,17.617374 25.88085,32.135355 2.74409,-20.036915 -7.74829,-26.847774 -25.88085,-32.135355 m 578.98811,-238.381774 c -8.07719,1.81497 -18.77014,26.82303 -23.69066,32.76443 8.68989,5.38477 17.00718,11.24024 24.98723,17.59683 16.13507,-22.71064 14.93614,-27.07053 42.20053,-12.07448 -7.594,-9.40941 -28.30086,-41.70141 -43.4971,-38.28678"
                           inkscape:connector-curvature="0"
                           style="fill:#f3c58a"
                           id="path12007" />
                        <path
                           transform="matrix(0.03335422,-0.04177478,-0.04891137,-0.03146013,907.21491,823.71858)"
                           d="m -864.29172,180.14231 c 3.70307,10.28359 7.39451,20.56977 11.10692,30.83845 -2.88482,-10.5449 -6.60039,-20.82565 -11.10692,-30.83845 m -14.10549,-72.35813 0,0"
                           inkscape:connector-curvature="0"
                           style="fill:#f1b26f"
                           id="path12009" />
                        <path
                           transform="matrix(0.03335422,-0.04177478,-0.04891137,-0.03146013,907.21491,823.71858)"
                           d="m -880.01642,63.104781 c -25.58688,8.251104 -14.22134,46.665499 -8.93096,63.839559 -0.0957,-0.23607 21.7189,53.21311 19.24947,55.76666 -6.87074,-7.90839 -15.32377,-14.99699 -21.69125,-24.16605 3.10402,6.63993 26.88059,55.75405 37.74444,53.31292 -17.9959,4.04372 -26.88804,-133.665695 -26.3717,-148.753089 M -147.68327,-124.2256 c 1.67539,5.55535 3.24767,11.0953 4.76045,16.68722 0.55849,1.40907 0.24163,2.27966 -0.9058,2.62775 -9.32101,-2.57359 -17.79692,-6.94908 -25.39804,-13.1716 5.78007,9.6493 20.52067,46.789598 41.62304,42.047848 6.28677,-1.4008 -18.52605,-45.484138 -20.07559,-48.192128"
                           inkscape:connector-curvature="0"
                           style="fill:url(#linearGradient12075)"
                           id="path12011" />
                        <path
                           transform="matrix(0.03335422,-0.04177478,-0.04891137,-0.03146013,907.21491,823.71858)"
                           d="m -732.94222,183.05934 c -0.36941,0.63681 -0.86142,1.04492 -1.51193,1.19109 0.50586,-0.40977 0.99512,-0.8301 1.51193,-1.19109 m -138.01971,-0.46407 c 0.34496,0.1033 0.67633,0.19681 1.01824,0.28656 -0.34223,-0.0912 -0.67359,-0.18462 -1.01824,-0.28656 m -11.31268,-11.95232 c 1.15525,1.35243 2.31832,2.74166 3.46093,4.09681 -1.15519,-1.35232 -2.31815,-2.74158 -3.46093,-4.09681 m -3.42305,-4.27287 c 1.90901,2.35642 1.90901,2.35642 0,0 m -3.42803,-4.58126 c 2.58194,3.45606 2.58194,3.45606 0,0 m -2.32226,-3.3339 c 0.0359,0.15998 3.77408,5.54805 0,0 m 13.80282,-95.98618 c -4.17935,2.46072 -8.31915,4.925508 -12.51107,7.389056 17.66224,-13.678863 58.26153,0.345406 52.46499,-1.691986 -12.88407,-5.46112 -26.21069,-7.379642 -39.95392,-5.69707 m 734.65311,-167.82517 c -0.29651,0.13776 -0.56572,0.33342 -0.84466,0.48591 0.27989,-0.14826 0.54936,-0.34278 0.84466,-0.48591 m -2.12639,-10.09632 c 0.49952,1.58988 0.49952,1.58988 0,0 m -2.08269,-7.11443 c 0.79392,2.71008 0.79392,2.71008 0,0 m -524.46841,99.78302 c 20.87492,-3.16889 41.75233,-3.114608 62.62965,0.21497 -20.6709,-2.524901 -42.01431,-4.25404 -62.62965,-0.21497 m -2.29576,0.515864 c -2.93273,0.658992 -2.93273,0.658992 0,0 m 472.58286,-117.435274 c 6.42372,4.37237 12.88261,8.72388 19.31852,13.09352 -6.43591,-4.36964 -12.85688,-8.72967 -19.31852,-13.09352 m 31.26768,-41.79161 c 8.69718,17.93029 15.96808,36.40016 21.83325,55.44404 -3.41837,-11.03121 -14.99421,-45.15588 -21.83325,-55.44404 m -96.54076,8.74616 c -3.598,1.95595 -3.598,1.95595 0,0"
                           inkscape:connector-curvature="0"
                           style="fill:#d69c5d"
                           id="path12013" />
                        <path
                           transform="matrix(0.03335422,-0.04177478,-0.04891137,-0.03146013,907.21491,823.71858)"
                           d="m -869.71024,182.71377 c -0.31684,0.19924 -0.31684,0.19924 0,0 m -21.76384,-24.31747 c 1.43986,6.40784 16.56279,21.88843 20.50664,24.17443 -7.81875,-7.19239 -14.66513,-15.22227 -20.50664,-24.17443 m 10.38804,-8.57539 c -2.74179,-12.20186 12.4714,31.62803 11.3758,32.89286 -2.31178,-11.43447 -6.12047,-22.41654 -11.3758,-32.89286 m 49.42583,-78.574295 c 16.50896,13.673292 79.96596,116.851655 97.20049,112.979015 -41.26433,-26.91203 -55.05249,-85.517697 -97.20049,-112.979015 m -6.0243,-3.108098 m -52.46211,1.704291 c -11.41457,14.222268 -4.80928,42.642192 1.18982,57.116602 -4.81048,-15.55399 -13.16196,-42.046981 -1.18982,-57.116602 m 747.21029,-177.365348 c -0.0926,2.81917 -0.0926,2.81917 0,0 m -39.12621,-19.11357 c 7.27382,5.74167 28.28925,23.97302 38.22044,21.74146 -13.94976,-4.97662 -26.69673,-12.23517 -38.22044,-21.74146 m -494.11041,104.838128 c -28.51158,7.115619 -46.92098,28.4290157 -55.2834,56.059976 -6.23634,20.512159 2.2109,147.515366 -2.58478,149.818036 4.06034,-3.45275 4.47979,-8.47303 1.28826,-15.04175 -8.99582,-59.25702 -22.20483,-171.1858479 56.57992,-190.836262 m 2.20902,-0.496374 c 4.66474,-1.105086 9.40496,-1.817212 14.18873,-2.221586 -4.73658,0.728349 -9.46067,1.455286 -14.18873,2.221586 M -269.3574,-171.31659 c -45.60647,47.82474 -76.25903,87.247299 -139.70378,116.62962 -86.85727,40.252708 -145.47169,29.554389 -235.8913,29.510139 80.79774,0.09145 131.53253,12.856891 209.95689,-18.382582 75.21601,-29.91267 112.78154,-72.371457 165.63819,-127.757177 m 2.71538,-1.46151 c -0.0113,0.003 -0.0113,0.003 0,0 25.32609,4.01939 46.65682,20.95484 67.75613,34.74428 -13.5708,-8.8658 -48.22584,-39.13279 -67.75613,-34.74428"
                           inkscape:connector-curvature="0"
                           style="fill:#2e3436"
                           id="path12015" />
                        <path
                           transform="matrix(0.03335422,-0.04177478,-0.04891137,-0.03146013,907.21491,823.71858)"
                           d="m -902.92613,124.99181 c -51.59736,-229.62514 139.8351,-434.72135 361.37748,-458.36377 241.70768,-25.77518 477.739898,173.23907 425.30056,427.492562 84.600788,-287.309462 -218.30431,-521.369552 -485.72466,-461.279502 -267.4461,60.09583 -438.37075,401.568068 -239.62537,624.30608 -29.4794,-39.14125 -50.57603,-84.30553 -61.32801,-132.15537"
                           inkscape:connector-curvature="0"
                           style="fill:#2e3436"
                           id="path12017" />
                        <g
                           id="g8545"
                           transform="matrix(0.52457881,-0.04860237,0.0622855,0.52974646,373.84404,448.30911)">
                          <rect
                             ry="0.91188908"
                             transform="matrix(-0.78749614,0.61631958,-0.71198539,-0.70219428,0,0)"
                             y="-1132.3441"
                             x="-33.744747"
                             height="27.273771"
                             width="16.3708"
                             id="rect7714"
                             style="opacity:1;fill:#000000;fill-opacity:1;stroke:#000000;stroke-width:0.04961379;stroke-linecap:round;stroke-miterlimit:4;stroke-dasharray:none;stroke-dashoffset:0;stroke-opacity:1" />
                          <rect
                             style="opacity:1;fill:#ffffff;fill-opacity:1;stroke:#000000;stroke-width:0.009413;stroke-linecap:round;stroke-miterlimit:4;stroke-dasharray:none;stroke-dashoffset:0;stroke-opacity:1"
                             id="rect8516"
                             width="7.964479"
                             height="2.0179408"
                             x="-29.508259"
                             y="-1130.6174"
                             transform="matrix(-0.78749614,0.61631958,-0.71198535,-0.70219432,0,0)"
                             ry="0.067469157" />
                          <rect
                             ry="0.014566159"
                             transform="matrix(-0.78749614,0.61631958,-0.71198539,-0.70219428,0,0)"
                             y="-1138.6615"
                             x="-28.8752"
                             height="9.2686281"
                             width="6.4144506"
                             id="rect8518"
                             style="opacity:1;fill:#f2f2f2;fill-opacity:1;stroke:#000000;stroke-width:0.08724617;stroke-linecap:round;stroke-miterlimit:4;stroke-dasharray:none;stroke-dashoffset:0;stroke-opacity:1" />
                          <rect
                             style="opacity:1;fill:#808080;fill-opacity:1;stroke:#000000;stroke-width:0.0428187;stroke-linecap:round;stroke-miterlimit:4;stroke-dasharray:none;stroke-dashoffset:0;stroke-opacity:1"
                             id="rect8520"
                             width="5.2223392"
                             height="2.7421052"
                             x="-28.421026"
                             y="-1141.3044"
                             transform="matrix(-0.78749614,0.61631958,-0.71198538,-0.70219429,0,0)"
                             ry="0.0043093693" />
                          <ellipse
                             ry="1.863071"
                             rx="1.8027339"
                             transform="matrix(-0.78749614,0.61631958,-0.71198539,-0.70219428,0,0)"
                             cy="-1135.8541"
                             cx="-25.866163"
                             id="path8533"
                             style="opacity:1;fill:#808080;fill-opacity:1;stroke:#000000;stroke-width:0.04888624;stroke-linecap:round;stroke-miterlimit:4;stroke-dasharray:none;stroke-dashoffset:0;stroke-opacity:1" />
                          <rect
                             ry="0.00070730405"
                             transform="matrix(-0.78749614,0.61631958,-0.71198539,-0.70219428,0,0)"
                             y="-1131.1835"
                             x="-33.500771"
                             height="24.786802"
                             width="1.0432372"
                             id="rect8535"
                             style="opacity:1;fill:#4d4d4d;fill-opacity:1;stroke:#000000;stroke-width:0.04961379;stroke-linecap:round;stroke-miterlimit:4;stroke-dasharray:none;stroke-dashoffset:0;stroke-opacity:1" />
                          <rect
                             style="opacity:1;fill:#4d4d4d;fill-opacity:1;stroke:#000000;stroke-width:0.04961379;stroke-linecap:round;stroke-miterlimit:4;stroke-dasharray:none;stroke-dashoffset:0;stroke-opacity:1"
                             id="rect8537"
                             width="1.0432372"
                             height="24.786802"
                             x="-18.883358"
                             y="-1131.1835"
                             transform="matrix(-0.78749614,0.61631958,-0.71198539,-0.70219428,0,0)"
                             ry="0.00070730405" />
                          <ellipse
                             style="opacity:1;fill:#000000;fill-opacity:1;stroke:#737373;stroke-width:0.161487;stroke-linecap:round;stroke-miterlimit:4;stroke-dasharray:none;stroke-dashoffset:0;stroke-opacity:1"
                             id="ellipse8539"
                             cx="-29.176435"
                             cy="-1124.642"
                             transform="matrix(-0.78749614,0.61631958,-0.71198539,-0.70219428,0,0)"
                             rx="2.5351071"
                             ry="2.6199565" />
                          <ellipse
                             ry="2.6199565"
                             rx="2.5351071"
                             transform="matrix(-0.78749614,0.61631958,-0.71198539,-0.70219428,0,0)"
                             cy="-1124.642"
                             cx="-22.503265"
                             id="ellipse8541"
                             style="opacity:1;fill:#4d4d4d;fill-opacity:1;stroke:#000000;stroke-width:0.06874662;stroke-linecap:round;stroke-miterlimit:4;stroke-dasharray:none;stroke-dashoffset:0;stroke-opacity:1" />
                          <rect
                             style="opacity:1;fill:#ffffff;fill-opacity:1;stroke:#000000;stroke-width:0.01865348;stroke-linecap:round;stroke-miterlimit:4;stroke-dasharray:none;stroke-dashoffset:0;stroke-opacity:1"
                             id="rect8543"
                             width="11.478641"
                             height="5.498435"
                             x="-31.263309"
                             y="-1119.6979"
                             transform="matrix(-0.78749614,0.61631958,-0.71198537,-0.70219429,0,0)"
                             ry="0.18383829" />
                        </g>
                        <rect
                           style="opacity:1;fill:#1e222d;fill-opacity:1;stroke:#888888;stroke-width:0.64594799;stroke-linecap:round;stroke-miterlimit:4;stroke-dasharray:none;stroke-dashoffset:0;stroke-opacity:1"
                           id="rect7576"
                           width="35.252533"
                           height="40.780285"
                           x="-77.737885"
                           y="-1195.9717"
                           transform="matrix(-0.78749614,0.61631958,-0.71198539,-0.70219428,0,0)"
                           rx="0.12304115"
                           ry="0.13664113" />
                        <path
                           style="overflow:visible;opacity:0.69899998;fill:#5b88c5;fill-opacity:1;fill-rule:evenodd;stroke:none;stroke-width:0.20876841;filter:url(#filter8803)"
                           d="m 900.83528,800.36668 c 0.70029,-0.70263 0.48613,-1.18024 -0.0497,-1.69457 -0.21018,-0.2018 -0.86786,-0.85008 -1.04617,-1.05566 -0.29947,-0.27732 -0.97881,-0.93182 -1.35256,-1.27941 -0.44804,-0.41666 -1.3829,-0.87132 -1.77239,-1.24335 -0.2262,-0.21606 -0.80713,-0.84026 -1.25045,-1.25448 -0.55645,-0.32859 -1.23949,-0.76933 -1.7857,-1.19839 l -1.02878,-0.80815 c -0.69778,-0.59919 -1.43372,-0.98509 -1.9195,-1.56964 -0.20421,-0.24573 -0.86353,-0.89309 -0.70187,-1.11387 0.27055,-0.3695 1.38376,-0.0186 2.74703,0.98206 0.86554,0.63871 0.27954,0.37942 1.20512,0.89885 0.59913,0.5647 0.98953,0.73658 1.88906,1.45947 0.64529,0.51861 1.84103,1.10614 2.41967,1.3869 0.65213,0.66106 1.3335,0.80293 2.11817,1.38181 0.55928,0.55895 0.6489,0.88965 1.73021,1.09221 0.61704,0.0185 1.03543,0.005 1.28788,-1.09663 0.0163,-0.53642 -0.12897,-0.90292 -0.48275,-1.35856 -0.29146,-0.37559 -0.73985,-0.89781 -1.10866,-1.14897 -0.45559,-0.39201 -0.7657,-0.94159 -1.3135,-1.36384 -0.53854,-0.41512 -1.35045,-0.73013 -1.76095,-1.08259 -0.56186,-0.49107 -1.48027,-0.87217 -2.14635,-1.44414 -0.93645,-0.62865 -1.27434,-0.85023 -2.237,-1.44075 -0.64345,-0.39023 -1.65386,-0.83591 -2.26876,-1.35806 -0.52644,-0.45208 -1.4169,-0.8551 -0.96899,-1.42226 -0.16054,-0.68853 1.71873,0.18996 2.34203,0.39874 0.86504,0.36452 3.24261,0.99603 3.8136,1.28351 0.56867,0.2642 1.99816,0.81476 2.51998,1.08174 0.95538,0.34649 0.97442,-0.011 1.53974,0.29113 0.62908,0.22814 1.42708,0.30667 1.72313,0.12961 0.39592,-0.23683 0.84345,-0.6404 0.64874,-1.17367 -0.31749,-0.50962 -1.30859,-1.00662 -2.04478,-1.51272 -0.9988,-0.61777 -2.20616,-0.77127 -2.85682,-1.05866 -0.46662,-0.20532 -2.79693,-1.14964 -3.39219,-1.43826 -0.61103,-0.26145 -1.48892,-0.56349 -1.97109,-0.72654 -0.5299,-0.17922 -1.58839,-0.85459 -2.18188,-1.19089 -0.85492,-0.48703 -0.99572,-0.12223 -1.54603,-0.5948 -0.35259,-0.30277 -0.75714,-0.4929 -1.22607,-0.89555 -0.5472,-0.53056 -1.26872,-0.8345 -1.79384,-1.38313 -0.11785,-0.15207 -0.56457,-0.52416 -0.98826,-0.8093 -0.51921,-0.51061 -1.45622,-0.94469 -1.89472,-1.19452 -0.52695,-0.3002 -1.74208,-0.94511 -1.93374,-1.1097 -1.33631,-0.44269 -2.04382,-0.98066 -2.7425,-1.13543 -0.49966,-0.0949 -1.12677,-0.2919 -1.60921,-0.3262 -0.69597,-0.61849 -1.44091,-1.26065 -1.83834,-1.57229 -0.50047,-0.39245 -0.17096,-0.20322 -0.80228,-0.70487 l -8.26021,5.83025 c 0.0985,0.1273 0.87735,1.03211 1.30784,1.59636 0.38137,0.4998 0.91456,1.23339 1.31751,1.93035 -0.21826,0.6024 -0.33986,1.24216 -0.27831,1.94463 -0.1763,0.93061 0.45715,1.85462 0.77336,2.78838 0.29051,1.07244 0.75079,2.12142 1.03047,3.20541 0.14431,0.49281 0.5525,1.39676 0.93571,2.49492 0.31926,0.9343 1.09825,2.42115 1.44698,2.93396 0.18521,0.34405 0.76041,1.32241 1.1135,1.9395 0.28925,0.58172 0.70418,1.48519 0.92752,2.05538 0.20443,0.52198 1.24507,1.38372 1.63786,1.721 0.57319,0.40044 0.9162,0.10024 1.01202,0.0429 0.29246,-0.17449 0.97651,-0.62255 0.97198,-1.01406 0.45058,-0.92751 0.64154,-1.23942 0.0919,-2.3227 -0.17446,-0.34981 -1.00471,-1.9873 -1.05214,-2.34392 0.12908,-1.1845 -0.75236,-2.68785 -0.1342,-3.78417 0.69442,-2.93765 1.17547,0.11718 2.79712,1.26122 0.77189,1.16303 1.7573,2.34637 2.75087,3.22551 0.59081,1.18773 1.62206,1.93428 2.64639,2.91618 0.37036,0.35442 1.16964,1.33265 1.67195,1.78995 0.58286,0.53065 1.48388,1.56269 2.09211,2.1111 0.37989,0.34251 1.1122,0.88287 1.48772,1.15956 0.39474,0.29084 1.058,0.82605 1.49339,1.20374 0.26893,0.23331 0.85476,0.47051 1.26893,0.46019 0.70649,0.0826 1.55386,-0.24377 1.56606,-0.89743 0.0439,-0.85235 -0.46216,-1.19735 -0.63059,-1.52483 -0.26217,-0.50963 -0.83623,-0.92776 -1.23424,-1.3351 -0.42133,-0.41096 -0.8186,-0.81525 -1.61902,-1.39026 -0.32362,-0.27786 -1.00153,-0.90242 -1.40345,-1.2838 -0.43614,-0.41385 -1.23724,-1.29388 -1.52409,-1.62367 -0.42945,-0.49362 -1.09981,-1.48273 -1.58276,-1.85809 -0.6385,-0.4963 -0.42138,-0.71578 -0.79266,-1.10064 -0.39073,-0.40503 -0.77092,-1.19689 -0.79504,-1.62673 -0.0187,-0.33027 0.81709,-0.20306 1.4831,0.36886 0.9229,0.87368 2.1806,1.67243 2.56091,2.0418 0.33773,0.32808 0.79872,0.64656 0.87442,0.71159 0.14734,0.19012 0.37873,0.32521 0.56809,0.4878 0.41144,0.35331 0.13319,0.45786 0.69974,0.89411 0.34821,0.2681 0.64832,0.70754 2.0047,1.28523 1.23749,1.06264 0.61076,0.24224 1.15679,0.70642 0.36147,0.30704 1.17047,0.85569 1.46974,1.02621 0.59586,0.48687 1.32397,0.90385 1.81565,1.16556 0.65799,0.30956 1.78618,0.62468 2.3636,0.18107 z"
                           id="pathContourMain-7"
                           inkscape:connector-curvature="0"
                           sodipodi:nodetypes="ccccccscccccsccccccccccccccccsccccccscccccccsccccccccccccccccccccccsscccccccscccccsccccccc" />
                        <g
                           inkscape:label="xray hand"
                           id="layer1-6"
                           transform="matrix(0.03374371,-0.02640889,-0.03151556,-0.03108217,888.18863,813.47805)"
                           style="fill:#93d8eb;fill-opacity:1;filter:url(#filter8599)">
                          <path
                             d="m 635.50074,311.04476 c 0,0 16.65805,-13.6926 19.57306,-19.91669 2.91521,-6.22389 10.41103,-25.30984 15.40904,-28.21515 4.99742,-2.90451 14.57604,-7.05363 17.07405,-3.73425 2.49871,3.31938 11.24403,18.67127 9.57843,21.99106 -1.66581,3.31938 -7.49612,20.74564 -10.82803,32.77934 -3.33161,12.03271 -10.84503,32.81721 -17.37505,39.60622 l -6.19102,-0.96247 c 0,0 9.40663,-21.2169 11.48903,-24.12121 2.08221,-2.90451 16.24205,-42.7367 16.65805,-47.71637 0.41645,-4.97907 -4.99741,-15.35249 -7.49612,-15.76696 -2.49871,-0.41493 -7.07962,2.48953 -9.57843,4.5642 -2.4987,2.07456 -9.99483,16.18243 -12.91003,22.821 -2.91521,6.63876 -8.32903,12.03271 -8.32903,12.03271 l -15.82504,14.93702 -1.24941,-8.29846 z M 50.139099,431.63091 45.177085,423.30157 c 0,0 -2.350307,-6.7647 -0.261141,-8.84614 2.089106,-2.08144 12.012034,-5.72403 14.624041,-4.9434 2.611408,0.78054 12.274035,2.34168 16.452047,6.24441 4.178211,3.90274 6.006217,6.24432 8.356523,7.80547 2.350307,1.56106 9.401027,7.80547 9.401027,7.80547 l 12.796038,9.88691 -13.31804,-2.34158 -9.139926,-7.02494 c 0,0 -7.834222,-8.32586 -10.184028,-9.62677 -2.350307,-1.30091 -7.573022,-5.46379 -9.662227,-5.72403 -2.089106,-0.26017 -8.095323,-2.60182 -9.401027,-1.04077 -1.305704,1.56106 -4.700513,2.34158 -4.700513,3.90274 0,1.56105 1.566804,5.98417 1.566804,5.98417 l 4.178212,6.7647 -0.783422,2.86197 -4.961614,-3.38235 z M 284.84976,965.46599 c -4.03441,-1.18992 -5.34132,-5.50394 -5.06132,-16.7075 0.20762,-8.30672 2.04751,-16.18244 4.08862,-17.50158 2.0411,-1.31915 4.57861,-4.66872 5.63881,-7.4436 1.06021,-2.77489 2.04751,-0.0367 2.19411,6.0846 0.15866,6.61914 -1.1016,10.28714 -3.10931,9.05099 -1.85671,-1.14329 -3.37581,0.28085 -3.37581,3.16495 0,2.88398 1.5191,5.2437 3.37581,5.2437 1.8567,0 3.37581,2.30561 3.37581,5.12354 0,4.29708 5.85372,5.05639 36.2901,4.70787 19.96006,-0.22872 45.37613,-1.39905 56.48116,-2.60093 l 20.19106,-2.18525 0.95458,-12.46612 c 0.91988,-12.01278 0.12423,-13.00413 -21.87906,-27.28158 -12.55804,-8.14871 -29.66909,-18.21595 -38.02511,-22.37166 -8.35522,-4.1559 -19.83105,-11.94403 -25.50207,-17.3063 -10.15603,-9.60335 -10.41403,-9.65426 -17.16205,-3.39042 -4.65741,4.32319 -6.72162,10.25326 -6.44622,18.52083 0.2228,6.68888 -0.78917,12.16124 -2.2487,12.16124 -1.45954,0 -2.65371,2.86515 -2.65371,6.36706 0,3.50191 -2.37801,7.27622 -5.28452,8.38753 -3.82891,1.46391 -4.84001,0.40496 -3.67061,-3.84445 0.88765,-3.22573 2.54041,-11.91913 3.67291,-19.31889 1.81581,-11.86433 1.50751,-12.75904 -2.6093,-7.56775 -7.33222,9.24498 -8.57813,6.96397 -3.67431,-6.72693 9.24772,-25.81798 2.6224,-58.3054 -12.90904,-63.30001 -3.24921,-1.04486 -5.90772,-3.4237 -5.90772,-5.28625 0,-1.86254 -8.04042,-11.97691 -17.86805,-22.47627 -17.89805,-19.12261 -36.9631,-45.78248 -38.2191,-53.44428 -0.36817,-2.24563 -3.63651,-8.29985 -7.26302,-13.45348 -3.62651,-5.15393 -9.25903,-15.04662 -12.51704,-21.98408 -3.25771,-6.93707 -7.35882,-12.61258 -9.11353,-12.61258 -1.7547,0 -2.2673,-1.48812 -1.139,-3.30703 1.1283,-1.8189 -4.09901,-12.33061 -11.61603,-23.36001 -9.40923,-13.80519 -13.66804,-23.64995 -13.66804,-31.5977 0,-6.34963 -2.08911,-13.27215 -4.64251,-15.38338 -2.55341,-2.11133 -5.62762,-9.97628 -6.83162,-17.47866 -2.87861,-17.93598 -19.24706,-53.53196 -34.0681,-74.08531 -6.516216,-9.03674 -11.848031,-19.4544 -11.848031,-23.14979 0,-3.6955 -2.249706,-6.71917 -4.999414,-6.71917 -2.749708,0 -5.930517,-4.16228 -7.06842,-9.24946 -3.824811,-17.09906 -11.643033,-30.71096 -21.765061,-37.89153 -10.010028,-7.10166 -13.133037,-13.40067 -6.644219,-13.40067 1.874905,0 6.052517,3.14831 9.283526,6.99625 3.231109,3.84793 9.174826,10.60994 13.208037,15.02669 4.033512,4.41694 8.323024,11.137 9.532227,14.93303 2.176806,6.83335 2.262606,6.82608 8.633024,-0.73245 4.065312,-4.82345 7.391821,-6.35451 9.034821,-4.1584 4.81412,6.43492 12.71204,3.42061 13.51404,-5.15771 0.69167,-7.40156 0.44826,-7.60302 -2.0324,-1.68171 -2.81821,6.72694 -2.81821,6.72694 -5.00192,0 -1.2011,-3.69978 -8.30742,-10.20345 -15.792041,-14.45281 -7.484421,-4.24935 -12.683036,-9.21777 -11.552033,-11.04135 1.228304,-1.98022 6.526518,-0.56218 13.159037,3.52183 6.106417,3.76016 13.291037,6.83664 15.967047,6.83664 2.67521,0 7.75272,2.10445 11.28303,4.67668 5.51052,4.01463 5.85112,5.91932 2.40551,13.45349 -3.48211,7.61437 -3.24081,8.78396 1.8215,8.8286 10.28103,0.0908 15.32904,5.75033 15.01304,16.83304 -0.54695,19.16645 19.15006,55.12908 31.33309,57.20743 1.85671,0.31684 3.01121,1.89304 2.56551,3.50271 -0.44569,1.60968 2.34141,4.60724 6.19352,6.66128 3.85211,2.05404 9.17432,8.91021 11.82703,15.23592 2.65281,6.32572 6.53432,11.50167 8.62562,11.50167 10.61503,0 26.49008,34.95235 26.49008,58.32532 0,38.81612 40.96911,87.51687 57.21616,68.01266 4.81481,-5.78013 2.19861,-60.71751 -5.17372,-108.64012 -2.6291,-17.09209 -4.78021,-35.37579 -4.78021,-40.63244 0,-5.25606 -3.93181,-17.00242 -8.73732,-26.10293 -6.36012,-12.04466 -9.17753,-23.40983 -10.35503,-41.77224 -0.88984,-13.87394 -3.25131,-28.55689 -5.24762,-32.62791 -2.3489,-4.79017 -2.6215,-13.09878 -0.77256,-23.54434 6.00142,-33.9042 2.32951,-98.78141 -6.82632,-120.61604 -2.72531,-6.49868 -3.49001,-10.91383 -1.6993,-9.81099 1.7907,1.10265 3.25581,-1.20088 3.25581,-5.11905 0,-3.91818 -1.51911,-6.18852 -3.37581,-5.04523 -1.85671,1.14329 -3.56971,0.0974 -3.80671,-2.32405 -0.23698,-2.42159 -0.84217,-8.18667 -1.34491,-12.81184 -0.50273,-4.62478 2.78491,-21.25576 7.30572,-36.95697 5.14282,-17.86225 6.91002,-28.98332 4.72072,-29.71064 -6.52542,-2.16713 -4.05092,-37.59762 3.47281,-49.72697 5.49681,-8.86128 6.50771,-14.32328 4.77801,-25.81598 -2.64601,-17.58029 2.60851,-23.58021 19.25605,-21.98807 11.12403,1.06389 11.20703,1.20338 13.62604,22.9326 1.33901,12.02474 3.38481,28.97734 4.54651,37.67233 1.43721,10.7584 0.30856,21.22089 -3.53271,32.74249 -5.12591,15.3764 -5.17651,18.56068 -0.55005,34.64149 3.05451,10.61692 5.78582,38.58597 6.82042,69.84292 1.92231,58.07624 7.14442,86.02337 20.23106,108.27148 7.00742,11.91315 8.73802,19.06782 8.44612,34.91947 -0.21707,11.7916 1.87761,25.0777 5.12792,32.52329 4.70941,10.7873 4.94491,16.07782 1.6473,36.99782 -7.67342,48.68082 2.63991,160.021 15.70405,169.53598 3.45311,2.51574 7.35402,3.43316 8.66872,2.03889 3.97841,-4.21956 13.16404,-64.5504 13.16404,-86.46175 0,-30.66712 -6.47902,-76.51537 -12.00704,-84.96925 -5.91211,-9.03983 -6.26621,-27.4948 -0.87171,-45.43377 3.08301,-10.25226 3.08301,-14.76565 0,-19.68454 -5.84112,-9.3188 -4.93021,-20.76059 3.25001,-40.82374 6.68122,-16.38669 7.27732,-24.14314 7.59562,-98.82923 0.23327,-54.70266 1.58461,-82.58104 4.15771,-85.76831 6.03022,-7.46772 14.75304,-41.34183 14.77404,-57.37183 0.027,-19.83698 5.78702,-39.05724 15.51905,-51.76945 5.38831,-7.03849 8.09342,-15.01872 8.09342,-23.876117 0,-16.096751 4.65071,-21.376319 18.82905,-21.376319 14.70605,0 19.82706,7.026338 16.56805,22.731332 -1.4362,6.921424 -2.88291,23.935894 -3.21471,37.810824 -0.33184,13.87394 -3.29651,35.73746 -6.58802,48.58517 -4.38771,17.12696 -5.37201,29.06004 -3.68851,44.72239 1.74441,16.22926 1.09561,23.18765 -2.70021,28.9604 -3.3654,5.11747 -6.39281,26.11787 -9.27442,64.3352 -3.92321,52.03149 -3.76241,59.35055 1.9388,88.24021 4.47862,22.69347 5.30062,34.05067 2.94021,40.6165 -2.2742,6.32552 -1.8899,15.16917 1.25631,28.90561 3.47611,15.17614 3.64271,22.23515 0.71426,30.27058 -9.60443,26.35698 -17.67305,143.67118 -10.19803,148.27424 5.78232,3.56049 10.37503,-10.92579 16.03704,-50.58581 5.30002,-37.12137 5.27432,-39.938 -0.51937,-56.92049 -6.83442,-20.03326 -5.60361,-33.49372 4.83732,-52.90328 3.99201,-7.42098 5.34501,-13.21535 3.36971,-14.43188 -6.03592,-3.71671 -3.41131,-23.8263 5.29701,-40.58561 4.72871,-9.1005 10.68003,-22.60081 13.22604,-30.00057 7.36162,-21.39924 18.68705,-83.44187 18.68705,-102.37319 0,-13.38972 3.07121,-23.55132 13.56304,-44.87682 11.76803,-23.92095 13.75804,-31.30378 15.04204,-55.8036 1.2213,-23.30323 2.98001,-30.39313 10.06803,-40.58362 5.76722,-8.29158 8.58852,-16.84899 8.58852,-26.05012 0,-7.53616 1.89891,-15.18212 4.21982,-16.99146 7.13482,-5.56183 20.51505,-7.53536 25.14307,-3.70845 5.41281,4.47573 5.69541,19.83201 0.57112,31.03776 -3.01061,6.58317 -2.68981,11.18782 1.5076,21.63935 2.93261,7.30232 4.66002,13.94667 3.83881,14.76466 -0.82128,0.81823 -2.2224,9.11903 -3.11361,18.4461 -0.89122,9.32717 -3.1764,21.03557 -5.07821,26.02023 -1.90181,4.98375 -3.48111,13.12469 -3.50951,18.0914 -0.027,4.96682 -1.5937,11.30041 -3.47841,14.07619 -2.55151,3.75668 -2.96421,2.46812 -1.616,-5.04523 l 1.8106,-10.09085 -3.80751,9.63852 c -2.11031,5.34204 -2.49551,10.59002 -0.86415,11.77167 7.29232,5.28614 5.02431,28.5539 -5.07762,52.09226 -5.67401,13.22034 -14.85804,43.7141 -20.40805,67.76258 -8.27623,35.85802 -9.74823,48.26336 -8.18193,68.95121 1.68421,22.24413 1.09081,26.15473 -5.02051,33.08522 -5.59532,6.34564 -6.58742,10.88095 -5.14992,23.54434 1.37241,12.0895 -0.11478,19.92466 -6.48711,34.18318 -4.54722,10.17455 -9.30363,27.58048 -10.57003,38.67963 -1.26611,11.09915 -6.14482,35.83211 -10.84103,54.9617 -4.69672,19.12959 -7.73033,35.58701 -6.74142,36.57238 3.76621,3.75249 12.22903,-2.56226 19.90705,-14.85532 8.07023,-12.91944 24.97807,-60.80021 23.34207,-66.10169 -0.48815,-1.58218 0.68428,-4.76357 2.60541,-7.06988 2.4137,-2.89773 2.3418,-7.48306 -0.2326,-14.84038 -4.32142,-12.35054 -1.89621,-24.84355 7.32852,-37.75104 3.59001,-5.02311 6.53521,-12.68332 6.54501,-17.02235 0.0203,-9.51767 6.04642,-18.94526 30.04809,-47.01594 18.44505,-21.5726 30.48908,-43.0615 30.62508,-54.63989 0.0895,-7.62941 17.78205,-39.34418 31.65809,-56.74712 7.09752,-8.90194 10.81903,-18.21197 12.64804,-31.64154 1.6829,-12.35552 5.09651,-21.49588 9.73513,-26.06705 5.83771,-5.75213 6.73732,-5.96276 4.92171,-1.15256 -3.53841,9.3742 0.60012,6.84012 8.23972,-5.04523 5.35152,-8.32566 7.03992,-9.40508 7.08322,-4.52853 0.0313,3.52144 -6.01961,11.99186 -13.44603,18.82272 -7.42683,6.83125 -13.38004,15.30167 -13.22904,18.82271 0.22348,5.22059 1.0026,4.82385 4.21981,-2.14938 3.11371,-6.74896 6.18182,-8.43137 14.55204,-7.97963 9.83743,0.53093 10.75703,-0.36942 12.69204,-12.42328 16.98704,-6.31625 -0.69329,5.87099 9.21682,37.36348 -4.01641,3.92017 -6.59802,9.54228 -9.10632,10.27418 -7.52062,6.21871 -13.99604,19.76824 -16.84405,35.24826 0.43348,15.38936 -6.20752,10.37481 -17.03405,48.33011 -6.44562,12.20209 -15.38704,27.21782 -19.87005,33.36918 -8.27353,11.35121 -18.61006,41.32489 -18.61006,53.96437 0,3.81316 -4.55741,12.10444 -10.12802,18.42518 -7.38303,8.37796 -10.12803,14.89417 -10.12803,24.04449 0,6.90349 -2.94001,18.05555 -6.53332,24.78179 -12.36304,23.14282 -39.81911,95.96478 -54.70215,145.08597 -1.96171,6.47467 -8.09073,21.75194 -13.62004,33.94904 l -10.05303,22.17737 8.69602,12.76701 c 10.67003,15.66534 10.71803,19.13258 0.56934,40.84865 -6.93041,14.82941 -10.26602,18.08742 -23.79006,23.23348 -13.89004,5.28525 -38.97611,28.12149 -38.97611,35.4814 0,4.59011 28.68408,-1.23954 37.9711,-7.71699 5.23842,-3.65375 13.32104,-6.00669 18.56706,-5.40531 9.26242,1.06169 9.29002,1.14389 9.12272,27.13114 -0.0922,14.33623 -1.7104,27.6024 -3.59571,29.48148 -1.8854,1.87849 -26.87507,4.11715 -55.53315,4.97499 -28.65808,0.85782 -73.37321,2.24305 -99.36728,3.07827 -25.99408,0.83525 -49.70914,0.79681 -52.70015,-0.0854 l -4e-5,-1.1e-4 z M 475.5603,944.06078 c -1.43441,-6.64205 -1.05221,-7.38392 1.7669,-3.43007 1.97851,2.77488 3.62051,3.70516 3.64891,2.06739 0.0801,-4.61711 -16.59005,-18.88449 -22.06506,-18.88449 -2.68941,0 -4.88982,1.3037 -4.88982,2.89703 0,1.59334 -3.80661,2.17201 -8.45902,1.28587 -11.14803,-2.12328 -18.54805,4.43029 -18.54805,16.42654 l 0,9.69551 25.18807,-0.79122 c 25.00207,-0.78537 25.17407,-0.85388 23.35807,-9.26649 z m 10.72803,-29.35794 c -1.77931,-4.61969 -2.86921,-4.49744 -8.97393,1.00699 l -6.94862,6.26534 7.86302,6.37354 c 7.78042,6.30659 7.87472,6.29593 8.97393,-1.00699 0.61102,-4.05926 0.19951,-9.74672 -0.91435,-12.63848 z m -69.4012,2.18566 c 0,-4.32857 -2.32031,-6.52837 -6.88622,-6.52837 -11.58403,0 -33.70409,-13.22732 -37.1291,-22.20228 -1.77841,-4.66045 -4.75552,-7.53636 -6.61562,-6.39098 -4.03971,2.48754 -4.35261,-1.67414 -0.57204,-7.6079 1.886,-2.9602 4.68521,-0.50946 9.23192,8.08285 3.79791,7.17728 11.85104,15.08348 19.26906,18.91638 10.94903,5.65787 14.16404,5.99901 22.83006,2.42268 13.14904,-5.42653 15.95105,-16.7892 7.64212,-30.99392 -4.65121,-7.95133 -9.65663,-11.5734 -18.07205,-13.07687 -6.40182,-1.14389 -9.07092,-2.27911 -5.93122,-2.52261 3.13971,-0.24352 6.74802,-2.1185 8.01843,-4.16657 1.5775,-2.54314 -0.23226,-2.97764 -5.70852,-1.37035 l -8.01842,2.35344 7.59562,-5.54729 c 4.17761,-3.05107 7.61892,-8.86696 7.64732,-12.92442 0.0429,-6.13542 0.65566,-6.52798 3.64011,-2.33192 2.80481,3.94348 3.26441,3.02546 2.10441,-4.20433 -0.81624,-5.08727 -0.17554,-9.24945 1.4236,-9.24945 1.59921,0 2.90771,3.02706 2.90771,6.72694 0,8.53937 5.46082,8.68782 9.98183,0.27143 2.5191,-4.68974 2.3208,-6.96297 -0.7252,-8.31071 -2.30611,-1.02045 -1.15461,-1.521 2.5588,-1.11231 4.08251,0.44926 6.38502,-1.01795 5.82402,-3.71134 -0.51015,-2.44988 0.52525,-3.55969 2.30091,-2.46632 1.7757,1.09338 5.64041,-1.44279 8.58822,-5.63605 2.94781,-4.19317 6.84962,-7.81324 8.67062,-8.04449 7.92833,-1.0068 7.92083,-1.77706 -0.0652,-6.658 -4.64181,-2.83705 -5.67111,-4.30236 -2.2873,-3.25631 7.79652,2.41033 19.16705,-3.50082 19.16705,-9.96433 0,-2.70972 -1.5191,-4.92686 -3.37581,-4.92686 -1.8567,0 -3.37581,-1.67543 -3.37581,-3.7233 0,-2.04776 2.10431,-2.91875 4.67622,-1.93547 12.47203,4.76845 29.60408,-27.25967 23.99606,-44.86188 -1.6246,-5.09982 -1.193,-6.7638 1.34821,-5.19896 2.2825,1.40553 3.73751,-0.4663 3.73751,-4.8084 0,-3.91031 4.58551,-17.84631 10.19003,-30.96802 5.60451,-13.1217 9.60612,-24.44004 8.89262,-25.15042 -0.71358,-0.71094 -6.32852,10.84807 -12.47803,25.68745 -6.14912,14.83938 -11.92004,26.24241 -12.82404,25.34172 -1.90261,-1.89562 32.14109,-87.07749 39.29511,-98.3221 2.63811,-4.14644 5.92742,-6.84261 7.30962,-5.99155 3.20501,1.97354 11.06803,-14.37807 11.68903,-24.30852 0.26028,-4.16228 -1.3334,-7.56775 -3.54181,-7.56775 -2.4881,0 -3.26841,-2.84522 -2.0517,-7.48106 1.08,-4.11456 2.58351,-5.62808 3.34111,-3.36342 1.5301,4.57366 7.56662,5.68119 7.56662,1.38829 0,-6.59134 -14.43504,-17.43383 -22.91807,-17.21464 -7.70252,0.19879 -8.12182,0.63852 -2.6472,2.77529 6.09081,2.37725 6.12221,2.68521 0.49368,4.83709 -3.30611,1.26405 -5.23452,4.31472 -4.28531,6.77925 0.94918,2.46453 0.2039,6.61406 -1.65611,9.22116 -2.57821,3.6137 -2.90321,3.14154 -1.3673,-1.98669 1.9846,-6.62661 1.939,-6.6295 -3.05741,-0.19811 -5.69992,7.3371 -6.88122,16.845 -1.69621,13.65175 2.10961,-1.29902 3.37581,5.61753 3.37581,18.44112 0,15.76099 -2.3485,25.52406 -10.12802,42.10104 -5.57012,11.87031 -10.12703,22.86883 -10.12703,24.44303 0,1.57341 -2.28241,5.79886 -5.07202,9.38974 -4.99461,6.42924 -5.03801,6.42625 -2.83801,-0.1981 2.65351,-7.98989 1.19661,-6.67204 -6.96531,6.30011 -3.34401,5.31504 -4.40342,8.63113 -2.35411,7.36928 2.0493,-1.26196 3.72601,-1.33937 3.72601,-0.17221 0,4.18818 -17.73505,32.17756 -19.36206,30.55653 -0.91458,-0.9112 1.87171,-7.41222 6.19172,-14.44683 l 7.85462,-12.78992 -11.82603,10.08986 c -11.41403,9.73876 -11.71403,10.58703 -8.59732,24.34739 2.9324,12.94734 2.4797,14.91709 -4.92672,21.44506 l -4.68461,4.782 9.61323,2.08622 c 5.43061,0.66626 8.85862,-1.59782 8.85862,-0.21959 0,1.37823 1.0171,5.27837 2.26041,8.6669 2.1597,5.88693 1.9601,5.89918 -4.48561,0.27513 -3.34111,-2.60153 -45.08013,0.96937 -11.97704,-24.64031 0.54388,-3.73286 -0.29269,-10.23931 -1.8593,-14.45778 -2.75571,-7.42208 -3.05931,-7.28051 -9.35223,4.36184 -7.02062,12.98919 -13.61304,16.24521 -10.74203,5.30607 0.9711,-3.69978 0.2991,-6.72694 -1.4934,-6.72694 -1.79251,0 -2.30481,-1.53824 -1.13861,-3.41832 1.16621,-1.88008 3.36241,-2.65353 4.88052,-1.71877 6.46291,3.97965 11.30503,-9.41435 10.65603,-29.47551 -0.59983,-18.54275 13.04103,-95.35203 22.98406,-129.42362 1.76511,-6.04794 2.16761,-10.39972 0.89439,-9.67041 -1.2732,0.72916 -5.07251,0.32559 -8.44282,-0.89693 -5.70382,-2.06889 -5.60582,-2.67994 1.4164,-8.82861 7.22602,-6.32721 7.44572,-6.33747 5.20672,-0.24418 -1.98371,5.39873 -1.55931,5.71825 2.80341,2.11073 5.68031,-4.69691 7.03082,-16.88086 1.8711,-16.88086 -3.74431,0 -0.48598,-10.71656 4.21621,-13.86696 4.63152,-3.10308 -3.51621,-16.33189 -10.34903,-16.80216 -5.70551,-0.39278 -15.51304,0.54299 -16.34104,1.55916 -0.2336,0.28657 -1.35881,4.30496 -2.50071,8.92973 -1.1419,4.62478 -1.204,6.51672 -0.13807,4.20433 4.45631,-9.66722 7.39212,-3.27315 3.14611,6.85178 -2.93911,7.0084 -4.13351,19.01401 -3.26251,32.79329 0.96478,15.26283 0.48632,19.23321 -1.6064,13.32894 -2.57681,-7.26994 -3.03431,-6.35899 -3.37871,6.72694 -0.21909,8.32456 -2.82141,31.0278 -5.78302,50.4513 -2.96161,19.42351 -5.53802,37.89253 -5.72532,41.04194 -0.18736,3.14921 -1.0188,5.05021 -1.8478,4.22425 -1.64731,-1.64126 -8.19712,8.76404 -13.85004,22.00301 -1.97471,4.62478 -4.98271,11.43591 -6.68442,15.13529 -1.7017,3.69979 -4.04271,10.10481 -5.20221,14.23361 -1.70091,6.05661 -2.97771,6.70632 -6.60952,3.36342 -2.47571,-2.27881 -4.02961,-4.92706 -3.45301,-5.88494 0.57662,-0.95791 1.9868,-28.20219 3.13381,-60.54215 1.8374,-51.80731 7.53952,-112.43615 13.43803,-142.88408 l 1.95471,-10.08986 -4.43581,9.32886 c -5.97562,12.56774 -9.23113,8.29586 -4.75422,-6.23784 2.45191,-7.9599 4.46252,-10.30507 6.32612,-7.37974 1.95941,3.07618 2.74631,3.15618 2.78341,0.28287 0.027,-2.20319 -1.4674,-4.94121 -3.32421,-6.0846 -1.8567,-1.1433 -3.37581,-6.42197 -3.37581,-11.73083 0,-15.93933 -14.13004,-25.0488 -26.62507,-17.16482 -2.85361,1.80058 -4.03282,6.33778 -3.01961,11.61924 1.0152,5.29082 0.34616,7.85409 -1.71811,6.58297 -2.1441,-1.32034 -2.5456,1.48473 -1.0977,7.66957 1.4327,6.11997 1.1625,8.08055 -0.72577,5.26482 -2.41321,-3.59856 -3.43561,-3.37777 -5.16632,1.11599 -3.44801,8.95235 -2.4948,21.94622 1.54261,21.0286 2.0352,-0.46248 5.07391,2.94297 6.75272,7.56774 2.9709,8.18408 2.9051,8.22892 -2.46651,1.68171 -5.51902,-6.72694 -5.51902,-6.72694 -2.83771,0 1.47471,3.69979 3.38161,28.67346 4.23751,55.49673 1.63041,51.09494 -2.906,96.04249 -11.84403,117.35804 -3.42411,8.16504 -4.58071,20.59718 -3.77211,40.54576 0.87991,21.7071 0.13031,28.56386 -3.05361,27.9292 -2.32091,-0.46247 -4.21981,0.67269 -4.21981,2.52261 0,1.84992 1.3566,3.36342 3.01461,3.36342 1.6581,0 3.91931,2.34896 5.02511,5.21989 1.15281,2.99318 0.58689,4.34331 -1.3267,3.16495 -1.83541,-1.13024 -3.33721,0.7588 -3.33721,4.19775 0,3.43895 -1.55141,7.79839 -3.44761,9.68764 -3.74611,3.73236 0.79602,45.50849 5.75752,52.95509 1.5146,2.27323 0.0952,1.24531 -3.15391,-2.2841 -3.24921,-3.52951 -6.02762,-9.65506 -6.17422,-13.6119 -0.14651,-3.95733 -1.0435,-5.27109 -1.99311,-2.91935 -0.94966,2.35174 -0.13098,8.83608 1.81911,14.40996 1.9502,5.57369 2.26991,9.34839 0.71058,8.38823 -1.5593,-0.9602 -5.36691,-9.71495 -8.46132,-19.45539 -3.09441,-9.74005 -6.28512,-19.64669 -7.09042,-22.01597 -1.96131,-5.76817 -26.11308,6.35282 -33.4481,16.78622 -5.05911,7.19641 -4.81101,7.77159 5.68462,13.17949 6.03602,3.10995 10.85703,6.93338 10.71403,8.49662 -0.14314,1.56325 4.71291,8.09431 10.79103,14.51358 12.16303,12.84472 12.48003,18.71213 0.42715,7.90192 -8.00372,-7.17818 -16.02204,-12.36948 -16.02204,-10.37183 0,3.6144 33.63109,25.94351 42.20611,28.02385 5.56552,1.34963 15.82005,7.5267 22.78807,13.72648 6.96802,6.20018 15.60104,11.27251 19.18405,11.27251 3.58301,0 7.48582,3.04907 8.67293,6.77576 2.5834,8.10975 8.42402,5.60626 8.42402,-3.61081 l 4e-5,0 z m -40.51011,-48.77049 c 0,-2.88399 -1.51911,-4.30824 -3.37581,-3.16495 -1.91461,1.17896 -3.37581,-1.64684 -3.37581,-6.52837 0,-9.74404 5.65911,-11.05431 15.39004,-3.56199 6.18012,4.75808 6.21982,5.30328 0.69768,9.58203 -3.22041,2.49531 -4.86611,5.52237 -3.65711,6.72694 1.20901,1.20447 0.42576,2.19004 -1.7404,2.19004 -2.16617,0 -3.93851,-2.35972 -3.93851,-5.2437 z m 77.64421,-1.79081 c 3.29071,-2.31867 3.75382,-4.10967 1.32271,-5.11497 -2.05761,-0.85085 -6.61492,-3.83598 -10.12803,-6.63369 -5.49042,-4.373 -4.86521,-4.35317 4.45571,0.14094 10.18503,4.91082 11.05503,4.83211 14.34704,-1.29783 4.81102,-8.95643 4.22811,-17.50457 -1.7289,-25.35467 -4.86862,-6.41599 -5.43302,-6.20257 -18.78805,7.10305 l -13.76804,13.71751 5.47831,10.55515 c 5.75612,11.09018 10.41803,12.7959 18.80805,6.88406 l 0,7e-5 z M 295.35079,805.63061 c 0,-4.09313 9.86493,-12.69926 14.76104,-12.8766 1.6199,-0.0589 1.1533,2.04437 -1.0369,4.67369 -2.65571,3.18817 0.25555,2.62793 8.74002,-1.68171 6.99722,-3.55431 15.95505,-6.46241 19.90606,-6.46241 12.46103,0 21.33506,-29.8571 9.11162,-30.65816 -12.01903,-0.78799 -19.25405,1.18793 -22.99006,6.27859 -4.67281,6.36697 -10.92503,3.07489 -15.14004,-7.97265 -2.03311,-5.32789 -6.72132,-8.87414 -13.52404,-10.22935 -5.72652,-1.1411 -12.81304,-5.72632 -15.74805,-10.18949 -2.935,-4.46298 -10.04802,-10.47744 -15.80704,-13.36481 -5.75862,-2.88737 -15.78705,-9.9992 -22.28606,-15.80483 l -11.81504,-10.55515 11.58504,12.56276 c 6.37161,6.90937 10.83003,13.314 9.90812,14.23262 -4.93331,4.91521 -50.18714,-57.56711 -50.18714,-69.29395 0,-2.46742 3.41801,1.73621 7.59562,9.34142 13.77804,25.08267 19.46706,30.17593 9.50393,8.50948 -5.38271,-11.70592 -10.82903,-28.83587 -12.10303,-38.06589 -1.90821,-13.82312 -3.29681,-16.37672 -7.87623,-14.48568 -20.71705,8.5577 -35.5811,-0.64545 -20.58305,-12.74509 4.03271,-3.25353 6.02461,-5.8677 4.42641,-5.80922 -1.59821,0.0585 -6.73172,3.46833 -11.40803,7.57741 -12.60004,11.07225 -12.54404,25.81299 0.14483,37.99316 12.29803,11.80554 19.93105,23.66589 12.91403,20.06713 -2.5061,-1.28537 -1.797,-0.0922 1.57591,2.65124 3.37291,2.74361 5.65161,5.65808 5.06381,6.47667 -2.1806,3.03662 25.35107,49.23079 28.95108,48.5752 2.05631,-0.37459 3.61801,2.72447 3.47061,6.88665 -0.14752,4.16228 1.08161,7.56775 2.73111,7.56775 1.64951,0 2.06031,1.51353 0.91275,3.36342 -1.1475,1.84989 -0.38795,3.36342 1.68791,3.36342 2.0759,0 2.91491,1.3854 1.8646,3.07867 -3.42071,5.5145 15.05205,23.82929 24.03607,23.82929 5.19142,0 7.88672,-1.59643 7.02812,-4.16268 -1.9357,-5.7859 21.65906,-13.80818 24.96007,-8.48666 1.32321,2.13305 0.92238,6.63986 -0.89064,10.01513 -4.64501,8.64747 -0.44605,14.17184 6.59992,8.68374 5.01641,-3.90742 5.11901,-3.74751 0.97403,1.51841 -3.57181,4.5377 -3.72761,6.97314 -0.68006,10.63187 4.71321,5.65827 -0.0348,9.67897 -7.88552,6.67742 -3.01571,-1.15306 -5.36842,-0.33399 -5.36842,1.86932 0,2.15696 -1.7538,2.84184 -3.89741,1.5219 -2.46211,-1.51612 -2.97911,-0.91944 -1.4038,1.62003 1.4293,2.30422 5.43441,3.08993 9.38392,1.84103 4.59442,-1.45285 6.12062,-0.93807 4.58042,1.54491 -1.31171,2.11452 -0.0355,3.7238 2.9531,3.7238 2.89461,0 5.26302,-1.72505 5.26302,-3.83349 z m 42.82012,-53.78802 c 8.79302,-0.4096 8.61982,-0.6285 -2.30991,-2.92065 l -11.81503,-2.47788 12.09703,-0.44276 c 6.65322,-0.24351 12.88104,-1.22379 13.83904,-2.17838 2.85481,-2.84433 -6.04121,-32.6827 -13.52204,-45.35307 -10.07902,-17.07216 -17.66405,-70.0392 -19.98905,-139.58621 -1.41771,-42.41488 -2.87681,-57.31903 -4.87332,-49.77679 -1.5674,5.92111 -4.58411,11.83345 -6.70391,13.13864 -2.75501,1.69646 -3.03581,0.0653 -0.98453,-5.72044 1.57831,-4.45152 2.73511,-17.00939 2.57081,-27.90728 -0.1904,-12.61557 0.78113,-18.11433 2.67421,-15.13529 1.6352,2.57273 2.99641,3.08843 3.02481,1.14608 0.0827,-5.63914 -7.47623,-11.60429 -14.70505,-11.60429 -13.58703,0 -25.22007,19.3179 -15.30804,25.42143 2.03151,1.251 2.93591,6.22409 2.00971,11.05132 -0.97211,5.06666 1.0341,14.08516 4.74581,21.33448 7.75002,15.13529 8.09672,18.39031 1.3661,12.82479 -6.02061,-4.97837 -5.96291,-5.60367 -1.587,17.1987 4.65421,24.25273 13.38504,111.22062 13.39504,133.41891 0.003,9.77134 -2.02251,22.63668 -4.50362,28.58977 -2.4811,5.95269 -5.54831,14.98584 -6.81601,20.07312 -2.03411,8.16275 -1.35111,9.24945 5.81311,9.24945 4.46491,0 12.03304,2.02375 16.81805,4.49725 6.91412,3.57395 7.85962,5.38478 4.60571,8.82033 -3.31841,3.50361 -2.69681,3.60753 3.27911,0.54798 4.05551,-2.07636 11.65103,-3.97437 16.87905,-4.21798 z M 153.82039,584.41884 c 2.44161,3.84285 3.02751,3.62595 3.06931,-1.13652 0.0283,-3.23728 2.71021,-6.06059 5.95942,-6.27401 3.24921,-0.21324 7.42682,-0.73962 9.28352,-1.16949 1.85671,-0.42978 5.27472,-1.01198 7.59562,-1.29374 7.07112,-0.85846 4.73242,-8.97985 -5.06381,-17.58428 l -9.28353,-8.15408 8.43963,9.69152 c 8.05942,9.25504 8.09582,9.4827 0.80624,5.0535 -4.19831,-2.55091 -8.48532,-7.31258 -9.52663,-10.58105 -1.0718,-3.36462 -3.61861,-4.95835 -5.87001,-3.67338 -2.18721,1.24841 -2.87201,1.05263 -1.52171,-0.43516 1.35031,-1.48772 -2.0678,-7.83725 -7.59562,-14.11006 -5.52792,-6.27281 -10.05103,-12.95532 -10.05103,-14.85034 0,-1.89473 -1.3476,-2.61517 -2.99471,-1.60091 -1.6471,1.01427 -2.9269,-0.0303 -2.844,-2.32404 0.82189,-22.73831 -1.39251,-36.12105 -5.97672,-36.12105 -2.78511,0 -5.06382,-1.30689 -5.06382,-2.90421 0,-1.59732 -3.41801,-2.67117 -7.59562,-2.38632 -8.15802,0.55624 -8.55932,6.6556 -1.0119,15.38139 2.40021,2.77488 6.17612,8.8291 8.39082,13.45348 3.42401,7.15008 2.44231,6.72435 -6.55821,-2.84374 -5.82172,-6.18872 -11.29304,-10.54618 -12.15904,-9.68415 -2.78341,2.77319 6.30352,19.11365 9.52583,17.12995 1.7094,-1.05263 2.62661,0.85287 2.0382,4.23431 -0.58836,3.38146 0.44938,6.31277 2.30611,6.51403 7.79722,0.84531 15.19104,5.87647 15.19104,10.33695 0,2.63271 3.90141,14.02239 8.66973,25.30984 5.49161,12.99915 7.49102,21.69714 5.45421,23.72667 -1.7685,1.76201 -2.283,6.48154 -1.1433,10.4874 2.01721,7.0909 2.10451,7.06898 3.29181,-0.82889 0.93851,-6.24273 1.9153,-7.01817 4.23731,-3.36342 z m 425.1012,-56.44225 c 0,-2.42129 -1.51911,-4.4023 -3.37581,-4.4023 -1.85671,0 -3.37581,-2.90102 -3.37581,-6.44667 0,-3.54565 -1.89891,-7.21006 -4.21982,-8.14313 -2.7299,-1.09746 -2.3147,-1.79021 1.17581,-1.96198 3.05581,-0.15034 7.74622,-6.22747 10.81603,-14.01341 3.04111,-7.71341 6.95342,-12.80388 8.91302,-11.59732 2.15941,1.32971 2.64411,-0.0525 1.26981,-3.62087 -1.49811,-3.88948 -0.94767,-4.98635 1.6879,-3.36342 2.52971,1.55777 3.22161,0.6188 1.95931,-2.65871 -1.07341,-2.78685 1.0889,-10.81121 4.80511,-17.83237 3.71611,-7.02125 7.59242,-15.38935 8.61403,-18.59555 1.0519,-3.30105 3.92021,-5.04065 6.61341,-4.01104 5.99912,2.29356 9.62543,-6.69864 6.96322,-17.26644 -2.8961,-11.49669 -13.09603,-5.31365 -18.31905,11.10512 -9.05382,28.45925 -33.39309,62.61752 -54.56315,76.57614 -13.83404,9.12123 -15.43605,15.63246 -4.21681,17.13294 14.40004,1.92631 35.6451,11.07623 26.28607,11.32133 -2.31931,0.0609 -3.13421,3.03443 -2.00761,7.32653 1.81401,6.91146 2.09271,6.9564 6.43562,1.03888 2.49671,-3.40188 4.53952,-8.16644 4.53952,-10.58803 z m -81.65823,-74.19391 c -0.50406,-23.23847 -0.89599,-25.31482 -1.86301,-9.86828 -0.79302,12.66638 -2.57611,19.11365 -5.05841,18.28868 -2.10861,-0.70027 -4.50552,-3.28122 -5.32662,-5.73548 -0.88993,-2.66001 0.0473,-3.51377 2.32091,-2.11382 2.58761,1.59333 3.81381,-1.90579 3.81381,-10.88394 0,-17.7407 3.78771,-35.66772 6.58372,-31.16131 1.2402,1.99935 5.03911,-10.36584 8.44212,-27.47686 3.40291,-17.11201 8.08142,-35.81318 10.39703,-41.56003 6.16192,-15.29271 2.77991,-26.9229 -9.27573,-31.89859 -9.01982,-3.72249 -10.58303,-3.47351 -13.76503,2.19204 -1.97441,3.51516 -3.22231,13.29207 -2.77301,21.72603 0.84926,15.94232 -12.73304,76.76146 -20.79606,93.12423 -2.54471,5.16389 -4.05371,12.4163 -3.35341,16.11568 0.90901,4.80252 0.40442,5.46668 -1.76381,2.32185 -2.3376,-3.39052 -4.27241,-2.5266 -8.40082,3.7511 -4.15761,6.32203 -4.46441,9.12561 -1.3642,12.46811 3.14461,3.39002 2.86251,3.91708 -1.31951,2.46552 -3.84731,-1.33528 -5.17611,0.15641 -4.80241,5.39096 0.42815,5.99683 2.78611,7.32115 13.75904,7.72696 l 13.24204,0.48982 -13.50304,-2.32823 -13.50304,-2.32823 13.78004,-4.41076 c 13.12304,-4.20054 14.23304,-3.99271 23.28006,4.36105 5.22482,4.82444 10.03703,8.77171 10.69503,8.77171 0.65726,0 0.90774,-13.24325 0.55669,-29.43067 z m -225.75064,-6.48603 c 3.63951,-3.10487 5.98162,-6.67005 5.20452,-7.92274 -0.77709,-1.25269 2.3477,-1.56135 6.94402,-0.68597 4.59621,0.87541 10.31002,-0.0235 12.69603,-1.99655 3.20541,-2.65055 5.37412,-1.93767 8.29842,2.72776 2.51071,4.00555 2.73771,6.9267 0.62049,7.9854 -1.83621,0.91812 -1.53441,1.32244 0.67074,0.89838 4.51781,-0.86874 6.71492,-10.51729 4.00001,-17.56634 -0.98797,-2.56506 -3.41441,-3.66751 -5.39202,-2.44969 -2.2768,1.40194 -2.7804,0.0969 -1.3728,-3.5575 1.2294,-3.19196 0.83562,-4.9174 -0.88099,-3.86039 -1.70711,1.05123 -4.07341,0.34834 -5.25832,-1.56186 -1.185,-1.91026 -3.42691,-2.6896 -4.98221,-1.73192 -1.55521,0.95767 -2.04491,-1.24133 -1.0881,-4.88661 0.95678,-3.64529 0.11646,-11.26654 -1.86741,-16.93666 -2.60281,-7.43912 -2.57861,-9.67599 0.0871,-8.03453 2.53661,1.56195 3.04971,-1.30022 1.63771,-9.13428 -1.13101,-6.2749 -3.06631,-30.32837 -4.30062,-53.45226 l -2.2442,-42.04324 -15.01905,1.20317 c -12.80203,1.02562 -14.77204,2.14321 -13.34703,7.57242 0.91944,3.50311 0.29437,5.52098 -1.38931,4.4843 -4.59271,-2.82799 -3.46571,5.79856 2.00271,15.32957 2.91981,5.08897 4.89211,6.41689 4.99581,3.36342 0.15225,-4.48459 0.5349,-4.48459 3.44381,0 4.32542,6.66856 4.25461,11.02841 -0.13537,8.32536 -2.3138,-1.42475 -2.68941,1.08839 -1.1014,7.36928 1.3254,5.2422 2.52561,24.95813 2.66721,43.81472 0.14246,18.95025 1.4208,31.73619 2.8586,28.58977 1.72991,-3.78656 2.02801,-2.87721 0.89005,2.71501 -0.94112,4.62478 -1.73191,10.38976 -1.75721,12.81184 -0.027,2.42159 -1.3694,3.588 -2.98681,2.59206 -3.1736,-1.95421 -7.81362,24.58949 -5.07121,29.01122 2.34031,3.77281 3.69221,3.41343 11.17603,-2.97107 l 6e-5,0 z m 142.7604,-7.6618 c -0.51015,-4.53789 -2.6275,-9.29748 -4.70531,-10.57707 -2.07781,-1.27939 -5.81512,-8.15657 -8.30522,-15.28274 -5.61212,-16.06089 -5.60922,-17.88717 0.0169,-10.50633 3.74291,4.91032 4.77811,-2.40684 6.66171,-47.08868 1.22661,-29.0959 3.15991,-60.56607 4.29632,-69.93259 l 2.0662,-17.03032 -13.61904,0.21327 c -7.49062,0.11729 -14.62504,1.21563 -15.85304,2.44082 -1.2287,1.22509 -2.41181,28.75317 -2.62901,61.17383 -0.23124,34.49703 -1.6705,58.16093 -3.47041,57.05301 -1.7794,-1.09577 -2.1257,2.88996 -0.82174,9.45818 1.66541,8.38853 1.3325,10.03507 -1.2752,6.30689 -2.49631,-3.56887 -3.54411,-3.78397 -3.58071,-0.73533 -0.027,2.37048 2.2658,5.19598 5.09821,6.27889 3.77501,1.44329 4.18781,3.12401 1.54611,6.29543 -1.98211,2.37954 -4.95192,9.00984 -6.59972,14.73377 -2.73721,9.509 -2.45261,10.11776 3.29571,7.05284 9.03432,-4.81727 24.23306,-3.94687 31.89609,1.82658 6.03701,4.54846 5.18281,4.83271 -10.12703,3.37039 -13.16504,-1.25737 -14.56704,-0.97809 -6.59312,1.31337 17.03205,4.89468 23.75707,3.00912 22.70306,-6.36557 l 2.8e-4,0 z m 219.66062,-53.11051 c 0.96553,-5.08718 2.77041,-13.03303 4.01071,-17.65801 l 2.25531,-8.40864 -5.84582,8.83647 c -3.21521,4.86001 -10.45603,11.54949 -16.09004,14.86528 -9.35623,5.50654 -9.67603,6.2505 -3.68941,8.5852 12.54203,4.8914 17.55605,3.28033 19.35905,-6.2204 z m 25.28107,-37.31964 c 0.71453,-2.13573 -1.1958,-3.8831 -4.24511,-3.8831 -3.04941,0 -4.79331,-1.21065 -3.87551,-2.6903 0.91782,-1.47965 -1.27661,-4.52295 -4.87662,-6.76291 -3.60001,-2.23995 -6.29881,-2.92125 -5.99741,-1.51402 0.30146,1.40722 -0.6227,5.22656 -2.05361,8.48745 -3.76791,8.587 3.64161,16.18244 12.57404,12.89056 3.94601,-1.45435 7.75922,-4.39174 8.47372,-6.52738 z M 526.83444,286.18666 c -1.4196,-5.63526 -0.95482,-7.93041 1.322,-6.52837 3.26271,2.0091 5.44792,-20.23751 4.53302,-46.14814 -0.19986,-5.66196 1.047,-8.38833 3.2235,-7.04806 2.07501,1.2777 2.54891,0.57258 1.14081,-1.69745 -4.89982,-7.89893 -10.71003,-3.44133 -16.43005,12.60361 -3.23251,9.06792 -5.00461,18.75297 -3.93811,21.52178 1.0666,2.76921 0.0584,6.19321 -2.24041,7.6087 -2.9978,1.8459 -3.53781,0.75329 -1.9098,-3.86408 2.1243,-6.02483 1.9747,-6.06 -2.33321,-0.54781 -2.62221,3.35535 -3.84441,9.86868 -2.84001,15.1353 1.54431,8.09779 1.10431,8.70336 -3.54421,4.87784 -3.80981,-3.13526 -5.96381,-3.30932 -7.63392,-0.61709 -1.2796,2.06281 -1.7946,4.10918 -1.1445,4.54756 5.70932,3.84963 19.54905,8.43306 26.02307,8.61818 6.90782,0.1975 7.67182,-0.92267 5.77242,-8.46285 z M 280.59375,250.72718 c -1.16041,-5.78093 -2.13321,-12.97026 -2.16161,-15.9762 -0.0449,-4.7537 -0.47225,-4.8084 -3.28021,-0.42043 -2.1986,3.43575 -2.56811,0.75331 -1.1584,-8.40865 1.1385,-7.39957 0.79467,-12.27084 -0.76419,-10.82615 -1.55881,1.44548 -4.75832,-0.82489 -7.10992,-5.04523 -3.98632,-7.15407 -4.28372,-6.69117 -4.39522,6.84251 -0.0658,7.98372 -1.7679,17.58428 -3.78251,21.33447 -2.0146,3.7505 -2.7452,10.4615 -1.6236,14.91411 1.6826,6.67922 4.16881,8.0954 14.21204,8.0954 11.83303,0 12.11403,-0.29329 10.06303,-10.51031 z m 135.11038,-16.39964 c 3.35431,-49.66121 3.60071,-57.77734 1.6744,-55.13008 -5.07081,6.96656 -10.62103,4.28503 -10.62103,-5.13151 0,-5.39554 1.89891,-10.57308 4.21981,-11.50665 2.44811,-0.98421 1.65581,-1.80794 -1.8872,-1.96198 -3.72181,-0.16181 -5.16622,-1.78214 -3.69821,-4.14863 1.37,-2.20847 0.9375,-2.97714 -1.00281,-1.78244 -1.8974,1.1683 -2.7321,9.23661 -1.8806,18.17809 1.0692,11.22668 -0.60451,21.65829 -5.54792,34.57574 -3.89341,10.17455 -7.07972,21.14816 -7.08062,24.38524 -9.2e-4,3.23729 -1.7107,5.50763 -3.79951,5.04523 -2.0888,-0.46247 -4.57481,1.29225 -5.52441,3.89945 -1.14061,3.13137 -0.0341,4.09323 3.26001,2.83377 2.7426,-1.04854 7.12752,-0.51929 9.74422,1.17617 2.61671,1.69546 8.49063,2.6906 13.05304,2.21136 6.88242,-0.72288 8.43102,-2.87671 9.09063,-12.64346 z m 115.96032,-25.05876 c 0,-2.68293 2.65851,-6.57092 5.90772,-8.64 5.20461,-3.3143 5.00381,-3.57176 -1.68791,-2.16374 -4.17761,0.87904 -7.59562,0.0411 -7.59562,-1.86214 0,-2.04856 -2.066,-1.75206 -5.06381,0.72671 -7.49782,6.19978 -6.43212,16.8171 1.6879,16.8171 3.71341,0 6.75172,-2.19512 6.75172,-4.87804 z m 13.95104,-38.99946 c -0.53089,-7.32573 0.77245,-18.56566 2.89631,-24.97706 2.47111,-7.46014 2.72821,-13.67567 0.71389,-17.26147 -2.85441,-5.08189 -3.83101,-4.92308 -10.48303,1.70473 -5.85111,5.82964 -6.89402,9.65396 -5.15331,18.89844 1.6068,8.53349 0.36608,14.65605 -4.70502,23.21953 l -6.88721,11.63019 10.74203,1.06558 c 5.90781,0.58608 11.43903,0.60982 12.29203,0.0527 0.85273,-0.55707 1.116,-7.00671 0.58517,-14.33225 l 0,4e-5 z m -265.17074,-12.1154 c -1.08101,-2.80677 -1.96551,-10.27718 -1.96551,-16.5999 0,-15.04363 -8.57252,-15.48202 -11.08603,-0.56578 -1.0133,6.01217 -2.80421,13.34787 -3.97981,16.301 -1.67051,4.19675 0.17081,5.43499 8.42992,5.66893 8.12662,0.2302 10.11303,-0.87933 8.60193,-4.80381 z m 150.68042,-40.17911 c 0.86101,-10.34493 3.37921,-19.925662 5.59612,-21.290638 5.64171,-3.474013 0.95726,-13.716513 -6.27332,-13.716513 -3.28741,0 -7.86832,2.270344 -10.18003,5.045131 -2.43071,2.918059 -2.75481,5.04513 -0.76888,5.04513 4.56361,0 -0.26804,21.16808 -7.25752,31.79696 -4.90972,7.46572 -4.87012,8.21985 0.50563,9.62428 15.49304,4.0475 16.76205,2.90809 18.37805,-16.50425 z m -81.74923,786.40543 c -8.35522,-2.83029 -15.69804,-6.42326 -16.31705,-7.98461 -0.61892,-1.56126 -2.9909,-2.83866 -5.27121,-2.83866 -5.12151,0 -18.92205,-12.47906 -18.92205,-17.11002 0,-1.86673 6.76282,1.24183 15.02804,6.90798 8.26572,5.66614 21.93806,13.25321 30.38208,16.85894 8.44473,3.60653 15.35405,7.36788 15.35405,8.35864 0,2.37306 -2.24171,1.90897 -20.25506,-4.19277 z"
                             style="fill:#93d8eb;fill-opacity:1;stroke:#000000;stroke-width:0.99816608px"
                             sodipodi:nodetypes="csssssccssssscccccssssccccsssscccccssssssssscccsssssssssssssssssssssssssssssssssssssssssssssssssssssssssssssssssssssssssssssssssssssssscsssssssssssssssssssssssssssssssssscccsssssssssssssssssssssssssssscccccsssssscccssssssssscccsssssccccccccsccssssssssssscccssssssssssssssssssssssssssssssssssssssssssssssssscccscccssccsssssssssssssssssssssssssssssssscccssssssssssssssssssssssssssssssssssssssssssscccssssssccsssssccccccsssssssssscccssssssssssssssssssssssssssssssssscccccssssssssssssssscssssssccsssscccsssssssssssssssssssssssccsssssssssssssssssssccsssssssssssssssssscccccssccsssssssssssssssscccssssssssssssscccsssscccsssssssssssssccccccssccssssssccssssssssssssssccsssssssssccssssssssssssssccsssssccsssscccscccssssccssssssccssssssc"
                             id="path3502"
                             inkscape:connector-curvature="0" />
                        </g>
                      </g>
                    </g>
                    <g
                       style="fill:#ffffff"
                       transform="matrix(-0.0337437,0.0264089,-0.03151557,-0.03108216,908.85141,746.56617)"
                       id="g7589"
                       inkscape:label="xray hand" />
                    <g
                       transform="matrix(-0.0547633,0.04285951,-0.0511472,-0.05044383,934.99899,738.08458)"
                       inkscape:label="Ebene 1"
                       id="layer1-5" />
                  </g>
                </g>
              </g>
            </g>
          </g>
        </g>
      </g>
    </g>
  </g>
</svg>
