<svg xmlns="http://www.w3.org/2000/svg" width="600" height="700" viewBox="0 0 600 700">
<style>text {font-family: "Noto Sans", "Open Sans", "Droid Sans", Oxygen, sans-serif;}</style>
<g class="Ray"><line x1="81.51" y1="24.32" x2="81.51" y2="125.94" style="stroke: black;"></line><g transform="translate(0.00 -558.90) rotate(-270.00 81.51 634.03)"><polyline points="74.51,641.03 81.51,634.03 74.51,627.03" style="stroke: black;"></polyline></g></g><g class="Ray"><line x1="81.51" y1="125.94" x2="81.51" y2="227.56" style="stroke: black;"></line><g transform="translate(0.00 -457.28) rotate(-270.00 81.51 634.03)"><polyline points="74.51,641.03 81.51,634.03 74.51,627.03" style="stroke: black;"></polyline></g></g><g class="Ray"><line x1="81.51" y1="227.56" x2="81.51" y2="308.85" style="stroke: black;"></line><g transform="translate(0.00 -353.63) rotate(-270.00 81.51 634.03)"><polyline points="74.51,641.03 81.51,634.03 74.51,627.03" style="stroke: black;"></polyline></g></g><g class="Ray"><line x1="81.51" y1="471.44" x2="81.51" y2="573.06" style="stroke: black;"></line><g transform="translate(0.00 -101.62) rotate(-270.00 81.51 634.03)"><polyline points="74.51,641.03 81.51,634.03 74.51,627.03" style="stroke: black;"></polyline></g></g><g class="Ray"><line x1="81.51" y1="430.79" x2="275.28" y2="430.79" style="stroke: black;"></line><g transform="translate(96.89 -203.24)"><polyline points="74.51,641.03 81.51,634.03 74.51,627.03" style="stroke: black;"></polyline></g></g><g class="Ray"><line x1="275.28" y1="430.79" x2="469.05" y2="430.79" style="stroke: black;"></line><g transform="translate(290.66 -203.24)"><polyline points="74.51,641.03 81.51,634.03 74.51,627.03" style="stroke: black;"></polyline></g></g><g class="Ray"><line x1="275.28" y1="471.44" x2="275.28" y2="573.06" style="stroke: black;"></line><g transform="translate(193.77 -101.62) rotate(-270.00 81.51 634.03)"><polyline points="74.51,641.03 81.51,634.03 74.51,627.03" style="stroke: black;"></polyline></g></g><g class="Ray"><line x1="275.28" y1="573.06" x2="275.28" y2="674.68" style="stroke: black;"></line><g transform="translate(193.77 -10.16) rotate(-270.00 81.51 634.03)"><polyline points="74.51,641.03 81.51,634.03 74.51,627.03" style="stroke: black;"></polyline></g></g><g class="Ray"><line x1="469.05" y1="344.42" x2="275.28" y2="344.42" style="stroke: black;"></line><g transform="translate(290.66 -289.61) rotate(-180.00 81.51 634.03)"><polyline points="74.51,641.03 81.51,634.03 74.51,627.03" style="stroke: black;"></polyline></g></g><line x1="469.05" y1="344.42" x2="469.05" y2="430.79" style="stroke: black;"></line><line x1="275.28" y1="430.79" x2="275.28" y2="344.42" style="stroke: black;"></line><line x1="275.28" y1="674.68" x2="585.31" y2="674.68" style="stroke: black;"></line><line x1="585.31" y1="308.85" x2="81.51" y2="308.85" style="stroke: black;"></line><g class="Ray"><line x1="585.31" y1="674.68" x2="585.31" y2="308.85" style="stroke: black;"></line><g transform="translate(503.80 -142.26) rotate(-90.00 81.51 634.03)"><polyline points="74.51,641.03 81.51,634.03 74.51,627.03" style="stroke: black;"></polyline></g></g><g class="Ray"><line x1="81.51" y1="308.85" x2="81.51" y2="369.82" style="stroke: black;"></line><g transform="translate(0.00 -294.69) rotate(-270.00 81.51 634.03)"><polyline points="74.51,641.03 81.51,634.03 74.51,627.03" style="stroke: black;"></polyline></g></g><circle r="5.00" cx="81.51" cy="308.85" style="fill: white; stroke: black;"></circle><g transform="translate(-0.00 -609.71)"><ellipse rx="67.82" ry="20.32" cx="81.51" cy="634.03" style="fill: white; stroke: black;"></ellipse><g transform="translate(-0.00 1.14)"><text x="81.51" y="634.03" style="font-size: 14px; dominant-baseline: middle; text-anchor: middle;">Start</text></g></g><g transform="translate(-0.00 -508.09)"><polygon points="23.86,613.71 159.50,613.71 139.15,654.35 3.52,654.35" style="fill: white; stroke: black;"></polygon><g transform="translate(-0.00 -8.86)"><text x="81.51" y="634.03" style="font-size: 14px; dominant-baseline: middle; text-anchor: middle;">INPUT a whole</text><text x="81.51" y="654.03" style="font-size: 14px; dominant-baseline: middle; text-anchor: middle;">number as <tspan style="fill: red; font-weight: bold;">num</tspan></text></g></g><g transform="translate(-0.00 -406.48)"><rect width="135.64" height="40.65" x="13.69" y="613.71" style="fill: white; stroke: black;"></rect><g transform="translate(-0.00 1.14)"><text x="81.51" y="634.03" style="font-size: 14px; dominant-baseline: middle; text-anchor: middle;">SET <tspan style="fill: red; font-weight: bold;">factor</tspan> = 2</text></g></g><g transform="translate(-0.00 -203.24)"><g transform="rotate(-45.00 81.51 634.03)"><rect width="102.76" height="102.76" x="30.13" y="582.65" style="fill: white; stroke: black;"></rect></g><g transform="translate(-0.00 1.14)"><text x="81.51" y="634.03" style="font-size: 14px; dominant-baseline: middle; text-anchor: middle;"><tspan style="fill: red; font-weight: bold;">num</tspan> &gt; 1?</text></g></g><g transform="translate(193.77 -203.24)"><g transform="rotate(-45.00 81.51 634.03)"><rect width="102.76" height="102.76" x="30.13" y="582.65" style="fill: white; stroke: black;"></rect></g><g transform="translate(-0.00 -8.86)"><text x="81.51" y="634.03" style="font-size: 14px; dominant-baseline: middle; text-anchor: middle;"><tspan style="fill: red; font-weight: bold;">num</tspan> รท <tspan style="fill: red; font-weight: bold;">factor</tspan></text><text x="81.51" y="654.03" style="font-size: 14px; dominant-baseline: middle; text-anchor: middle;">has a remainder?</text></g></g><g transform="translate(193.77 -60.97)"><polygon points="23.86,613.71 159.50,613.71 139.15,654.35 3.52,654.35" style="fill: white; stroke: black;"></polygon><g transform="translate(-0.00 1.14)"><text x="81.51" y="634.03" style="font-size: 14px; dominant-baseline: middle; text-anchor: middle;">PRINT <tspan style="fill: red; font-weight: bold;">factor</tspan></text></g></g><g transform="translate(193.77 40.64)"><rect width="135.64" height="40.65" x="13.69" y="613.71" style="fill: white; stroke: black;"></rect><g transform="translate(-0.00 -8.86)"><text x="81.51" y="634.03" style="font-size: 14px; dominant-baseline: middle; text-anchor: middle;">SET <tspan style="fill: red; font-weight: bold;">num</tspan> =</text><text x="81.51" y="654.03" style="font-size: 14px; dominant-baseline: middle; text-anchor: middle;"><tspan style="fill: red; font-weight: bold;">num</tspan> รท <tspan style="fill: red; font-weight: bold;">factor</tspan></text></g></g><g transform="translate(387.54 -203.24)"><rect width="135.64" height="40.65" x="13.69" y="613.71" style="fill: white; stroke: black;"></rect><g transform="translate(-0.00 -8.86)"><text x="81.51" y="634.03" style="font-size: 14px; dominant-baseline: middle; text-anchor: middle;">SET <tspan style="fill: red; font-weight: bold;">factor</tspan> =</text><text x="81.51" y="654.03" style="font-size: 14px; dominant-baseline: middle; text-anchor: middle;"><tspan style="fill: red; font-weight: bold;">factor</tspan> + 1</text></g></g><g transform="translate(-0.00 -60.97)"><ellipse rx="67.82" ry="20.32" cx="81.51" cy="634.03" style="fill: white; stroke: black;"></ellipse><g transform="translate(-0.00 1.14)"><text x="81.51" y="634.03" style="font-size: 14px; dominant-baseline: middle; text-anchor: middle;">End</text></g></g><text x="178.39" y="410.47" style="font-size: 14px; dominant-baseline: middle; text-anchor: middle;">yes</text><text x="100.89" y="532.41" style="font-size: 14px; dominant-baseline: middle; text-anchor: middle;">no</text><text x="372.16" y="410.47" style="font-size: 14px; dominant-baseline: middle; text-anchor: middle;">yes</text><text x="294.66" y="532.41" style="font-size: 14px; dominant-baseline: middle; text-anchor: middle;">no</text>
</svg>